<svg preserveAspectRatio="none" width="100%" height="100%" overflow="visible" style="display: block;" viewBox="0 0 16 16" fill="none" xmlns="http://www.w3.org/2000/svg">
<g id="File-Copy-Line--Streamline-Remix">
<path id="Vector" d="M4.66653 4V2C4.66653 1.63181 4.96501 1.33333 5.3332 1.33333H13.3332C13.7014 1.33333 13.9999 1.63181 13.9999 2V11.3333C13.9999 11.7015 13.7014 12 13.3332 12H11.3332V13.9994C11.3332 14.3679 11.0333 14.6667 10.662 14.6667H2.67111C2.30039 14.6667 2 14.3703 2 13.9994L2.00173 4.66725C2.0018 4.29874 2.30176 4 2.67295 4H4.66653ZM3.33495 5.33333L3.33346 13.3333H9.99987V5.33333H3.33495ZM5.99987 4H11.3332V10.6667H12.6665V2.66667H5.99987V4Z" fill="var(--fill-0, white)"/>
</g>
</svg>
