<svg preserveAspectRatio="none" width="100%" height="100%" overflow="visible" style="display: block;" viewBox="0 0 24.7312 23.5827" fill="none" xmlns="http://www.w3.org/2000/svg">
<g id="Group 258">
<path id="Vector" d="M12.3315 0C16.3258 2.9938 20.6917 5.83187 24.7312 8.84818C23.1589 13.7757 21.5384 18.6874 19.8695 23.5827C17.5257 23.5304 15.0316 23.5732 12.6748 23.5756C10.0888 23.6027 7.50817 23.5354 4.91069 23.5742C4.62413 22.5033 4.07857 21.0275 3.71845 19.9519L1.49106 13.2831C1.00069 11.8321 0.409926 10.2193 0 8.7596C4.14753 5.8927 8.25829 2.9726 12.3315 0Z" fill="var(--fill-0, #E00000)"/>
<path id="Vector_2" d="M12.0574 15.6239C13.7845 15.4886 15.4342 16.3736 16.5452 17.6675C16.9091 18.0912 17.5367 18.8725 16.9367 19.379C16.4854 19.7785 16.0364 19.2572 15.7851 18.8821C14.9614 17.6553 14.1883 17.219 12.7194 16.9932C9.37108 16.8673 9.24849 19.2071 8.28689 19.4925C8.12521 19.5404 7.94362 19.5383 7.80264 19.4366C7.63867 19.3185 7.572 19.1826 7.55668 18.9813C7.5245 18.5464 7.93672 18.0173 8.198 17.6967C9.21707 16.4497 10.4614 15.7731 12.0574 15.6239Z" fill="var(--fill-0, #111111)"/>
<path id="Vector_3" d="M7.46443 10.4252C7.96623 9.68315 9.16879 9.54615 9.70196 10.266C9.98402 10.6468 10.1277 11.1712 10.1309 11.7141C10.1425 13.6442 7.15416 13.9391 7.05745 12.0114C7.0291 11.4463 7.1639 10.8696 7.46443 10.4252Z" fill="var(--fill-0, #111111)"/>
<path id="Vector_4" d="M14.6102 11.9184C14.6019 10.2347 17.1854 9.43395 17.6029 11.065C17.6293 11.1682 17.6495 11.2745 17.6635 11.3828C17.9178 13.3549 14.7969 14.14 14.6214 12.1593C14.6144 12.0796 14.6106 11.9991 14.6102 11.9184Z" fill="var(--fill-0, #111111)"/>
<path id="Vector_5" d="M9.00422 5.94423C9.41491 5.96065 9.5398 5.98177 9.76431 6.34188C9.85472 7.25406 8.67934 8.37177 8.0679 8.94473C7.3377 9.62979 6.44735 10.0106 5.51946 10.3442C5.10341 10.3977 4.91645 10.2634 4.76091 9.90032C4.75784 9.46366 5.02296 9.24409 5.39917 9.10717C7.49784 8.3424 7.74072 7.54039 9.00422 5.94423Z" fill="var(--fill-0, #111111)"/>
<path id="Vector_6" d="M15.3926 5.92752C15.5236 5.95065 15.7534 5.9905 15.8377 6.09203C16.5289 6.92535 16.8897 7.57332 17.7418 8.28197C18.4658 8.88377 19.1692 8.8877 19.7722 9.37594C20.0626 9.86163 19.8902 10.084 19.4949 10.3858C18.0406 10.1129 15.2761 8.27211 14.9742 6.55668C14.9298 6.30312 15.2056 6.0814 15.3926 5.92752Z" fill="var(--fill-0, #111111)"/>
</g>
</svg>
