<svg preserveAspectRatio="none" width="100%" height="100%" overflow="visible" style="display: block;" viewBox="0 0 24.7312 23.5386" fill="none" xmlns="http://www.w3.org/2000/svg">
<g id="Group 253">
<path id="Vector" d="M12.2641 0C12.5182 0.0186022 23.7049 8.0025 24.7312 8.77841C23.1654 13.7048 21.5515 18.6155 19.8896 23.5099L12.5664 23.5185C10.0479 23.5657 7.39183 23.5134 4.85773 23.5259C3.7796 20.1601 2.67268 16.8037 1.53713 13.4572C1.03555 11.9511 0.410591 10.2356 0 8.71922C1.04985 7.87651 2.67841 6.78697 3.81031 5.98692C6.64696 4.01816 9.46503 2.02242 12.2641 0Z" fill="var(--fill-0, #E00000)"/>
<path id="Vector_2" d="M6.95228 10.3382C7.22915 8.6731 9.56402 8.19369 10.0191 9.8192C10.1603 10.3236 10.1999 10.8961 10.1387 11.4529C9.93922 13.2655 7.42618 13.856 7.00344 12.0821C6.87276 11.5338 6.85576 10.9187 6.95228 10.3382Z" fill="var(--fill-0, #111111)"/>
<path id="Vector_3" d="M14.6596 10.3732C14.9314 8.68936 17.2826 8.20633 17.7294 9.85244C17.8698 10.3697 17.9052 10.9561 17.8328 11.5231C17.602 13.3324 15.0781 13.8079 14.6955 12.0245C14.5832 11.5014 14.5709 10.9228 14.6596 10.3732Z" fill="var(--fill-0, #111111)"/>
<path id="Vector_4" d="M7.73539 18.5132C6.72829 18.474 8.00614 17.1311 9.014 17.1289C10.5143 17.1257 12.0727 17.1709 13.5257 17.1395C14.0854 17.1273 15.844 17.112 16.7733 17.1592C17.0989 17.1757 17.4408 17.3235 17.4971 17.6446C17.5906 18.177 17.0115 18.5244 16.4713 18.5447C15.0195 18.5992 13.0655 18.4821 11.7961 18.5368C10.4438 18.526 9.08641 18.5658 7.73539 18.5132Z" fill="var(--fill-0, #111111)"/>
</g>
</svg>
