<svg preserveAspectRatio="none" width="100%" height="100%" overflow="visible" style="display: block;" viewBox="0 0 24.7312 23.7117" fill="none" xmlns="http://www.w3.org/2000/svg">
<g id="Group 246">
<path id="Vector" d="M12.324 0C12.5985 0.131339 14.2253 1.38866 14.6072 1.65134C18.0377 4.01467 21.3544 6.54853 24.7312 8.99481C23.1627 13.9097 21.5596 18.8137 19.9219 23.7063L12.6287 23.7117L4.86558 23.7048C3.38176 18.8652 1.56632 13.8106 0 8.95257C3.96848 5.94175 8.28053 2.9463 12.324 0Z" fill="var(--fill-0, #E00000)"/>
<path id="Vector_2" d="M6.21453 14.8098C6.37701 14.5882 6.73678 14.4277 6.91989 14.6326C8.07507 15.9222 9.0982 17.1204 10.8622 17.5582C12.7683 18.0313 15.0343 17.5152 16.459 16.1035C16.9432 15.6234 17.393 14.9237 17.9753 14.5766C18.134 14.5558 18.2538 14.562 18.3896 14.6565C19.1257 15.1703 17.872 16.4061 17.5028 16.8616L18.0556 17.9561C18.5025 19.1819 18.4218 20.6896 17.019 21.208C16.5061 21.3978 15.939 21.3732 15.4446 21.1389C14.509 20.6981 14.2143 19.857 13.9158 18.9599C11.0538 19.602 8.39981 18.3992 6.56844 16.1872C6.11072 15.6342 5.88713 15.2564 6.21453 14.8098Z" fill="var(--fill-0, #111111)"/>
<path id="Vector_3" d="M16.5027 17.6687C16.7035 17.5013 16.9837 17.4932 17.1215 17.7154C17.6224 18.5234 17.8032 19.7586 17.0552 20.3453C17.0208 20.3722 16.9844 20.3984 16.9455 20.4239C16.6668 20.609 16.3219 20.6628 16.0003 20.5714C15.4567 20.4232 15.1894 20.0501 14.9235 19.6085C14.8958 19.5624 14.8731 19.5135 14.8555 19.4628L14.7597 19.1872C14.6749 18.9431 14.7949 18.6752 15.0335 18.576C15.2622 18.4809 15.5211 18.5746 15.6374 18.7933C15.8158 19.1288 16.0207 19.4534 16.3713 19.5668C16.421 19.5829 16.4747 19.5706 16.5168 19.5398C16.5526 19.5136 16.5779 19.4752 16.586 19.4316C16.6706 18.9718 16.5471 18.6929 16.3552 18.3103C16.247 18.0947 16.3031 17.8352 16.4884 17.6807L16.5027 17.6687Z" fill="var(--fill-0, #E00000)"/>
<path id="Vector_4" d="M6.96455 9.57749C7.2729 7.99932 9.48926 7.52231 9.99396 9.04907C10.1888 9.63863 10.2421 10.3378 10.1525 11.0035C9.91071 12.7978 7.42825 13.2445 7.00196 11.4848C6.85601 10.8823 6.84209 10.2042 6.96455 9.57749Z" fill="var(--fill-0, #111111)"/>
<path id="Vector_5" d="M14.6269 10.0236C14.8285 8.18436 17.3589 7.55268 17.7763 9.35527C17.8947 9.86633 17.9162 10.4353 17.8413 10.9829C17.6039 12.7174 15.192 13.3448 14.737 11.6543C14.6017 11.1515 14.5658 10.5808 14.6269 10.0236Z" fill="var(--fill-0, #111111)"/>
</g>
</svg>
