<svg preserveAspectRatio="none" width="100%" height="100%" overflow="visible" style="display: block;" viewBox="0 0 24.7313 23.4768" fill="none" xmlns="http://www.w3.org/2000/svg">
<g id="Group 224">
<path id="Vector" d="M12.2964 8.01086e-05C12.5519 0.0735287 14.3243 1.36439 14.7114 1.63439C18.0541 3.96799 21.4888 6.32416 24.7312 8.79601C23.4978 13.3488 21.4539 18.9247 19.9194 23.4482L12.4439 23.4549C10.0165 23.5033 7.3371 23.4585 4.89576 23.4436C3.18174 18.7913 1.57395 13.4978 0 8.7547C3.71151 5.8801 8.41695 2.75777 12.2964 8.01086e-05Z" fill="var(--fill-0, #E00000)"/>
<path id="Vector_2" d="M7.24263 17.6805C6.76127 16.6282 7.74227 15.6187 8.89949 15.6255C11.1996 15.6389 13.4997 15.6406 15.7999 15.6305C16.9983 15.6252 18.0175 16.7104 17.4866 17.7848C17.2523 18.2588 16.932 18.7091 16.4874 19.2102C15.4578 20.1934 14.2298 20.7233 12.8094 20.8065C11.2163 20.9128 9.64785 20.3719 8.45455 19.3052C7.91108 18.8175 7.51539 18.2769 7.24263 17.6805Z" fill="var(--fill-0, #111111)"/>
<path id="Vector_3" d="M6.05367 8.18377C6.09183 8.13237 6.15282 8.09912 6.2167 8.10332C6.61789 8.12964 10.4679 10.344 10.7827 10.7067C10.896 10.8368 10.9287 10.9941 10.8952 11.1653C10.7918 11.6933 7.6572 13.2303 7.04227 13.5762C6.84862 13.6821 6.68566 13.7941 6.50479 13.8493C6.32294 13.9047 6.11317 13.8711 5.97887 13.7366C5.85204 13.6095 5.79161 13.4096 5.85253 13.2407C6.15937 12.3901 8.407 11.4215 9.09877 11.0267C8.13527 10.4753 7.16226 9.93357 6.21913 9.34866C5.60569 8.96814 5.70903 8.64801 6.05367 8.18377Z" fill="var(--fill-0, #111111)"/>
<path id="Vector_4" d="M17.884 8.36901C18.1816 8.19509 18.5756 8.02531 18.8256 8.26255C19.0357 8.46195 18.9752 8.8085 18.7823 9.02461C18.137 9.74756 16.3796 10.6483 15.7261 11.0334C16.3952 11.4561 18.5468 12.3706 18.9469 13.1786C19.0262 13.3388 19.002 13.5397 18.8839 13.6739C18.7656 13.8083 18.5777 13.8896 18.3997 13.8701C18.344 13.8639 18.2922 13.8474 18.2251 13.8216C18.1147 13.7791 18.0085 13.7259 17.9062 13.6665C16.869 13.0638 15.829 12.4875 14.7696 11.9236C13.9857 11.5062 14.1707 10.515 14.9388 10.0692C15.3889 9.80795 15.881 9.579 16.1862 9.3912C16.7359 9.05306 17.3154 8.70137 17.884 8.36901Z" fill="var(--fill-0, #111111)"/>
</g>
</svg>
