<svg preserveAspectRatio="none" width="100%" height="100%" overflow="visible" style="display: block;" viewBox="0 0 24.7312 23.5712" fill="none" xmlns="http://www.w3.org/2000/svg">
<g id="Group 251">
<path id="Vector" d="M12.3274 0L24.7312 8.8796C23.1872 13.7988 21.5707 18.6948 19.8825 23.5659L12.617 23.5708L4.89881 23.5712C3.24147 18.7077 1.72628 13.6847 0 8.86481C1.09417 7.99781 2.39379 7.13794 3.52829 6.31025C6.44214 4.18443 9.44898 2.17478 12.3274 0Z" fill="var(--fill-0, #E00000)"/>
<path id="Vector_2" d="M7.08298 15.968C7.22908 15.7667 7.56514 15.5519 7.74046 15.7283C8.88744 16.9046 9.34098 18.096 11.1345 18.5829C12.7642 18.9931 14.7078 18.5806 15.8498 17.2865C16.0069 17.1086 16.1819 16.8197 16.3779 16.5371C16.9571 15.7021 17.9524 16.2874 17.4886 17.1915C15.5046 20.5004 11.1453 21.1491 8.34556 18.4628C7.76666 17.9073 7.04998 17.1452 6.97557 16.3113C6.96377 16.179 7.01096 16.0672 7.08298 15.968Z" fill="var(--fill-0, #111111)"/>
<path id="Vector_3" d="M7.09172 9.99948C7.45929 8.70827 9.30123 8.2845 9.86973 9.5007C10.15 10.1004 10.256 10.8765 10.1807 11.6291C9.98887 13.5474 7.3256 14.0085 7.00276 12.1078C6.87665 11.3653 6.93063 10.5654 7.09172 9.99948Z" fill="var(--fill-0, #111111)"/>
<path id="Vector_4" d="M14.6752 10.5388C14.9624 8.86934 17.2662 8.3945 17.7237 10.0256C17.8957 10.6385 17.9259 11.3498 17.8051 12.0127C17.5064 13.6523 15.2084 14.1111 14.7594 12.5062C14.5905 11.9024 14.5617 11.1987 14.6752 10.5388Z" fill="var(--fill-0, #111111)"/>
</g>
</svg>
