<svg preserveAspectRatio="none" width="100%" height="100%" overflow="visible" style="display: block;" viewBox="0 0 30 30" fill="none" xmlns="http://www.w3.org/2000/svg">
<g id="Frame 210" clip-path="url(#clip0_1106_2941)">
<rect width="30" height="30" fill="white"/>
<path id="Vector" fill-rule="evenodd" clip-rule="evenodd" d="M0.803223 1.84393C0.803223 2.86179 1.63787 3.68732 2.66697 3.68732H18.1122C19.8725 3.68732 21.3222 4.22518 22.4611 5.30089C23.6 6.37661 24.1695 7.75929 24.1695 9.44947C24.1695 11.0116 23.6 12.292 22.4606 13.2905C21.3222 14.2639 19.8725 14.7504 18.1122 14.7504H11.3997C10.37 14.7504 9.53537 15.5754 9.53537 16.5943C9.53537 17.6121 10.37 18.4377 11.3997 18.4377H18.8118L25.49 29.0395C25.9041 29.6802 26.4865 30 27.237 30C28.0657 30 28.6481 29.6802 28.9845 29.0395C29.3209 28.3741 29.2561 27.6696 28.7906 26.9271L22.8495 17.4771C24.4545 16.7604 25.7231 15.7104 26.6547 14.3277C27.5868 12.9193 28.0529 11.2934 28.0529 9.44947C28.0529 7.57982 27.6254 5.94107 26.7715 4.53268C25.9432 3.12375 24.7786 2.02286 23.277 1.22893C21.7754 0.409286 20.0541 0 18.1122 0H2.66751C1.63787 0 0.803223 0.825 0.803223 1.84393Z" fill="var(--fill-0, #111111)"/>
</g>
<defs>
<clipPath id="clip0_1106_2941">
<rect width="30" height="30" fill="white"/>
</clipPath>
</defs>
</svg>
