<svg preserveAspectRatio="none" width="100%" height="100%" overflow="visible" style="display: block;" viewBox="0 0 30 30" fill="none" xmlns="http://www.w3.org/2000/svg">
<g id="Frame 209">
<rect width="30" height="30" fill="white"/>
<path id="Vector" d="M15.9688 0.0331876C18.5562 -0.1371 22.5456 0.345804 24.8893 1.5311C26.171 2.17933 27.416 3.23727 27.836 4.62145C30.1952 12.3965 13.8529 13.817 11.132 19.405C10.7504 20.1576 10.5985 21.1036 10.8641 21.9155C11.4973 23.8506 14.1294 24.1769 15.7861 23.5141C20.5202 21.6202 23.4228 16.034 25.5313 11.7444C25.9688 11.8034 26.9659 11.7782 27.454 11.7772L27.4585 29.4196L18.8686 29.4157C19.4039 27.7856 19.9266 26.6533 20.7705 25.1545C22.4946 22.0926 24.4043 19.1475 25.7884 15.9078C25.5188 15.7714 25.3012 15.7018 25.0162 15.6044C24.8238 16.1316 24.2084 17.2643 23.9283 17.8063C20.8631 23.8272 15.4751 30.9861 7.91946 29.8874C3.72223 29.2771 1.3341 25.6108 2.0603 21.5669C3.32619 14.5175 12.6981 12.6672 18.4021 10.764C20.4969 10.0701 22.7992 9.49477 24.6559 8.22893C27.3891 6.13934 25.1432 4.39745 22.6649 4.25972C21.0591 4.10301 19.3387 4.24529 17.7482 4.56318C13.3829 5.43568 8.01457 7.60397 4.54328 10.426C4.52763 7.63053 4.56425 4.82412 4.53178 2.02992C8.63127 0.774364 11.7294 0.251008 15.9688 0.0331876Z" fill="var(--fill-0, #111111)"/>
</g>
</svg>
