<svg preserveAspectRatio="none" width="100%" height="100%" overflow="visible" style="display: block;" viewBox="0 0 24.7312 23.7476" fill="none" xmlns="http://www.w3.org/2000/svg">
<g id="Group 239">
<path id="Vector" d="M12.2852 0C12.5165 0.0906345 14.6939 1.6576 14.9845 1.86429C18.2461 4.2067 21.4947 6.56649 24.7312 8.94366C23.9651 11.75 22.8413 14.9138 21.9192 17.6825C21.2748 19.6177 20.5567 21.8484 19.8499 23.7414L12.4823 23.7445L4.91516 23.7476C3.30652 18.9066 1.45382 13.7464 0 8.88701C0.911898 8.13223 2.21515 7.26309 3.21195 6.52653C6.22009 4.32803 9.24474 2.15242 12.2852 0Z" fill="var(--fill-0, #E00000)"/>
<path id="Vector_2" d="M10.72 15.7248C11.3734 14.8176 12.7445 14.5023 13.6256 15.1908C14.7792 16.0923 15.0295 18.0917 14.2063 19.4534C13.574 20.4991 12.046 20.887 11.0933 20.1216C9.89745 19.1608 9.76224 17.0547 10.72 15.7248Z" fill="var(--fill-0, #111111)"/>
<path id="Vector_3" d="M6.97685 10.936C6.98831 8.81055 9.95046 8.06796 10.2325 10.1747C10.3 10.6786 10.2774 11.2164 10.1663 11.7203C9.84344 13.185 7.80773 13.8351 7.24294 12.4456C7.06333 12.0037 6.97393 11.476 6.97685 10.936Z" fill="var(--fill-0, #111111)"/>
<path id="Vector_4" d="M14.7251 9.66821C15.0918 8.41575 16.8732 7.78221 17.4193 8.9675C17.818 9.8329 17.9617 11.0518 17.6688 12.0552C17.2919 13.3463 15.4324 13.794 14.87 12.5722C14.5001 11.7687 14.442 10.6354 14.7251 9.66821Z" fill="var(--fill-0, #111111)"/>
</g>
</svg>
