<svg preserveAspectRatio="none" width="100%" height="100%" overflow="visible" style="display: block;" viewBox="0 0 24.7312 23.6806" fill="none" xmlns="http://www.w3.org/2000/svg">
<g id="Group 229">
<path id="Vector" d="M12.2954 0C12.5559 0.0882687 14.7347 1.74772 15.1255 2.03171L24.7312 9.01185C24.2659 10.2883 23.8371 11.815 23.4047 13.1313C22.2435 16.6536 21.0647 20.1698 19.8684 23.6806L12.5428 23.676H4.8968L0 8.95351C0.814875 8.25811 2.19113 7.36391 3.07779 6.68616C6.0645 4.40422 9.34063 2.30496 12.2954 0Z" fill="var(--fill-0, #E00000)"/>
<path id="Vector_2" d="M3.76221 9.57008C3.46247 8.96928 4.26072 8.36802 4.93211 8.36092C7.12733 8.33769 9.36369 8.37608 11.5443 8.38129C14.2971 8.36387 17.0501 8.36341 19.8029 8.3804C20.4825 8.3846 21.3129 9.02944 20.9815 9.62279C20.6423 10.2302 19.8674 10.4669 19.7497 11.1526C19.4945 12.6399 18.7526 13.7873 16.984 14.0221C16.8737 14.0367 16.7602 14.0381 16.6495 14.027C14.6591 13.8273 13.8844 12.6364 13.5811 10.9934C13.4718 10.4017 12.9809 9.93753 12.3792 9.94301C11.7555 9.94869 11.2658 10.4565 11.1523 11.0698C11.0272 11.7452 10.7794 12.3968 10.3541 12.9359C9.85494 13.5807 9.11231 13.9883 8.30315 14.0619C7.5355 14.1303 6.6493 13.877 6.08037 13.3512C5.3656 12.6911 5.09495 11.9619 4.96713 11.1542C4.85805 10.4649 4.07377 10.1945 3.76221 9.57008Z" fill="var(--fill-0, #111111)"/>
<path id="Vector_3" d="M7.26542 15.5001C7.93154 15.5339 8.01491 15.7419 8.40931 16.2968C10.3315 19.004 13.8857 19.169 16.0739 16.6844C16.366 16.3529 16.7546 15.7396 17.1084 15.5316C18.0116 15.4264 17.7482 16.4058 17.4791 16.9086C17.3285 17.1181 17.1669 17.3415 17.0038 17.5403C15.9549 18.8274 14.4356 19.6357 12.7879 19.7831C10.6927 19.955 7.56644 18.4483 6.95189 16.0612C6.90268 15.8701 7.13207 15.6444 7.26542 15.5001Z" fill="var(--fill-0, #111111)"/>
</g>
</svg>
