<svg preserveAspectRatio="none" width="100%" height="100%" overflow="visible" style="display: block;" viewBox="0 0 24.7312 23.6643" fill="none" xmlns="http://www.w3.org/2000/svg">
<g id="Group 230">
<path id="Vector" d="M12.3439 0L24.7312 8.95755C24.1337 10.4724 20.0302 23.476 19.7836 23.5748C19.6481 23.6292 19.5233 23.597 19.3824 23.5794C19.081 23.5664 18.6799 23.581 18.3701 23.5825L17.0479 23.5909L16.0485 23.5947C14.0664 23.7027 11.6619 23.4929 9.75744 23.6323C9.07086 23.7089 8.17572 23.6277 7.46479 23.5993L6.10002 23.5764C5.73237 23.5672 5.43171 23.5947 5.06863 23.6238C4.72382 23.3573 3.76246 20.0917 3.53868 19.4415L0 8.89628L9.47504 2.05788C10.3953 1.40383 11.4191 0.611926 12.3439 0Z" fill="var(--fill-0, #E00000)"/>
<path id="Vector_2" d="M18.4015 14.3814C18.4078 14.2026 18.5328 14.0378 18.6958 13.964C19.0206 13.817 19.3947 14.0452 19.399 14.4017C19.4338 17.2568 19.4042 20.2105 19.3854 23.0671C19.3836 23.3471 19.1524 23.5722 18.8724 23.5758C18.5974 23.5793 18.3715 23.3581 18.3723 23.083C18.3806 20.2299 18.302 17.1969 18.4015 14.3814Z" fill="var(--fill-0, #111111)"/>
<path id="Vector_3" d="M5.11122 14.3399C5.12283 13.9889 5.49129 13.7712 5.80823 13.9226C5.98014 14.0046 6.08967 14.1781 6.08988 14.3686L6.09967 23.1114C6.09996 23.3663 5.88706 23.5705 5.63245 23.5833C5.34196 23.5979 5.10541 23.3494 5.12044 23.0589C5.16046 22.2853 5.11506 21.3409 5.12894 20.6533C5.17037 18.6308 5.04327 16.3943 5.11122 14.3399Z" fill="var(--fill-0, #111111)"/>
<path id="Vector_4" d="M7.46583 15.003C7.46905 14.7373 7.68452 14.5245 7.95023 14.5223C8.22975 14.5199 8.46268 14.7439 8.4628 15.0235L8.46634 23.4546C8.46637 23.5316 8.50794 23.5942 8.58502 23.5947C8.75139 23.5959 8.77173 23.6603 8.60546 23.6542C8.29961 23.643 7.99233 23.6243 7.70579 23.6099C7.57111 23.6032 7.46478 23.4924 7.46479 23.3575C7.4649 20.5999 7.43246 17.759 7.46583 15.003Z" fill="var(--fill-0, #111111)"/>
<path id="Vector_5" d="M16.036 14.9897C16.0355 14.6953 16.2944 14.4726 16.5867 14.5072C16.846 14.5378 17.0527 14.7521 17.0526 15.0131L17.0492 23.0923C17.0491 23.3677 16.8263 23.5912 16.5509 23.5923C16.2742 23.5934 16.0492 23.3696 16.0488 23.0929L16.036 14.9897Z" fill="var(--fill-0, #111111)"/>
<path id="Vector_6" d="M12.053 16.3069C13.6712 16.2081 14.9469 17.2964 15.2438 18.9323C15.2902 19.1865 15.2134 19.3772 15.0566 19.5725C14.2444 20.0443 13.8691 19.0762 12.6185 18.8679L12.5226 18.8534C11.1708 18.9062 11.2271 19.3075 10.1501 19.6384C8.81876 20.0481 9.24502 18.4306 9.74359 17.811C10.485 16.8897 10.8884 16.529 12.053 16.3069Z" fill="var(--fill-0, #111111)"/>
<path id="Vector_7" d="M5.31661 11.3097C5.45415 11.1978 5.65154 11.1873 5.82887 11.1867C6.91356 11.183 7.9988 11.1669 9.08338 11.1605C9.86637 11.1563 10.3707 11.8998 9.8959 12.5225C9.69738 12.7828 9.45081 13.0109 9.25084 13.1656C7.84267 14.0103 6.38275 13.4665 5.37344 12.2572C5.22986 12.0852 5.16188 11.9353 5.15287 11.7536C5.14477 11.5904 5.18989 11.4128 5.31661 11.3097Z" fill="var(--fill-0, #111111)"/>
<path id="Vector_8" d="M15.3035 13.1846C13.9646 12.4359 15.3496 11.1407 16.8836 11.1304C17.8885 11.1236 18.8491 11.1642 19.0637 11.3495C19.1901 11.4583 19.2769 11.6038 19.2624 11.7777C19.2363 12.0973 18.9934 12.3865 18.7507 12.6333C18.5797 12.8073 18.3954 12.9695 18.186 13.0944C17.9597 13.2294 17.7098 13.3462 17.4767 13.4151C16.7513 13.6372 15.9673 13.5545 15.3035 13.1846Z" fill="var(--fill-0, #111111)"/>
<path id="Vector_9" d="M8.62222 7.65911C8.96009 7.34756 9.52258 7.1486 9.74901 7.54853C9.8204 7.67463 9.8419 7.84391 9.80215 7.98325C9.76431 8.11587 9.69805 8.23378 9.6007 8.34898C8.52212 9.62874 6.75696 10.5708 5.12578 10.7622C4.98705 10.7719 4.87648 10.7545 4.78739 10.7135C4.41512 10.5421 4.37058 9.81068 4.76879 9.71375C6.66847 9.25057 7.37479 8.80934 8.62222 7.65911Z" fill="var(--fill-0, #111111)"/>
<path id="Vector_10" d="M15.2738 8.73894C14.4145 7.90661 15.6956 7.46068 16.6028 8.24058C17.0789 8.64986 17.5685 9.04919 17.9494 9.19387C19.7464 9.87648 18.3827 10.8236 16.7269 9.84686C16.198 9.53486 15.7075 9.15913 15.2738 8.73894Z" fill="var(--fill-0, #111111)"/>
</g>
</svg>
