<svg preserveAspectRatio="none" width="100%" height="100%" overflow="visible" style="display: block;" viewBox="0 0 24.7312 23.8953" fill="none" xmlns="http://www.w3.org/2000/svg">
<g id="Group 225">
<path id="Vector" d="M12.3201 0C12.8765 0.322955 14.6602 1.68621 15.3128 2.14004C18.466 4.33306 21.5864 6.81059 24.7312 8.99861L19.8646 23.8876C17.62 23.7961 14.9078 23.8384 12.6449 23.8515C10.4592 23.9545 7.17533 23.8446 4.93385 23.8384L0 8.95632C0.995789 8.13048 2.80318 6.90325 3.91208 6.0944L12.3201 0Z" fill="var(--fill-0, #E00000)"/>
<path id="Vector_2" d="M8.01812 10.1041C8.62644 9.57896 9.37462 8.6001 10.0074 8.28484C10.9092 8.28407 10.6364 9.14144 10.1855 9.56436C9.71317 10.0065 9.23706 10.4825 8.77547 10.9346C9.30508 11.5267 10.6623 12.3464 10.618 13.133C10.4468 13.5468 9.90136 13.5421 9.56349 13.2482C9.01804 12.7737 8.3129 12.0416 7.98373 11.7328C7.42967 12.3164 6.38038 13.7728 5.58176 13.4275C5.41057 13.2214 5.37771 13.2199 5.36013 12.95C5.52597 12.4379 6.75103 11.399 7.2302 10.9315C6.65245 10.3433 5.44573 9.49592 5.37848 8.79234C5.45337 8.50245 5.56342 8.45401 5.80645 8.2487C5.89815 8.25254 6.08768 8.25023 6.15646 8.31329C6.78771 8.89461 7.38763 9.51745 8.01812 10.1041Z" fill="var(--fill-0, #111111)"/>
<path id="Vector_3" d="M16.6139 10.1128C17.1894 9.57839 18.1875 8.10125 18.9869 8.43112C19.1588 8.62259 19.1756 8.61413 19.2062 8.87865C19.0564 9.43767 17.9024 10.4258 17.4034 10.9325C17.9269 11.51 19.2276 12.3866 19.1496 13.1516C18.9503 13.5507 18.3947 13.4963 18.0683 13.1922C17.564 12.7221 16.9584 12.0811 16.6086 11.7399C16.0897 12.3143 15.074 13.7145 14.2693 13.4608C14.0782 13.2808 14.0729 13.2947 14.0064 13.0263C14.1195 12.4927 15.3996 11.3892 15.8696 10.9325C15.3621 10.4142 13.993 9.46769 14.0163 8.79714C14.0269 8.49313 14.1484 8.30614 14.4634 8.24811C14.9586 8.1569 16.1462 9.66143 16.6139 10.1128Z" fill="var(--fill-0, #111111)"/>
<path id="Vector_4" d="M7.59297 18.0553C7.60486 17.5713 8.15588 17.3885 8.64004 17.3846C10.2421 17.3719 11.8446 17.3695 13.4472 17.3768C14.0179 17.3742 15.8576 17.2818 16.6963 17.4428C16.9615 17.4937 17.1644 17.7082 17.1811 17.9777C17.215 18.5258 16.5845 18.7618 16.0355 18.7758C13.4344 18.8423 10.7301 18.7077 8.14191 18.7486C8.13972 18.7486 8.13755 18.7486 8.1354 18.7486C7.80453 18.7523 7.58484 18.3861 7.59297 18.0553Z" fill="var(--fill-0, #111111)"/>
</g>
</svg>
