<svg preserveAspectRatio="none" width="100%" height="100%" overflow="visible" style="display: block;" viewBox="0 0 24.7312 23.8236" fill="none" xmlns="http://www.w3.org/2000/svg">
<g id="Group 220">
<path id="Vector" d="M12.3082 0C12.6063 0.101015 14.561 1.57899 14.9218 1.83866L24.7312 8.9879C23.3374 13.7965 21.4883 19.0526 19.8797 23.8236L12.511 23.8137L4.90555 23.8152L0 8.95954C3.93549 5.90081 8.44996 3.02218 12.3082 0Z" fill="var(--fill-0, #E00000)"/>
<path id="Vector_2" d="M8.19544 15.4327C9.69643 15.3982 16.3805 15.1959 17.3393 15.6979C17.9671 16.0267 18.4567 16.6973 18.6547 17.3733C18.8226 17.9466 18.8069 18.5804 18.5253 19.1108C18.095 19.9201 17.5771 20.2987 16.7217 20.5639C15.0896 20.5662 8.30536 20.7969 7.32509 20.3141C6.77055 20.0412 6.36523 19.5239 6.16962 18.9414C5.93485 18.2424 5.98992 17.4223 6.33971 16.7709C6.74137 16.0228 7.41131 15.6504 8.19544 15.4327Z" fill="var(--fill-0, #111111)"/>
<path id="Vector_3" d="M10.0344 17.011C10.0374 16.6521 10.3288 16.3624 10.6878 16.3617L11.327 16.3604C11.6873 16.3597 11.9799 16.6512 11.9806 17.0115C11.9813 17.3699 11.6928 17.6617 11.3344 17.6651L10.6953 17.6711C10.3292 17.6746 10.0314 17.3772 10.0344 17.011Z" fill="var(--fill-0, #E00000)"/>
<path id="Vector_4" d="M15.4474 17.0238C15.446 16.676 15.7199 16.3842 16.0676 16.3907C16.4891 16.3985 16.9181 16.5008 17.2365 16.777C17.2572 16.795 17.2773 16.8131 17.2968 16.8315C17.6597 17.1734 17.3317 17.7005 16.8331 17.6969C16.5888 17.6951 16.3352 17.691 16.1018 17.6873C15.7412 17.6814 15.4488 17.3845 15.4474 17.0238Z" fill="var(--fill-0, #E00000)"/>
<path id="Vector_5" d="M12.8948 16.4094C12.9301 16.3895 12.9696 16.3782 13.0101 16.3766C13.283 16.3657 13.5684 16.3615 13.8537 16.3592C14.3141 16.3554 14.7136 16.7246 14.6965 17.1846C14.6923 17.2962 14.6839 17.4046 14.6687 17.5056C14.6605 17.5606 14.6245 17.6069 14.5747 17.6317C14.5498 17.6442 14.5223 17.6506 14.4944 17.6506H13.5462C13.0961 17.6506 12.7091 17.2843 12.7427 16.8355C12.749 16.7514 12.7581 16.6674 12.7713 16.5833C12.7828 16.5094 12.8295 16.4462 12.8948 16.4094Z" fill="var(--fill-0, #E00000)"/>
<path id="Vector_6" d="M8.32304 16.3865C8.37219 16.374 8.42264 16.3688 8.47334 16.368L8.59971 16.3661C8.96042 16.3606 9.25658 16.6499 9.25949 17.0107C9.26238 17.3696 8.97374 17.6634 8.61495 17.6741C8.34597 17.6821 8.07606 17.6921 7.81226 17.6997C7.47755 17.7004 7.06584 17.6997 7.06584 17.4904C7.11181 16.9071 7.79181 16.5209 8.32304 16.3865Z" fill="var(--fill-0, #E00000)"/>
<path id="Vector_7" d="M10.0254 19.0206C10.0292 18.6829 10.3036 18.4109 10.6413 18.4101L11.3002 18.4085C11.6684 18.4076 11.9677 18.7053 11.9688 19.0736C11.9698 19.4 11.7318 19.6542 11.4055 19.6562C11.1713 19.6576 10.8993 19.657 10.6548 19.6564C10.3064 19.6555 10.0216 19.3689 10.0254 19.0206Z" fill="var(--fill-0, #E00000)"/>
<path id="Vector_8" d="M15.4549 19.0325C15.4544 18.6886 15.7355 18.4109 16.0795 18.411C16.3686 18.411 16.6596 18.4091 16.9499 18.4068C17.3717 18.4034 17.6719 18.8236 17.4167 19.1595C17.3873 19.1983 17.3393 19.2509 17.3001 19.2797C16.877 19.5903 16.5049 19.6469 16.0649 19.6505C15.7274 19.6532 15.4553 19.3701 15.4549 19.0325Z" fill="var(--fill-0, #E00000)"/>
<path id="Vector_9" d="M12.7428 19.0073C12.7597 18.6805 13.0276 18.423 13.3549 18.4191L14.0421 18.4108C14.3947 18.4066 14.6857 18.6896 14.6799 19.0422C14.6744 19.375 14.4022 19.6379 14.0694 19.645L13.3755 19.6597C13.0151 19.6673 12.7241 19.3673 12.7428 19.0073Z" fill="var(--fill-0, #E00000)"/>
<path id="Vector_10" d="M7.78272 19.4614C7.18273 19.1696 7.63584 18.3944 8.303 18.4007C8.41769 18.4018 8.53183 18.4032 8.64429 18.4046C8.98717 18.4089 9.26371 18.6892 9.26157 19.0321C9.25949 19.3665 8.9923 19.6459 8.65808 19.6355C8.31518 19.6248 8.03005 19.5817 7.78272 19.4614Z" fill="var(--fill-0, #E00000)"/>
<path id="Vector_11" d="M6.95006 10.4146C7.18353 8.51529 9.85661 8.26132 10.1497 10.1523C10.2246 10.6359 10.2207 11.1515 10.1373 11.6378C9.83986 13.3734 7.39343 13.5598 7.01382 11.8403C6.91343 11.3855 6.89128 10.8928 6.95006 10.4146Z" fill="var(--fill-0, #111111)"/>
<path id="Vector_12" d="M14.7434 9.84232C15.1439 8.29751 17.3464 8.22676 17.7544 9.76961C17.8782 10.2377 17.9209 10.7559 17.8765 11.2615C17.7014 13.2559 14.8809 13.4344 14.6417 11.4467C14.5776 10.9135 14.6111 10.3526 14.7434 9.84232Z" fill="var(--fill-0, #111111)"/>
</g>
</svg>
