<svg preserveAspectRatio="none" width="100%" height="100%" overflow="visible" style="display: block;" viewBox="0 0 24.7312 23.4964" fill="none" xmlns="http://www.w3.org/2000/svg">
<g id="Group 248">
<path id="Vector" d="M12.3374 0C12.6528 0.105431 14.5657 1.53117 14.9618 1.80966C17.2034 3.35977 19.4249 4.93902 21.6259 6.54701C22.6188 7.26801 23.7997 8.06407 24.7312 8.83706C24.3418 10.4122 23.518 12.8257 22.9993 14.4038C21.9935 17.4431 20.9586 20.4725 19.8947 23.4915L12.4516 23.4906L4.91652 23.4964C4.39061 22.1314 3.78636 20.1578 3.3215 18.741C2.25368 15.3999 1.14646 12.0718 0 8.75724C0.522096 8.35606 1.09319 7.96646 1.63571 7.59075C5.20923 5.11622 8.7217 2.39762 12.3374 0Z" fill="var(--fill-0, #E00000)"/>
<path id="Vector_2" d="M7.44548 15.0755L15.0367 15.0979C16.7681 15.103 18.1908 16.6681 17.2005 18.0884C16.9325 18.4728 16.6157 18.8389 16.253 19.1983C16.0756 19.3385 15.9011 19.4717 15.7122 19.596C14.4326 20.4353 12.8733 20.7268 11.3795 20.406C9.57738 20.0222 8.02496 18.7279 7.32484 17.014C7.14972 16.5852 6.97427 16.1723 6.94601 15.7294C6.92468 15.395 7.11136 15.0998 7.44548 15.0755Z" fill="var(--fill-0, #111111)"/>
<path id="Vector_3" d="M15.698 8.48801C16.2449 8.17554 16.9128 8.06557 17.5146 8.25146C18.4729 8.54744 19.1624 9.40055 19.4856 10.2499C19.9841 11.5599 18.7764 12.1798 18.3622 10.8408C18.0646 9.8789 16.4257 9.23303 15.816 10.0344C15.3577 10.6368 15.3692 11.6053 14.7652 12.1956C14.7115 12.261 14.5136 12.2246 14.4553 12.1937C13.5175 11.6968 14.2083 10.2756 14.5937 9.6327C14.9096 9.10583 15.255 8.74109 15.698 8.48801Z" fill="var(--fill-0, #111111)"/>
<path id="Vector_4" d="M6.85188 8.57483C7.55925 8.12516 8.50595 8.07018 9.24265 8.47C9.43306 8.57334 9.61736 8.70805 9.80504 8.88329C9.93547 9.00505 10.0694 9.16301 10.1969 9.34514C11.3602 11.0073 10.4393 11.3447 9.00283 9.91197C8.81987 9.72947 8.58347 9.5737 8.27221 9.4639C8.21219 9.44335 8.14628 9.43867 8.08441 9.45269C6.53482 9.80385 6.6926 11.0946 6.22182 11.9241C6.08192 12.1706 5.77484 12.3815 5.55275 12.2053C4.73467 11.5563 5.52059 10.0564 5.99025 9.41068C6.24806 9.0563 6.52959 8.7797 6.85188 8.57483Z" fill="var(--fill-0, #111111)"/>
</g>
</svg>
