<svg preserveAspectRatio="none" width="100%" height="100%" overflow="visible" style="display: block;" viewBox="0 0 125 46.5998" fill="none" xmlns="http://www.w3.org/2000/svg">
<g id="logo">
<path d="M26.3326 0L52.6653 17.7995H0L26.3326 0Z" fill="var(--fill-0, white)"/>
<path d="M2.64947 25.386L10.0582 46.5998H42.607L50.0158 25.386H2.64947Z" fill="var(--fill-0, white)"/>
<path d="M121.411 27.4704H124.806L120.266 33.6681L125 40.1557H121.508L118.461 35.8064L115.396 40.1557H112L116.734 33.7043L112.194 27.4704H115.687L118.52 31.5841L121.411 27.4704Z" fill="var(--fill-0, white)"/>
<path d="M106.646 40.1557V27.4704H109.634V40.1557H106.646Z" fill="var(--fill-0, white)"/>
<path d="M91.1817 40.1557V27.4704H93.9368L100.301 35.2809V27.4704H103.25V40.1557H100.708L94.1309 32.0915V40.1557H91.1817Z" fill="var(--fill-0, white)"/>
<path d="M78.1834 40.1557V27.4704H88.428V29.9531H81.152V32.5264H87.5549V35.0091H81.152V37.673H88.525V40.1557H78.1834Z" fill="var(--fill-0, white)"/>
<path d="M69.507 40.373C65.2772 40.373 62.3668 37.6185 62.3668 33.8492V33.8129C62.3668 30.2067 65.3742 27.2529 69.4876 27.2529C71.9129 27.2529 73.4263 27.869 74.8233 28.9925L72.9413 31.1128C71.9129 30.2973 70.9428 29.8262 69.3906 29.8262C67.2175 29.8262 65.4907 31.6202 65.4907 33.7767V33.8129C65.4907 36.1325 67.1981 37.836 69.604 37.836C70.71 37.836 71.6607 37.5823 72.4174 37.0749V35.2627H69.41V32.8525H75.3084V38.3615C73.9114 39.4669 71.9905 40.373 69.507 40.373Z" fill="var(--fill-0, white)"/>
<path d="M104.294 18.5102V5.82498H107.282V15.9732H114.053V18.5102H104.294Z" fill="var(--fill-0, white)"/>
<path d="M91.2954 18.5102V5.82498H101.54V8.30766H94.264V10.881H100.667V13.3636H94.264V16.0275H101.637V18.5102H91.2954Z" fill="var(--fill-0, white)"/>
<path d="M78.2971 18.5102V5.82498H88.5417V8.30766H81.2657V10.881H87.6686V13.3636H81.2657V16.0275H88.6387V18.5102H78.2971Z" fill="var(--fill-0, white)"/>
<path d="M62.9683 18.5102V5.82498H65.7235L72.0875 13.6355V5.82498H75.0367V18.5102H72.495L65.9175 10.446V18.5102H62.9683Z" fill="var(--fill-0, white)"/>
</g>
</svg>
