<svg preserveAspectRatio="none" width="100%" height="100%" overflow="visible" style="display: block;" viewBox="0 0 24.7312 23.6005" fill="none" xmlns="http://www.w3.org/2000/svg">
<g id="Group 223">
<path id="Vector" d="M12.3045 0C12.6862 0.176706 15.779 2.44328 16.2458 2.78981C19.0223 4.8552 21.9889 6.87776 24.7312 8.97681C24.5692 9.52758 24.3929 10.0875 24.2119 10.6314C22.7803 14.9305 21.4377 19.3267 19.8814 23.5807L12.4946 23.6005C9.97522 23.5852 7.45583 23.5837 4.93652 23.596C4.31332 21.9436 3.74403 20.1406 3.17596 18.4585C2.0931 15.2854 1.03443 12.104 0 8.91407C1.37009 7.84237 3.01083 6.72706 4.44067 5.69895L12.3045 0Z" fill="var(--fill-0, #E00000)"/>
<path id="Vector_2" d="M6.01363 8.76467C5.5913 8.11931 6.5803 7.68197 7.19864 8.14296C7.4826 8.35465 7.75288 8.59293 7.99101 8.77089C8.12406 8.86848 8.2572 8.96597 8.39042 9.06334C9.7085 10.0267 10.7964 11.8164 10.1065 13.2961C9.99721 13.5306 9.84475 13.7623 9.6279 13.9931C9.54785 14.0783 9.45065 14.1465 9.34369 14.1937C7.69352 14.9173 7.00282 12.9874 7.12742 11.6831C7.22104 10.7039 6.96481 9.76097 6.26672 9.06793C6.1685 8.97041 6.08213 8.86935 6.01363 8.76467Z" fill="var(--fill-0, #111111)"/>
<path id="Vector_3" d="M17.3993 8.38531C18.0274 7.91157 19.2773 7.61388 18.9777 8.34132C18.4489 9.62525 17.8468 11.0181 17.6908 12.3979C17.6797 12.4962 17.6648 12.5967 17.646 12.6998C17.4917 13.5478 17.1139 14.1838 16.403 14.315C15.9318 14.402 15.4483 14.1866 15.1235 13.8342C14.3345 12.9781 14.6063 11.9385 14.3145 10.7797C14.2986 10.7179 14.3173 10.6521 14.3653 10.6101C14.7813 10.2459 15.5706 9.72758 16.0031 9.41885C16.4718 9.07837 16.9371 8.73395 17.3993 8.38531Z" fill="var(--fill-0, #111111)"/>
<path id="Vector_4" d="M11.7541 15.8724C13.7871 15.6291 15.3563 16.5012 16.6358 18.0556C17.7664 19.4295 16.6518 20.5088 15.7007 19.0118C15.0666 18.0143 14.3307 17.5974 13.1948 17.2769C9.50167 16.6879 9.14069 20.0873 7.96075 19.7515C7.58738 19.3254 7.80763 18.5612 8.12041 18.1543C9.08436 16.9005 10.1787 16.1103 11.7541 15.8724Z" fill="var(--fill-0, #111111)"/>
</g>
</svg>
