<svg preserveAspectRatio="none" width="100%" height="100%" overflow="visible" style="display: block;" viewBox="0 0 24.7312 23.4984" fill="none" xmlns="http://www.w3.org/2000/svg">
<g id="Group 227">
<path id="Vector" d="M12.3359 0C15.2544 2.07658 18.2505 4.04534 21.1339 6.1818C22.3196 7.06059 23.5912 7.89367 24.7312 8.82767C23.1833 13.7418 21.5601 18.6317 19.863 23.4956L12.4227 23.4984L4.9161 23.4956C4.35143 21.9747 3.83928 20.3326 3.31647 18.7848C2.18409 15.466 1.07835 12.1378 0 8.80064C1.03421 7.95983 2.71223 6.84765 3.83624 6.03884L12.3359 0Z" fill="var(--fill-0, #E00000)"/>
<path id="Vector_2" d="M7.50501 16.0238C7.52051 15.603 8.21912 15.6691 8.50574 15.9775C9.02637 16.5376 9.49998 17.5381 10.1723 17.9454C12.4592 19.3312 14.7163 18.457 15.9248 16.1447C16.2302 15.559 17.1597 15.8018 17.0335 16.4501C16.9781 16.7346 16.8495 17.0218 16.7406 17.23C16.284 17.9882 15.6797 18.6757 14.9438 19.1697C13.8822 19.8777 12.5809 20.1238 11.3359 19.8522C9.96839 19.5675 7.43499 17.8832 7.50501 16.0238Z" fill="var(--fill-0, #111111)"/>
<path id="Vector_3" d="M7.19774 9.66007C7.57011 8.52073 9.11681 7.95929 9.74801 8.97828C10.2544 9.79584 10.3491 11.0976 10.0087 12.1697C9.63433 13.3492 8.0096 13.9166 7.39174 12.8444C6.91148 12.011 6.85341 10.7136 7.19774 9.66007Z" fill="var(--fill-0, #111111)"/>
<path id="Vector_4" d="M16.0794 11.7749C14.1364 11.84 15.4624 10.195 17.4004 10.3485C17.5244 10.3583 17.6448 10.3709 17.76 10.3868C19.1519 10.5787 17.8177 11.7391 16.4129 11.7647C16.3168 11.7664 16.2035 11.7707 16.0794 11.7749Z" fill="var(--fill-0, #111111)"/>
</g>
</svg>
