<svg preserveAspectRatio="none" width="100%" height="100%" overflow="visible" style="display: block;" viewBox="0 0 27.1875 28.2388" fill="none" xmlns="http://www.w3.org/2000/svg">
<g id="Group">
<path id="Vector" fill-rule="evenodd" clip-rule="evenodd" d="M9.90123 5.24502H5.40996C4.51343 5.24504 3.6536 5.60111 3.01954 6.23494C2.38547 6.86877 2.02909 7.72847 2.02875 8.62501V22.8275C2.02875 23.7243 2.38498 24.5843 3.01908 25.2184C3.65318 25.8525 4.5132 26.2088 5.40996 26.2088H19.6137C20.5105 26.2088 21.3705 25.8525 22.0047 25.2184C22.6388 24.5843 22.995 23.7243 22.995 22.8275V16.8825L25.0238 15.4913V22.8288C25.0234 24.2635 24.4534 25.6394 23.4388 26.6539C22.4243 27.6684 21.0485 28.2385 19.6137 28.2388H5.40996C3.97524 28.2385 2.59937 27.6684 1.58487 26.6539C0.570366 25.6394 0.000295268 24.2635 1.16682e-07 22.8288V8.62624C-0.000147447 7.91569 0.13967 7.21207 0.411469 6.55556C0.683267 5.89905 1.08172 5.30251 1.58408 4.8C2.08646 4.29751 2.68291 3.89891 3.33936 3.62696C3.99581 3.35501 4.69941 3.21504 5.40996 3.21504H11.0912L9.90123 5.24502Z" fill="var(--fill-0, #111111)"/>
<path id="Vector_2" fill-rule="evenodd" clip-rule="evenodd" d="M19.775 0C19.9562 0 20.11 0.13002 20.1488 0.3075C20.5037 1.95787 21.3285 3.47033 22.5237 4.66249C23.7161 5.85836 25.229 6.68364 26.88 7.03876C27.0575 7.07749 27.1875 7.23124 27.1875 7.41376C27.1864 7.5016 27.1553 7.58644 27.0994 7.65418C27.0435 7.72193 26.9661 7.76853 26.88 7.78624C25.2295 8.14159 23.717 8.96686 22.525 10.1625C21.3135 11.3702 20.4826 12.9064 20.135 14.5812C20.1181 14.6646 20.0732 14.7396 20.0077 14.7937C19.9421 14.8479 19.86 14.8779 19.775 14.8788C19.69 14.8779 19.6078 14.8479 19.5423 14.7937C19.4768 14.7396 19.4318 14.6646 19.415 14.5812C19.0673 12.9064 18.2364 11.3702 17.025 10.1625C15.8174 8.95103 14.2811 8.12012 12.6062 7.77253C12.5229 7.75562 12.4479 7.71066 12.3938 7.64514C12.3397 7.57962 12.3096 7.49752 12.3087 7.41253C12.3087 7.23751 12.4337 7.08751 12.6062 7.05253C14.2811 6.70489 15.8173 5.87396 17.025 4.66249C18.2206 3.47043 19.0458 1.95798 19.4012 0.3075C19.419 0.221234 19.4657 0.143657 19.5338 0.0877015C19.6018 0.0317459 19.6869 0.000792189 19.775 0Z" fill="var(--fill-0, #111111)"/>
</g>
</svg>
