<svg preserveAspectRatio="none" width="100%" height="100%" overflow="visible" style="display: block;" viewBox="0 0 24.7312 23.4767" fill="none" xmlns="http://www.w3.org/2000/svg">
<g id="Group 244">
<path id="Vector" d="M12.2964 0C12.5519 0.0734486 14.3243 1.36431 14.7114 1.63431C18.0541 3.96791 21.4888 6.32408 24.7312 8.79593C23.4978 13.3488 21.4539 18.9246 19.9194 23.4481L12.4439 23.4548C10.0165 23.5032 7.3371 23.4584 4.89576 23.4435C3.18174 18.7912 1.57395 13.4977 0 8.75462C3.71151 5.88002 8.41695 2.75769 12.2964 0Z" fill="var(--fill-0, #E00000)"/>
<path id="Vector_2" d="M7.24264 17.6805C6.76128 16.6281 7.74227 15.6186 8.8995 15.6254C11.1996 15.6389 13.4997 15.6405 15.7999 15.6304C16.9983 15.6252 18.0175 16.7103 17.4866 17.7847C17.2523 18.2587 16.932 18.709 16.4874 19.2101C15.4579 20.1933 14.2298 20.7233 12.8094 20.8064C11.2163 20.9127 9.64786 20.3719 8.45456 19.3051C7.91108 18.8174 7.5154 18.2768 7.24264 17.6805Z" fill="var(--fill-0, #111111)"/>
<path id="Vector_3" d="M6.05368 8.1837C6.09184 8.13229 6.15283 8.09904 6.21671 8.10324C6.6179 8.12956 10.468 10.344 10.7827 10.7066C10.896 10.8368 10.9287 10.994 10.8952 11.1652C10.7918 11.6933 7.65721 13.2302 7.04228 13.5762C6.84862 13.6821 6.68567 13.794 6.5048 13.8492C6.32295 13.9046 6.11317 13.8711 5.97887 13.7365C5.85205 13.6094 5.79162 13.4095 5.85253 13.2406C6.15937 12.39 8.40701 11.4214 9.09878 11.0266C8.13527 10.4752 7.16227 9.93349 6.21914 9.34858C5.6057 8.96807 5.70904 8.64793 6.05368 8.1837Z" fill="var(--fill-0, #111111)"/>
<path id="Vector_4" d="M17.8841 8.36893C18.1816 8.19501 18.5756 8.02523 18.8256 8.26247C19.0357 8.46187 18.9752 8.80843 18.7823 9.02453C18.137 9.74748 16.3796 10.6483 15.7262 11.0333C16.3952 11.456 18.5468 12.3706 18.9469 13.1785C19.0262 13.3387 19.002 13.5396 18.8839 13.6738C18.7656 13.8082 18.5777 13.8895 18.3997 13.87C18.344 13.8639 18.2922 13.8473 18.2251 13.8215C18.1147 13.779 18.0085 13.7259 17.9062 13.6664C16.869 13.0637 15.829 12.4874 14.7696 11.9236C13.9857 11.5061 14.1707 10.5149 14.9388 10.0691C15.3889 9.80787 15.881 9.57892 16.1862 9.39112C16.7359 9.05298 17.3154 8.70129 17.8841 8.36893Z" fill="var(--fill-0, #111111)"/>
</g>
</svg>
