<svg preserveAspectRatio="none" width="100%" height="100%" overflow="visible" style="display: block;" viewBox="0 0 24.7312 23.4643" fill="none" xmlns="http://www.w3.org/2000/svg">
<g id="Group 235">
<path id="Vector" d="M12.3176 0C16.3469 2.97106 20.6593 5.79614 24.7312 8.76804C23.2064 13.5452 21.5423 18.7123 19.8303 23.4241L12.5551 23.4264C10.3437 23.4289 7.03462 23.5326 4.93359 23.3859C3.25506 18.5197 1.7029 13.6086 0 8.7466L5.33097 4.96686C7.63601 3.35801 10.0841 1.70252 12.3176 0Z" fill="var(--fill-0, #E00000)"/>
<path id="Vector_2" d="M12.0661 15.4229C14.0544 15.2992 15.9726 16.6512 16.7615 17.8097C17.5221 18.9267 16.0332 18.8909 15.1129 17.9014C14.6483 17.4019 13.96 16.9419 12.7154 16.8218L12.605 16.8117C10.1637 16.7486 9.74809 17.7534 8.34437 19.297C7.85932 19.8299 7.47289 18.5282 7.85044 17.9144C7.97953 17.7046 8.11941 17.5153 8.22942 17.388C9.32104 16.1258 10.4477 15.5741 12.0661 15.4229Z" fill="var(--fill-0, #111111)"/>
<path id="Vector_3" d="M14.6111 10.8961C14.7167 8.94262 17.4517 8.13392 17.7814 10.0623C17.9002 10.7566 17.8531 11.5223 17.7298 12.1046C17.447 13.441 15.5353 14.0144 14.9397 12.7851C14.6841 12.2574 14.5742 11.5779 14.6111 10.8961Z" fill="var(--fill-0, #111111)"/>
<path id="Vector_4" d="M6.97846 10.7043C7.12619 8.85432 9.69874 8.16546 10.1065 9.97602C10.2151 10.4582 10.2321 10.9931 10.1591 11.5128C9.91605 13.2426 7.53706 13.8775 7.09769 12.1868C6.97814 11.7268 6.93796 11.2115 6.97846 10.7043Z" fill="var(--fill-0, #111111)"/>
</g>
</svg>
