<svg preserveAspectRatio="none" width="100%" height="100%" overflow="visible" style="display: block;" viewBox="0 0 24.7312 23.5714" fill="none" xmlns="http://www.w3.org/2000/svg">
<g id="Group 231">
<path id="Vector" d="M12.3274 0.000192642L24.7312 8.8798C23.1872 13.799 21.5707 18.695 19.8825 23.5661L12.617 23.571L4.89881 23.5714C3.24147 18.7079 1.72628 13.6849 0 8.86501C1.09417 7.998 2.39379 7.13813 3.52829 6.31044C6.44214 4.18462 9.44898 2.17498 12.3274 0.000192642Z" fill="var(--fill-0, #E00000)"/>
<path id="Vector_2" d="M7.08297 15.9682C7.22907 15.7669 7.56514 15.5521 7.74045 15.7284C8.88744 16.9048 9.34098 18.0962 11.1345 18.5831C12.7642 18.9933 14.7078 18.5808 15.8498 17.2867C16.0069 17.1088 16.1819 16.8199 16.3779 16.5373C16.9571 15.7023 17.9524 16.2876 17.4886 17.1917C15.5046 20.5006 11.1453 21.1493 8.34555 18.463C7.76665 17.9075 7.04998 17.1454 6.97557 16.3115C6.96376 16.1792 7.01095 16.0674 7.08297 15.9682Z" fill="var(--fill-0, #111111)"/>
<path id="Vector_3" d="M7.09172 9.99968C7.45929 8.70846 9.30123 8.28469 9.86973 9.50089C10.15 10.1005 10.256 10.8767 10.1807 11.6292C9.98887 13.5476 7.3256 14.0087 7.00276 12.108C6.87665 11.3655 6.93063 10.5656 7.09172 9.99968Z" fill="var(--fill-0, #111111)"/>
<path id="Vector_4" d="M14.6752 10.539C14.9624 8.86953 17.2662 8.3947 17.7237 10.0258C17.8957 10.6387 17.9259 11.35 17.8051 12.0129C17.5064 13.6525 15.2084 14.1113 14.7594 12.5064C14.5905 11.9026 14.5617 11.1989 14.6752 10.539Z" fill="var(--fill-0, #111111)"/>
</g>
</svg>
