<svg preserveAspectRatio="none" width="100%" height="100%" overflow="visible" style="display: block;" viewBox="0 0 24.7312 23.8173" fill="none" xmlns="http://www.w3.org/2000/svg">
<g id="Group 234">
<path id="Vector" d="M12.3346 0C13.2871 0.663134 14.2826 1.44578 15.2398 2.13204C18.4271 4.40829 21.5906 6.71692 24.7312 9.05794L19.8656 23.8142C17.4094 23.7571 14.9302 23.7918 12.4694 23.7826C9.98873 23.7903 7.38234 23.7487 4.91313 23.8173C3.48004 18.9726 1.36259 13.7939 0 8.96849L12.3346 0Z" fill="var(--fill-0, #E00000)"/>
<path id="Vector_2" d="M11.7724 15.6829C11.9824 15.6698 12.1924 15.6613 12.4031 15.6566C13.6531 15.6497 14.8547 16.1447 15.7399 17.0338C16.3755 17.6708 16.7714 18.3673 16.9981 19.1321C17.3079 20.1773 16.3805 21.0899 15.2904 21.0887C14.5558 21.0879 13.8186 21.0827 13.1097 21.0843L9.58642 21.0794C8.48251 21.0779 7.54194 20.1609 7.85933 19.1036C8.38785 17.343 9.68968 16.1001 11.7724 15.6829Z" fill="var(--fill-0, #111111)"/>
<path id="Vector_3" d="M5.89464 7.98083C5.96917 7.67259 6.39977 7.4006 6.64402 7.60286C7.12214 8.00152 7.81 8.49089 8.50578 8.981C9.84078 9.92135 10.8885 11.755 10.1646 13.2187C10.1214 13.3061 10.0713 13.395 10.0131 13.4858C9.75492 13.8885 9.35026 14.2104 8.87514 14.266C8.12828 14.3534 7.61397 13.8639 7.34678 12.9611C7.31124 12.841 7.2816 12.7249 7.25761 12.612C6.93154 11.0779 6.09302 9.66655 5.88686 8.11177C5.88087 8.06722 5.88431 8.02355 5.89464 7.98083Z" fill="var(--fill-0, #111111)"/>
<path id="Vector_4" d="M17.4541 8.2183C18.0926 7.71326 19.3221 7.62286 18.9689 8.35638C18.37 9.60036 17.6991 10.9555 17.6577 12.3355C17.6255 13.4098 17.157 14.3223 15.9675 14.2311C15.6706 14.2083 15.3828 14.0896 15.1858 13.8662C14.5139 13.1043 14.1026 11.4806 14.3063 10.6616C14.3844 10.3455 16.1256 9.24203 16.5394 8.93822C16.7697 8.7695 17.108 8.49204 17.4541 8.2183Z" fill="var(--fill-0, #111111)"/>
</g>
</svg>
