<svg preserveAspectRatio="none" width="100%" height="100%" overflow="visible" style="display: block;" viewBox="0 0 24.7312 23.7434" fill="none" xmlns="http://www.w3.org/2000/svg">
<g id="Group 241">
<path id="Vector" d="M12.2876 0C12.9595 0.183663 23.37 7.97927 24.7312 8.94391C23.2178 13.9202 21.4845 18.8 19.8615 23.7388L12.4702 23.7426L4.94122 23.7434C3.26878 18.8077 1.62145 13.8628 0 8.90945C3.85238 5.94336 8.31271 2.84406 12.2876 0Z" fill="var(--fill-0, #E00000)"/>
<path id="Vector_2" d="M10.5963 17.4129C10.8738 15.9456 13.0501 15.2929 13.7583 16.6076C14.0117 17.078 14.1009 17.6622 14.0145 18.2314C13.777 19.7947 11.4132 20.449 10.7657 19.0063C10.5518 18.5298 10.4929 17.9596 10.5963 17.4129Z" fill="var(--fill-0, #111111)"/>
<path id="Vector_3" d="M5.15512 10.5462C4.6426 9.31369 5.94914 9.01507 6.43706 10.2575C7.00469 11.7052 8.78364 11.8055 9.54682 10.452C9.77491 10.0468 9.9043 9.27082 10.2133 8.87607C10.3545 8.69564 10.6168 8.63865 10.7906 8.78794C10.9123 8.89248 11.0132 9.04247 11.0434 9.20004C11.1099 9.54674 11.0175 9.92604 10.9469 10.2759C10.3222 12.8528 7.23067 13.623 5.62139 11.3829C5.45946 11.1571 5.28682 10.8629 5.15512 10.5462Z" fill="var(--fill-0, #111111)"/>
<path id="Vector_4" d="M17.9551 10.7146C18.7955 9.4903 19.9796 9.18584 19.377 10.543C18.0652 13.4935 14.8733 13.4782 13.6871 10.4634C13.6276 10.2448 13.5426 9.95829 13.503 9.68162C13.3724 8.7698 14.5076 9.08702 14.8495 9.94232C15.1959 10.8089 15.6706 11.7328 17.0677 11.3116C17.5157 11.1764 17.7838 10.9641 17.9551 10.7146Z" fill="var(--fill-0, #111111)"/>
</g>
</svg>
