<svg preserveAspectRatio="none" width="100%" height="100%" overflow="visible" style="display: block;" viewBox="0 0 20 20" fill="none" xmlns="http://www.w3.org/2000/svg">
<g id="Frame 184">
<g id="Vector">
<path d="M9 16.9999C9 16.9999 9 16.8999 9 16.6999V14.9999H11C11 14.9999 11 15.1013 11 15.3041V16.9999C11 16.9999 10.8986 16.9999 10.6958 16.9999H9ZM11 14.9999C11 14.9999 11 14.8999 11 14.6999V12.9999H13C13 12.9999 13 13.1013 13 13.3041V14.9999C13 14.9999 12.8986 14.9999 12.6958 14.9999H11ZM13 12.9999C13 12.9999 13 12.8999 13 12.6999V10.9999H15C15 10.9999 15 11.1013 15 11.3041V12.9999C15 12.9999 14.8986 12.9999 14.6958 12.9999H13ZM15 10.9999C15 10.9999 15 10.8999 15 10.6999V8.99989H17C17 8.99989 17 9.10127 17 9.30405V10.9999C17 10.9999 16.8986 10.9999 16.6958 10.9999H15ZM13 8.99989C13 8.99989 13 8.89989 13 8.69989V6.99989H15C15 6.99989 15 7.10128 15 7.30405V8.99989C15 8.99989 14.8986 8.99989 14.6958 8.99989H13ZM11 6.99989C11 6.99989 11 6.89989 11 6.69989V4.99989H13C13 4.99989 13 5.10127 13 5.30405V6.99989C13 6.99989 12.8986 6.99989 12.6958 6.99989H11ZM9 4.99989C9 4.99989 9 4.89989 9 4.69989V2.99989H11C11 2.99989 11 3.10128 11 3.30405V4.99989C11 4.99989 10.8986 4.99989 10.6958 4.99989H9Z" fill="var(--fill-0, white)"/>
<path d="M11 8.99989H13V10.9999L11 10.9999V8.99989Z" fill="var(--fill-0, white)"/>
<path d="M7 8.99989H9V10.9999H7V8.99989Z" fill="var(--fill-0, white)"/>
<path d="M3 8.99989H5V10.9999H3V8.99989Z" fill="var(--fill-0, white)"/>
</g>
</g>
</svg>
