<svg preserveAspectRatio="none" width="100%" height="100%" overflow="visible" style="display: block;" viewBox="0 0 24.7312 23.45" fill="none" xmlns="http://www.w3.org/2000/svg">
<g id="Group 257">
<path id="Vector" d="M12.2562 0C12.5543 0.0475037 23.4552 7.88891 24.7312 8.76343C23.1764 13.6813 21.554 18.5773 19.8644 23.45C17.4495 23.4292 15.0344 23.4288 12.6196 23.449L4.88351 23.423C3.39197 18.5803 1.56412 13.5766 0 8.70647C4.07861 5.78938 8.21238 2.96268 12.2562 0Z" fill="var(--fill-0, #E00000)"/>
<path id="Vector_2" d="M7.34571 17.9883C7.1537 17.3784 7.92067 17.0042 8.56005 16.9964C10.7325 16.97 15.1022 16.9015 16.7413 17.0314C17.0898 17.059 17.4204 17.2495 17.4448 17.5982C17.4804 18.1088 16.9413 18.3789 16.4294 18.3835C14.34 18.4024 9.3545 18.4509 7.9185 18.3585C7.66887 18.3425 7.42083 18.2269 7.34571 17.9883Z" fill="var(--fill-0, #111111)"/>
<path id="Vector_3" d="M6.78032 10.4791C4.94981 10.5112 6.17475 9.25507 8.00548 9.24C8.60389 9.23507 9.20229 9.23067 9.80069 9.22913C10.1999 9.22805 11.3301 9.13566 11.2953 9.77942C11.2524 10.5735 10.5941 10.4961 10.0179 10.4777C9.99772 10.8266 9.95242 11.0752 9.89497 11.4166C8.91183 13.5025 6.93341 12.6066 6.78032 10.4791Z" fill="var(--fill-0, #111111)"/>
<path id="Vector_4" d="M14.7024 10.4688C13.3027 10.4765 14.5393 9.24556 15.939 9.24049C16.9402 9.23686 18.0466 9.23941 18.794 9.26313C19.3686 9.28137 19.9256 9.63566 19.7535 10.1842C19.6007 10.6718 18.9875 10.3305 18.4046 10.5344C18.1746 10.7711 18.247 10.7598 18.1931 11.1745C17.4828 13.3951 15.2581 12.8716 14.9664 10.4663C14.8823 10.4669 14.7934 10.4683 14.7024 10.4688Z" fill="var(--fill-0, #111111)"/>
</g>
</svg>
