<svg preserveAspectRatio="none" width="100%" height="100%" overflow="visible" style="display: block;" viewBox="0 0 24.7312 23.6089" fill="none" xmlns="http://www.w3.org/2000/svg">
<g id="Group 236">
<path id="Vector" d="M12.3438 0C16.5267 2.98026 20.5781 5.78593 24.7312 8.85137L19.8685 23.6089C17.4826 23.5448 14.9598 23.5867 12.5633 23.5895L4.92467 23.5875C4.59968 22.3599 3.7868 20.1862 3.35933 18.8972L0 8.8259C0.528408 8.34409 3.23392 6.46956 3.90074 6.0076C6.73395 4.04482 9.52435 1.96201 12.3438 0Z" fill="var(--fill-0, #E00000)"/>
<path id="Vector_2" d="M8.19015 17.9044C7.72294 16.8726 8.70022 15.915 9.83284 15.9243C11.5372 15.9381 13.2783 15.9247 14.9883 15.9149C16.1677 15.9082 17.2062 16.9831 16.6486 18.0223C16.4686 18.3578 16.2279 18.6963 15.8997 19.0924C15.0065 20.0058 13.7868 20.5214 12.5136 20.524C10.5319 20.5446 8.9239 19.5249 8.19015 17.9044Z" fill="var(--fill-0, #111111)"/>
<path id="Vector_3" d="M6.02591 7.8739C7.07355 7.80396 7.51554 8.11258 7.99883 8.9991C8.09136 8.85245 8.1839 8.71818 8.28331 8.57692C9.10612 7.40302 11.2052 7.79335 11.2909 9.32002C11.3551 10.4687 10.3098 11.4738 9.60241 12.2786C9.08165 12.8601 8.65494 13.3191 8.09442 13.8668C7.23642 13.3367 5.45773 11.3564 4.97826 10.4259C4.41774 9.33556 4.88498 8.34494 6.02591 7.8739Z" fill="var(--fill-0, #111111)"/>
<path id="Vector_4" d="M14.9642 7.88065C16.0295 7.79409 16.4546 8.10924 16.9609 8.99569C17.3134 8.34561 17.7646 7.9125 18.5377 7.86672C19.4821 7.81725 20.1894 8.55227 20.1925 9.48788C20.1963 10.5748 19.3261 11.4057 18.6463 12.1538C18.1714 12.6909 17.4671 13.4366 16.9387 13.8926C16.0088 13.142 14.5605 11.4901 13.9579 10.4565C13.3232 9.36862 13.8845 8.37862 14.9642 7.88065Z" fill="var(--fill-0, #111111)"/>
</g>
</svg>
