<svg preserveAspectRatio="none" width="100%" height="100%" overflow="visible" style="display: block;" viewBox="0 0 30 30" fill="none" xmlns="http://www.w3.org/2000/svg">
<g id="Figma--Streamline-Svg-Logos">
<rect width="30" height="30" fill="white"/>
<path id="Vector" d="M10.1041 29.6875C12.8066 29.6875 14.9999 27.4942 14.9999 24.7917V19.8958H10.1041C7.40162 19.8958 5.20828 22.0892 5.20828 24.7917C5.20828 27.4942 7.40162 29.6875 10.1041 29.6875Z" fill="var(--fill-0, #0ACF83)"/>
<path id="Vector_2" d="M5.20828 15C5.20828 12.2975 7.40162 10.1042 10.1041 10.1042H14.9999V19.8958H10.1041C7.40162 19.8958 5.20828 17.7025 5.20828 15Z" fill="var(--fill-0, #A259FF)"/>
<path id="Vector_3" d="M5.20828 5.20834C5.20828 2.50583 7.40162 0.3125 10.1041 0.3125H14.9999V10.1041H10.1041C7.40162 10.1041 5.20828 7.91084 5.20828 5.20834Z" fill="var(--fill-0, #F24E1E)"/>
<path id="Vector_4" d="M14.9999 0.3125H19.8957C22.5982 0.3125 24.7915 2.50583 24.7915 5.20834C24.7915 7.91084 22.5982 10.1041 19.8957 10.1041H14.9999V0.3125Z" fill="var(--fill-0, #FF7262)"/>
<path id="Vector_5" d="M24.7915 15C24.7915 17.7025 22.5982 19.8958 19.8957 19.8958C17.1932 19.8958 14.9999 17.7025 14.9999 15C14.9999 12.2975 17.1932 10.1042 19.8957 10.1042C22.5982 10.1042 24.7915 12.2975 24.7915 15Z" fill="var(--fill-0, #1ABCFE)"/>
</g>
</svg>
