<svg preserveAspectRatio="none" width="100%" height="100%" overflow="visible" style="display: block;" viewBox="0 0 24.7312 23.7316" fill="none" xmlns="http://www.w3.org/2000/svg">
<g id="Group 222">
<path id="Vector" d="M12.2769 0C12.6828 0.0712921 23.312 8.0427 24.7312 8.93538C24.2581 10.0361 23.5055 12.7784 23.0828 14.0727L19.84 23.7316C17.4468 23.6834 14.9036 23.7293 12.4986 23.7308L4.91272 23.73C3.21874 18.8352 1.69026 13.8279 0 8.92008C0.909941 8.15055 2.46062 7.09464 3.45768 6.36183L12.2769 0Z" fill="var(--fill-0, #E00000)"/>
<path id="Vector_2" d="M11.6636 15.1031C12.9141 14.9815 13.8789 15.1528 14.9498 15.8611C15.9374 16.5144 17.3208 18.3135 16.43 19.4778C15.8615 20.2213 14.106 20.3949 13.2205 20.5043C11.8983 20.5265 10.0669 20.5471 8.88359 19.8702C7.30592 18.9683 8.53327 16.776 9.62498 15.9912C10.3227 15.4894 10.8182 15.2775 11.6636 15.1031Z" fill="var(--fill-0, #111111)"/>
<path id="Vector_3" d="M6.99958 10.2795C7.26889 8.48996 9.77945 8.14769 10.1437 9.92034C10.2579 10.4766 10.2627 11.0902 10.1551 11.6609C9.84805 13.2891 7.54864 13.6316 7.09856 12.037C6.94486 11.4925 6.91038 10.8722 6.99958 10.2795Z" fill="var(--fill-0, #111111)"/>
<path id="Vector_4" d="M14.6626 10.169C14.9659 8.43493 17.4122 8.17179 17.7765 9.89411C17.894 10.4501 17.8985 11.065 17.7894 11.638C17.4753 13.2879 15.143 13.6043 14.7239 11.9779C14.5781 11.4122 14.5573 10.7712 14.6626 10.169Z" fill="var(--fill-0, #111111)"/>
</g>
</svg>
