<svg preserveAspectRatio="none" width="100%" height="100%" overflow="visible" style="display: block;" viewBox="0 0 24.7312 23.3493" fill="none" xmlns="http://www.w3.org/2000/svg">
<g id="Group 232">
<path id="Vector" d="M12.2722 0C12.6677 0.0765888 23.6103 7.92391 24.7312 8.70151C23.1845 13.6066 21.5655 18.4884 19.8751 23.3453L12.378 23.3448L4.92616 23.3493L0 8.65698L12.2722 0Z" fill="var(--fill-0, #E00000)"/>
<path id="Vector_2" d="M14.5802 10.889C14.8156 9.14011 17.2768 8.62144 17.7075 10.3328C17.8303 10.8207 17.8592 11.3651 17.7921 11.8924C17.5625 13.6963 15.0245 14.1538 14.6353 12.3775C14.532 11.9056 14.5129 11.3886 14.5802 10.889Z" fill="var(--fill-0, #111111)"/>
<path id="Vector_3" d="M10.8749 17.3401C11.4372 17.3305 13.4855 17.2941 15.1295 17.3282C16.5926 17.3586 17.6341 18.6877 16.175 18.7994C15.3636 18.8615 14.4107 18.7518 14.0459 18.747C13.3778 18.7504 10.3338 18.8099 8.64674 18.7545C7.92002 18.7306 6.8383 18.006 7.44285 17.602C8.09971 17.1631 10.0933 17.3382 10.8749 17.3401Z" fill="var(--fill-0, #111111)"/>
<path id="Vector_4" d="M7.78618 10.2842C8.08387 10.0349 8.48903 9.92211 8.86833 10.0053C9.3287 10.1021 9.72656 10.3908 9.96313 10.7998C10.1169 11.0698 10.202 11.3645 10.2278 11.6658C10.3924 13.5884 7.28509 14.2261 7.04644 12.3112C6.95561 11.5825 7.17215 10.7985 7.78618 10.2842Z" fill="var(--fill-0, #111111)"/>
<path id="Vector_5" d="M15.8217 6.22122C16.5648 6.0912 17.7572 6.22723 18.5096 6.74488C19.0569 7.1214 19.0145 8.08528 18.3676 7.93433C17.8742 7.81921 17.2793 7.44969 17.0004 7.37043C16.7768 7.30708 16.535 7.31037 16.303 7.31397L16.211 7.31619C15.587 7.41223 14.898 7.90606 14.3102 8.193C13.7674 8.45804 13.0262 8.03348 13.3767 7.54147C13.8543 6.87094 15.3648 6.30116 15.8217 6.22122Z" fill="var(--fill-0, #111111)"/>
<path id="Vector_6" d="M7.72648 8.38365C8.05517 8.36346 8.74454 8.34539 9.37967 8.43544C10.4047 8.58077 10.2317 9.56031 9.19802 9.50327C9.08664 9.49712 8.98674 9.4902 8.90606 9.48619C8.70534 9.48586 8.06368 9.5019 7.43906 9.51092C6.52072 9.52418 5.33155 8.75884 6.21859 8.52073C6.74636 8.37906 7.51576 8.39079 7.72648 8.38365Z" fill="var(--fill-0, #111111)"/>
</g>
</svg>
