<svg preserveAspectRatio="none" width="100%" height="100%" overflow="visible" style="display: block;" viewBox="0 0 33.8182 33.8182" fill="none" xmlns="http://www.w3.org/2000/svg">
<g id="Frame 213" clip-path="url(#clip0_1006_2595)">
<rect width="33.8182" height="33.8182" fill="white"/>
<path id="Vector" fill-rule="evenodd" clip-rule="evenodd" d="M21.5211 10.8263L22.6043 10.8449L25.5475 7.90162L25.6902 6.65464C23.2731 4.49671 20.1456 3.30543 16.9054 3.30827C10.8076 3.30827 5.66095 7.45735 4.13751 13.0775C4.45882 12.8534 5.14566 13.0215 5.14566 13.0215L11.0269 12.0545C11.0269 12.0545 11.3291 11.5542 11.4823 11.579C12.8728 10.0512 14.8433 9.18085 16.909 9.18167C18.6528 9.18532 20.2591 9.80145 21.521 10.8208V10.8264H21.5211V10.8263Z" fill="var(--fill-0, #EA4335)"/>
<path id="Vector_2" fill-rule="evenodd" clip-rule="evenodd" d="M29.6808 13.0838C28.9975 10.5633 27.5893 8.33767 25.6886 6.64937L21.5211 10.8169C23.1909 12.1643 24.262 14.2262 24.262 16.5343V17.2698C26.2894 17.2698 27.9366 18.9206 27.9366 20.9444C27.9366 22.9719 26.2858 24.619 24.262 24.619H16.9128L16.1773 25.3588V29.7689L16.9128 30.5007H24.262C29.5365 30.4933 33.8104 26.2195 33.8183 20.945C33.8145 17.6927 32.1802 14.8154 29.6809 13.0844V13.0839L29.6808 13.0838Z" fill="var(--fill-0, #4285F4)"/>
<path id="Vector_3" fill-rule="evenodd" clip-rule="evenodd" d="M9.55629 30.5106H16.9012V24.6242H9.55629C9.03441 24.6243 8.51872 24.5122 8.04401 24.2955L6.98351 24.6205L4.04032 27.5637L3.78252 28.5571C5.4411 29.8225 7.46968 30.5075 9.55589 30.5065L9.55639 30.5106H9.55629Z" fill="var(--fill-0, #34A853)"/>
<path id="Vector_4" fill-rule="evenodd" clip-rule="evenodd" d="M9.55628 11.3929C4.28178 11.4056 0.00740616 15.6793 0 20.9539C0 24.0573 1.48651 26.8167 3.78658 28.5646L8.04756 24.3036C6.73027 23.7094 5.88283 22.399 5.88161 20.9539C5.88161 18.9265 7.53237 17.2794 9.55618 17.2794C11.0462 17.2794 12.3272 18.1776 12.9063 19.4459L17.1674 15.1848C15.4199 12.8847 12.6601 11.3982 9.55679 11.3982L9.55628 11.3929Z" fill="var(--fill-0, #FBBC05)"/>
</g>
<defs>
<clipPath id="clip0_1006_2595">
<rect width="33.8182" height="33.8182" fill="white"/>
</clipPath>
</defs>
</svg>
