<svg preserveAspectRatio="none" width="100%" height="100%" overflow="visible" style="display: block;" viewBox="0 0 33.8182 33.8182" fill="none" xmlns="http://www.w3.org/2000/svg">
<g id="Figma--Streamline-Svg-Logos" clip-path="url(#clip0_1006_2612)">
<rect width="33.8182" height="33.8182" fill="white"/>
<path id="Vector" d="M11.3901 33.4659C14.4366 33.4659 16.909 30.9934 16.909 27.947V22.428H11.3901C8.34365 22.428 5.87115 24.9005 5.87115 27.947C5.87115 30.9934 8.34365 33.4659 11.3901 33.4659Z" fill="var(--fill-0, #0ACF83)"/>
<path id="Vector_2" d="M5.87115 16.9091C5.87115 13.8626 8.34365 11.3901 11.3901 11.3901H16.909V22.428H11.3901C8.34365 22.428 5.87115 19.9555 5.87115 16.9091Z" fill="var(--fill-0, #A259FF)"/>
<path id="Vector_3" d="M5.87115 5.87122C5.87115 2.82476 8.34365 0.352273 11.3901 0.352273H16.909V11.3901H11.3901C8.34365 11.3901 5.87115 8.91767 5.87115 5.87122Z" fill="var(--fill-0, #F24E1E)"/>
<path id="Vector_4" d="M16.9089 0.352273H22.4279C25.4743 0.352273 27.9468 2.82476 27.9468 5.87122C27.9468 8.91767 25.4743 11.3901 22.4279 11.3901H16.9089V0.352273Z" fill="var(--fill-0, #FF7262)"/>
<path id="Vector_5" d="M27.9468 16.9091C27.9468 19.9555 25.4743 22.428 22.4279 22.428C19.3814 22.428 16.9089 19.9555 16.9089 16.9091C16.9089 13.8626 19.3814 11.3901 22.4279 11.3901C25.4743 11.3901 27.9468 13.8626 27.9468 16.9091Z" fill="var(--fill-0, #1ABCFE)"/>
</g>
<defs>
<clipPath id="clip0_1006_2612">
<rect width="33.8182" height="33.8182" fill="white"/>
</clipPath>
</defs>
</svg>
