<svg preserveAspectRatio="none" width="100%" height="100%" overflow="visible" style="display: block;" viewBox="0 0 33.8182 33.8182" fill="none" xmlns="http://www.w3.org/2000/svg">
<g id="Frame 210" clip-path="url(#clip0_1006_2623)">
<rect width="33.8182" height="33.8182" fill="white"/>
<path id="Vector" fill-rule="evenodd" clip-rule="evenodd" d="M0.905452 2.07861C0.905452 3.22601 1.84632 4.15662 3.00641 4.15662H20.4173C22.4017 4.15662 24.0359 4.76293 25.3198 5.97555C26.6037 7.18818 27.2456 8.74683 27.2456 10.6521C27.2456 12.4131 26.6037 13.8564 25.3192 14.9821C24.0359 16.0793 22.4017 16.6277 20.4173 16.6277H12.8505C11.6898 16.6277 10.749 17.5577 10.749 18.7063C10.749 19.8537 11.6898 20.7843 12.8505 20.7843H21.206L28.7342 32.7354C29.201 33.4577 29.8574 33.8182 30.7035 33.8182C31.6377 33.8182 32.2942 33.4577 32.6734 32.7354C33.0527 31.9854 32.9796 31.1912 32.4548 30.3542L25.7576 19.7015C27.5669 18.8935 28.9969 17.7099 30.0471 16.1512C31.0978 14.5636 31.6232 12.7307 31.6232 10.6521C31.6232 8.54453 31.1413 6.69721 30.1787 5.10957C29.2451 3.52132 27.9322 2.28031 26.2395 1.38534C24.5468 0.461377 22.6065 0 20.4173 0H3.00701C1.84632 0 0.905452 0.93 0.905452 2.07861Z" fill="var(--fill-0, #111111)"/>
</g>
<defs>
<clipPath id="clip0_1006_2623">
<rect width="33.8182" height="33.8182" fill="white"/>
</clipPath>
</defs>
</svg>
