<svg preserveAspectRatio="none" width="100%" height="100%" overflow="visible" style="display: block;" viewBox="0 0 32 30.15" fill="none" xmlns="http://www.w3.org/2000/svg">
<g id="Group 237">
<path id="Vector" d="M15.8584 0C16.2441 0.0610761 30.349 10.1429 32 11.2673C29.9882 17.5902 27.889 23.8851 25.7028 30.15C22.5782 30.1233 19.4533 30.1228 16.3286 30.1487L6.31884 30.1153C4.38891 23.889 2.02384 17.4556 0 11.194C5.27737 7.44348 10.6261 3.80916 15.8584 0Z" fill="var(--fill-0, #E00000)"/>
<path id="Vector_2" d="M9.50466 23.1277C9.2562 22.343 10.2451 21.8626 11.0682 21.8526C13.878 21.8187 19.5449 21.7303 21.6652 21.8977C22.1139 21.9331 22.5407 22.1778 22.572 22.6268C22.6179 23.2837 21.9231 23.63 21.2646 23.6359C18.5638 23.6601 12.1 23.7228 10.2435 23.6037C9.92214 23.583 9.60187 23.4347 9.50466 23.1277Z" fill="var(--fill-0, #111111)"/>
<path id="Vector_3" d="M8.23734 13.4878C6.20749 13.5336 7.78379 11.9015 9.81409 11.8845C10.7698 11.8765 11.7255 11.8685 12.6812 11.866C13.1977 11.8646 14.6601 11.7458 14.6151 12.5735C14.5597 13.5944 13.7079 13.495 12.9623 13.4713C12.9362 13.9199 12.8776 14.2395 12.8032 14.6785C11.5311 17.3604 8.97123 16.2085 8.77314 13.4731C8.6216 13.4757 8.43705 13.4833 8.23734 13.4878Z" fill="var(--fill-0, #111111)"/>
<path id="Vector_4" d="M18.3619 13.4383C16.9722 13.3082 18.5575 11.8915 19.9532 11.8837C21.4016 11.8756 23.1869 11.8738 24.3245 11.91C25.0636 11.9334 25.782 12.3888 25.5593 13.094C25.3616 13.7208 24.5681 13.2821 23.8139 13.5442C23.5164 13.8486 23.61 13.8341 23.5403 14.3673C22.6212 17.2223 19.7427 16.5492 19.3652 13.4567C19.0539 13.459 18.6911 13.4692 18.3619 13.4383Z" fill="var(--fill-0, #111111)"/>
</g>
</svg>
