<svg preserveAspectRatio="none" width="100%" height="100%" overflow="visible" style="display: block;" viewBox="0 0 16 16" fill="none" xmlns="http://www.w3.org/2000/svg">
<g id="Linkedin-Box-Line--Streamline-Remix">
<path id="Vector" d="M2.66732 2H13.334C13.7022 2 14.0007 2.29848 14.0007 2.66667V13.3333C14.0007 13.7015 13.7022 14 13.334 14H2.66732C2.29913 14 2.00065 13.7015 2.00065 13.3333V2.66667C2.00065 2.29848 2.29913 2 2.66732 2ZM3.33399 3.33333V12.6667H12.6673V3.33333H3.33399ZM5.00065 6C4.44837 6 4.00065 5.55229 4.00065 5C4.00065 4.44771 4.44837 4 5.00065 4C5.55293 4 6.00065 4.44771 6.00065 5C6.00065 5.55229 5.55293 6 5.00065 6ZM4.33399 6.66667H5.66732V11.6667H4.33399V6.66667ZM8.00067 6.953C8.39027 6.57689 8.84433 6.33333 9.334 6.33333C10.7147 6.33333 11.6673 7.4526 11.6673 8.83333V11.6667H10.334V8.83333C10.334 8.189 9.81167 7.66667 9.16733 7.66667C8.523 7.66667 8.00067 8.189 8.00067 8.83333V11.6667H6.66733V6.66667H8.00067V6.953Z" fill="var(--fill-0, #111111)"/>
</g>
</svg>
