<svg preserveAspectRatio="none" width="100%" height="100%" overflow="visible" style="display: block;" viewBox="0 0 32 30.4865" fill="none" xmlns="http://www.w3.org/2000/svg">
<g id="Group 226">
<path id="Vector" d="M15.9461 0C16.3014 0.168865 18.4062 1.78542 18.9004 2.12315C23.3392 5.16172 27.6307 8.41954 32 11.5648C29.9705 17.8839 27.8962 24.1891 25.7772 30.4796L16.3404 30.4865L6.29563 30.4776C4.37571 24.2553 2.02668 17.7565 0 11.5104C5.13487 7.6394 10.7143 3.7881 15.9461 0Z" fill="var(--fill-0, #E00000)"/>
<path id="Vector_2" d="M8.04025 19.0423C8.25102 18.756 8.71604 18.5491 8.95373 18.8134C10.4484 20.4714 11.7723 22.012 14.0547 22.5748C16.521 23.1831 19.4531 22.5195 21.2966 20.7045C21.9231 20.0873 22.505 19.1877 23.2585 18.7413C23.4638 18.7146 23.6189 18.7225 23.7946 18.844C24.747 19.5047 23.1248 21.0936 22.6472 21.6792L23.3624 23.0864C23.9406 24.6624 23.8362 26.6009 22.021 27.2675C21.3574 27.5114 20.6237 27.4798 19.984 27.1786C18.7733 26.6118 18.3921 25.5305 18.0059 24.377C14.3027 25.2026 10.8686 23.6561 8.49898 20.8121C7.90712 20.1015 7.61781 19.616 8.04025 19.0423Z" fill="var(--fill-0, #111111)"/>
<path id="Vector_3" d="M21.3586 22.7124C21.6157 22.4993 21.9735 22.4892 22.1507 22.7721C22.8021 23.8123 23.0338 25.4098 22.0636 26.1616C22.0205 26.195 21.9747 26.2276 21.926 26.2593C21.5654 26.4973 21.1191 26.5664 20.7031 26.4489C19.9989 26.2581 19.6529 25.7775 19.3085 25.2088C19.2735 25.151 19.2448 25.0895 19.2225 25.0257L19.0996 24.6744C18.9889 24.358 19.1447 24.0103 19.4545 23.8824C19.7493 23.7606 20.0827 23.8812 20.2332 24.1625C20.4642 24.5941 20.7294 25.0118 21.1836 25.1575C21.2476 25.178 21.3168 25.1623 21.371 25.1228C21.4175 25.089 21.4505 25.0393 21.461 24.9828C21.5699 24.3938 21.4114 24.0355 21.1644 23.5461C21.0234 23.2666 21.0962 22.9298 21.3372 22.7301L21.3586 22.7124Z" fill="var(--fill-0, #E00000)"/>
<path id="Vector_4" d="M9.19791 11.6224C9.72552 10.1127 11.8613 9.57939 12.6433 10.9744C13.2382 12.0357 13.3501 13.6209 12.9713 14.9385C12.4739 16.6689 10.0563 17.1788 9.32027 15.5356C8.81452 14.4066 8.76538 12.86 9.19791 11.6224Z" fill="var(--fill-0, #111111)"/>
<path id="Vector_5" d="M19.0721 12.0767C19.5261 10.2926 21.9836 9.56279 22.7393 11.2415C23.2038 12.2734 23.2656 13.6827 22.9269 14.8833C22.4539 16.5597 20.1233 17.2757 19.3439 15.718C18.8442 14.7194 18.7594 13.3057 19.0721 12.0767Z" fill="var(--fill-0, #111111)"/>
</g>
</svg>
