<svg preserveAspectRatio="none" width="100%" height="100%" overflow="visible" style="display: block;" viewBox="0 0 32 30.1684" fill="none" xmlns="http://www.w3.org/2000/svg">
<g id="Group 235">
<path id="Vector" d="M15.9379 0C21.1514 3.81994 26.7313 7.45218 32 11.2732C30.0271 17.4152 27.8739 24.0587 25.6587 30.1167L16.2453 30.1197C13.3839 30.1229 9.10219 30.2562 6.38364 30.0676C4.21176 23.811 2.2034 17.4968 0 11.2456L6.89781 6.38596C9.88033 4.31745 13.048 2.18896 15.9379 0Z" fill="var(--fill-0, #E00000)"/>
<path id="Vector_2" d="M15.6125 19.8295C18.4943 19.6513 21.2624 21.8539 21.9903 23.4208C22.5561 24.6388 20.7523 24.5514 19.9422 23.4802C19.3385 22.6818 18.4482 21.8193 16.4526 21.628L16.3098 21.615C13.151 21.534 12.6132 22.8258 10.7969 24.8104C10.1685 25.4965 9.66992 23.8196 10.1602 23.0289C10.3266 22.7606 10.5065 22.5189 10.6482 22.3559C12.0606 20.7332 13.5184 20.0239 15.6125 19.8295Z" fill="var(--fill-0, #111111)"/>
<path id="Vector_3" d="M19.0151 13.1461C19.401 11.2374 22.075 10.2755 22.7796 12.0908C23.1909 13.1505 23.1533 14.566 22.9409 15.5631C22.9291 15.6184 22.9167 15.6726 22.9036 15.7256C22.5088 17.3281 20.2112 18.0329 19.4099 16.59C18.9039 15.679 18.7711 14.3526 19.0151 13.1461Z" fill="var(--fill-0, #111111)"/>
<path id="Vector_4" d="M9.15242 12.946C9.55699 11.1443 12.0453 10.3584 12.8144 12.0372C13.2695 13.0304 13.3218 14.386 12.9839 15.5612C12.5034 17.2319 10.1986 17.9726 9.44882 16.4041C8.99161 15.4476 8.88915 14.1185 9.15242 12.946Z" fill="var(--fill-0, #111111)"/>
</g>
</svg>
