<svg preserveAspectRatio="none" width="100%" height="100%" overflow="visible" style="display: block;" viewBox="0 0 32 30.6304" fill="none" xmlns="http://www.w3.org/2000/svg">
<g id="Group 220">
<path id="Vector" d="M15.9257 0C16.3115 0.129877 18.8407 2.03014 19.3076 2.36399L32 11.5559C30.1965 17.7383 27.804 24.4962 25.7226 30.6304L16.1881 30.6176L6.34736 30.6196L0 11.5194C5.09218 7.58675 10.9335 3.88566 15.9257 0Z" fill="var(--fill-0, #E00000)"/>
<path id="Vector_2" d="M10.6042 19.842C12.5463 19.7977 21.1949 19.5375 22.4356 20.183C23.2478 20.6057 23.8814 21.468 24.1375 22.3371C24.3549 23.0742 24.3345 23.8891 23.9701 24.571C23.4133 25.6116 22.7433 26.0984 21.6364 26.4393C19.5246 26.4423 10.7464 26.7389 9.47802 26.1181C8.7605 25.7673 8.23605 25.1021 7.98295 24.3532C7.67918 23.4545 7.75044 22.4002 8.20303 21.5626C8.72275 20.6008 9.58959 20.1219 10.6042 19.842Z" fill="var(--fill-0, #111111)"/>
<path id="Vector_3" d="M12.9837 21.8713C12.9875 21.4098 13.3622 21.0374 13.8238 21.0365L14.6615 21.0349C15.1247 21.0339 15.501 21.4087 15.5019 21.8719C15.5028 22.3327 15.1318 22.7079 14.671 22.7122L13.8333 22.7201C13.3626 22.7245 12.9798 22.342 12.9837 21.8713Z" fill="var(--fill-0, #E00000)"/>
<path id="Vector_4" d="M19.9876 21.8916C19.9858 21.4403 20.3411 21.0654 20.7923 21.0738C21.3362 21.0839 21.8899 21.215 22.302 21.5701C22.3275 21.592 22.3522 21.6141 22.3763 21.6365C22.8477 22.0757 22.4248 22.7578 21.7805 22.7531C21.4625 22.7508 21.1323 22.7456 20.8289 22.7407C20.3653 22.7332 19.9894 22.3553 19.9876 21.8916Z" fill="var(--fill-0, #E00000)"/>
<path id="Vector_5" d="M16.6851 21.0976C16.7306 21.0722 16.7813 21.0577 16.8334 21.0556C17.2135 21.0406 17.6122 21.0355 18.0096 21.0326C18.5588 21.0286 19.0316 21.4683 19.0183 22.0174C19.0142 22.1876 19.0032 22.3536 18.9802 22.5064C18.9695 22.5776 18.9228 22.6375 18.8582 22.6695C18.8261 22.6854 18.7907 22.6937 18.7548 22.6937H17.4749C16.9217 22.6937 16.4483 22.2435 16.4847 21.6915C16.4928 21.5684 16.5054 21.4454 16.5247 21.3225C16.5398 21.2267 16.6005 21.145 16.6851 21.0976Z" fill="var(--fill-0, #E00000)"/>
<path id="Vector_6" d="M10.7702 21.0681C10.8332 21.0523 10.8979 21.0456 10.9628 21.0446L11.1327 21.042C11.5965 21.035 11.9772 21.407 11.981 21.8708C11.9847 22.3323 11.6136 22.71 11.1522 22.7237C10.8025 22.734 10.4514 22.7469 10.1084 22.7567C9.6753 22.7577 9.14258 22.7567 9.14258 22.4877C9.20209 21.7374 10.0827 21.2407 10.7702 21.0681Z" fill="var(--fill-0, #E00000)"/>
<path id="Vector_7" d="M12.9721 24.455C12.9769 24.0208 13.3297 23.6711 13.7639 23.6701L14.6273 23.668C15.1006 23.6669 15.4852 24.0495 15.4866 24.5228C15.4878 24.9425 15.1816 25.2696 14.7619 25.2722C14.4563 25.2741 14.1004 25.2733 13.7811 25.2725C13.3333 25.2713 12.967 24.9028 12.9721 24.455Z" fill="var(--fill-0, #E00000)"/>
<path id="Vector_8" d="M19.9972 24.4703C19.9966 24.0281 20.3581 23.6711 20.8003 23.6712C21.1778 23.6714 21.5579 23.6688 21.9369 23.6658C22.4796 23.6615 22.8651 24.2027 22.5355 24.6339C22.4976 24.6835 22.4357 24.7511 22.3852 24.788C21.836 25.1886 21.3532 25.2608 20.7816 25.265C20.3476 25.2682 19.9979 24.9043 19.9972 24.4703Z" fill="var(--fill-0, #E00000)"/>
<path id="Vector_9" d="M16.4881 24.4378C16.51 24.0177 16.8544 23.6868 17.2751 23.6817L18.1744 23.671C18.6279 23.6655 19.002 24.0294 18.9945 24.4829C18.9874 24.9107 18.6373 25.2487 18.2095 25.2577L17.3015 25.2768C16.8381 25.2866 16.4639 24.9007 16.4881 24.4378Z" fill="var(--fill-0, #E00000)"/>
<path id="Vector_10" d="M9.78394 24.8461C9.23034 24.4248 9.70445 23.6528 10.4001 23.6557C10.6649 23.6567 10.931 23.6599 11.1901 23.6631C11.6309 23.6686 11.9864 24.029 11.9837 24.4698C11.981 24.8998 11.6374 25.2588 11.2076 25.2458C10.6231 25.2281 10.1682 25.1386 9.78394 24.8461Z" fill="var(--fill-0, #E00000)"/>
<path id="Vector_11" d="M9.16707 12.5517C9.7118 10.7289 12.3205 10.4169 12.9309 12.2187C13.2931 13.2879 13.2929 14.6334 12.9257 15.7277C12.3688 17.3869 9.98683 17.5915 9.31184 15.9768C8.88995 14.9675 8.83358 13.6677 9.16707 12.5517Z" fill="var(--fill-0, #111111)"/>
<path id="Vector_12" d="M19.3097 11.9794C19.9491 10.528 22.0872 10.4388 22.7357 11.8862C23.1837 12.8861 23.281 14.2174 22.9775 15.3638C22.4683 17.2876 19.7134 17.5 19.1295 15.5975C18.779 14.4556 18.8365 13.0535 19.3097 11.9794Z" fill="var(--fill-0, #111111)"/>
</g>
</svg>
