<svg preserveAspectRatio="none" width="100%" height="100%" overflow="visible" style="display: block;" viewBox="0 0 32 30.5326" fill="none" xmlns="http://www.w3.org/2000/svg">
<g id="Group 219">
<path id="Vector" d="M15.896 0C16.1953 0.11653 19.0126 2.1312 19.3887 2.39694C23.6089 5.40861 27.8123 8.44263 32 11.499C31.0087 15.1071 29.5547 19.1748 28.3616 22.7347C27.5278 25.2228 26.5985 28.0907 25.684 30.5247L16.151 30.5286L6.35979 30.5326C4.27835 24.3084 1.88111 17.6739 0 11.4262C1.17992 10.4557 2.86621 9.33826 4.15599 8.39126C8.04826 5.56461 11.9619 2.76739 15.896 0Z" fill="var(--fill-0, #E00000)"/>
<path id="Vector_2" d="M14.19 19.8333C14.9562 19.0279 16.2233 18.7412 17.2073 19.2583C19.2055 20.3084 19.6112 23.5873 18.0655 25.4562C17.2911 26.3925 15.89 26.7364 14.8142 26.1715C12.7087 25.0661 12.4783 21.6326 14.19 19.8333Z" fill="var(--fill-0, #111111)"/>
<path id="Vector_3" d="M9.10639 13.1157C9.44734 11.0281 12.3212 10.1567 13.0212 12.1529C13.3968 13.2239 13.3755 14.5891 12.9694 15.7075C12.46 17.1105 10.5239 17.8277 9.68501 16.5931C9.09866 15.7302 8.90028 14.3778 9.10639 13.1157Z" fill="var(--fill-0, #111111)"/>
<path id="Vector_4" d="M19.0514 12.4361C19.5259 10.8188 21.8301 10.0005 22.539 11.5296C23.1324 12.8092 23.2893 14.6898 22.6524 16.059C22.0881 17.2721 20.3308 17.7652 19.5428 16.6839C18.805 15.6716 18.6202 13.9056 19.0514 12.4361Z" fill="var(--fill-0, #111111)"/>
</g>
</svg>
