<svg preserveAspectRatio="none" width="100%" height="100%" overflow="visible" style="display: block;" viewBox="0 0 16 16" fill="none" xmlns="http://www.w3.org/2000/svg">
<g id="Instagram-Line--Streamline-Remix">
<path id="Vector" d="M8.00067 6C6.89573 6 6.00065 6.8954 6.00065 8C6.00065 9.10487 6.89607 10 8.00067 10C9.10553 10 10.0007 9.1046 10.0007 8C10.0007 6.89513 9.10527 6 8.00067 6ZM8.00067 4.66667C9.84093 4.66667 11.334 6.15807 11.334 8C11.334 9.84033 9.8426 11.3333 8.00067 11.3333C6.16034 11.3333 4.66732 9.84193 4.66732 8C4.66732 6.15969 6.15872 4.66667 8.00067 4.66667ZM12.334 4.49943C12.334 4.95951 11.9601 5.33278 11.5007 5.33278C11.0406 5.33278 10.6673 4.95893 10.6673 4.49943C10.6673 4.03993 11.0411 3.66667 11.5007 3.66667C11.9595 3.66609 12.334 4.03993 12.334 4.49943ZM8.00067 2.66667C6.351 2.66667 6.08212 2.67103 5.31485 2.7052C4.7921 2.72974 4.44169 2.80005 4.11611 2.92645C3.82677 3.03866 3.61806 3.17265 3.39568 3.39503C3.17245 3.61827 3.03869 3.82642 2.92693 4.11589C2.80024 4.44221 2.72995 4.79207 2.70585 5.3141C2.67135 6.05013 2.66732 6.30737 2.66732 8C2.66732 9.64967 2.67169 9.91853 2.70585 10.6857C2.7304 11.2083 2.8008 11.5592 2.92689 11.884C3.0394 12.1737 3.17367 12.3829 3.39497 12.6043C3.61909 12.8281 3.82786 12.9623 4.11458 13.0729C4.44413 13.2003 4.79432 13.2707 5.31475 13.2948C6.05079 13.3293 6.30802 13.3333 8.00067 13.3333C9.65033 13.3333 9.9192 13.3289 10.6864 13.2948C11.2078 13.2703 11.559 13.1997 11.8847 13.0737C12.1736 12.9615 12.3835 12.8268 12.6049 12.6057C12.8291 12.3812 12.963 12.1729 13.0738 11.8855C13.2009 11.5572 13.2714 11.2065 13.2955 10.6859C13.3299 9.94987 13.334 9.6926 13.334 8C13.334 6.35035 13.3296 6.08147 13.2955 5.31425C13.2709 4.79271 13.2003 4.44099 13.0742 4.11545C12.9623 3.82692 12.8278 3.61757 12.6056 3.39503C12.382 3.17143 12.1744 3.03795 11.8847 2.92628C11.5587 2.79969 11.2083 2.72931 10.6865 2.70521C9.95053 2.6707 9.69327 2.66667 8.00067 2.66667ZM8.00067 1.33333C9.81173 1.33333 10.0379 1.34 10.749 1.37333C11.4584 1.40611 11.9423 1.51833 12.3673 1.68333C12.8067 1.85278 13.1779 2.08167 13.5484 2.45222C13.9184 2.82278 14.1473 3.195 14.3173 3.63333C14.4817 4.05778 14.594 4.54222 14.6273 5.25167C14.659 5.96278 14.6673 6.18889 14.6673 8C14.6673 9.81113 14.6607 10.0372 14.6273 10.7483C14.5945 11.4578 14.4817 11.9417 14.3173 12.3667C14.1479 12.8061 13.9184 13.1772 13.5484 13.5478C13.1779 13.9178 12.8051 14.1467 12.3673 14.3167C11.9423 14.4811 11.4584 14.5933 10.749 14.6267C10.0379 14.6583 9.81173 14.6667 8.00067 14.6667C6.18954 14.6667 5.96343 14.66 5.25232 14.6267C4.54287 14.5939 4.05954 14.4811 3.63399 14.3167C3.19509 14.1472 2.82343 13.9178 2.45287 13.5478C2.08232 13.1772 1.85399 12.8045 1.68399 12.3667C1.51899 11.9417 1.40732 11.4578 1.37399 10.7483C1.34232 10.0372 1.33399 9.81113 1.33399 8C1.33399 6.18889 1.34065 5.96278 1.37399 5.25167C1.40676 4.54167 1.51899 4.05833 1.68399 3.63333C1.85343 3.19445 2.08232 2.82278 2.45287 2.45222C2.82343 2.08167 3.19565 1.85333 3.63399 1.68333C4.05899 1.51833 4.54232 1.40667 5.25232 1.37333C5.96343 1.34167 6.18954 1.33333 8.00067 1.33333Z" fill="var(--fill-0, #111111)"/>
</g>
</svg>
