<svg preserveAspectRatio="none" width="100%" height="100%" overflow="visible" style="display: block;" viewBox="0 0 32 30.3436" fill="none" xmlns="http://www.w3.org/2000/svg">
<g id="Group 223">
<path id="Vector" d="M15.921 0C16.4148 0.227193 20.4166 3.14136 21.0206 3.5869C24.6132 6.2424 28.4517 8.84283 32 11.5416C31.7905 12.2497 31.5622 12.9697 31.3281 13.669C29.4758 19.1963 27.7385 24.8486 25.7248 30.318L16.1669 30.3436C12.9071 30.3239 9.6472 30.3219 6.38742 30.3377C5.58106 28.2133 4.84445 25.8951 4.10941 23.7323C2.70829 19.6527 1.33846 15.5622 0 11.461C1.77277 10.083 3.89575 8.64908 5.74584 7.32723L15.921 0Z" fill="var(--fill-0, #E00000)"/>
<path id="Vector_2" d="M7.77732 11.2631C7.23677 10.4353 8.50818 9.87432 9.30357 10.4615C9.67495 10.7357 10.0285 11.0458 10.3397 11.2769C10.7202 11.5542 11.1013 11.8309 11.4828 12.1068C12.8111 13.0673 13.6861 14.7789 13.3202 16.3767C13.1941 16.9276 12.9588 17.4609 12.458 17.9908C12.3542 18.1006 12.2283 18.1884 12.0899 18.249C9.95475 19.1794 9.06103 16.698 9.22227 15.0211C9.34331 13.763 9.01575 12.5497 8.11401 11.6641C7.98284 11.5353 7.86779 11.4016 7.77732 11.2631Z" fill="var(--fill-0, #111111)"/>
<path id="Vector_3" d="M22.5237 10.7732C23.33 10.1688 24.9369 9.7807 24.5594 10.715C23.8867 12.3797 23.0978 14.1773 22.888 15.9606C22.8739 16.0805 22.8554 16.2029 22.8324 16.3283C22.6177 17.5003 22.069 18.3574 21.0098 18.4319C20.5339 18.4653 20.0672 18.2639 19.719 17.9379C18.5135 16.8093 18.9167 15.4183 18.5217 13.8596C18.5011 13.7802 18.5253 13.6957 18.5872 13.6418C19.1253 13.1735 20.1469 12.507 20.7066 12.11C21.3166 11.6696 21.9221 11.2242 22.5237 10.7732Z" fill="var(--fill-0, #111111)"/>
<path id="Vector_4" d="M15.2088 20.4074C17.8393 20.0946 19.8697 21.2158 21.5253 23.2143C22.9881 24.9807 21.546 26.3685 20.3153 24.4437C19.4949 23.1612 18.5427 22.6252 17.073 22.2131C12.2943 21.4558 11.8273 25.8266 10.3005 25.3948C9.81742 24.847 10.1024 23.8644 10.5071 23.3412C11.7544 21.7292 13.1704 20.7133 15.2088 20.4074Z" fill="var(--fill-0, #111111)"/>
</g>
</svg>
