<svg width="32" height="32" viewBox="0 0 32 32" fill="none" xmlns="http://www.w3.org/2000/svg">
<path d="M7.96558 14.1243V11.4905C7.96558 11.3346 7.96558 11.2722 8.16906 11.2722C9.91347 11.2722 11.3313 11.1688 12.0353 11.584C12.741 11.9976 12.7705 12.5686 12.782 12.7393C12.7935 12.91 12.7886 13.1545 12.4603 13.7502C12.1321 14.3459 10.6634 14.3574 9.60332 14.3574H8.20024C8.02794 14.3574 7.96558 14.295 7.96558 14.1243ZM12.8 16.8845C12.9626 17.092 13.0786 17.332 13.1402 17.5882C13.2018 17.8445 13.2076 18.111 13.1572 18.3697C13.1068 18.6284 13.0013 18.8732 12.8479 19.0875C12.6946 19.3018 12.4969 19.4807 12.2683 19.6119C11.9326 19.7532 11.5725 19.8273 11.2082 19.8302H8.18383C8.02793 19.8302 7.96558 19.8302 7.96558 19.6283V16.5104C7.96558 16.3545 7.96558 16.2921 8.16906 16.2921H10.1793C11.4265 16.2921 12.206 16.1838 12.8 16.8845Z" fill="white"/>
<path d="M23.7768 15.4404C23.6932 15.2433 23.5663 15.0674 23.4055 14.926C23.2447 14.7845 23.0542 14.681 22.848 14.6232C22.4358 14.5106 22.0045 14.4867 21.5824 14.5532C21.1603 14.6197 20.7572 14.775 20.3996 15.0088C20.0432 15.3689 19.8129 15.8346 19.7432 16.3364C19.7432 16.512 19.7432 16.5448 19.9516 16.5448H23.8408C24.0328 16.5448 24.0328 16.5448 24.0164 16.3036C23.998 16.002 23.9174 15.7078 23.7768 15.4404ZM23.7768 15.4404C23.6932 15.2433 23.5647 15.0674 23.4039 14.926C23.2431 14.7845 23.0542 14.681 22.848 14.6232C22.4358 14.5106 22.0045 14.4867 21.5824 14.5532C21.1603 14.6197 20.7572 14.775 20.3996 15.0088C20.0432 15.3689 19.8113 15.8346 19.7415 16.3364C19.7415 16.512 19.7415 16.5448 19.9499 16.5448H23.8408C24.0328 16.5448 24.0328 16.5448 24.0164 16.3036C23.998 16.002 23.9142 15.7078 23.7735 15.4404M25.6 0H6.4C4.70261 0 3.07475 0.674284 1.87452 1.87452C0.674284 3.07475 0 4.70261 0 6.4V25.6C0 27.2974 0.674284 28.9252 1.87452 30.1255C3.07475 31.3257 4.70261 32 6.4 32H25.6C27.2974 32 28.9252 31.3257 30.1255 30.1255C31.3257 28.9252 32 27.2974 32 25.6V6.4C32 4.70261 31.3257 3.07475 30.1255 1.87452C28.9252 0.674284 27.2974 0 25.6 0ZM19.328 10.1908C19.328 10.0644 19.328 10.0152 19.4724 10.0152H24.6564V11.3608C24.6564 11.3608 24.6613 11.456 24.576 11.456H19.5528C19.328 11.456 19.328 11.456 19.328 11.2328V10.1908ZM14.528 21.952C12.5588 23.0236 9.24882 22.592 5.32841 22.592V9.32759H11.584C13.184 9.32759 15.0876 9.728 15.5996 11.4232C15.8655 12.1636 15.8493 12.976 15.5541 13.7052C15.259 14.4344 14.7056 15.0294 13.9996 15.3764C14.6503 15.6172 15.2185 16.0394 15.6368 16.5931C16.0551 17.1467 16.306 17.8086 16.3599 18.5004C16.4137 19.1921 16.2683 19.8849 15.9407 20.4966C15.6132 21.1083 15.1172 21.6134 14.5116 21.952H14.528ZM26.4484 18.176H20.0484C19.8728 18.176 19.712 18.2712 19.7432 18.496C19.9352 19.4396 20.3668 20.4324 21.3448 20.5768C21.8613 20.7305 22.4143 20.7069 22.9157 20.5097C23.4172 20.3125 23.8382 19.9531 24.1116 19.4888C24.1116 19.4888 24.192 19.392 24.2396 19.392H26.3204C26.3204 19.392 26.4484 19.392 26.4156 19.5036C26.1961 20.125 25.8714 20.7039 25.4556 21.2152C24.8995 21.7464 24.2284 22.1423 23.4945 22.3722C22.7605 22.6021 21.9835 22.6597 21.2237 22.5407C20.4639 22.4216 19.7417 22.1291 19.1133 21.6858C18.4848 21.2425 17.967 20.6603 17.6 19.9844C17.3743 19.5337 17.2335 19.0453 17.1848 18.5436C16.8994 17.2826 17.1176 15.96 17.7928 14.8575C18.4681 13.755 19.547 12.9596 20.8 12.6408C24.4316 11.8564 26.7356 14.3524 26.7356 17.8724C26.741 17.9136 26.7368 17.9554 26.7235 17.9947C26.7101 18.0339 26.6879 18.0696 26.6586 18.099C26.6292 18.1283 26.5935 18.1505 26.5543 18.1639C26.515 18.1772 26.4731 18.1814 26.432 18.176H26.4484ZM22.8644 14.6232C22.4526 14.509 22.0209 14.4854 21.5992 14.5543C21.1774 14.6199 20.8 14.7003 20.416 15.0088C20.032 15.3157 19.8285 15.8343 19.7596 16.3364C19.7596 16.512 19.7596 16.5448 19.968 16.5448H23.8408C24.0328 16.5448 24.0328 16.5448 24.0164 16.3036C23.998 16.002 23.9174 15.7078 23.7768 15.4404C23.6932 15.2433 23.5663 15.0674 23.4055 14.926C23.2447 14.7845 23.0542 14.681 22.848 14.6232H22.8644Z" fill="white"/>
</svg>
