<svg width="32" height="32" viewBox="0 0 32 32" fill="none" xmlns="http://www.w3.org/2000/svg">
<path d="M17.5085 0C19.2945 0.00476268 20.201 0.014288 20.9837 0.0365139L21.2917 0.0476267C21.6473 0.0603272 21.9981 0.0762028 22.422 0.0952535C24.1112 0.174631 25.2637 0.441342 26.275 0.833469C27.3228 1.23671 28.2055 1.78283 29.0882 2.66392C29.8958 3.45728 30.5204 4.41734 30.9186 5.47708C31.3108 6.48835 31.5775 7.64092 31.6568 9.33167C31.6759 9.75396 31.6918 10.1048 31.7045 10.462L31.714 10.77C31.7378 11.5511 31.7473 12.4576 31.7505 14.2436L31.7521 15.4279V17.5076C31.756 18.6656 31.7438 19.8235 31.7156 20.9812L31.7061 21.2892C31.6934 21.6464 31.6775 21.9972 31.6584 22.4195C31.5791 24.1103 31.3092 25.2612 30.9186 26.2741C30.5204 27.3338 29.8958 28.2939 29.0882 29.0873C28.2948 29.8948 27.3348 30.5195 26.275 30.9177C25.2637 31.3098 24.1112 31.5766 22.422 31.6559L21.2917 31.7036L20.9837 31.7131C20.201 31.7353 19.2945 31.7464 17.5085 31.7496L16.3242 31.7512H14.2461C13.0876 31.7553 11.9291 31.7431 10.7709 31.7147L10.4629 31.7051C10.0861 31.6909 9.70926 31.6745 9.33258 31.6559C7.64341 31.5766 6.49085 31.3098 5.47798 30.9177C4.41881 30.5193 3.45931 29.8946 2.66642 29.0873C1.85826 28.2941 1.23302 27.334 0.834372 26.2741C0.442245 25.2628 0.175534 24.1103 0.0961565 22.4195L0.0485297 21.2892L0.0405921 20.9812C0.0113271 19.8236 -0.00190395 18.6656 0.000902999 17.5076V14.2436C-0.0034912 13.0856 0.00815214 11.9276 0.0358294 10.77L0.0469423 10.462C0.0596428 10.1048 0.0755183 9.75396 0.094569 9.33167C0.173947 7.64092 0.440657 6.48994 0.832784 5.47708C1.23236 4.4169 1.8587 3.45681 2.668 2.66392C3.46044 1.85673 4.41938 1.23206 5.47798 0.833469C6.49085 0.441342 7.64183 0.174631 9.33258 0.0952535C9.75487 0.0762028 10.1073 0.0603272 10.4629 0.0476267L10.7709 0.0381013C11.9285 0.00989479 13.0865 -0.00227767 14.2445 0.00158744L17.5085 0ZM15.8765 7.9378C13.7713 7.9378 11.7523 8.7741 10.2636 10.2627C8.775 11.7513 7.9387 13.7704 7.9387 15.8756C7.9387 17.9808 8.775 19.9998 10.2636 21.4885C11.7523 22.9771 13.7713 23.8134 15.8765 23.8134C17.9817 23.8134 20.0007 22.9771 21.4894 21.4885C22.978 19.9998 23.8143 17.9808 23.8143 15.8756C23.8143 13.7704 22.978 11.7513 21.4894 10.2627C20.0007 8.7741 17.9817 7.9378 15.8765 7.9378ZM15.8765 11.1129C16.5019 11.1128 17.1213 11.2359 17.6992 11.4751C18.277 11.7144 18.8021 12.0651 19.2445 12.5073C19.6868 12.9495 20.0377 13.4745 20.2771 14.0523C20.5166 14.6301 20.6399 15.2494 20.64 15.8748C20.6401 16.5002 20.517 17.1196 20.2777 17.6975C20.0385 18.2753 19.6878 18.8004 19.2456 19.2428C18.8034 19.6851 18.2784 20.036 17.7006 20.2754C17.1228 20.5149 16.5035 20.6382 15.8781 20.6383C14.6149 20.6383 13.4035 20.1365 12.5104 19.2433C11.6172 18.3501 11.1154 17.1387 11.1154 15.8756C11.1154 14.6125 11.6172 13.401 12.5104 12.5079C13.4035 11.6147 14.6149 11.1129 15.8781 11.1129M24.2128 5.55646C23.6865 5.55646 23.1817 5.76553 22.8096 6.13769C22.4374 6.50985 22.2283 7.0146 22.2283 7.54091C22.2283 8.06721 22.4374 8.57197 22.8096 8.94412C23.1817 9.31628 23.6865 9.52536 24.2128 9.52536C24.7391 9.52536 25.2438 9.31628 25.616 8.94412C25.9881 8.57197 26.1972 8.06721 26.1972 7.54091C26.1972 7.0146 25.9881 6.50985 25.616 6.13769C25.2438 5.76553 24.7391 5.55646 24.2128 5.55646Z" fill="white"/>
</svg>
