<svg width="32" height="32" viewBox="0 0 32 32" fill="none" xmlns="http://www.w3.org/2000/svg">
<path fill-rule="evenodd" clip-rule="evenodd" d="M6 0C2.68628 0 0 2.68628 0 6V26C0 29.3137 2.68628 32 6 32H26C29.3137 32 32 29.3137 32 26V6C32 2.68628 29.3137 0 26 0H6ZM21.2864 6.59851L17.5985 10.3895V5H14.4015V10.3895L10.7136 6.59851L8.57361 8.79095L12.441 12.4779H7V15.5295H12.4678L8.57361 19.3121L10.7146 21.4531L16.001 16.1409L21.2864 21.4531L23.4272 19.3039L19.5332 15.5212H25V12.4779H19.5598L23.4272 8.79004L21.2864 6.59851ZM17.5985 19.8794H14.4015V27.0994H17.5985V19.8794Z" fill="white"/>
</svg>
