<svg width="33" height="32" viewBox="0 0 33 32" fill="none" xmlns="http://www.w3.org/2000/svg">
<path d="M0.627686 2.52228C0.627686 1.26609 1.67153 0.248047 2.95947 0.248047H30.0479C31.3358 0.248047 32.3796 1.26609 32.3796 2.52228V29.7258C32.3796 30.982 31.3358 32 30.0479 32H2.95947C1.67153 32 0.627686 30.982 0.627686 29.7258V2.52228ZM10.4371 26.8284V12.4904H5.67228V26.8284H10.4371ZM8.05566 10.5317C9.71668 10.5317 10.7506 9.4323 10.7506 8.05506C10.7208 6.64805 9.71867 5.57841 8.08741 5.57841C6.45615 5.57841 5.39048 6.65003 5.39048 8.05506C5.39048 9.4323 6.4244 10.5317 8.02391 10.5317H8.05566ZM17.7956 26.8284V18.821C17.7956 18.3923 17.8273 17.9637 17.9543 17.658C18.2976 16.8027 19.0815 15.9157 20.3992 15.9157C22.1238 15.9157 22.8124 17.2294 22.8124 19.1583V26.8284H27.5772V18.6046C27.5772 14.1991 25.2275 12.1511 22.092 12.1511C19.5638 12.1511 18.4306 13.5402 17.7956 14.5186V14.5682H17.7638L17.7956 14.5186V12.4904H13.0328C13.0923 13.8359 13.0328 26.8284 13.0328 26.8284H17.7956Z" fill="white"/>
</svg>
