<svg width="1730" height="640" viewBox="0 0 1730 640" fill="none" xmlns="http://www.w3.org/2000/svg">
<path d="M1676.59 393.481H1726.36L1659.8 490.761L1729.21 592.593H1678.01L1633.35 524.326L1588.41 592.593H1538.63L1608.04 491.33L1541.48 393.481H1592.68L1634.2 458.05L1676.59 393.481Z" fill="white"/>
<path d="M1460.14 592.593V393.481H1503.95V592.593H1460.14Z" fill="white"/>
<path d="M1233.43 592.593V393.481H1273.82L1367.12 516.077V393.481H1410.35V592.593H1373.09L1276.66 466.015V592.593H1233.43Z" fill="white"/>
<path d="M1042.87 592.593V393.481H1193.06V432.45H1086.39V472.841H1180.26V511.81H1086.39V553.624H1194.48V592.593H1042.87Z" fill="white"/>
<path d="M915.675 596.006C853.667 596.006 811 552.771 811 493.606V493.037C811 436.433 855.089 390.068 915.391 390.068C950.947 390.068 973.133 399.739 993.613 417.375L966.022 450.655C950.947 437.855 936.724 430.459 913.969 430.459C882.111 430.459 856.795 458.619 856.795 492.468V493.037C856.795 529.446 881.827 556.184 917.098 556.184C933.311 556.184 947.249 552.202 958.342 544.237V515.793H914.253V477.962H1000.72V564.433C980.244 581.784 952.084 596.006 915.675 596.006Z" fill="white"/>
<path d="M1425.65 252.84V53.7285H1469.46V213.017H1568.73V252.84H1425.65Z" fill="white"/>
<path d="M1235.1 252.84V53.7285H1385.28V92.6974H1278.62V133.089H1372.48V172.057H1278.62V213.871H1386.7V252.84H1235.1Z" fill="white"/>
<path d="M1044.54 252.84V53.7285H1194.73V92.6974H1088.06V133.089H1181.93V172.057H1088.06V213.871H1196.15V252.84H1044.54Z" fill="white"/>
<path d="M819.818 252.84V53.7285H860.209L953.506 176.324V53.7285H996.742V252.84H959.48L863.053 126.262V252.84H819.818Z" fill="white"/>
<path d="M337.777 0L675.556 244.458H0L337.777 0Z" fill="white"/>
<path d="M33.9856 348.65L129.02 640H546.535L641.569 348.65H33.9856Z" fill="white"/>
</svg>
