<?xml version="1.0" encoding="UTF-8"?>
<svg id="Layer_2" xmlns="http://www.w3.org/2000/svg" viewBox="0 0 63 64">
  <defs>
    <style>
      .cls-1 {
        fill: #823425;
      }
    </style>
  </defs>
  <g id="Layer_1-2" data-name="Layer_1">
    <g>
      <polygon class="cls-1" points="24 0 24 .02 29.97 4.44 30 4.46 57 24.44 44.39 64 50.39 64 63 24.44 30 .02 29.97 0 24 0"/>
      <polygon class="cls-1" points="12 0 12 .02 17.97 4.44 18 4.46 23.97 8.88 24 8.9 29.97 13.32 30 13.34 45 24.44 32.39 64 38.39 64 51 24.44 30 8.9 29.97 8.88 24 4.46 23.97 4.44 18 .02 17.97 0 12 0"/>
      <polygon class="cls-1" points="0 0 0 .02 5.97 4.44 6 4.46 11.97 8.88 12 8.9 17.97 13.32 18 13.34 23.97 17.76 24 17.78 29.97 22.2 30 22.22 33 24.44 30 33.85 29.97 33.95 24 52.67 23.97 52.77 20.39 64 26.39 64 29.97 52.77 30 52.67 39 24.44 30 17.78 29.97 17.76 24 13.34 23.97 13.32 18 8.9 17.97 8.88 12 4.46 11.97 4.44 6 .02 5.97 0 0 0"/>
      <!-- <polygon points="18 0 18 .02 23.97 4.44 24 4.46 29.97 8.88 30 8.9 51 24.44 38.39 64 44.39 64 57 24.44 30 4.46 29.97 4.44 24 .02 23.97 0 18 0"/>
      <polygon points="6 0 6 .02 11.97 4.44 12 4.46 17.97 8.88 18 8.9 23.97 13.32 24 13.34 29.97 17.76 30 17.78 39 24.44 30 52.67 29.97 52.77 26.39 64 32.39 64 45 24.44 30 13.34 29.97 13.32 24 8.9 23.97 8.88 18 4.46 17.97 4.44 12 .02 11.97 0 6 0"/>
      <polygon points="0 .02 0 64 20.39 64 23.97 52.77 24 52.67 29.97 33.95 30 33.85 33 24.44 30 22.22 29.97 22.2 24 17.78 23.97 17.76 18 13.34 17.97 13.32 12 8.9 11.97 8.88 6 4.46 5.97 4.44 0 .02"/> -->
    </g>
  </g>
</svg>