<?xml version="1.0" encoding="UTF-8"?>
<svg id="Layer_2" xmlns="http://www.w3.org/2000/svg" viewBox="0 0 63 64">
  <defs>
    <style>
      .cls-1 {
        fill: #fff903;
      }
    </style>
  </defs>
  <g id="Layer_1-2" data-name="Layer_1">
    <g>
      <polygon class="cls-1" points="39 0 39 .02 33.03 4.44 33 4.46 6 24.44 18.61 64 12.61 64 0 24.44 33 .02 33.03 0 39 0"/>
      <polygon class="cls-1" points="51 0 51 .02 45.03 4.44 45 4.46 39.03 8.88 39 8.9 33.03 13.32 33 13.34 18 24.44 30.61 64 24.61 64 12 24.44 33 8.9 33.03 8.88 39 4.46 39.03 4.44 45 .02 45.03 0 51 0"/>
      <polygon class="cls-1" points="63 0 63 .02 57.03 4.44 57 4.46 51.03 8.88 51 8.9 45.03 13.32 45 13.34 39.03 17.76 39 17.78 33.03 22.2 33 22.22 30 24.44 33 33.85 33.03 33.95 39 52.67 39.03 52.77 42.61 64 36.61 64 33.03 52.77 33 52.67 24 24.44 33 17.78 33.03 17.76 39 13.34 39.03 13.32 45 8.9 45.03 8.88 51 4.46 51.03 4.44 57 .02 57.03 0 63 0"/>
      <polygon points="45 0 45 .02 39.03 4.44 39 4.46 33.03 8.88 33 8.9 12 24.44 24.61 64 18.61 64 6 24.44 33 4.46 33.03 4.44 39 .02 39.03 0 45 0"/>
      <polygon points="57 0 57 .02 51.03 4.44 51 4.46 45.03 8.88 45 8.9 39.03 13.32 39 13.34 33.03 17.76 33 17.78 24 24.44 33 52.67 33.03 52.77 36.61 64 30.61 64 18 24.44 33 13.34 33.03 13.32 39 8.9 39.03 8.88 45 4.46 45.03 4.44 51 .02 51.03 0 57 0"/>
      <polygon points="63 .02 63 64 42.61 64 39.03 52.77 39 52.67 33.03 33.95 33 33.85 30 24.44 33 22.22 33.03 22.2 39 17.78 39.03 17.76 45 13.34 45.03 13.32 51 8.9 51.03 8.88 57 4.46 57.03 4.44 63 .02"/>
    </g>
  </g>
</svg>