<svg width="525" height="61" viewBox="0 0 525 61" fill="none" xmlns="http://www.w3.org/2000/svg">
<path d="M509.172 1.20001H523.872L504.216 29.928L524.712 60H509.592L496.404 39.84L483.132 60H468.432L488.928 30.096L469.272 1.20001H484.392L496.656 20.268L509.172 1.20001Z" fill="white"/>
<path d="M445.253 60V1.20001H458.189V60H445.253Z" fill="white"/>
<path d="M378.302 60V1.20001H390.23L417.782 37.404V1.20001H430.55V60H419.546L391.07 22.62V60H378.302Z" fill="white"/>
<path d="M322.029 60V1.20001H366.381V12.708H334.881V24.636H362.601V36.144H334.881V48.492H366.801V60H322.029Z" fill="white"/>
<path d="M284.466 61.008C266.154 61.008 253.554 48.24 253.554 30.768V30.6C253.554 13.884 266.574 0.192017 284.382 0.192017C294.882 0.192017 301.434 3.04801 307.482 8.25601L299.334 18.084C294.882 14.304 290.682 12.12 283.962 12.12C274.554 12.12 267.078 20.436 267.078 30.432V30.6C267.078 41.352 274.47 49.248 284.886 49.248C289.674 49.248 293.79 48.072 297.066 45.72V37.32H284.046V26.148H309.582V51.684C303.534 56.808 295.218 61.008 284.466 61.008Z" fill="white"/>
<path d="M178.966 60V1.20001H191.902V48.24H221.218V60H178.966Z" fill="white"/>
<path d="M122.693 60V1.20001H167.045V12.708H135.545V24.636H163.265V36.144H135.545V48.492H167.465V60H122.693Z" fill="white"/>
<path d="M66.4193 60V1.20001H110.771V12.708H79.2713V24.636H106.991V36.144H79.2713V48.492H111.191V60H66.4193Z" fill="white"/>
<path d="M0.0559998 60V1.20001H11.984L39.536 37.404V1.20001H52.304V60H41.3L12.824 22.62V60H0.0559998Z" fill="white"/>
</svg>
