<svg width="32" height="32" viewBox="0 0 32 32" fill="none" xmlns="http://www.w3.org/2000/svg">
<path d="M16.0544 0C11.8439 0 7.80576 1.67264 4.82843 4.64997C1.85111 7.62729 0.178467 11.6654 0.178467 15.876C0.178467 20.0865 1.85111 24.1247 4.82843 27.102C7.80576 30.0793 11.8439 31.752 16.0544 31.752C20.265 31.752 24.3031 30.0793 27.2805 27.102C30.2578 24.1247 31.9304 20.0865 31.9304 15.876C31.9304 11.6654 30.2578 7.62729 27.2805 4.64997C24.3031 1.67264 20.265 0 16.0544 0ZM23.3356 22.8971C23.1981 23.1206 22.9776 23.2806 22.7225 23.3419C22.4674 23.4033 22.1983 23.3611 21.9742 23.2246C18.2453 20.9484 13.554 20.4324 8.02715 21.6965C7.7711 21.7549 7.50232 21.7092 7.27995 21.5695C7.05758 21.4297 6.89984 21.2074 6.84142 20.9513C6.78299 20.6953 6.82868 20.4265 6.96843 20.2041C7.10818 19.9818 7.33054 19.824 7.58659 19.7656C13.6353 18.3844 18.8228 18.9777 23.0061 21.5358C23.23 21.6729 23.3903 21.8932 23.4521 22.1484C23.5138 22.4036 23.4719 22.6728 23.3356 22.8971ZM25.2784 18.5749C25.1065 18.8545 24.8305 19.0545 24.5112 19.1308C24.192 19.2071 23.8555 19.1534 23.5757 18.9817C19.309 16.3602 12.8038 15.6001 7.75528 17.1322C7.44799 17.2052 7.12441 17.1582 6.85056 17.0009C6.57671 16.8435 6.37321 16.5876 6.28157 16.2853C6.18993 15.9831 6.21705 15.6572 6.35741 15.3743C6.49777 15.0913 6.74078 14.8726 7.03689 14.7627C12.8019 13.0143 19.9699 13.8617 24.8696 16.8722C25.1496 17.0438 25.3499 17.3196 25.4266 17.6389C25.5032 17.9582 25.4499 18.2949 25.2784 18.5749ZM25.4451 14.0741C20.3291 11.0338 11.887 10.754 7.00117 12.2364C6.62432 12.3506 6.21754 12.3105 5.87031 12.1247C5.52308 11.939 5.26384 11.623 5.14963 11.2461C5.03542 10.8693 5.07559 10.4625 5.2613 10.1153C5.44701 9.76806 5.76305 9.50882 6.1399 9.39461C11.7461 7.6939 21.0693 8.02134 26.9612 11.518C27.3002 11.7191 27.5454 12.0465 27.6429 12.4284C27.7404 12.8102 27.6822 13.2152 27.4812 13.5541C27.2801 13.8931 26.9527 14.1383 26.5708 14.2358C26.189 14.3333 25.784 14.2751 25.4451 14.0741Z" fill="white"/>
</svg>
