<svg width="33" height="32" viewBox="0 0 33 32" fill="none" xmlns="http://www.w3.org/2000/svg">
<path d="M5.12148 0C2.60005 0 0.550049 2.05 0.550049 4.57143V27.4286C0.550049 29.95 2.60005 32 5.12148 32H27.9786C30.5001 32 32.5501 29.95 32.5501 27.4286V4.57143C32.5501 2.05 30.5001 0 27.9786 0H5.12148ZM26.3429 6L18.9286 14.4714L27.65 26H20.8215L15.4786 19.0071L9.35719 26H5.96434L13.8929 16.9357L5.52862 6H12.5286L17.3643 12.3929L22.9501 6H26.3429ZM23.6429 23.9714L11.5072 7.92143H9.48576L21.7572 23.9714H23.6358H23.6429Z" fill="white"/>
</svg>
