<svg width="43" height="32" viewBox="0 0 43 32" fill="none" xmlns="http://www.w3.org/2000/svg">
<path d="M21.5601 0.248047H21.7956C23.9708 0.256522 34.992 0.341278 37.9637 1.19448C38.862 1.45487 39.6806 1.96242 40.3377 2.66641C40.9948 3.37039 41.4673 4.24617 41.708 5.2062C41.9752 6.27976 42.1631 7.70081 42.2901 9.16707L42.3166 9.46089L42.3748 10.1954L42.396 10.4892C42.568 13.0714 42.5891 15.4898 42.5918 16.0181V16.23C42.5891 16.778 42.5653 19.3602 42.3748 22.0498L42.3536 22.3464L42.3298 22.6403C42.1975 24.2562 42.0017 25.8609 41.708 27.0418C41.4673 28.0019 40.9948 28.8777 40.3377 29.5816C39.6806 30.2856 38.862 30.7932 37.9637 31.0536C34.8941 31.935 23.2272 31.9972 21.6104 32H21.2346C20.417 32 17.0352 31.983 13.4893 31.8531L13.0395 31.8361L12.8092 31.8248L12.3568 31.8051L11.9043 31.7853C8.96702 31.6469 6.17003 31.4237 4.88135 31.0507C3.98331 30.7906 3.16492 30.2835 2.50788 29.58C1.85084 28.8765 1.37816 28.0014 1.13703 27.0418C0.843307 25.8638 0.647491 24.2562 0.515183 22.6403L0.494014 22.3436L0.472845 22.0498C0.341498 20.1355 0.269131 18.2171 0.255859 16.2978L0.255859 15.9503C0.261152 15.3429 0.282321 13.2438 0.425214 10.9271L0.443737 10.6362L0.451675 10.4892L0.472845 10.1954L0.53106 9.46089L0.557522 9.16707C0.684538 7.70081 0.872415 6.27693 1.13968 5.2062C1.3804 4.24617 1.8529 3.37039 2.50997 2.66641C3.16703 1.96242 3.98564 1.45487 4.884 1.19448C6.17268 0.827205 8.96967 0.601191 11.9069 0.459934L12.3568 0.440158L12.8119 0.423207L13.0395 0.414732L13.492 0.394956C16.0103 0.308515 18.5297 0.260483 21.0494 0.250872L21.5601 0.248047ZM17.1913 9.3168V22.9284L28.1914 16.1254L17.1913 9.3168Z" fill="white"/>
</svg>
