<svg width="200" height="38" viewBox="0 0 200 38" fill="none" xmlns="http://www.w3.org/2000/svg">
<path d="M194.286 0H200V36.8717H194.286V0Z" fill="#FFFCF5"/>
<path d="M110.291 0H116.252V13.6846H116.356C117.088 12.4796 118.168 11.4813 119.597 10.6894C121.062 9.86323 122.683 9.45017 124.46 9.45017C127.423 9.45017 129.758 10.2074 131.466 11.7222C133.174 13.2371 134.029 15.5093 134.029 18.5388V36.871H128.068V20.088C127.999 17.9878 127.545 16.4732 126.708 15.5436C125.872 14.5797 124.566 14.0977 122.787 14.0977C121.777 14.0977 120.871 14.287 120.069 14.6657C119.267 15.01 118.587 15.5093 118.029 16.1633C117.471 16.783 117.036 17.5232 116.722 18.3838C116.408 19.2445 116.252 20.1568 116.252 21.1208V36.871H110.291V0Z" fill="#FFFCF5"/>
<path d="M101.673 19.1069C101.43 17.4546 100.75 16.2152 99.6335 15.3889C98.5541 14.5282 97.1765 14.0978 95.5039 14.0978C94.7373 14.0978 93.9179 14.2356 93.0456 14.5111C92.1746 14.752 91.3728 15.234 90.6415 15.957C89.9087 16.6454 89.2992 17.6265 88.8116 18.9005C88.3226 20.1399 88.0788 21.775 88.0788 23.8062C88.0788 24.908 88.2008 26.0095 88.4445 27.1111C88.7235 28.2128 89.1421 29.194 89.7002 30.0546C90.2919 30.9152 91.0424 31.6211 91.9486 32.1719C92.8546 32.6883 93.9531 32.9463 95.2426 32.9463C96.9857 32.9463 98.4146 32.4128 99.5293 31.3456C100.681 30.2783 101.394 28.7808 101.673 26.8529H107.634C107.076 30.3299 105.734 32.998 103.608 34.8571C101.516 36.6818 98.7274 37.5941 95.2426 37.5941C93.1159 37.5941 91.2332 37.2498 89.5958 36.5612C87.9922 35.8382 86.6323 34.8743 85.5161 33.6695C84.4015 32.4301 83.5468 30.9669 82.955 29.28C82.3968 27.5931 82.1179 25.7684 82.1179 23.8062C82.1179 21.8093 82.3968 19.9331 82.955 18.1774C83.5131 16.4217 84.3486 14.9069 85.4648 13.6331C86.5794 12.3248 87.9568 11.3093 89.5958 10.5864C91.2686 9.82896 93.2203 9.45026 95.451 9.45026C97.0194 9.45026 98.5012 9.6568 99.8949 10.0699C101.325 10.4486 102.579 11.0338 103.66 11.8257C104.775 12.6175 105.683 13.6159 106.379 14.8209C107.076 16.0257 107.495 17.4546 107.634 19.1069H101.673Z" fill="#FFFCF5"/>
<path d="M62.6165 28.2988C62.7913 30.0202 63.4537 31.2251 64.6036 31.9137C65.7535 32.6023 67.131 32.9463 68.7346 32.9463C69.2926 32.9463 69.9198 32.912 70.6173 32.8432C71.3487 32.7399 72.0286 32.5678 72.6558 32.3268C73.2829 32.0859 73.788 31.7415 74.1728 31.294C74.5898 30.8119 74.7823 30.1923 74.7469 29.4349C74.7117 28.6774 74.4341 28.0579 73.9114 27.5759C73.3886 27.094 72.7086 26.7152 71.8716 26.4399C71.0696 26.1301 70.146 25.8719 69.1003 25.6651C68.0547 25.4586 66.9914 25.2349 65.9107 24.9938C64.7959 24.7528 63.715 24.4603 62.6695 24.1159C61.6576 23.7717 60.7338 23.3069 59.8982 22.7217C59.0964 22.1364 58.4517 21.3962 57.9627 20.5012C57.4752 19.5717 57.2314 18.4356 57.2314 17.0929C57.2314 15.6471 57.5794 14.4422 58.277 13.4782C59.0098 12.4799 59.9159 11.688 60.9953 11.1027C62.1114 10.4831 63.3317 10.0528 64.6564 9.8117C66.0149 9.57078 67.3057 9.45026 68.5247 9.45026C69.9199 9.45026 71.2445 9.60517 72.4986 9.91498C73.788 10.1904 74.9394 10.6553 75.9498 11.3093C76.9953 11.9634 77.8501 12.8241 78.5123 13.8913C79.2084 14.9241 79.6447 16.1806 79.8194 17.6611H73.5971C73.318 16.2495 72.6558 15.3029 71.6101 14.8209C70.5997 14.3389 69.4322 14.0978 68.1075 14.0978C67.689 14.0978 67.1839 14.1323 66.5905 14.2011C66.0325 14.27 65.492 14.4078 64.9692 14.6143C64.4817 14.7863 64.0632 15.0618 63.715 15.4405C63.3671 15.7848 63.1923 16.2495 63.1923 16.8347C63.1923 17.5577 63.4361 18.143 63.9236 18.5905C64.4465 19.038 65.1087 19.4168 65.9107 19.7266C66.7477 20.002 67.689 20.243 68.7346 20.4496C69.7803 20.6561 70.8612 20.88 71.9758 21.1209C73.0567 21.362 74.1198 21.6544 75.1656 21.9988C76.2111 22.343 77.1349 22.8078 77.9367 23.3931C78.7738 23.9783 79.4361 24.7185 79.9236 25.6135C80.4465 26.5087 80.7078 27.6102 80.7078 28.9186C80.7078 30.5021 80.3423 31.8448 79.6095 32.9463C78.878 34.0481 77.9191 34.9432 76.734 35.6317C75.5841 36.3202 74.2947 36.8194 72.8642 37.1292C71.4353 37.4391 70.0241 37.5941 68.6304 37.5941C66.9224 37.5941 65.3364 37.4047 63.8722 37.026C62.4433 36.6472 61.1877 36.0793 60.1068 35.3218C59.0612 34.5301 58.2241 33.5662 57.597 32.4301C57.0051 31.2596 56.691 29.8826 56.6556 28.2988H62.6165Z" fill="#FFFCF5"/>
<path d="M41.3256 37.5941C39.1639 37.5941 37.2298 37.2498 35.5218 36.5612C33.8492 35.8382 32.4188 34.8571 31.2337 33.6177C30.0838 32.3783 29.1952 30.898 28.5681 29.1767C27.9749 27.4553 27.6782 25.562 27.6782 23.4964C27.6782 21.4653 27.9749 19.5889 28.5681 17.8677C29.1952 16.1463 30.0838 14.6659 31.2337 13.4266C32.4188 12.1872 33.8492 11.2232 35.5218 10.5347C37.2298 9.81171 39.1639 9.45026 41.3256 9.45026C43.4874 9.45026 45.4039 9.81171 47.0765 10.5347C48.7845 11.2232 50.2149 12.1872 51.3648 13.4266C52.5499 14.6659 53.4383 16.1463 54.0317 17.8677C54.6588 19.5889 54.9731 21.4653 54.9731 23.4964C54.9731 25.562 54.6588 27.4553 54.0317 29.1767C53.4383 30.898 52.5499 32.3783 51.3648 33.6177C50.2149 34.8571 48.7845 35.8382 47.0765 36.5612C45.4039 37.2498 43.4874 37.5941 41.3256 37.5941ZM41.3256 32.9463C42.6502 32.9463 43.8002 32.6711 44.7767 32.1202C45.7519 31.5693 46.5537 30.8465 47.1823 29.9513C47.8093 29.0562 48.2617 28.0579 48.5407 26.9562C48.855 25.82 49.0122 24.6668 49.0122 23.4964C49.0122 22.3603 48.855 21.2242 48.5407 20.088C48.2617 18.952 47.8093 17.9535 47.1823 17.0929C46.5537 16.1979 45.7519 15.475 44.7767 14.9241C43.8002 14.3732 42.6502 14.0978 41.3256 14.0978C40.0009 14.0978 38.8511 14.3732 37.8744 14.9241C36.8994 15.475 36.0976 16.1979 35.469 17.0929C34.842 17.9535 34.372 18.952 34.0577 20.088C33.7786 21.2242 33.6391 22.3603 33.6391 23.4964C33.6391 24.6668 33.7786 25.82 34.0577 26.9562C34.372 28.0579 34.842 29.0562 35.469 29.9513C36.0976 30.8465 36.8994 31.5693 37.8744 32.1202C38.8511 32.6711 40.0009 32.9463 41.3256 32.9463Z" fill="#FFFCF5"/>
<path d="M19.5555 19.1069C19.3102 17.4546 18.6317 16.2152 17.5156 15.3889C16.4347 14.5282 15.0586 14.0978 13.3845 14.0978C12.6179 14.0978 11.7985 14.2356 10.9276 14.5111C10.0568 14.752 9.25493 15.234 8.52212 15.957C7.79077 16.6454 7.17985 17.6265 6.69229 18.9005C6.20472 20.1399 5.96093 21.775 5.96093 23.8062C5.96093 24.908 6.08281 26.0095 6.3266 27.1111C6.60562 28.2128 7.02417 29.194 7.58075 30.0546C8.17406 30.9152 8.92304 31.6211 9.82914 32.1719C10.7352 32.6883 11.8337 32.9463 13.1231 32.9463C14.8663 32.9463 16.2952 32.4128 17.4114 31.3456C18.5612 30.2783 19.2764 28.7808 19.5555 26.8529H25.5149C24.9583 30.3299 23.6161 32.998 21.4896 34.8571C19.3983 36.6818 16.6095 37.5941 13.1231 37.5941C10.9967 37.5941 9.11541 37.2498 7.4765 36.5612C5.87281 35.8382 4.51439 34.8743 3.39829 33.6695C2.28217 32.4301 1.42892 30.9669 0.835617 29.28C0.279029 27.5931 0 25.7684 0 23.8062C0 21.8093 0.279029 19.9331 0.835617 18.1774C1.39367 16.4217 2.23075 14.9069 3.3454 13.6331C4.46152 12.3248 5.83904 11.3093 7.4765 10.5864C9.14919 9.82896 11.1024 9.45026 13.3332 9.45026C14.9016 9.45026 16.3833 9.6568 17.777 10.0699C19.206 10.4486 20.4615 11.0338 21.5409 11.8257C22.6571 12.6175 23.5632 13.6159 24.2608 14.8209C24.9583 16.0257 25.3755 17.4546 25.5149 19.1069H19.5555Z" fill="#FFFCF5"/>
<path d="M154.281 37.3062C163.135 37.3062 170.311 30.218 170.311 21.4744C170.311 12.7309 163.135 5.64277 154.281 5.64277C145.429 5.64277 138.252 12.7309 138.252 21.4744C138.252 30.218 145.429 37.3062 154.281 37.3062Z" fill="url(#paint0_linear_778_2787)"/>
<path d="M174.414 37.3062C183.266 37.3062 190.442 30.218 190.442 21.4744C190.442 12.7309 183.266 5.64277 174.414 5.64277C165.559 5.64277 158.383 12.7309 158.383 21.4744C158.383 30.218 165.559 37.3062 174.414 37.3062Z" fill="url(#paint1_linear_778_2787)"/>
<defs>
<linearGradient id="paint0_linear_778_2787" x1="163.788" y1="8.95566" x2="145.45" y2="34.3933" gradientUnits="userSpaceOnUse">
<stop stop-color="#FFFCF5" stop-opacity="0"/>
<stop offset="0.9" stop-color="#FFFCF5"/>
</linearGradient>
<linearGradient id="paint1_linear_778_2787" x1="166.024" y1="36.2009" x2="182.868" y2="8.95124" gradientUnits="userSpaceOnUse">
<stop stop-color="#FFFCF5" stop-opacity="0"/>
<stop offset="0.845295" stop-color="#FFFCF5"/>
</linearGradient>
</defs>
</svg>
