<svg width="200" height="103" viewBox="0 0 200 103" fill="none" xmlns="http://www.w3.org/2000/svg">
<path fill-rule="evenodd" clip-rule="evenodd" d="M58.4134 0.0247951C68.6526 -0.507373 72.3091 7.60748 69.9991 16.5913C68.4491 22.6195 64.1646 27.2134 58.9052 30.3316C58.5048 30.037 58.0457 29.7668 57.6205 29.5016C60.3508 26.3417 61.1722 24.719 62.4054 20.0129C64.2989 12.7871 62.692 -1.45159 51.65 5.49085C47.6684 7.99435 45.4909 18.5836 45.1197 23.1415C44.9579 25.1263 44.3399 41.5444 45.0265 42.3893C46.5971 42.3786 46.0517 41.2584 46.063 40.0079C46.1447 29.9073 44.974 18.7705 49.6078 9.46087C50.5371 7.59369 54.4264 3.55126 56.6361 4.82794C56.5366 4.95517 53.8027 5.79576 52.8833 6.95345C45.9109 15.7339 47.3727 31.5639 47.0555 42.1331C50.7525 41.8141 57.0172 41.7226 60.1762 40.4894C58.6032 47.0665 52.8251 46.6965 47.0709 47.8996L47.0459 55.1845C47.0772 60.4345 46.8556 84.4875 44.9377 88.2052C45.404 83.7273 45.7477 78.9135 45.963 74.4262C46.3243 66.8885 46.017 59.243 46.0444 51.6948C46.048 50.6834 46.3461 49.2575 45.8352 48.3926C45.3277 48.1351 45.5938 48.1898 45.0014 48.2565C44.6006 48.8493 44.8157 73.6513 44.7433 76.8141C44.5169 86.7016 44.0978 92.6863 40.9175 102.308L38.3194 102.352L38.2891 49.2592C35.7654 49.431 32.0235 49.892 29.8446 48.5858C23.8987 45.0211 29.2277 36.495 31.4784 32.3331C33.6962 28.2315 35.9594 24.3603 38.3142 20.5072L38.3408 12.8194L41.8234 12.803C45.9173 4.95451 48.8387 0.537426 58.4134 0.0247951ZM38.2774 27.1613C36.8498 29.4274 35.5447 32.0819 34.3986 34.5112C33.295 36.8504 31.6902 40.2375 33.7206 42.497C35.348 43.4409 36.4362 43.192 38.2736 43.0117C38.3033 40.9568 38.6372 28.5511 38.2774 27.1613Z" fill="FFFCF5"/>
<path d="M177.956 52.787C180.441 52.8876 181.626 53.0724 183.877 54.1109C183.671 55.4468 183.445 56.581 183.158 57.9039C168.007 49.2941 168.244 80.7495 183 71.6526L183.391 72.7271L184.365 75.2844C177.122 79.4865 168.122 75.9674 167.775 66.8516C167.49 59.3647 169.203 53.3902 177.956 52.787Z" fill="FFFCF5"/>
<path d="M83.4996 58.3363C84.2002 51.7363 92.7348 51.8657 97.1347 54.4637C96.8622 55.6763 96.566 56.8837 96.2459 58.0847C95.6533 57.7291 95.0794 57.3952 94.4008 57.115C92.7576 56.4359 89.082 55.841 87.9859 57.6282C86.6873 59.7464 88.3316 61.3976 90.2711 62.1138C93.0324 63.3957 96.4043 64.5098 97.5151 67.6393C98.7414 71.496 97.2361 75.5586 93.0716 76.5854C89.5533 77.4537 86.6206 76.7044 83.4371 75.3116L83.1914 75.3763C83.154 74.5952 83.1889 73.8029 83.2081 73.0187L83.5553 72.8348C83.6864 72.3024 83.7346 71.789 84.1062 71.4214C85.9277 71.8145 90.1798 74.5776 92.4201 72.8806C94.9907 70.9348 93.5419 67.7294 90.774 66.9451C86.703 65.3067 82.8722 63.3196 83.4996 58.3363Z" fill="FFFCF5"/>
<path d="M103.284 63.1122C103.279 65.592 102.887 69.9179 104.623 71.9271C106.097 73.632 110.391 73.6098 111.788 71.8621C113.378 69.872 112.985 65.2975 112.977 62.8129L112.963 53.1503L116.945 53.141L116.952 57.0925C116.957 61.4596 117.255 66.9628 116.594 71.276C116.027 74.9853 111.89 77.0151 108.282 76.9423C98.6859 76.7489 99.3323 70.504 99.3355 63.3768L99.3451 53.1543L103.3 53.1305L103.284 63.1122Z" fill="FFFCF5"/>
<path d="M200 56.7174C198.002 56.7014 196.004 56.7318 194.006 56.8087L194.036 76.1831L194.017 76.3939C193.483 76.847 190.821 76.6569 189.941 76.6427L189.929 56.7978C187.986 56.759 186.042 56.7442 184.099 56.753C184.147 55.5882 184.124 54.3005 184.128 53.1246C185.804 53.1758 187.69 53.1264 189.384 53.1166L199.965 53.0766L200 56.7174Z" fill="FFFCF5"/>
<path d="M69.6126 53.1543C74.0799 53.1137 78.5474 53.1046 83.0147 53.1268C82.9925 54.321 82.9793 55.5154 82.9748 56.7096C79.9062 56.7112 76.6351 56.6579 73.5873 56.8189C73.5664 58.6755 73.6118 60.6261 73.6272 62.4895L80.654 62.5338L80.6413 66.1101C78.5132 66.2305 75.777 66.1705 73.604 66.1816C73.575 68.4395 73.596 70.7418 73.5938 73.0044C76.6568 72.987 80.1807 72.8856 83.2081 73.0187C83.1889 73.8029 83.154 74.5952 83.1914 75.3763C83.1527 76.0022 83.2555 76.172 82.9435 76.5808C81.712 76.7471 79.4979 76.6616 78.1809 76.6585L69.5374 76.6489C69.6491 68.8181 69.6742 60.9857 69.6126 53.1543Z" fill="FFFCF5"/>
<path fill-rule="evenodd" clip-rule="evenodd" d="M52.6069 53.111C55.8232 53.0378 60.7916 52.7084 63.752 53.7086C69.2508 55.5668 69.1491 63.4402 63.7136 65.817C65.4548 68.6454 67.6843 73.5258 69.2134 76.6362C67.9162 76.6393 66.189 76.7773 64.9534 76.5634C64.4243 76.4731 64.3358 76.0531 64.0967 75.5904C62.7599 72.7289 61.3948 69.6928 59.889 66.9358C58.8762 66.8249 57.6019 66.8453 56.5602 66.8358C56.5198 70.0715 56.5542 73.4023 56.5534 76.6427L52.6147 76.6489L52.6069 53.111ZM60.5442 56.687C59.2494 56.5902 57.8624 56.6662 56.5575 56.6827L56.5522 63.2799C58.9256 63.2989 60.5421 63.5113 62.6864 62.3403C64.6799 60.0967 63.6087 56.9159 60.5442 56.687Z" fill="FFFCF5"/>
<path fill-rule="evenodd" clip-rule="evenodd" d="M139.072 53.115C142.976 53.0682 149.529 52.3883 151.558 56.3608C153.562 60.2896 151.895 63.9057 148.306 65.9133C149.861 68.5722 152.458 73.7679 153.711 76.6201L149.051 76.6535L148.002 74.3352C146.823 71.7826 145.72 69.3739 144.327 66.9275C143.234 66.8039 142.069 66.834 140.962 66.834L140.91 76.6359L136.856 76.6393L136.918 53.1382L139.072 53.115ZM148.135 59.7769C148.144 56.0821 143.545 56.6382 140.965 56.7124L140.917 63.2409C143.324 63.3106 145.04 63.6274 147.151 62.3994C147.98 61.5105 148.132 61.0033 148.135 59.7769Z" fill="FFFCF5"/>
<path d="M159.265 53.1181C161.963 53.0977 164.662 53.1024 167.362 53.1323L167.381 56.713C164.315 56.7873 161.297 56.6527 158.185 56.7715L158.193 62.4907L165.249 62.5334L165.234 66.1383C162.903 66.1811 160.523 66.1717 158.187 66.1859C158.202 68.4534 158.19 70.7193 158.157 72.9852L160.285 72.9964L167.63 73.001L167.591 76.6377L154.001 76.6455C154.208 73.6476 154.142 70.263 154.145 67.2382L154.162 53.1497L159.265 53.1181Z" fill="FFFCF5"/>
<path fill-rule="evenodd" clip-rule="evenodd" d="M122.077 53.1197C127.571 53.0073 136.742 52.2911 134.842 61.6322C134.441 63.6049 132.774 64.9073 131.071 65.8375C131.911 67.1193 132.573 68.6739 133.262 70.0588C134.349 72.2438 135.479 74.4162 136.485 76.6377C134.929 76.6456 133.372 76.638 131.814 76.6142L130.762 74.3736C129.455 71.7543 128.589 69.3396 126.94 66.8423L123.736 66.8358L123.741 76.6315H119.762L119.751 53.1506L122.077 53.1197ZM129.903 57.5366C128.59 56.3522 125.436 56.6611 123.739 56.6923L123.763 63.2134C126.068 63.2926 127.881 63.5747 129.922 62.3611C131.164 60.9255 131.408 58.8954 129.903 57.5366Z" fill="FFFCF5"/>
<path fill-rule="evenodd" clip-rule="evenodd" d="M15.2876 41.3646C17.7873 40.956 21.2258 41.3036 23.4216 42.6217C27.1296 44.8475 27.0537 50.0429 24.7902 53.2648C20.8792 58.8306 14.1647 59.7403 7.99805 60.8796C9.59812 67.4364 13.6665 70.0811 20.3398 69.6818C26.0839 69.3364 30.2264 66.5823 33.9496 62.3341C34.5249 62.5068 35.7289 62.7825 36.1082 63.1549C32.9871 68.7404 26.852 72.6211 20.5967 73.6178C15.6322 74.4085 9.38783 73.7349 5.2381 70.6799C2.45914 68.6422 0.626314 65.5634 0.159826 62.1488C-0.529247 57.3674 1.05913 51.7578 3.97387 47.9216C6.92664 44.0353 10.5121 42.0574 15.2876 41.3646ZM19.2557 46.2504C18.8235 44.6839 16.7314 44.3201 15.2396 44.5136C9.54404 46.4362 7.82992 52.7774 7.74799 58.197C8.88909 57.9105 10.2729 57.6003 11.3649 57.2296C15.5235 55.7461 20.7805 51.7786 19.2557 46.2504Z" fill="FFFCF5"/>
</svg>
