<svg width="90" height="120" viewBox="0 0 90 120" fill="none" xmlns="http://www.w3.org/2000/svg">
<path fill-rule="evenodd" clip-rule="evenodd" d="M44.7787 0C45.0308 0.0896639 51.3547 6.85278 52.1219 7.65768C55.8478 6.64212 59.5471 5.49358 63.2661 4.4537C64.0797 4.22623 65.0831 3.89611 65.9076 3.78707C66.6688 4.05725 66.566 5.96111 66.7587 6.69958C67.085 7.94895 67.7562 15.1294 68.2713 15.7156C69.7245 16.1453 75.5304 13.6049 76.7463 14.4032C77.0666 14.8922 76.6484 18.7172 76.5753 19.5936L76.1334 25.5603C78.501 27.4357 82.1449 29.4265 84.739 31.1667C84.2298 32.7302 82.3239 36.4565 81.4816 37.9147C83.7029 39.8118 86.0429 41.5883 88.2524 43.502C89.6166 44.6839 87.2391 46.2876 86.3701 47.1551C84.8111 48.7021 83.2769 50.2735 81.7673 51.8686C82.8231 54.4249 85.0978 57.8551 85.9925 60.4224C82.1054 61.2667 77.202 61.934 73.5038 62.886C73.6847 64.964 74.3569 67.1646 74.7128 69.2277C74.8285 69.9049 75.3554 71.3848 75.042 71.9423C74.5003 72.3101 68.2584 71.4026 67.1561 71.2958C67.0662 72.1559 67.1472 78.0478 66.8358 78.292C66.562 78.5075 66.0895 78.5361 65.7533 78.5431C64.568 78.5697 63.3185 78.379 62.1322 78.291C59.7893 78.117 57.4355 77.9726 55.0995 77.7255C54.2147 78.5262 53.0897 79.8065 52.2583 80.7011L47.3283 86.0078C46.5789 86.8145 45.3185 88.2449 44.5187 88.9023C43.6656 88.1135 42.4685 86.7235 41.6528 85.8259C40.1789 84.1008 37.4387 81.0886 35.8293 79.5909C34.0368 80.2483 31.3588 81.1519 29.492 81.4831C27.9814 79.5731 24.9477 76.3089 23.221 74.5453C19.7294 75.6772 15.8135 76.5283 12.2361 77.3953C11.338 77.6138 11.7341 75.5259 11.7563 75.173C12.0369 70.7274 12.9743 65.912 13.0362 61.4891C11.9616 60.9899 7.05372 59.8629 6.70584 59.2025C6.75196 57.9816 9.53725 51.6297 10.1191 50.378C6.92458 46.8326 3.03424 42.7365 0 39.1257C1.86019 37.8851 6.73837 35.1699 8.6942 34.2622C7.70246 31.5483 5.90312 28.6127 4.74253 25.9289C4.53019 25.4378 4.3129 25.0596 4.59194 24.552C4.78708 24.3885 4.99376 24.2502 5.25346 24.216C8.90377 23.7352 12.6128 23.396 16.2328 22.7074C16.1697 19.2269 15.6937 13.3528 15.8408 9.65164C15.8878 9.58619 15.9348 9.52068 15.9818 9.45524C16.4687 9.28262 25.5078 12.8694 26.6627 13.282C27.406 11.928 30.592 4.73561 31.5331 4.32239C32.1829 4.57356 35.1301 7.71526 36.0054 8.44821L36.1091 8.53438C36.9353 7.80797 38.1612 6.50533 38.9812 5.69123C40.8971 3.77717 42.8293 1.87996 44.7787 0ZM45.4658 67.7784C45.3729 68.0078 45.2196 68.4171 45.2177 68.6583C45.1692 74.4751 44.844 80.534 45.1821 86.3291C46.6126 84.9262 59.4591 71.3482 59.815 70.4605C59.5619 70.1303 59.1843 70.0186 58.7977 69.8347L53.3576 75.4201C52.5707 76.2239 51.3004 77.593 50.4769 78.2989L50.3978 78.2781C50.7418 77.7196 51.7136 76.6994 52.1851 76.1606L55.8755 71.9315C56.3204 71.4204 57.1666 70.5089 57.472 69.9513C57.3228 69.724 57.2021 69.7615 56.8591 69.6597C56.2324 69.7981 55.1934 70.9785 54.6951 71.4797L51.5109 74.7242C51.0038 75.2481 50.0884 76.2792 49.5338 76.6737C50.3167 75.5002 55.2586 70.2934 55.5245 69.632L55.4702 69.4907C55.1242 69.3483 55.0797 69.3147 54.6932 69.3088C53.7491 69.9039 49.8383 74.2526 48.6569 75.3154C49.0445 74.5037 52.8435 70.4446 53.5296 69.2564C53.5148 69.1941 53.499 69.1328 53.4841 69.0705C52.4501 68.3746 49.0702 72.488 48.2239 73.353L48.1527 73.3085C48.5788 72.3724 51.4664 69.7161 51.5416 68.8926C50.4077 67.9683 48.0311 71.2048 47.1731 71.9888L47.2482 71.8682C47.7662 71.0338 49.2313 69.3364 49.3628 68.6L49.2659 68.4616C47.8117 68.4596 47.8126 69.3009 46.5839 70.0067L47.7316 68.2431L45.4658 67.7784ZM34.8358 75.8235C35.8197 77.0663 42.9242 85.5906 43.6399 85.988L43.803 85.8803C43.9819 85.0004 43.8969 79.6908 43.8949 78.5144L43.7704 78.2831C43.4441 78.1872 43.4659 78.199 43.1357 78.291C42.4506 78.8762 42.8045 80.5143 42.2048 81.1499C42.0261 80.0823 42.2764 78.55 41.8387 77.7186L41.6642 77.6543C41.0367 77.9509 40.9128 79.3468 40.5023 79.6799C40.3541 79.3853 40.372 78.4452 40.355 78.03C40.1314 77.68 39.984 77.3637 39.637 77.1561L39.4679 77.1956C39.2926 77.512 38.9639 78.2939 38.7627 78.4867C38.453 77.9025 38.9805 77.2609 38.2882 76.6302C37.6895 76.4473 37.6832 76.8743 37.2062 77.16C37.0139 76.7231 36.9596 76.3553 36.5378 76.2298C36.0385 76.0805 35.3447 75.8907 34.8358 75.8235ZM26.8623 73.705C26.2083 73.8681 25.7597 73.9877 25.1247 74.2111C26.1415 75.7622 28.6255 78.5757 29.9184 80.0704C30.9538 79.8628 31.7612 79.671 32.7621 79.3171C33.5896 79.0571 34.419 78.804 35.2503 78.5559C34.6856 77.8283 33.6383 76.5422 32.9906 75.9095C31.9721 74.915 28.1982 73.7583 26.8623 73.705ZM43.7516 46.2571C43.2988 46.1822 41.5498 48.2332 41.1353 48.6838C41.1414 48.8235 41.1399 48.96 41.1299 49.0995C40.212 49.7768 39.9764 49.9009 39.1545 50.7034C39.4125 50.995 39.5833 51.0691 39.5884 51.3643C39.2412 51.4298 38.9001 51.3314 38.5482 51.2633L37.4703 52.4257C37.8978 52.856 38.022 52.956 38.5278 53.2915C37.8052 53.222 37.4148 53.2238 36.6852 53.2454C36.2356 53.5995 35.9634 53.8133 35.5553 54.229C36.0596 54.6021 36.9734 55.0795 37.2767 55.409L37.2558 55.5297C36.591 55.6888 35.3071 55.358 34.646 55.1573C34.2816 55.5599 33.9232 55.9679 33.5707 56.3811C34.266 56.6815 34.7939 56.8535 35.4919 57.1096C34.6094 57.1247 33.5516 57.1157 32.6848 57.1821C32.3267 57.4793 32.002 57.6889 31.7953 58.0962C31.7794 58.8623 32.6812 58.9552 33.2901 59.1905C33.8625 59.412 34.3713 59.6087 34.9307 59.8637C33.655 59.6265 32.2372 59.234 30.9677 58.9088C30.409 59.411 30.1637 59.6512 29.6823 60.2246C30.8554 60.7495 32.0849 61.0392 33.1939 61.6026C31.8409 61.3852 30.3898 61.0876 29.0595 60.9008C28.5867 61.2695 27.954 61.6452 27.8558 62.2245C28.2066 62.694 31.2075 63.3445 31.9536 63.5274C30.2448 63.6203 28.8541 63.2348 27.2259 62.7375C26.6295 63.2229 26.278 63.5403 25.7341 64.084C27.1572 64.863 29.2083 65.2574 30.8251 65.6321C28.7486 65.6173 27.1604 65.0656 25.2043 64.7552C24.7392 65.1398 24.1372 65.5095 24.055 66.0878C24.4957 66.4595 28.6193 67.3917 29.564 67.7229C27.7424 67.6527 25.0203 67.107 23.1854 66.6701C22.7851 67.0744 22.4333 67.4333 22.0023 67.806C24.0693 68.5998 26.3525 69.3205 28.4656 70.0184C26.2726 69.7129 23.1559 68.837 21.2092 68.6897C20.7784 69.097 20.2543 69.5696 19.8498 69.9907C26.6197 72.2219 33.6424 74.0073 40.4705 76.0794C41.5707 76.4135 42.7492 76.7417 43.8623 77.0185C43.8771 76.3344 43.9078 75.591 43.9009 74.9118C42.0233 74.2287 39.6619 73.6158 37.7074 73.0573L37.8719 73.0652C38.8849 73.1245 43.4895 74.1467 43.8228 73.9401C44.0126 73.4478 43.9177 72.9792 43.8504 72.4523C42.589 71.8898 40.2128 71.3708 38.7848 70.8903C40.2562 70.9734 42.3379 71.3174 43.8425 71.5329C43.8465 70.9882 43.8663 70.4563 43.8119 69.9156C42.6088 69.4737 41.4725 69.1534 40.24 68.8074C39.7518 68.67 39.5155 68.492 38.9898 68.3912C39.3693 68.3724 43.104 69.1049 43.8238 69.188C44.0403 66.85 43.3651 67.4184 41.4994 66.7195C41.6929 66.5595 41.6375 66.605 41.8791 66.5052L43.8841 66.8134L43.8969 65.0854C42.4407 64.5288 40.9471 64.0939 39.5202 63.5373C40.8442 63.7597 42.6721 64.1868 43.9216 64.2945C43.9157 63.7251 43.9157 63.1873 43.8682 62.6189C42.7788 62.2442 41.4829 61.833 40.4455 61.3654C41.5454 61.4988 42.6444 61.6442 43.7407 61.8023C43.7951 61.2715 43.8762 60.6447 43.8949 60.1188C43.0408 59.9092 41.8705 59.6591 41.0801 59.3358C42.0801 59.32 42.8639 59.3625 43.8544 59.4258C43.8781 58.974 43.9206 58.4422 43.9048 57.9973C42.9093 57.3752 42.2635 57.1164 41.1538 56.7239L43.9088 57.0069C43.893 55.061 43.8465 55.1574 42.0007 54.5735C42.5574 54.5126 43.1762 54.4322 43.7289 54.3903C43.8218 53.9258 43.9414 53.5334 43.8762 53.0699C43.373 52.6387 42.6592 52.5414 42.3448 52.1512C42.5772 51.9458 42.8283 51.9457 43.1407 51.9642C43.3344 51.977 43.5272 51.9932 43.719 52.0128C43.8682 51.1188 44.0956 50.5742 43.2751 49.9549C43.5163 49.6992 43.6053 49.6502 43.889 49.4601C43.9108 48.754 44.06 46.784 43.7516 46.2571ZM61.6241 70.6107C60.073 72.3308 57.9545 74.567 56.5438 76.3316C58.0118 76.4493 59.4808 76.5511 60.9499 76.64C62.3882 76.7251 64.403 76.8822 65.8245 76.7834L65.8018 71.3877C64.3249 70.9607 63.1336 70.7995 61.6241 70.6107ZM18.5029 71.3798C17.2183 72.751 15.8729 74.1498 14.6301 75.5526L19.7269 74.2477C20.4479 74.0618 23.9874 73.2443 24.3238 72.8835C24.1647 72.5444 22.9156 72.3793 22.5107 72.2953C21.219 72.0264 19.8012 71.5341 18.5029 71.3798ZM18.1041 42.4925C18.1771 41.6059 16.3123 41.7039 16.2095 42.2345C15.8654 44.0146 15.8411 45.9633 15.6734 47.7723L13.6244 68.7413C13.5479 69.5203 12.9729 74.3742 13.1479 74.8171C13.516 74.7697 13.8967 74.3584 14.1666 74.0866C16.1464 72.0896 18.1223 70.0868 20.1015 68.0889L32.0279 56.0516L39.1061 48.881C40.1912 47.7779 42.118 45.9061 43.0438 44.7476C42.3112 44.6677 41.8059 44.6164 41.0716 44.6135C40.5567 44.9719 40.1556 45.269 39.6671 45.6622C39.6425 45.2563 39.6671 44.8553 39.4579 44.5179C37.9109 43.3054 37.7523 46.1491 37.503 46.9725C37.4279 45.9102 37.3882 45.1406 37.0647 44.1251C36.6971 44.0673 36.313 44.0002 35.9455 43.9538C35.6528 45.6719 35.3402 47.3866 35.0076 49.0975L34.9969 48.9246C34.9295 47.7394 35.2315 44.6845 35.0019 43.9369C34.6594 43.7692 33.8281 43.7482 33.7521 44.2574C33.4587 46.2245 33.4204 48.2234 33.1386 50.2022C32.9237 48.7813 33.1505 45.436 33.1544 43.8437C32.5493 43.7517 32.2212 43.7001 31.6063 43.69C31.3752 45.6623 31.2397 47.7783 30.8522 49.705L30.8409 49.5514C30.7627 48.3666 31.3766 44.0758 30.6095 43.4193C30.3845 43.2267 30.1774 43.2287 29.9025 43.2309C29.6085 43.4005 29.4726 43.7389 29.4146 44.0666C29.0233 46.2799 29.0569 48.7859 28.3835 50.9563C28.3126 48.6981 28.8711 45.6067 28.8593 43.2654C28.3685 43.1838 27.8147 43.0781 27.3256 43.0253C27.055 44.6759 26.4487 49.2856 26.3739 50.8837L26.1536 50.9458L26.1879 50.478C26.3662 48.1108 26.6394 45.3467 26.6837 43.0733L25.223 42.833C25.1455 43.9399 23.903 54.4636 23.6896 54.9011C23.622 53.9415 23.8638 51.5173 23.9399 50.4327C24.1223 47.8535 24.2479 45.2706 24.3167 42.6859C23.927 42.6079 23.4091 42.4547 23.0872 42.6663C22.7238 44.0802 22.5444 48.0593 22.2967 49.7842C22.322 50.199 22.003 52.3367 21.9245 52.9012C21.7902 52.5295 22.0348 48.7927 22.112 48.2257C22.1152 47.113 22.5499 43.0806 22.238 42.5178C21.8572 42.3741 21.4198 42.4048 21.047 42.5641C20.6401 43.0498 20.2507 48.6847 20.1156 49.6422C20.0193 50.6184 19.8742 51.5751 19.7793 52.5356L19.647 52.5496C19.7559 51.2603 19.7702 49.8317 19.9401 48.5707C19.9439 47.3239 20.4655 42.9756 20.1047 42.2898C19.8135 42.0425 19.5078 42.04 19.1421 42.0708C19.0384 42.0796 18.9435 42.0636 18.8709 42.148C18.4823 42.6003 17.0213 60.03 16.8185 60.2287C16.698 59.1294 16.8243 57.9895 16.9159 56.8855C17.3144 52.0885 17.7093 47.2892 18.1041 42.4925ZM45.2265 46.0327C45.1653 46.6418 44.8984 48.1312 45.6487 48.3473C46.1805 48.5005 46.0975 48.3531 46.3782 48.6983C46.143 49.0643 45.4687 48.7269 45.0862 49.0695C44.932 50.5721 46.9249 50.3312 48.1468 50.8562C47.2719 50.8822 45.7594 50.6017 45.1682 51.1868C45.0328 51.5192 45.1593 51.8114 45.2463 52.1782C46.5947 52.4365 48.1646 52.6009 49.5456 52.7938C47.9471 53.1137 46.917 52.8156 45.3511 52.9004C45.2009 52.9085 45.183 53.0358 45.103 53.1717C45.1475 54.2836 49.2134 54.6977 50.2782 54.9113C49.2203 54.9493 45.7366 54.5862 45.1484 55.1748C45.0724 55.482 45.1099 55.5466 45.1643 55.8579C45.6359 56.2417 50.1091 56.7885 51.2163 57.0585L51.3577 57.0936C50.537 57.154 45.2997 56.9753 45.2117 57.01C45.1663 57.0852 45.1188 57.1546 45.098 57.2424C45.0457 57.4644 45.1218 57.7118 45.2513 57.8927C45.6328 58.4255 50.9236 59.0068 51.8836 59.1502L51.9825 59.3805C50.8683 59.2698 46.1598 58.7715 45.2948 58.9366C45.0091 59.3518 45.107 59.8046 45.4786 60.1368C46.4207 60.4877 51.5049 61.1332 52.8455 61.3547L52.801 61.5732C51.7965 61.4604 45.6032 60.6597 45.1989 60.9237C45.1237 61.3023 45.1425 61.3626 45.1821 61.756C45.4035 62.0734 45.6615 62.1011 46.0975 62.1663C49.43 62.6685 52.8732 63.3753 56.1978 63.84C54.4775 63.9467 45.6141 62.7871 45.2028 62.9423C45.0417 63.6225 45.194 64.1118 45.9383 64.2393L56.1048 65.8982L56.009 66.1038C52.5074 65.7795 48.7291 65.2052 45.2097 64.7781L45.0783 66.3134C54.1128 67.7883 63.1623 69.1684 72.2265 70.4506C71.2795 69.5075 69.9647 68.3864 68.9583 67.4779L45.2265 46.0327ZM54.1396 44.8573C53.4169 45.214 53.5049 47.0695 53.4663 47.8291C52.977 46.7289 53.1757 44.9997 51.8292 44.911C51.1323 45.2611 51.4575 45.8714 51.1837 46.6542C50.9722 46.1863 50.903 45.7323 50.7547 45.2455C49.5229 45.0112 47.7296 45.041 46.4395 45.083C49.3756 47.9756 52.7842 50.9969 55.8359 53.8013L73.2903 69.796C71.8529 61.5088 70.0981 53.2643 68.6084 45.0157C68.2119 45.0136 67.7859 44.9628 67.4468 45.1417C67.3776 45.6307 67.6603 47.1365 67.7562 47.7033C68.0992 49.7233 68.4284 51.7459 68.7428 53.7705C68.8318 54.3394 69.1175 55.9217 69.0937 56.4113C68.729 55.5278 68.4314 53.8143 68.2327 52.8191L67.1809 47.5158C67.0444 46.8328 66.8635 45.7316 66.6411 45.1134C66.2387 45.1005 65.8611 45.0387 65.5131 45.2228C65.2838 45.7968 67.0375 53.7683 66.9831 55.5038C66.5699 54.0117 64.9694 45.7395 64.4613 45.0728C64.1024 45.0059 64.0678 45.0299 63.7139 45.0792C63.363 45.776 64.7934 53.0287 64.6827 54.5465L64.6857 54.4859C63.9561 51.5553 63.5112 48.5486 62.8361 45.606C62.7827 45.3732 62.6799 45.2009 62.4831 45.0628C62.1223 44.963 61.9572 45.0305 61.5914 45.1053C61.3216 45.4237 61.8109 47.6223 61.8821 48.1684C62.0956 49.795 62.4821 51.4252 62.4891 53.0725C61.5796 50.8749 61.545 47.6951 60.7057 45.4175C60.5465 44.9866 59.9652 44.913 59.5916 45.0853C59.3563 45.4999 59.8733 50.2323 59.8555 51.1814C59.5935 49.8204 59.2001 45.7125 58.3034 45.0132C57.9792 44.9276 57.996 44.9432 57.6618 45.0165C57.4444 45.2333 57.4355 45.4072 57.4651 45.7854C57.6322 47.8799 58.0464 49.3956 57.9713 51.5384C57.5037 50.1254 57.299 45.6891 56.3194 45.0054C55.9506 44.9653 56.1236 44.9341 55.7875 45.1211C55.3031 45.8589 55.5809 47.7471 55.4781 48.8474C55.2863 47.9776 54.9561 45.2047 54.1396 44.8573ZM80.4367 52.9953C78.2252 55.4919 75.6272 57.7433 73.312 60.1445C72.9047 60.5666 73.1232 61.0886 73.4188 61.4988C73.8201 61.6877 76.0375 61.0688 76.6297 60.9512C79.2326 60.3936 81.8326 59.8192 84.4285 59.2311C83.9233 58.364 80.9458 53.3848 80.4367 52.9953ZM11.2111 51.5964C10.1928 53.6058 8.94233 56.4229 8.06102 58.5432C9.16404 58.9514 10.1005 59.25 11.2251 59.5881C11.8814 59.7779 12.4178 59.939 13.0909 60.0616C13.3232 58.3128 13.6142 55.8574 13.5671 54.1058C12.9182 53.389 11.9071 52.204 11.2111 51.5964ZM81.7782 47.6993C81.618 48.0329 81.5547 48.3306 81.2799 48.4618C80.8904 48.1874 80.9863 48.165 80.5899 48.1526C80.2232 48.3847 80.1935 48.4433 79.9068 48.7833C79.8732 49.1081 79.8752 49.4996 79.718 49.7527L79.63 49.5812C79.4481 49.2305 79.3749 48.9857 79.0299 48.8154C77.9089 48.8216 78.1491 50.4336 78.1541 51.2231C77.9435 50.5886 77.7665 49.6818 77.0419 49.4857C76.258 49.8533 76.4349 51.3427 76.4557 52.0891C76.2847 51.4729 76.1818 50.7927 75.7953 50.3291C75.4256 50.1902 75.6173 50.2094 75.1982 50.3207C74.5013 50.943 75.0539 52.8699 75.039 53.8814C74.6614 52.8671 74.5734 52.1075 74.1177 51.002C73.7401 51.0794 73.395 51.1029 73.1173 51.3613C73.0214 52.1393 73.4049 54.4739 73.4366 55.4685C73.3021 54.9746 73.14 54.4318 73.0382 53.9343C72.8938 53.267 72.7188 51.9717 72.2325 51.5808C71.5543 51.5848 71.3724 52.1795 71.5128 52.7615C71.9675 54.6471 72.2236 56.8719 72.793 58.7092L81.3986 50.2131C82.1034 49.5079 84.5442 47.1512 85.0326 46.4796C85.0128 46.4215 85.0068 46.354 84.9663 46.3082L81.7782 47.6993ZM2.71644 40.1062C2.69104 40.5362 3.02976 40.9478 3.33414 41.2182C4.99277 42.6918 12.5473 51.786 13.8872 52.3C14.1994 51.4525 15.0279 42.7223 14.9501 41.9132C14.7025 41.5611 14.8545 41.6497 14.5329 41.5156C14.0695 41.7976 13.9936 42.2962 13.8623 42.8289C13.7754 43.1868 13.6918 43.5456 13.6119 43.9052C13.4464 44.8509 13.2885 45.4733 13.0263 46.4002C13.0797 45.2968 13.3515 42.3053 12.9589 41.4186L12.763 41.2576C12.6051 41.2876 12.502 41.2695 12.4467 41.3892C11.9884 42.3815 12.015 44.0071 11.7863 45.1053C11.6979 44.3886 11.5997 41.4884 11.3009 41.1899C10.8976 41.1048 11.0791 41.0799 10.7328 41.2083C10.1929 41.9234 10.2068 44.1126 10.0622 45.1603C9.98077 44.1357 9.9175 41.6645 9.46348 40.9043L9.2941 40.7926C8.53213 41.1535 8.56582 42.8266 8.28114 43.6031C8.17487 42.6114 8.1347 41.7939 8.09743 40.8037C6.40984 40.5891 4.37209 40.2628 2.71644 40.1062ZM72.4608 44.8758C72.2523 45.4259 72.2641 47.0673 72.1099 47.8965C71.9231 47.0152 71.7659 44.2664 70.2464 45.104C70.0557 45.8178 70.977 49.6718 71.2301 50.4994C74.5141 49.4106 78.0789 47.9007 81.3135 46.6252C82.0184 46.3497 83.7919 45.7458 84.2279 45.2387L84.1804 45.1038C83.5309 44.8893 80.7827 45.0178 79.8524 44.9858L79.287 45.8691C78.8471 45.4266 78.3755 44.7466 77.7655 45.2208C77.5837 45.5842 77.6163 45.9591 77.6024 46.3761C77.2752 45.8739 76.8976 45.1289 76.3143 44.9967C75.735 45.3314 75.9416 46.4749 75.9742 47.0805C75.651 46.3708 75.3307 45.4355 74.6762 45.0422C73.9279 45.0786 74.0643 46.1353 74.0445 46.7172C73.6778 45.9731 73.3772 44.9675 72.4608 44.8758ZM65.089 26.0987C64.7233 26.4086 64.3931 26.7398 64.05 27.074C64.8033 28.0026 65.9738 28.9163 66.8546 29.7319C69.1195 31.8268 72.0091 33.9515 74.1889 36.0649C73.5414 35.7904 71.9221 34.3142 71.2281 33.7856C68.7487 31.8966 65.9916 29.2907 63.4826 27.5488L62.5375 28.4056C64.222 30.2303 67.0108 32.322 68.9 34.0253C69.6642 34.7145 70.8228 35.5497 71.4644 36.3094C70.541 35.7167 69.0918 34.5198 68.1941 33.8194L61.9977 28.9432C61.628 29.2462 61.3502 29.5629 61.024 29.9105C62.3799 31.2193 69.9845 37.4468 70.8098 38.629L70.7437 38.6474C67.4072 36.1225 63.8365 33.0423 60.5099 30.3902C60.0977 30.681 59.7764 30.9488 59.3919 31.269C59.8604 31.8159 60.9064 32.6824 61.4857 33.1872L65.0436 36.2892C65.5012 36.6875 66.4789 37.4802 66.7805 37.9422C66.3267 37.6951 64.7806 36.41 64.2616 35.9941L58.9846 31.7715C58.5842 32.0683 58.1977 32.2766 58.0771 32.752C58.2362 33.2225 63.1219 37.3175 63.9154 38.0088L63.704 38.1294L57.4948 33.1835C57.1162 33.4246 56.7207 33.6843 56.5724 34.1222C56.6875 34.6997 61.7487 38.6552 62.5148 39.6047C62.0086 39.3309 60.8658 38.4022 60.3251 37.987C58.8699 36.8555 57.4038 35.738 55.9269 34.6346L54.8681 35.4792C56.2106 36.7939 58.5644 38.917 59.6835 40.2827C59.1605 39.9733 58.4438 39.3016 57.9505 38.896C56.7791 37.9322 55.6422 36.905 54.4233 35.9993C53.9409 36.3977 53.8479 36.4923 53.4703 36.9901C54.3551 37.9566 55.748 39.1928 56.7346 40.1537L56.7069 40.2019C55.575 39.5149 54.1138 38.2691 52.9276 37.4394C52.5559 37.7409 52.1881 38.082 51.8302 38.4027C52.802 39.3396 53.7708 40.1193 54.7495 41.1157C53.6028 40.4276 52.3888 39.6247 51.249 38.9066C51.0157 39.1242 50.7398 39.4895 50.5322 39.7452C50.8644 40.4648 51.6098 41.3234 52.1219 41.9629C51.3883 41.3503 50.726 40.7948 49.951 40.2301C49.0998 40.8559 48.7696 40.875 49.1621 41.8906C48.8744 41.885 48.6065 41.8195 48.3238 41.7644C47.8324 41.8584 46.746 43.2795 46.3703 43.7218L71.8459 43.7569C76.3964 43.758 81.8059 43.8962 86.295 43.6972C85.5298 42.9189 84.2526 41.8948 83.3965 41.1777L78.6098 37.1779C74.3016 33.5838 69.5198 29.4735 65.089 26.0987ZM31.067 29.4523C30.9951 30.4748 35.7759 37.0227 35.7459 37.6855C35.2595 37.2234 34.8868 36.5164 34.5255 36.0499C33.6887 34.9693 30.6028 30.3092 29.7646 29.7255L29.5067 29.7468C29.277 30.6502 32.1527 35.7874 32.3825 36.8894C31.772 36.5234 28.9856 29.8475 28.0224 29.8782C27.7572 30.5405 28.9595 35.2095 29.0637 36.473C28.7557 35.5398 27.2318 30.3033 26.7138 29.9972C26.509 30.1205 26.413 30.2423 26.3737 30.5216C26.1287 32.2653 26.3314 33.7381 25.9656 35.5324C25.9108 34.6884 25.8086 30.548 25.3829 30.0837C24.6943 29.9791 24.6284 30.9258 24.4984 31.3703C24.3644 31.8288 23.7119 35.5608 23.5627 35.6555C23.4133 34.2703 24.2113 31.3771 23.8677 30.2611L23.7099 30.1806C22.6472 30.6924 21.0688 35.0662 20.8102 35.1818C21.0363 34.2468 22.3301 30.9155 22.2206 30.5256C22.0998 30.4713 22.02 30.3999 21.9504 30.4658C20.4174 31.9149 18.684 34.7004 17.2797 36.205C18.3642 34.411 19.5926 32.4508 20.6224 30.6333C19.8496 31.2602 19.0828 31.8944 18.3224 32.5362L13.9126 36.2994C15.3342 34.2898 17.5567 32.7984 18.9925 30.6767C16.7328 31.9875 13.8267 33.9436 11.641 35.4711L11.6202 35.4232C12.5335 34.4652 14.9742 32.591 16.1395 31.6078C14.701 32.3354 3.66195 38.1989 3.22556 38.8145C3.67833 39.2712 11.3089 39.971 12.4279 40.1L32.423 42.385C35.6048 42.7478 39.6246 43.0792 42.7274 43.5845C41.5827 41.908 32.1035 29.6707 31.1634 29.4637C31.1318 29.4567 31.0991 29.4561 31.067 29.4523ZM73.8142 15.9013C71.3783 16.5839 68.3039 17.1996 65.8077 17.7692L51.7077 21C49.8066 21.4359 47.9056 21.8719 46.0006 22.2893C45.5261 22.3933 45.0575 22.669 45.0565 23.2034C45.7129 23.8146 48.9693 22.9425 49.9302 22.7582C51.9054 22.3875 53.8825 22.0278 55.8617 21.6793C56.4657 21.5711 57.8299 21.2721 58.3697 21.3114C58.259 21.3724 57.4987 21.468 57.2615 21.5351C54.5953 22.2958 51.8273 22.7591 49.1354 23.4246C48.2437 23.6453 45.4005 24.0022 45.0852 24.8942C45.4223 25.8532 48.0509 24.9954 48.8566 24.8424C50.8891 24.4548 52.9246 24.0791 54.9611 23.715L55.0451 23.9512C52.0784 24.6536 49.0761 25.2371 46.1113 25.9516C45.4856 26.1026 44.7945 26.3257 45.2097 27.1158C45.8732 27.4374 54.1593 25.5086 55.7321 25.6124C55.3397 25.6685 52.3097 26.3962 51.8095 26.5401C50.2475 26.9898 46.5572 27.6157 45.2147 28.1596C44.9893 28.4797 45.0624 28.2983 45.0624 28.7465C45.6773 29.4211 51.2835 27.9457 52.8495 28.0535C52.6369 28.1644 52.888 28.0542 52.6656 28.1131C50.29 28.7452 47.8008 29.0888 45.4549 29.7903C45.0535 29.9104 45.0664 30.5934 45.3353 30.9032C46.9872 30.8593 49.9589 30.0653 51.9943 29.9476L52.1525 29.9394C50.6835 30.5996 46.75 30.8678 45.2869 31.8122C45.1129 31.9246 45.1089 32.1283 45.1138 32.3078C45.4668 32.5582 50.0508 32.1462 50.902 32.1508C49.7997 32.4635 45.802 33.4827 45.0694 34.0726L45.0674 34.2176C45.8563 34.667 48.2239 34.1487 49.3321 34.2985C48.2753 34.5866 45.8089 35.0138 45.1504 35.6696C45.0249 36.0403 45.0289 35.8539 45.1761 36.2485C45.5666 36.5368 47.7385 36.3294 48.4968 36.3518C47.7355 36.5756 45.0437 36.8729 44.9448 37.7728C45.2493 38.2121 46.4208 38.4399 47.0702 38.6685C46.9289 38.6667 46.7875 38.666 46.6461 38.6665C44.4604 38.6764 45.0733 41.1695 45.1781 42.7302L64.9348 24.3483C67.8323 21.6336 71.0521 18.7108 73.8142 15.9013ZM43.8742 3.87687C43.0329 5.28084 41.9385 7.84442 41.2268 9.40548C41.436 10.0936 41.8248 10.8914 42.1274 11.5604C41.7504 11.1972 41.3666 10.8014 40.9949 10.4295C40.7456 10.7025 40.5276 11.0507 40.3183 11.3597C40.7405 12.3494 41.2765 13.049 41.887 13.9225C41.168 13.4336 40.627 12.6185 39.9265 12.6421C39.5716 12.902 39.631 12.9617 39.4144 13.4221C40.0665 14.5087 40.9402 15.5692 41.6411 16.7267L39.2801 14.2027C39.0556 14.452 38.8398 14.7391 38.6303 15.0036C39.291 16.3511 40.7572 18.341 41.65 19.6788C40.4617 18.5343 39.4555 17.2497 38.2156 16.128C38.0363 16.4636 37.8699 16.8272 37.7043 17.1717C38.2272 17.9586 40.5408 20.8807 40.7806 21.4086C40.2399 21.0198 38.1427 18.7952 37.5717 18.2152C37.3335 18.5954 37.1732 18.9477 36.9789 19.3497C37.7694 20.268 40.5266 23.6128 41.0706 24.5742C39.4271 23.2351 38.2074 21.4321 36.7269 19.9065L36.5767 19.9294C36.2693 20.2658 36.1903 20.5726 36.0245 20.9987C36.5451 21.7003 40.349 26.3923 40.4493 26.7613C38.9032 25.1479 37.3905 23.4163 35.8974 21.748C35.624 22.0774 35.3742 22.4621 35.1302 22.8168C35.9768 24.0359 39.8225 28.5177 40.1812 29.4561C39.7152 29.1064 39.3708 28.5517 38.9957 28.1708C38.0908 27.2515 35.9977 24.4484 35.0432 23.7822L34.8211 23.8262C34.5367 24.0837 34.4756 24.4199 34.3571 24.79C35.2722 26.1952 36.977 28.2996 38.0264 29.7061L37.9032 29.9161C36.6841 28.4715 35.3867 26.8741 34.1164 25.4909C33.7957 26.0631 33.7501 26.2111 33.5643 26.8199C34.2332 27.5101 38.0979 32.3253 38.4517 33.0603C37.8532 32.5542 37.0821 31.6198 36.5287 31.013C35.4328 29.8113 34.4065 28.6609 33.2261 27.5378C33.0129 28.1338 32.8922 28.4169 32.9306 29.0449C33.2587 29.673 36.2133 33.2863 36.7805 33.9047C37.7846 34.9995 43.0901 41.8919 43.6923 42.0994C44.0086 40.6842 43.8979 37.2094 43.8969 35.5845L43.9256 11.6275C43.9285 9.33654 44.0304 6.09919 43.8742 3.87687ZM76.1146 27.431C75.8615 28.8335 75.7785 31.5055 75.6668 33.0003C76.8244 34.139 79.2089 36.0662 80.5622 37.025L81.3323 35.5258C81.967 34.2357 82.5908 32.9404 83.2047 31.6397C82.1706 30.992 76.95 27.6641 76.1146 27.431ZM15.7556 24.3012C12.4836 24.5744 9.22669 25.1496 6.00791 25.4822C6.60086 27.1777 8.03871 29.8951 8.88384 31.5867L9.7935 33.4012C11.0994 32.8523 15.4152 30.6951 16.4867 29.8917C16.4986 28.9753 16.4934 25.1225 16.1721 24.462C15.9115 24.2678 16.0502 24.3073 15.7556 24.3012ZM75.3416 16.499C74.9125 16.8672 74.0475 17.5521 73.7697 17.982C73.8241 18.1781 73.8775 18.3748 73.9289 18.5717L73.8458 18.6935C73.3832 18.7008 72.97 18.6146 72.6309 18.8032C72.5785 19.2736 73.397 20.1812 73.7252 20.5944L73.7934 20.6784L72.0585 19.6035C71.6552 19.8874 71.6601 19.7951 71.4782 20.1811C71.6047 20.9651 72.7485 21.7294 73.3506 22.8501C72.6576 22.2742 71.5148 21.0932 70.7536 20.9137C70.3671 21.0038 70.5341 20.9097 70.2593 21.2458C70.2197 21.5461 70.1733 21.4513 70.3829 21.7185C71.0788 22.6055 72.0249 23.2196 72.7198 24.1318L69.76 22.0275C69.4684 22.3034 69.2667 22.4784 69.0245 22.7954C70.1476 23.8661 71.3438 24.971 72.4391 26.0612L72.3274 25.9949C71.4901 25.4849 68.9059 23.3185 68.3434 23.1009C68.036 23.2035 67.9678 23.3255 67.7522 23.5675C67.7701 24.0708 68.2466 24.3484 68.6212 24.6561C69.4724 25.4142 70.893 26.6103 71.6374 27.3976L71.6235 27.4725C70.197 26.4435 68.554 25.0743 67.1512 24.1335C66.7775 24.4208 66.4681 24.5947 66.2704 25.0118C66.2911 25.3689 66.4217 25.4629 66.7657 25.7475C69.3063 27.8527 71.8707 29.9936 74.4301 32.0727C74.6634 30.5249 74.7296 28.8821 74.8433 27.3144L75.3732 20.0192C75.4117 19.4529 75.6351 16.9782 75.5778 16.6435C75.4127 16.4969 75.4987 16.5309 75.3416 16.499ZM17.1007 12.0138C17.0722 13.3252 17.0723 14.6371 17.1014 15.9485C17.5765 16.0933 18.1803 16.2324 18.6706 16.3585C18.1664 16.5525 17.4933 16.6931 17.3225 17.2306C17.5652 17.6469 19.1276 17.8935 19.7485 18.0667C19.0625 18.3029 17.3103 18.7689 17.2065 19.5125C17.729 19.9336 19.4114 20.0203 20.2769 20.3732C19.8363 20.3756 18.1693 20.3225 17.715 20.5431C17.1036 20.8399 17.5061 21.6793 18.1885 21.8027C19.2905 22.002 20.6283 21.9609 21.7783 22.0729C20.8763 22.1866 18.3101 22.4188 17.5935 23.0424C17.412 23.2003 17.4687 23.38 17.4981 23.5695C17.8946 23.8732 19.6702 23.6683 20.295 23.6484C20.6112 23.6721 20.9738 23.653 21.2175 23.824C20.1624 24.0174 17.3096 23.9545 18.0143 25.6557C18.4952 25.8661 21.5104 25.7977 22.3652 25.8626C21.2207 25.9817 18.2651 26.1448 17.5006 26.7542L17.5487 27.0137C18.4366 27.4982 19.8869 27.4215 20.9069 27.4312C21.3258 27.4611 21.9186 27.4392 22.2212 27.6824C21.1137 27.828 18.9997 28.0048 18.0176 28.1921C17.7485 28.531 17.7758 29.2838 18.0356 29.6138C18.5457 29.662 20.1214 29.4299 20.6985 29.3485C23.9368 28.8916 27.3252 28.8161 30.5442 28.344C29.8383 27.2166 27.2495 24.224 26.2866 23.0623L17.1007 12.0138ZM41.9741 4.37577C40.6693 5.67613 39.3846 7.00071 38.1192 8.33963C38.0166 8.44821 38.0976 9.02129 38.1193 9.17778C37.5837 9.17481 37.7015 8.77574 37.225 9.23792C37.0015 9.45471 36.7675 9.70868 36.5576 9.94228C36.8838 10.369 37.2045 10.7776 37.5026 11.2253L36.1735 10.3288C35.886 10.6212 35.5785 10.9222 35.3103 11.2302L36.5839 13.0802C36.1035 12.6729 34.8838 11.4756 34.2369 12.0578C34.0435 13.0743 34.8613 13.9396 35.4382 14.6988L33.5861 13.1822C33.1971 13.5605 33.0485 13.7128 32.7291 14.1478C33.3902 15.0108 33.9711 15.7582 34.516 16.7083C33.6244 16.1087 32.8196 15.3718 32.0162 14.6563C31.7508 14.8754 31.4517 15.1104 31.201 15.3419C31.8541 16.1554 32.7503 17.2455 33.3017 18.1147C32.5058 17.4016 31.6378 16.5754 30.7556 15.9902C30.512 16.2663 30.2541 16.5441 30.0428 16.8437C30.7562 17.8869 31.6002 18.9837 32.2701 20.0213C31.7176 19.5186 31.1998 19.0056 30.6569 18.4964C30.1628 18.033 29.5757 17.3877 28.949 17.9268C28.9249 18.8041 30.8018 20.88 31.2321 21.8357L31.1448 21.8716L30.9543 21.7128C29.9692 20.6911 29.1129 19.6611 28.1982 18.576C27.8342 18.9689 27.6492 19.146 27.363 19.6068C28.2399 20.7617 29.945 22.8822 30.5539 24.0537C29.9429 23.3934 27.1907 19.8611 26.463 20.5097C26.3906 20.8279 26.353 21.0303 26.5705 21.3094C27.9257 23.0486 30.1889 26.0708 31.7101 27.5587C32.6067 25.7031 41.9385 4.95941 41.9741 4.37577ZM45.2503 2.49879C45.1346 3.58692 45.1514 4.81447 45.1396 5.91861C45.5162 5.95093 45.9176 5.95223 46.2557 6.10545C45.9887 6.53686 44.9448 6.69981 45.1326 7.63461C45.708 8.17403 46.8953 7.74721 47.7316 7.77993C46.9832 8.03874 45.5172 8.3197 45.1682 8.83029C45.1277 9.18089 45.0891 9.28466 45.2186 9.6172C45.5529 9.81349 47.2739 9.40486 48.2506 9.66614C47.9114 9.92622 45.3758 10.1989 44.9507 11.1088C45.4747 11.8289 48.651 11.2191 49.6277 11.2068C48.5748 11.4768 46.1074 12.1692 45.2542 12.7663L45.1662 12.9472C45.6281 13.3931 49.082 12.9416 49.9964 13.0097C48.9752 13.2546 47.9293 13.4851 46.916 13.7583C46.1281 13.9707 45.0496 14.1329 45.0931 15.1023C45.5488 15.3995 50.0548 14.7026 51.0839 14.628C50.0785 14.9695 45.4826 15.9348 45.1089 16.6035C45.0378 16.7291 45.1366 16.9809 45.1662 17.12C45.3689 17.3107 45.5251 17.2959 45.8731 17.2688C47.5675 17.137 48.8299 16.7471 50.5599 16.8659C49.512 17.0917 48.4651 17.3258 47.4212 17.568C46.7697 17.6956 45.5923 17.8303 45.183 18.2845C45.1 18.6177 45.0546 18.6667 45.1504 18.996C45.2058 19.0317 45.2621 19.0676 45.3175 19.1033C47.8631 18.7891 50.4433 18.0211 53.0225 18.1333C51.1995 18.5929 49.3726 19.037 47.5418 19.4657C46.833 19.6317 44.8994 19.7359 45.191 20.8751C45.6892 21.1178 46.4979 20.8809 47.0297 20.7402C51.1936 19.6389 55.7727 18.9592 59.8763 17.7374C56.7771 14.4457 53.6571 11.1739 50.5164 7.92179C48.9752 6.31961 46.8261 3.95506 45.2503 2.49879ZM18.6502 11.5963C19.3343 12.602 20.1044 13.5465 20.9517 14.4192L22.1639 14.0712C21.8836 14.3962 21.5314 14.7135 21.4704 15.1199C21.5541 15.4605 21.544 15.4375 21.8007 15.678C22.5355 15.8631 23.0145 15.0279 23.7252 14.6344C23.3046 15.2692 23.0646 15.5888 22.5707 16.1682C22.7589 16.4699 22.9462 16.7845 23.1502 17.0744C23.7963 16.418 24.2679 15.9465 25.038 15.4282C24.5358 16.2781 23.6603 17.0935 23.6631 17.8282C23.7739 18.0931 23.7504 18.1155 23.9873 18.2602C24.8525 17.9348 25.8851 16.7144 26.3914 16.5646C26.3172 16.7937 26.3149 16.7821 26.1647 16.9739C25.6638 17.5551 24.9429 18.3399 24.5523 18.9718C24.8573 19.31 25.0588 19.5478 25.4122 19.8422C25.9801 19.2661 28.9575 16.3967 29.1177 15.7802C29.0712 15.7045 29.0248 15.629 28.9783 15.5534C26.0965 14.4924 21.4042 12.4534 18.6502 11.5963ZM64.9121 5.19036C61.2879 6.26415 57.1804 7.51344 53.6077 8.71496C55.2833 10.6287 56.9758 12.5273 58.686 14.4105C59.5658 15.3856 60.5495 16.5234 61.4659 17.4416C63.1623 17.0074 65.268 16.5044 66.8922 15.8637C66.6816 14.4428 65.5527 6.05407 65.1602 5.27817C65.0534 5.22954 65.0188 5.19678 64.9121 5.19036ZM31.6186 6.10644C30.5269 8.09931 28.8538 11.7176 28.0092 13.7766C28.8529 14.199 29.5273 14.3485 30.4506 14.5428L31.0077 13.9742C32.4124 12.545 33.8694 11.013 35.3006 9.62247C34.6015 8.89866 32.3363 6.42803 31.6186 6.10644Z" fill="#FFFCF5"/>
<path fill-rule="evenodd" clip-rule="evenodd" d="M44.8074 96.5459C46.5413 96.1386 48.3604 96.6982 49.5644 98.01C50.7695 99.3208 51.1728 101.18 50.6202 102.874C50.0666 104.566 48.644 105.83 46.8973 106.178C44.2597 106.703 41.6888 105.016 41.1187 102.388C40.5486 99.7608 42.1902 97.1608 44.8074 96.5459ZM49.0069 100.587C48.5877 98.888 46.8676 97.852 45.1702 98.2761C43.4788 98.6992 42.4487 100.41 42.8658 102.103C43.284 103.795 44.9923 104.83 46.6857 104.418C48.386 104.003 49.427 102.287 49.0069 100.587Z" fill="#FFFCF5"/>
<path d="M32.4922 96.5381C34.3389 96.3819 35.6198 96.5253 37.141 97.6878L36.1265 99.059C34.2411 97.8519 31.6315 97.6117 30.6295 100.024C30.2757 100.895 30.2824 101.87 30.6483 102.736C31.3482 104.406 33.3146 104.924 34.9481 104.245C35.8178 103.884 36.1863 103.042 36.4863 102.203C35.5778 102.288 34.4482 102.261 33.5198 102.263L33.5086 100.977L33.5345 100.898C33.8699 100.67 37.4667 100.769 38.1472 100.772C38.1441 101.843 38.1041 102.608 37.6861 103.628C36.6423 106.175 33.4221 106.847 31.088 105.679C29.9613 105.125 29.1184 104.124 28.7639 102.92C27.8782 99.9527 29.4337 97.2746 32.4922 96.5381Z" fill="#FFFCF5"/>
<path d="M21.2999 110.237C21.9556 110.57 26.9383 115.733 27.4753 116.407C27.2975 114.875 27.3843 112.066 27.3924 110.437L29.0958 110.444C29.1017 113.162 29.2379 117.376 29.0519 120C28.4447 119.741 23.3626 114.522 22.8447 113.801C23.0186 115.087 22.9331 118.38 22.9308 119.799L21.2388 119.807L21.2276 113.767C21.2266 112.84 21.1802 111.101 21.2999 110.237Z" fill="#FFFCF5"/>
<path d="M81.5567 110.443L83.2581 110.441C83.2729 111.658 83.2689 112.874 83.2462 114.091C84.7093 114.06 86.1734 114.057 87.6375 114.082C87.6068 112.897 87.6286 111.631 87.6305 110.439L89.3388 110.441L89.3457 116.867C89.3457 117.412 89.3783 119.358 89.2884 119.749L89.0521 119.806L87.6137 119.801C87.6167 118.408 87.6256 117.015 87.6424 115.623C86.1763 115.639 84.7113 115.637 83.2462 115.616C83.2808 116.998 83.262 118.42 83.26 119.806H81.5528L81.5567 110.443Z" fill="#FFFCF5"/>
<path fill-rule="evenodd" clip-rule="evenodd" d="M45.012 110.422C47.8759 110.19 49.7285 112.765 47.783 115.126C47.0653 115.999 45.6783 115.992 44.5395 115.977C44.235 115.959 44.2063 115.926 43.9384 116.049C43.8356 116.419 43.891 119.256 43.8959 119.806L42.1895 119.811L42.1923 110.432C42.9045 110.447 44.2439 110.484 45.012 110.422ZM46.3921 114.17C47.8107 111.939 45.3383 111.936 43.891 111.955L43.889 114.426C44.7313 114.431 45.6536 114.525 46.3921 114.17Z" fill="#FFFCF5"/>
<path d="M9.68268 110.441L11.4296 110.445C11.4329 112.432 11.3375 114.472 11.4643 116.444C11.6057 118.003 13.2799 118.77 14.5661 118.013C15.9117 117.221 15.5454 114.843 15.5751 113.517C15.5977 112.506 15.5678 111.447 15.5669 110.437L17.2909 110.439L17.295 112.09C17.3217 115.379 18.124 119.929 13.4753 119.983C12.1236 119.998 10.387 119.254 10.0144 117.97C9.41527 115.907 9.66973 112.544 9.68268 110.441Z" fill="#FFFCF5"/>
<path fill-rule="evenodd" clip-rule="evenodd" d="M64.5651 110.194C64.9931 110.39 65.9372 112.633 66.2051 113.202L69.3043 119.798L67.426 119.802C67.08 119.073 66.7449 118.313 66.4098 117.578L64.828 117.581L62.9053 117.577C62.5474 118.305 62.2152 119.063 61.8821 119.803L60.0166 119.809C60.2499 119.248 60.5287 118.655 60.7986 118.109C62.0857 115.508 63.2216 112.76 64.5651 110.194ZM64.6639 113.209C64.2507 114.241 63.8671 115.199 63.3986 116.21L64.8686 116.201L65.9352 116.206C65.522 115.37 64.9625 114.11 64.6639 113.209Z" fill="#FFFCF5"/>
<path fill-rule="evenodd" clip-rule="evenodd" d="M57.5333 96.3799C57.9861 96.81 61.715 104.917 62.1717 106.018H60.3142L59.3227 103.81H55.8093C55.4642 104.494 55.1202 105.307 54.7801 106.019L52.9355 106.017C53.4396 104.674 54.6358 102.414 55.2586 101.02C55.7173 99.9952 57.0074 97.1777 57.5333 96.3799ZM57.5057 99.4317C57.3119 100.267 56.6575 101.662 56.2798 102.466L57.8358 102.46L58.8363 102.468C58.4211 101.558 57.9238 100.27 57.5057 99.4317Z" fill="#FFFCF5"/>
<path d="M2.82878 110.284C4.05333 110.176 5.1289 110.328 6.21594 110.929C5.9771 111.439 5.72718 111.942 5.4663 112.441C4.9033 112.161 2.7145 111.285 2.50798 112.546C2.43621 112.983 3.40354 113.627 3.75062 113.878C4.88848 114.7 6.34939 115.524 6.47395 117.097C6.52704 117.747 6.31638 118.553 5.87784 119.054C5.20966 119.817 4.24343 119.933 3.30339 119.979C1.88429 119.952 1.30963 119.729 0.0752914 119.123C0.295546 118.629 0.603885 118.047 0.849843 117.554C1.87144 118.082 3.7355 118.816 4.72931 117.842C5.09281 116.291 1.0004 114.981 0.794779 113.094C0.614462 111.439 1.15601 110.683 2.82878 110.284Z" fill="#FFFCF5"/>
<path d="M74.5082 110.282C75.996 110.216 76.5278 110.303 77.898 110.898L77.1309 112.459C76.9124 112.338 76.686 112.232 76.4527 112.143C75.8754 111.92 74.3708 111.659 74.1058 112.411C74.4597 113.959 78.0325 114.678 78.1511 117.258C78.1807 117.953 77.9257 118.631 77.4452 119.134C76.7631 119.851 75.8803 119.933 74.9649 119.978C73.5542 119.956 72.967 119.724 71.7352 119.131C71.9834 118.563 72.2295 118.103 72.5202 117.556C73.482 118.064 75.5254 118.946 76.2876 117.704C76.7898 116.886 74.4281 115.449 73.8557 115.022C71.8153 113.498 71.7293 110.897 74.5082 110.282Z" fill="#FFFCF5"/>
<path d="M35.028 110.29C36.4017 110.176 37.2599 110.316 38.4874 110.915C38.2342 111.417 37.9829 111.984 37.7419 112.497C37.3431 112.226 36.8916 112.041 36.4167 111.956C35.8575 111.857 35.3639 111.822 34.9037 112.155C34.1088 113.621 38.3497 114.33 38.7302 117.027C38.8289 117.741 38.6231 118.465 38.1629 119.019C37.4926 119.812 36.5699 119.923 35.6159 119.979C34.1807 119.956 33.5972 119.742 32.3333 119.125L33.1058 117.553C33.9789 117.994 34.9354 118.456 35.932 118.298C37.391 118.065 37.0615 116.929 36.1421 116.259C34.5435 115.094 32.1 113.72 33.2789 111.367C33.5724 110.782 34.443 110.442 35.028 110.29Z" fill="#FFFCF5"/>
<path d="M51.8747 110.437L53.5662 110.444L53.5602 118.197L57.4542 118.204L57.4523 119.8L51.8668 119.806L51.8747 110.437Z" fill="#FFFCF5"/>
</svg>
