<svg width="120" height="120" viewBox="0 0 120 120" fill="none" xmlns="http://www.w3.org/2000/svg">
<path fill-rule="evenodd" clip-rule="evenodd" d="M60.4421 0C60.7835 0.122285 69.3185 9.24993 70.3539 10.3363C75.3831 8.9655 80.3764 7.41521 85.3963 6.01159C86.4945 5.70455 87.8489 5.25895 88.9617 5.11177C89.9891 5.47657 89.8504 8.04632 90.1106 9.04307C90.551 10.7295 91.457 20.4217 92.1522 21.2128C94.1139 21.7927 101.951 18.3638 103.592 19.4414C104.024 20.1017 103.46 25.2645 103.361 26.4473L102.765 34.5012C105.96 37.0326 110.879 39.7198 114.38 42.0687C113.693 44.1791 111.12 49.2088 109.984 51.1771C112.982 53.7378 116.14 56.1357 119.123 58.7188C120.964 60.3141 117.755 62.4788 116.582 63.6497C114.478 65.7379 112.407 67.8589 110.369 70.012C111.794 73.4625 114.865 78.0926 116.072 81.558C110.826 82.6975 104.207 83.5982 99.2151 84.8832C99.4593 87.6881 100.367 90.6584 100.847 93.4432C101.003 94.3573 101.714 96.3548 101.291 97.1074C100.56 97.6038 92.1351 96.3789 90.6471 96.2348C90.5256 97.3956 90.635 105.348 90.2147 105.678C89.8451 105.969 89.2073 106.008 88.7536 106.017C87.1537 106.053 85.467 105.796 83.8658 105.677C80.7033 105.442 77.5261 105.247 74.373 104.914C73.1788 105.994 71.6602 107.722 70.538 108.93L63.8835 116.093C62.872 117.182 61.1707 119.113 60.0912 120C58.9396 118.935 57.3236 117.059 56.2226 115.847C54.233 113.519 50.5346 109.453 48.3622 107.432C45.9428 108.319 42.3279 109.538 39.8082 109.986C37.7692 107.407 33.6744 103.001 31.3436 100.621C26.6306 102.149 21.3449 103.298 16.516 104.468C15.3038 104.763 15.8386 101.945 15.8686 101.468C16.2473 95.4675 17.5127 88.9677 17.5962 82.9977C16.1459 82.3239 9.52108 80.8027 9.05152 79.9113C9.11377 78.2633 12.8731 69.6896 13.6585 68C9.34656 63.2144 4.0956 57.6855 0 52.8117C2.5109 51.1371 9.09546 47.4721 11.7354 46.247C10.3967 42.5838 7.968 38.6212 6.40145 34.9987C6.11484 34.3358 5.82135 33.8253 6.19795 33.1401C6.46136 32.9195 6.74056 32.7328 7.0911 32.6867C12.0182 32.0376 17.0247 31.5798 21.9109 30.6504C21.8258 25.9523 21.1831 18.0236 21.3816 13.0277C21.4451 12.9394 21.5085 12.851 21.572 12.7626C22.2289 12.5295 34.4306 17.3712 35.9892 17.928C36.9925 16.1003 41.2926 6.39253 42.563 5.83434C43.44 6.17326 47.4182 10.4139 48.5998 11.4034L48.7399 11.5197C49.8551 10.5392 51.5096 8.78085 52.6165 7.682C55.2025 5.09838 57.8107 2.53758 60.4421 0ZM61.3693 91.4871C61.2439 91.7966 61.037 92.3491 61.0344 92.6746C60.969 100.526 60.53 108.705 60.9863 116.527C62.9172 114.633 80.2571 96.3057 80.7378 95.1072C80.3962 94.6616 79.8864 94.5107 79.3647 94.2626L72.0216 101.802C70.9595 102.887 69.2448 104.735 68.1332 105.687L68.0265 105.659C68.4909 104.906 69.8025 103.528 70.439 102.801L75.4203 97.0928C76.0207 96.4029 77.163 95.1726 77.5753 94.42C77.3738 94.1131 77.211 94.1638 76.748 94.0264C75.902 94.2133 74.4995 95.8064 73.827 96.483L69.529 100.862C68.8445 101.57 67.6088 102.961 66.8602 103.494C67.9171 101.91 74.5875 94.8818 74.9466 93.989L74.8732 93.7982C74.4062 93.6061 74.3461 93.5607 73.8244 93.5527C72.5499 94.3561 67.2712 100.226 65.6767 101.66C66.1997 100.565 71.3277 95.0859 72.2538 93.4819C72.2338 93.3979 72.2124 93.3151 72.1924 93.2311C70.7966 92.2918 66.2344 97.844 65.0922 99.0116L64.9961 98.9515C65.5712 97.6879 69.4689 94.1024 69.5704 92.9909C68.0398 91.7434 64.832 96.112 63.6738 97.1702L63.7752 97.0074C64.4744 95.8812 66.4519 93.59 66.6294 92.5959L66.4986 92.4091C64.5358 92.4065 64.5371 93.542 62.8785 94.4947L64.4277 92.1142L61.3693 91.4871ZM47.021 102.346C48.3489 104.023 57.9382 115.529 58.9047 116.066L59.1249 115.921C59.3664 114.733 59.2516 107.566 59.249 105.978L59.0808 105.666C58.6406 105.537 58.6698 105.553 58.2242 105.677C57.2995 106.467 57.7772 108.678 56.9676 109.536C56.7264 108.095 57.0643 106.026 56.4735 104.904L56.2379 104.817C55.391 105.218 55.2238 107.102 54.6698 107.552C54.4698 107.154 54.494 105.885 54.471 105.325C54.1692 104.852 53.9701 104.425 53.5016 104.145L53.2736 104.198C53.0369 104.625 52.5931 105.681 52.3216 105.941C51.9035 105.152 52.6155 104.286 51.6811 103.435C50.873 103.188 50.8644 103.765 50.2206 104.15C49.9609 103.561 49.8877 103.064 49.3183 102.895C48.6443 102.693 47.7079 102.437 47.021 102.346ZM36.2583 99.4866C35.3757 99.7068 34.7701 99.8683 33.9129 100.17C35.2855 102.263 38.6383 106.061 40.3836 108.079C41.7811 107.798 42.8709 107.54 44.2219 107.062C45.3389 106.711 46.4585 106.369 47.5805 106.034C46.8183 105.052 45.4046 103.316 44.5304 102.462C43.1556 101.12 38.0616 99.5587 36.2583 99.4866ZM59.0557 62.4381C58.4446 62.3368 56.0834 65.1055 55.5241 65.7136C55.5323 65.9022 55.5304 66.0865 55.5169 66.2747C54.278 67.189 53.9598 67.3565 52.8504 68.4397C53.1986 68.8333 53.4292 68.9333 53.436 69.3317C52.9674 69.4202 52.5071 69.2873 52.0322 69.1954L50.5771 70.7644C51.154 71.3452 51.3217 71.4803 52.0044 71.9331C51.0292 71.8393 50.5023 71.8417 49.5176 71.8708C48.9107 72.3488 48.5432 72.6374 47.9924 73.1985C48.6732 73.7021 49.9066 74.3465 50.316 74.7913L50.2875 74.9541C49.3902 75.169 47.6574 74.7224 46.765 74.4515C46.2732 74.995 45.7893 75.5457 45.3136 76.1035C46.2521 76.5088 46.9646 76.7411 47.9068 77.0867C46.7156 77.1071 45.2876 77.095 44.1176 77.1845C43.6343 77.5858 43.1961 77.8687 42.9171 78.4184C42.8957 79.4525 44.1127 79.578 44.9347 79.8955C45.7073 80.1944 46.394 80.46 47.1491 80.8043C45.4272 80.484 43.5134 79.9543 41.7998 79.5152C41.0458 80.1931 40.7146 80.5174 40.0649 81.2913C41.6482 81.9998 43.3078 82.3909 44.8048 83.1514C42.9785 82.8579 41.0199 82.4562 39.2244 82.204C38.5862 82.7017 37.7322 83.2088 37.5996 83.9907C38.0734 84.6246 42.1235 85.5026 43.1306 85.7495C40.8241 85.8749 38.9471 85.3545 36.7494 84.6833C35.9444 85.3385 35.47 85.7668 34.7358 86.5007C36.6566 87.5522 39.425 88.0846 41.6074 88.5903C38.8046 88.5703 36.661 87.8257 34.0206 87.4068C33.3929 87.9258 32.5803 88.4249 32.4694 89.2055C33.0643 89.7072 38.6303 90.9655 39.9054 91.4125C37.4466 91.3178 33.7723 90.5812 31.2956 89.9914C30.7551 90.5372 30.2801 91.0216 29.6983 91.5246C32.4883 92.5961 35.5703 93.5689 38.4225 94.511C35.4624 94.0986 31.2556 92.9164 28.6281 92.7176C28.0466 93.2673 27.339 93.9052 26.7929 94.4736C35.931 97.4853 45.4104 99.8952 54.6269 102.692C56.1119 103.143 57.7027 103.586 59.2052 103.96C59.2252 103.036 59.2665 102.033 59.2572 101.116C56.7228 100.194 53.5355 99.3668 50.8973 98.6128L51.1193 98.6235C52.4868 98.7036 58.7021 100.083 59.1518 99.8044C59.408 99.1399 59.2799 98.5074 59.1891 97.7962C57.4865 97.0369 54.2789 96.3364 52.3514 95.6879C54.3374 95.8 57.1475 96.2643 59.1785 96.5552C59.1838 95.82 59.2105 95.1021 59.1371 94.3722C57.5132 93.7757 55.9793 93.3434 54.3158 92.8764C53.6567 92.6909 53.3378 92.4507 52.6282 92.3146C53.1408 92.2893 58.1817 93.278 59.1531 93.3901C59.4453 90.2343 58.5338 91.0016 56.0156 90.0582C56.2768 89.842 56.2019 89.9033 56.528 89.7686L59.2345 90.1849L59.2519 87.8524C57.2863 87.1012 55.2702 86.514 53.3441 85.7628C55.1314 86.063 57.5986 86.6395 59.2852 86.7849C59.2772 86.0163 59.2772 85.2904 59.2132 84.5232C57.7427 84.0174 55.9934 83.4623 54.5931 82.8312C56.0779 83.0113 57.5612 83.2075 59.041 83.421C59.1144 82.7044 59.2238 81.8584 59.2492 81.1485C58.0963 80.8656 56.5164 80.528 55.4496 80.0917C56.7994 80.0704 57.8574 80.1277 59.1945 80.2131C59.2265 79.6033 59.2839 78.8854 59.2625 78.285C57.9188 77.4452 57.047 77.0959 55.5492 76.5661L59.2679 76.9481C59.2465 74.3215 59.1836 74.4516 56.6921 73.6636C57.4436 73.5814 58.2791 73.4728 59.025 73.4163C59.1504 72.7892 59.3119 72.2595 59.2238 71.634C58.5446 71.0519 57.5812 70.9206 57.1569 70.3939C57.4704 70.1167 57.8094 70.1165 58.2311 70.1415C58.4926 70.1588 58.7528 70.1807 59.0117 70.2071C59.2132 69.0004 59.52 68.2652 58.4125 67.4294C58.7381 67.0842 58.8582 67.0181 59.2412 66.7615C59.2705 65.8084 59.472 63.1492 59.0557 62.4381ZM83.1799 95.31C81.0863 97.6319 78.2267 100.65 76.3225 103.032C78.3041 103.191 80.287 103.328 82.2698 103.448C84.2114 103.563 86.9308 103.775 88.8497 103.642L88.819 96.3589C86.8254 95.7824 85.2175 95.5649 83.1799 95.31ZM24.9749 96.3482C23.241 98.199 21.425 100.087 19.7474 101.981L26.6273 100.219C27.6006 99.9683 32.3783 98.8648 32.8321 98.3778C32.6175 97.9201 30.9311 97.6972 30.3846 97.5838C28.641 97.2209 26.7274 96.5563 24.9749 96.3482ZM24.4369 57.3562C24.5353 56.1594 22.0183 56.2917 21.8795 57.0079C21.4151 59.4107 21.3823 62.0411 21.1559 64.4828L18.3901 92.7867C18.2869 93.8382 17.5108 100.39 17.747 100.988C18.2439 100.924 18.7578 100.369 19.1221 100.002C21.7943 97.3063 24.4614 94.6028 27.133 91.906L43.2311 75.6582L52.7853 65.9793C54.2499 64.4904 56.8507 61.9638 58.1003 60.4001C57.1115 60.2923 56.4294 60.2231 55.4382 60.2191C54.7433 60.7029 54.2018 61.1039 53.5425 61.6346C53.5093 61.0867 53.5424 60.5455 53.2601 60.0901C51.172 58.4535 50.9579 62.2918 50.6213 63.4033C50.5201 61.9694 50.4664 60.9305 50.0298 59.5599C49.5336 59.4818 49.0151 59.3913 48.519 59.3286C48.1241 61.6477 47.702 63.9622 47.2531 66.2716L47.2387 66.0383C47.1477 64.4385 47.5553 60.315 47.2454 59.3059C46.7831 59.0795 45.661 59.0512 45.5585 59.7385C45.1625 62.3936 45.1107 65.0917 44.7303 67.7627C44.4402 65.8448 44.7464 61.3293 44.7516 59.18C43.9349 59.0558 43.492 58.9861 42.662 58.9725C42.3502 61.6347 42.1672 64.491 41.6441 67.0915L41.629 66.8843C41.5233 65.285 42.352 59.4933 41.3165 58.6071C41.0128 58.3472 40.7334 58.3499 40.3622 58.3529C39.9654 58.5818 39.782 59.0386 39.7037 59.4809C39.1756 62.4684 39.2209 65.851 38.3119 68.7806C38.2163 65.7324 38.9701 61.5597 38.9542 58.3994C38.2917 58.2893 37.5442 58.1466 36.8839 58.0754C36.5187 60.3034 35.7003 66.5258 35.5994 68.6828L35.5992 68.6826L35.302 68.7662C35.5385 65.4398 35.9538 61.4132 36.0175 58.1401L34.0459 57.8158C33.9413 59.3099 32.2642 73.5147 31.9761 74.1052C31.8849 72.81 32.2113 69.5378 32.3139 68.0739C32.5601 64.5925 32.7297 61.1061 32.8225 57.6172C32.2965 57.512 31.5975 57.3051 31.163 57.5908C30.6725 59.4993 30.4304 64.8702 30.096 67.1985C30.1301 67.7584 29.6995 70.6439 29.5936 71.4058C29.4123 70.904 29.7424 65.8602 29.8467 65.0949C29.8511 63.5929 30.4378 58.15 30.0168 57.3904C29.5028 57.1964 28.9124 57.2378 28.4091 57.4529C27.8599 58.1084 27.3343 65.7143 27.1519 67.0068C27.0219 68.3245 26.8261 69.6158 26.698 70.9123L26.5194 70.931C26.6664 69.1907 26.6858 67.2625 26.915 65.5606C26.9201 63.8777 27.6242 58.0082 27.1372 57.0826C26.7441 56.7488 26.3315 56.7454 25.838 56.787C25.698 56.7989 25.5698 56.7773 25.4719 56.8911C24.9473 57.5016 22.9753 81.0282 22.7015 81.2964C22.5389 79.8126 22.7094 78.274 22.833 76.7838C23.3708 70.3089 23.9039 63.8308 24.4369 57.3562ZM61.0464 62.1348C60.9636 62.9569 60.6034 64.9673 61.6162 65.259C62.334 65.4658 62.222 65.2668 62.6009 65.7327C62.2833 66.2268 61.3733 65.7714 60.8569 66.2338C60.6488 68.262 63.3388 67.9369 64.9881 68.6454C63.8072 68.6806 61.7656 68.302 60.9676 69.0918C60.7849 69.5403 60.9556 69.9348 61.0731 70.4299C62.8931 70.7786 65.0121 71.0005 66.8763 71.2608C64.7186 71.6926 63.3281 71.2902 61.2145 71.4047C61.0117 71.4157 60.9877 71.5875 60.8796 71.771C60.9396 73.2717 66.4278 73.8307 67.865 74.119C66.4372 74.1704 61.7349 73.6802 60.941 74.4746C60.8382 74.8894 60.8889 74.9765 60.9623 75.3967C61.5989 75.9148 67.6368 76.6529 69.1314 77.0173L69.3222 77.0647C68.2145 77.1462 61.1451 76.9049 61.0264 76.9519C60.965 77.0533 60.9009 77.147 60.8729 77.2655C60.8022 77.5652 60.905 77.8991 61.0797 78.1433C61.5948 78.8625 68.7362 79.6471 70.0321 79.8406L70.1655 80.1515C68.6615 80.0021 62.306 79.3296 61.1384 79.5524C60.7528 80.1128 60.8849 80.724 61.3866 81.1723C62.6583 81.646 69.5209 82.5174 71.3304 82.8163L71.2704 83.1112C69.9145 82.959 61.5548 81.8782 61.009 82.2345C60.9076 82.7455 60.933 82.827 60.9863 83.358C61.2852 83.7864 61.6335 83.8237 62.222 83.9118C66.7201 84.5897 71.3678 85.5437 75.8553 86.1709C73.5333 86.315 61.5694 84.7498 61.0143 84.9593C60.7969 85.8773 61.0024 86.5378 62.0071 86.71L75.7298 88.9491L75.6004 89.2266C70.8741 88.7889 65.774 88.0137 61.0237 87.4372L60.8462 89.5095C73.0411 91.5004 85.256 93.3632 97.4909 95.0939C96.2125 93.8209 94.4378 92.3077 93.0794 91.0814L61.0464 62.1348ZM73.0771 60.5482C72.1017 61.0296 72.2204 63.5342 72.1684 64.5596C71.5079 63.0744 71.7761 60.7404 69.9587 60.6207C69.018 61.0932 69.4569 61.917 69.0873 62.9737C68.8018 62.3421 68.7084 61.7292 68.5082 61.0722C66.8456 60.7559 64.425 60.7962 62.6837 60.8529C66.6467 64.7573 71.2477 68.8354 75.3669 72.6208L98.9266 94.2103C96.9865 83.0242 94.6179 71.8959 92.607 60.7619C92.072 60.7591 91.4968 60.6905 91.0391 60.9321C90.9458 61.5921 91.3274 63.6246 91.4568 64.3897C91.9198 67.1163 92.3642 69.8464 92.7885 72.5792C92.9086 73.347 93.2942 75.4828 93.2622 76.1437C92.7698 74.9512 92.3682 72.6384 92.1 71.295L90.6802 64.1366C90.4961 63.2148 90.2519 61.7283 89.9516 60.8938C89.4085 60.8765 88.8988 60.793 88.4291 61.0415C88.1195 61.8164 90.4867 72.5763 90.4133 74.9188C89.8556 72.9048 87.6952 61.739 87.0093 60.8391C86.525 60.7488 86.4782 60.7812 86.0005 60.8478C85.5268 61.7882 87.4577 71.5778 87.3082 73.6266L87.3122 73.5448C86.3275 69.5891 85.727 65.5306 84.8156 61.5588C84.7436 61.2445 84.6048 61.0119 84.3392 60.8255C83.8522 60.6909 83.6294 60.782 83.1356 60.8829C82.7714 61.3127 83.4319 64.2804 83.5279 65.0175C83.8162 67.213 84.3379 69.4135 84.3472 71.6371C83.1196 68.6707 83.0729 64.3786 81.94 61.3044C81.7252 60.7227 80.9406 60.6234 80.4362 60.856C80.1186 61.4155 80.8165 67.8033 80.7925 69.0844C80.4389 67.2474 79.9078 61.7025 78.6975 60.7586C78.2598 60.643 78.2825 60.6642 77.8315 60.763C77.5379 61.0557 77.5259 61.2904 77.5659 61.801C77.7915 64.6281 78.3505 66.674 78.2491 69.5664C77.618 67.6591 77.3418 61.671 76.0194 60.7481C75.5217 60.694 75.7552 60.6518 75.3015 60.9043C74.6477 61.9001 75.0226 64.4488 74.8839 65.934C74.625 64.7599 74.1793 61.0171 73.0771 60.5482ZM108.573 71.5328C105.588 74.9027 102.081 77.9416 98.9562 81.1828C98.4065 81.7525 98.7014 82.4571 99.1003 83.0109C99.6421 83.2657 102.635 82.4304 103.434 82.2716C106.948 81.519 110.457 80.7438 113.961 79.9498C113.279 78.7795 109.26 72.0586 108.573 71.5328ZM15.1327 69.6446C13.7582 72.3569 12.0701 76.1593 10.8805 79.0213C12.3694 79.5724 13.6334 79.9754 15.1514 80.4317C16.0373 80.6879 16.7615 80.9054 17.67 81.0709C17.9836 78.7104 18.3764 75.3961 18.3128 73.0317C17.4369 72.0642 16.0721 70.4648 15.1327 69.6446ZM110.384 64.3843C110.167 64.8346 110.082 65.2365 109.711 65.4136C109.185 65.0432 109.315 65.0129 108.78 64.9961C108.285 65.3094 108.245 65.3886 107.858 65.8475C107.812 66.2859 107.815 66.8143 107.603 67.156L107.484 66.9245C107.239 66.4511 107.14 66.1207 106.674 65.8908C105.161 65.8993 105.485 68.0751 105.492 69.1407C105.208 68.2843 104.969 67.0603 103.991 66.7955C102.933 67.2919 103.171 69.3022 103.199 70.3096C102.968 69.4779 102.83 68.5598 102.308 67.934C101.809 67.7465 102.068 67.7724 101.502 67.9226C100.561 68.7627 101.307 71.3635 101.287 72.7288C100.777 71.3598 100.659 70.3345 100.044 68.8422C99.5338 68.9467 99.0681 68.9785 98.6931 69.3273C98.5637 70.3774 99.0814 73.5286 99.1241 74.8712C98.9427 74.2044 98.7238 73.4718 98.5864 72.8002C98.3916 71.8995 98.1554 70.1511 97.4989 69.6235C96.5835 69.629 96.338 70.4317 96.5274 71.2172C97.1412 73.7624 97.4869 76.7654 98.2555 79.2455L109.871 67.7774C110.823 66.8256 114.117 63.6446 114.776 62.7379C114.75 62.6596 114.742 62.5684 114.687 62.5066L110.384 64.3843ZM3.66664 54.1352C3.63235 54.7156 4.08936 55.2712 4.50018 55.6361C6.73897 57.6251 16.9359 69.9003 18.7446 70.5943C19.166 69.4503 20.2843 57.6664 20.1793 56.5742C19.8451 56.099 20.0504 56.2186 19.6162 56.0376C18.9907 56.4183 18.8883 57.0912 18.7111 57.8103C18.5938 58.2933 18.481 58.7777 18.373 59.263C18.1497 60.5395 17.9365 61.3796 17.5826 62.6307C17.6547 61.1414 18.0215 57.1035 17.4917 55.9066L17.2275 55.6893C17.0143 55.7299 16.8752 55.7054 16.8005 55.867C16.1819 57.2064 16.2176 59.4006 15.9089 60.8829C15.7896 59.9155 15.6571 56.0005 15.2537 55.5979C14.7093 55.4831 14.9544 55.4495 14.4869 55.6228C13.7582 56.588 13.777 59.543 13.5819 60.9572C13.472 59.5741 13.3864 56.2385 12.7735 55.2125L12.5449 55.0617C11.5165 55.5489 11.5619 57.8072 11.1776 58.8553C11.0342 57.5167 10.9802 56.4132 10.9299 55.0766C8.65199 54.787 5.90144 54.3466 3.66664 54.1352ZM97.8073 60.5731C97.5258 61.3157 97.5418 63.5312 97.3336 64.6505C97.0814 63.4609 96.8692 59.7507 94.8183 60.8811C94.5608 61.8446 95.8044 67.0468 96.146 68.1639C100.579 66.6943 105.391 64.6561 109.757 62.9345C110.708 62.5626 113.102 61.7474 113.69 61.0631L113.626 60.8809C112.75 60.5914 109.04 60.7648 107.784 60.7217L107.021 61.9139C106.427 61.3167 105.791 60.3988 104.968 61.0388C104.722 61.5293 104.766 62.0354 104.747 62.5983C104.306 61.9204 103.796 60.9148 103.009 60.7364C102.227 61.1882 102.506 62.7317 102.55 63.549C102.113 62.5911 101.681 61.3287 100.798 60.7977C99.7875 60.8468 99.9717 62.2732 99.945 63.0586C99.45 62.0543 99.0442 60.697 97.8073 60.5731ZM87.8567 35.2275C87.3629 35.6457 86.9173 36.0929 86.4542 36.5439C87.471 37.7974 89.0509 39.0306 90.2399 40.1316C93.2969 42.9593 97.1973 45.8272 100.14 48.6798C99.2656 48.3093 97.0799 46.3167 96.1431 45.6032C92.7965 43.0535 89.0749 39.536 85.6883 37.1848L84.4126 38.3413C86.6864 40.8043 90.4507 43.6277 93.0007 45.9268C94.0322 46.857 95.596 47.9844 96.462 49.0099C95.2157 48.2098 93.2595 46.5942 92.0479 45.6488L83.6841 39.067C83.185 39.4759 82.81 39.9034 82.3697 40.3727C84.1998 42.1392 94.4645 50.5451 95.5785 52.1407L95.4893 52.1657C90.9858 48.7575 86.166 44.5999 81.6758 41.0201C81.1194 41.4126 80.6857 41.7741 80.1666 42.2063C80.7991 42.9445 82.2109 44.1141 82.9929 44.7955L87.7953 48.9825C88.4131 49.5202 89.7327 50.5901 90.1398 51.2138C89.5273 50.8803 87.4403 49.1456 86.7398 48.5842L79.6169 42.8846C79.0765 43.2852 78.5547 43.5664 78.3919 44.2081C78.6068 44.8431 85.2025 50.3714 86.2728 51.3039L85.9872 51.4667L77.606 44.7906C77.0949 45.1159 76.5612 45.4664 76.361 46.0575C76.5163 46.837 83.3478 52.1762 84.3819 53.4578C83.6987 53.0883 82.1562 51.8347 81.4263 51.2743C79.4621 49.747 77.4832 48.2385 75.4897 46.7492L74.0605 47.8892C75.8726 49.6638 79.0498 52.5295 80.5603 54.3729C79.8544 53.9553 78.887 53.0486 78.2211 52.5013C76.6399 51.2002 75.1054 49.8137 73.4601 48.5913C72.8089 49.1291 72.6834 49.2567 72.1737 49.9286C73.368 51.2332 75.2481 52.9018 76.5798 54.1988L76.5425 54.264C75.0146 53.3366 73.0424 51.655 71.4412 50.535C70.9395 50.942 70.443 51.4024 69.96 51.8354C71.2717 53.1 72.5794 54.1525 73.9004 55.4974C72.3525 54.5685 70.7139 53.4848 69.1754 52.5155C68.8605 52.8092 68.4882 53.3023 68.208 53.6475C68.6563 54.6188 69.6624 55.7777 70.3536 56.6409C69.3635 55.814 68.4695 55.0642 67.4234 54.302C66.2745 55.1467 65.8288 55.1725 66.3585 56.5433C65.9702 56.5357 65.6086 56.4473 65.227 56.3729C64.5638 56.4998 63.0973 58.418 62.5902 59.015L96.9771 59.0624C103.119 59.064 110.421 59.2505 116.48 58.9819C115.448 57.9313 113.724 56.5489 112.568 55.581L106.107 50.1821C100.292 45.3309 93.8373 39.7828 87.8567 35.2275ZM41.9339 39.7546C41.8369 41.1348 48.2899 49.9731 48.2495 50.8678C47.5928 50.2439 47.0898 49.2897 46.6022 48.66C45.4726 47.2013 41.3075 40.9112 40.1761 40.1234L39.8278 40.152C39.5177 41.3715 43.3994 48.3057 43.7095 49.7931C42.8854 49.2988 39.1243 40.2878 37.8242 40.3295C37.4663 41.2234 39.0891 47.5257 39.2298 49.2311C38.8141 47.9715 36.7575 40.9037 36.0582 40.4901C35.7817 40.6565 35.6521 40.8209 35.5992 41.198C35.2684 43.5515 35.542 45.5395 35.0483 47.9615C34.9742 46.8222 34.8364 41.2336 34.2617 40.6068C33.3321 40.4655 33.2431 41.7435 33.0676 42.3435C32.8868 42.9627 32.0059 48.0011 31.8046 48.1276C31.6029 46.2578 32.6803 42.3527 32.2165 40.8464L32.0035 40.7376C30.5691 41.4284 28.4386 47.3322 28.0895 47.4882C28.3947 46.2262 30.1411 41.7296 29.9932 41.2033C29.8302 41.1301 29.7223 41.0336 29.6283 41.1226C27.5591 43.0786 25.2196 46.8384 23.324 48.8693C24.7879 46.4478 26.4457 43.802 27.8358 41.3488C26.7927 42.1949 25.7577 43.051 24.7313 43.9172L18.7791 48.9967C20.6981 46.2843 23.6978 44.2711 25.6358 41.4072C22.5856 43.1766 18.663 45.8169 15.7127 47.8787L15.6849 47.814C16.9176 46.521 20.2118 43.9912 21.7848 42.664C19.843 43.6463 4.94347 51.5605 4.35385 52.3916C4.96507 53.0081 15.2644 53.9527 16.7749 54.1267L43.7644 57.2112C48.0592 57.7007 53.4849 58.1481 57.6731 58.8302C56.1278 56.5671 43.3336 40.0499 42.0642 39.77C42.0215 39.7605 41.9772 39.7597 41.9339 39.7546ZM99.6339 21.4634C96.346 22.3848 92.196 23.216 88.8267 23.9847L69.7945 28.3457C67.2285 28.934 64.6625 29.5226 62.0912 30.086C61.4507 30.2263 60.8182 30.5985 60.8169 31.3198C61.7029 32.1448 66.0983 30.9676 67.3953 30.7189C70.0614 30.2185 72.7302 29.733 75.4016 29.2626C76.2169 29.1165 78.0583 28.7129 78.7869 28.766C78.6375 28.8484 77.6113 28.9774 77.2911 29.068C73.6923 30.0947 69.956 30.7202 66.3225 31.6185C65.1189 31.9163 61.2812 32.398 60.8556 33.602C61.3106 34.8966 64.8587 33.7386 65.9462 33.5322C68.6897 33.009 71.4372 32.5018 74.186 32.0103L74.2994 32.3293C70.2949 33.2773 66.2424 34.0649 62.2406 35.0294C61.396 35.2331 60.4633 35.5343 61.0237 36.6008C61.9193 37.0348 73.1038 34.4314 75.2268 34.5715C74.697 34.6473 70.6072 35.6295 69.932 35.8238C67.8237 36.4308 62.8424 37.2755 61.0304 38.0097C60.7261 38.4418 60.8249 38.1969 60.8249 38.8019C61.6548 39.7125 69.2221 37.721 71.3357 37.8665C71.0489 38.0162 71.3878 37.8675 71.0876 37.947C67.881 38.8002 64.5211 39.2639 61.3546 40.2108C60.8129 40.3729 60.8302 41.2948 61.1932 41.713C63.4229 41.6538 67.434 40.5821 70.1815 40.4231L70.395 40.412C68.4121 41.3032 63.1027 41.6652 61.1278 42.94C60.8929 43.0917 60.8876 43.3667 60.8943 43.609C61.3706 43.947 67.5581 43.3908 68.707 43.397C67.2192 43.8191 61.8231 45.1948 60.8342 45.9911L60.8315 46.1868C61.8964 46.7934 65.0922 46.0938 66.588 46.296C65.1616 46.6848 61.8324 47.2615 60.9436 48.1467C60.7742 48.6471 60.7795 48.3954 60.9783 48.928C61.5054 49.3173 64.437 49.0373 65.4605 49.0675C64.433 49.3696 60.7995 49.7708 60.6661 50.9856C61.0771 51.5786 62.6583 51.8861 63.535 52.1946C63.3442 52.1922 63.1534 52.1912 62.9625 52.1919C60.0122 52.2052 60.8395 55.5704 60.981 57.6771L87.6485 32.8652C91.5596 29.2009 95.9056 25.2557 99.6339 21.4634ZM59.2212 5.23298C58.0856 7.12806 56.6082 10.5884 55.6475 12.6955C55.9298 13.6243 56.4547 14.7012 56.8631 15.6042C56.3543 15.1139 55.8362 14.5797 55.3346 14.0777C54.998 14.4462 54.704 14.9162 54.4214 15.3333C54.9913 16.6691 55.7147 17.6134 56.5386 18.7925C55.5682 18.1326 54.8381 17.0324 53.8926 17.0642C53.4135 17.415 53.4937 17.4956 53.2014 18.117C54.0816 19.5838 55.2607 21.0152 56.2068 22.5776L53.0199 19.1708C52.7169 19.5073 52.4257 19.8948 52.143 20.2518C53.0349 22.0706 55.0136 24.7567 56.2188 26.5623C54.6148 25.0175 53.2567 23.2836 51.583 21.7695C51.3411 22.2225 51.1164 22.7133 50.8929 23.1783C51.5986 24.2404 54.7215 28.1847 55.0452 28.8972C54.3154 28.3724 51.4846 25.3696 50.7139 24.5868C50.3924 25.1 50.1762 25.5755 49.9139 26.1182C50.9811 27.3577 54.7027 31.8725 55.4369 33.1701C53.2185 31.3626 51.572 28.929 49.5736 26.8697L49.371 26.9006C48.9562 27.3547 48.8495 27.7688 48.6258 28.3439C49.3284 29.291 54.4631 35.6245 54.5982 36.1222C52.5114 33.9445 50.4695 31.6073 48.4541 29.3554C48.0851 29.8 47.7477 30.3192 47.4184 30.7981C48.5611 32.4436 53.7519 38.493 54.2362 39.7597C53.6072 39.2877 53.1425 38.5389 52.6362 38.0248C51.4148 36.784 48.5896 33.0004 47.3012 32.1011L47.0012 32.1605C46.6174 32.508 46.535 32.962 46.3751 33.4615C47.6102 35.3582 49.9114 38.1987 51.3279 40.0971L51.1613 40.3804C49.5158 38.4306 47.7648 36.2745 46.0502 34.4076C45.6173 35.1799 45.5557 35.3797 45.305 36.2014C46.208 37.1332 51.4241 43.6326 51.9017 44.6247C51.0938 43.9415 50.0531 42.6803 49.3061 41.8612C47.8268 40.2391 46.4415 38.6864 44.8482 37.1704C44.5605 37.9748 44.3975 38.357 44.4494 39.2046C44.8923 40.0525 48.8802 44.9295 49.6459 45.7644C51.0012 47.2423 58.163 56.5458 58.9756 56.8255C59.4026 54.9153 59.2532 50.225 59.2519 48.0318L59.2906 15.6947C59.2946 12.6024 59.432 8.23266 59.2212 5.23298ZM102.739 37.0263C102.397 38.9193 102.285 42.526 102.134 44.5437C103.697 46.0806 106.916 48.682 108.742 49.9762L109.782 47.9526C110.638 46.2113 111.48 44.4628 112.309 42.7072C110.913 41.8329 103.867 37.3409 102.739 37.0263ZM21.2666 32.8016C16.8501 33.1705 12.4539 33.9469 8.10923 34.3958C8.90958 36.6844 10.8506 40.3523 11.9914 42.6355L13.219 45.0848C14.9817 44.3439 20.8071 41.4321 22.2534 40.3478C22.2695 39.1107 22.2625 33.9102 21.8288 33.0187C21.4772 32.7567 21.6642 32.8099 21.2666 32.8016ZM101.695 22.2703C101.116 22.7672 99.9488 23.6918 99.5738 24.2721C99.6472 24.5367 99.7193 24.8022 99.7886 25.068L99.6766 25.2324C99.0521 25.2423 98.4943 25.1259 98.0366 25.3805C97.9659 26.0154 99.0708 27.2405 99.5138 27.7982L99.6058 27.9116L97.264 26.4607C96.7196 26.8439 96.7262 26.7194 96.4807 27.2404C96.6515 28.2986 98.1954 29.3302 99.008 30.843C98.0726 30.0656 96.5301 28.4715 95.5026 28.2292C94.9809 28.3509 95.2064 28.2239 94.8354 28.6775C94.7821 29.0829 94.7194 28.9548 95.0022 29.3156C95.9416 30.5128 97.2186 31.3417 98.1567 32.573L94.1616 29.7326C93.768 30.105 93.4957 30.3412 93.1688 30.7692C94.6846 32.2144 96.2993 33.7057 97.7777 35.1773L97.627 35.0879C96.4968 34.3995 93.0087 31.4752 92.2494 31.1815C91.8345 31.32 91.7424 31.4847 91.4515 31.8113C91.4755 32.4907 92.1187 32.8653 92.6244 33.2807C93.7733 34.304 95.6908 35.9184 96.6956 36.9811L96.6769 37.0823C94.7514 35.6934 92.5336 33.8452 90.6402 32.5752C90.1358 32.9631 89.7181 33.1979 89.4512 33.7608C89.4793 34.2428 89.6555 34.3697 90.1198 34.7538C93.5491 37.5955 97.0105 40.4853 100.465 43.2916C100.78 41.2024 100.869 38.985 101.023 36.8688L101.738 27.0218C101.79 26.2575 102.092 22.9171 102.014 22.4653C101.792 22.2674 101.908 22.3134 101.695 22.2703ZM23.0825 16.2162C23.0439 17.9863 23.0441 19.7571 23.0834 21.5273C23.7247 21.7226 24.5396 21.9105 25.2015 22.0806C24.5209 22.3425 23.6124 22.5322 23.3818 23.2577C23.7094 23.8198 25.8183 24.1526 26.6564 24.3864C25.7305 24.7052 23.3654 25.3342 23.2253 26.3379C23.9305 26.9062 26.2014 27.0233 27.3696 27.4997C26.775 27.5029 24.5249 27.4312 23.9116 27.729C23.0863 28.1296 23.6296 29.2626 24.5507 29.4292C26.0382 29.6982 27.844 29.6428 29.3963 29.7939C28.1787 29.9474 24.715 30.2608 23.7477 31.1025C23.5027 31.3156 23.5791 31.5582 23.6189 31.814C24.1541 32.2239 26.5507 31.9473 27.3941 31.9205C27.8209 31.9525 28.3103 31.9268 28.6393 32.1576C27.2151 32.4186 23.3644 32.3337 24.3157 34.63C24.9647 34.914 29.0347 34.8216 30.1885 34.9093C28.6436 35.0699 24.6541 35.2902 23.6222 36.1127L23.6872 36.4629C24.8857 37.1169 26.8432 37.0134 28.2201 37.0265C28.7854 37.0669 29.5857 37.0373 29.9941 37.3656C28.4992 37.5621 25.6457 37.8008 24.3201 38.0535C23.9568 38.511 23.9937 39.5271 24.3444 39.9726C25.0329 40.0377 27.1598 39.7243 27.9387 39.6145C32.3097 38.9978 36.8834 38.8959 41.2284 38.2586C40.2756 36.7369 36.7812 32.6975 35.4815 31.1294L23.0825 16.2162ZM56.6565 5.90595C54.8953 7.66117 53.1612 9.44909 51.4531 11.2564C51.3146 11.4029 51.424 12.1765 51.4533 12.3877C50.7304 12.3837 50.8894 11.845 50.2462 12.4689C49.9445 12.7615 49.6287 13.1043 49.3452 13.4196C49.7856 13.9956 50.2184 14.5471 50.6209 15.1514L48.8268 13.9413C48.4388 14.336 48.0237 14.7423 47.6617 15.1581L49.3808 17.6551C48.7323 17.1054 47.086 15.4893 46.2128 16.2752C45.9518 17.6472 47.0557 18.8152 47.8343 19.8399L45.3343 17.7928C44.8093 18.3034 44.6087 18.509 44.1776 19.0963C45.0699 20.261 45.854 21.27 46.5895 22.5523C45.386 21.743 44.2998 20.7484 43.2153 19.7826C42.8571 20.0783 42.4533 20.3955 42.1149 20.708C42.9965 21.806 44.2062 23.2775 44.9505 24.4507C43.8762 23.4882 42.7046 22.3729 41.5138 21.5831C41.185 21.9558 40.8368 22.3307 40.5517 22.7351C41.5146 24.1432 42.6538 25.6237 43.558 27.0242C42.8123 26.3457 42.1134 25.6533 41.3806 24.966C40.7137 24.3404 39.9211 23.4694 39.0752 24.1971C39.0426 25.3813 41.5761 28.1833 42.1569 29.4733L42.0391 29.5217L41.782 29.3073C40.4523 27.9283 39.2964 26.538 38.0617 25.0734C37.5704 25.6036 37.3207 25.8427 36.9344 26.4647C38.1181 28.0236 40.4196 30.8858 41.2416 32.4671C40.4168 31.5758 36.7019 26.808 35.7197 27.6834C35.6219 28.1129 35.5711 28.3861 35.8647 28.7629C37.694 31.1105 40.7488 35.1898 42.8021 37.1982C44.0124 34.6935 56.6084 6.69374 56.6565 5.90595ZM61.0784 3.37286C60.9223 4.84161 60.945 6.49855 60.9289 7.98891C61.4373 8.03254 61.9791 8.03429 62.4355 8.24111C62.0752 8.82343 60.6661 9.04338 60.9196 10.3052C61.6962 11.0333 63.2988 10.4572 64.4277 10.5013C63.4176 10.8507 61.4387 11.2299 60.9676 11.9191C60.9129 12.3923 60.8609 12.5324 61.0357 12.9813C61.4868 13.2462 63.8099 12.6946 65.1282 13.0473C64.6704 13.3984 61.2478 13.7665 60.6741 14.9946C61.3813 15.9666 65.6687 15.1435 66.987 15.1269C65.5659 15.4914 62.2353 16.426 61.0837 17.2319L60.965 17.4761C61.5883 18.078 66.2505 17.4685 67.4847 17.5604C66.1063 17.891 64.6946 18.2021 63.3268 18.571C62.2633 18.8576 60.8076 19.0765 60.8662 20.385C61.4814 20.7862 67.5635 19.8455 68.9526 19.7448C67.5955 20.2058 61.392 21.5087 60.8876 22.4113C60.7916 22.5809 60.9249 22.9208 60.965 23.1085C61.2385 23.3659 61.4494 23.3459 61.9191 23.3093C64.2062 23.1315 65.9102 22.6052 68.2453 22.7656C66.8309 23.0703 65.4178 23.3863 64.0087 23.7132C63.1293 23.8855 61.5401 24.0673 60.9877 24.6804C60.8756 25.1301 60.8142 25.1962 60.9436 25.6407C61.0184 25.6889 61.0944 25.7373 61.1691 25.7855C64.6052 25.3614 68.0879 24.3248 71.5693 24.4762C69.1087 25.0966 66.6427 25.696 64.1715 26.2748C63.2147 26.4988 60.6047 26.6394 60.9983 28.1771C61.6709 28.5047 62.7624 28.185 63.4803 27.995C69.1007 26.5085 75.2815 25.5911 80.8205 23.9418C76.6372 19.4988 72.4259 15.0825 68.1866 10.6928C66.1063 8.53018 63.2054 5.33853 61.0784 3.37286ZM25.1739 15.6527C26.0974 17.0101 27.1369 18.285 28.2805 19.463L29.9167 18.9933C29.5384 19.432 29.063 19.8602 28.9806 20.4088C29.0937 20.8685 29.08 20.8374 29.4266 21.1621C30.4183 21.412 31.0649 20.2846 32.0241 19.7534C31.4564 20.6103 31.1324 21.0417 30.4658 21.8237C30.7199 22.231 30.9727 22.6557 31.248 23.0469C32.1201 22.1609 32.7567 21.5245 33.7962 20.8249C33.1183 21.9721 31.9366 23.0727 31.9403 24.0644C32.0899 24.422 32.0581 24.4523 32.378 24.6475C33.5458 24.2083 34.9396 22.561 35.6229 22.3588C35.5229 22.668 35.5197 22.6524 35.3169 22.9112C34.6409 23.6958 33.6678 24.7551 33.1406 25.608C33.5523 26.0646 33.8242 26.3856 34.3012 26.7829C35.0678 26.0053 39.0868 22.1322 39.3029 21.3C39.2402 21.1979 39.1775 21.096 39.1148 20.994C35.2249 19.5618 28.8913 16.8096 25.1739 15.6527ZM87.6178 7.00592C82.726 8.45532 77.1816 10.1416 72.3592 11.7634C74.621 14.3466 76.9054 16.9092 79.2139 19.4512C80.4015 20.7674 81.7292 22.3033 82.9662 23.5426C85.256 22.9566 88.0982 22.2775 90.2906 21.4127C90.0063 19.4949 88.4825 8.17176 87.9527 7.12446C87.8086 7.05881 87.7619 7.01459 87.6178 7.00592ZM42.6787 8.24244C41.2051 10.9324 38.9467 15.8164 37.8067 18.5956C38.9455 19.1658 39.8559 19.3676 41.1021 19.6298L41.854 18.8623C43.7502 16.9332 45.7168 14.8653 47.6486 12.9884C46.7049 12.0114 43.6474 8.67652 42.6787 8.24244Z" fill="#1A1919"/>
</svg>
