<svg width="200" height="63" viewBox="0 0 200 63" fill="none" xmlns="http://www.w3.org/2000/svg">
<path d="M198.887 28.4072C199.637 30.077 200.335 32.9573 199.016 36.7804C198.567 38.0783 197.97 39.04 197.489 39.8113C196.607 41.2273 196.342 41.6536 197.512 44.2055C199.84 49.2779 198.192 53.2373 196.872 55.2786C196.861 55.9845 197.079 56.7687 197.345 57.4477L195.92 56.3858L191.379 52.7455C191.703 51.8101 192.273 50.7073 192.731 49.8905C192.836 48.9928 192.725 47.9003 192.151 46.6483C189.852 41.6395 190.94 39.1844 192.479 36.7117C192.87 36.0848 193.207 35.5423 193.441 34.8696C193.759 33.9468 193.859 33.1613 193.85 32.5197L198.887 28.4072Z" fill="#231F16"/>
<path d="M158.126 6.14638C158.884 5.76421 163.841 3.45365 168.681 5.73086C170.412 6.5443 171.32 6.63025 171.419 6.63862L171.42 6.63913C171.392 6.63782 171.369 6.6379 171.351 6.63845C171.375 6.64109 171.399 6.64339 171.424 6.64584L174.766 11.7342C174.555 11.7709 174.345 11.8068 174.134 11.8403C171.243 12.3052 169.391 11.7082 169.05 11.5832C168.316 11.3712 167.431 11.0491 166.394 10.5617C163.716 9.30273 160.587 10.8922 160.554 10.9086L160.46 10.9563C160.318 11.0253 157.864 12.1714 154.636 12.1714V12.1679C153.33 12.1679 151.899 11.9811 150.44 11.4598C147.57 10.4349 145.412 10.8171 142.915 11.2591C142.505 11.3313 142.096 11.4053 141.686 11.4705C140.641 11.6386 139.731 11.6673 138.98 11.6303V11.636C138.706 11.6496 137.88 11.7676 136.623 11.5641L133.323 4.93712C134.128 5.09125 134.951 5.34512 135.771 5.73086C137.347 6.47109 138.089 6.36045 138.271 6.31562C138.27 6.28515 138.27 6.25914 138.27 6.24149C138.29 6.24861 138.397 6.2708 138.58 6.29068C138.803 6.28382 139.082 6.27684 139.086 6.27675L139.085 6.32284C139.519 6.33442 140.112 6.31288 140.83 6.19746C141.214 6.13582 141.596 6.06888 141.977 6.00019C144.817 5.4965 148.035 4.92588 152.249 6.43343C155.066 7.44077 157.879 6.25567 158.126 6.14638Z" fill="#231F16"/>
<path d="M190.045 13.3137C190.158 16.2472 189.041 18.5248 188.221 19.7857C187.691 20.7869 187.144 22.0042 187.058 22.3793C186.775 23.8322 187.91 25.8698 188.387 26.5584C189.078 27.418 191.394 30.8294 189.788 36.303C189.449 37.4573 188.985 38.3567 188.577 39.0944L188.26 39.6625C187.567 40.9185 187.427 41.4502 188.636 43.7898C191.684 49.686 189.043 54.2733 187.877 55.8593C187.79 56.0361 187.706 56.2125 187.626 56.3834L183.217 52.2726C183.719 51.5743 184.921 49.4268 183.398 46.4809C180.866 41.5848 181.838 39.0821 183.259 36.539C183.619 35.8945 183.932 35.3361 184.132 34.6528C184.907 32.006 184.003 30.5354 183.821 30.2763L183.676 30.1372L183.665 30.0808C183.333 29.6282 180.435 25.5335 181.273 21.2486C181.543 19.8643 182.619 17.765 183.068 16.9284L183.197 16.9975L183.075 16.8844L183.045 16.9179C183.154 16.7923 183.668 16.1628 183.952 15.1498C184.806 14.7688 187.388 13.6911 190.045 13.3137Z" fill="#231F16"/>
<path d="M180.07 16.0862C179.708 17.6905 179.041 18.9582 178.502 19.7865C177.972 20.7876 177.425 22.0044 177.339 22.3793C177.057 23.8322 178.191 25.8698 178.668 26.5584C179.359 27.4179 181.676 30.8294 180.07 36.303C179.731 37.4573 179.266 38.3567 178.858 39.0944L178.542 39.6625C177.848 40.9185 177.708 41.4502 178.918 43.7898C181.692 49.158 179.752 53.4412 178.502 55.3623C178.294 55.7556 178.083 56.1823 177.899 56.5781L173.423 52.375C173.86 51.8088 175.287 49.5891 173.68 46.4809C171.148 41.5848 172.12 39.0821 173.54 36.539C173.901 35.8944 174.214 35.3361 174.413 34.6528C175.189 32.006 174.284 30.5354 174.102 30.2763L173.957 30.1372L173.947 30.0808C173.614 29.6278 170.717 25.5333 171.554 21.2486C171.824 19.8643 172.901 17.765 173.349 16.9284L173.479 16.9975L173.356 16.8844L173.326 16.9179C173.469 16.7542 174.299 15.7333 174.412 14.1224L180.07 16.0862Z" fill="#231F16"/>
<path d="M170.927 31.4705C171.054 32.8535 170.936 34.4991 170.344 36.3823C169.93 37.6926 169.359 38.6684 168.9 39.4539C168.057 40.8927 167.803 41.326 169.043 43.8462C171.209 48.2468 170.283 51.8714 169.169 54.0942L169.179 54.0997V54.1016C168.803 54.7722 168.41 55.5581 168.161 56.1216L163.365 52.3365C163.436 52.2488 163.537 52.1151 163.65 51.9385C163.773 51.706 163.885 51.5004 163.978 51.3329C164.453 50.2933 164.813 48.5857 163.752 46.4315C161.318 41.4862 162.339 39.003 163.811 36.4898C164.184 35.8523 164.507 35.301 164.721 34.6212C164.749 34.5312 164.775 34.4425 164.8 34.3553L170.927 31.4705Z" fill="#231F16"/>
<path d="M161.957 12.7547C161.935 15.4489 160.898 17.5414 160.125 18.7298C159.595 19.7309 159.048 20.9477 158.962 21.3226C158.679 22.7755 159.814 24.8131 160.291 25.5017C160.982 26.3612 163.298 29.7726 161.692 35.2463C161.354 36.4006 160.889 37.3 160.481 38.0377L160.165 38.6058C159.471 39.8618 159.331 40.3935 160.54 42.7331C163.315 48.1013 161.374 52.3845 160.125 54.3056C159.87 54.7872 159.611 55.3189 159.401 55.7826L154.915 51.5546C154.935 51.5169 154.954 51.4811 154.972 51.4474L155.102 51.5166L154.979 51.4034L154.949 51.4369C155.172 51.1816 157.068 48.8391 155.303 45.4242C152.77 40.5282 153.742 38.0254 155.163 35.4823C155.523 34.8377 155.836 34.2794 156.036 33.5961C156.812 30.9492 155.907 29.4786 155.725 29.2196L155.58 29.0805L155.569 29.0241C155.237 28.5709 152.339 24.4765 153.177 20.1919C153.447 18.8076 154.523 16.7083 154.972 15.8717L155.102 15.9408L154.979 15.8277L154.949 15.8612C155.041 15.7562 155.415 15.2986 155.701 14.5589C159.52 12.9541 161.849 12.7628 161.957 12.7547Z" fill="#231F16"/>
<path d="M152.348 9.2652C153.835 13.7209 152.208 17.2215 151.113 18.9059C150.583 19.907 150.036 21.1238 149.95 21.4987C149.667 22.9516 150.802 24.9892 151.279 25.6779C151.97 26.5373 154.286 29.9488 152.68 35.4225C152.341 36.5767 151.877 37.4761 151.469 38.2139L151.152 38.7819C150.459 40.0379 150.319 40.5696 151.528 42.9092C154.303 48.2774 152.362 52.5606 151.113 54.4817C150.868 54.9439 150.62 55.4522 150.415 55.9023L145.88 51.7725C145.909 51.7192 145.935 51.6695 145.96 51.6236L146.089 51.6927L145.967 51.5795L145.937 51.6131C146.16 51.3576 148.056 49.0151 146.29 45.6003C143.758 40.7043 144.73 38.2016 146.151 35.6584C146.511 35.0139 146.824 34.4555 147.024 33.7722C147.799 31.1254 146.895 29.6548 146.713 29.3958L146.568 29.2566L146.557 29.2002C146.225 28.7472 143.327 24.6527 144.164 20.368C144.435 18.9837 145.511 16.8844 145.96 16.0478L146.089 16.1169L145.967 16.0038L145.937 16.0373C146.16 15.7818 148.056 13.4393 146.29 10.0245C145.958 9.38196 145.686 8.78049 145.468 8.21486L152.348 9.2652Z" fill="#231F16"/>
<path d="M143.33 15.3364C142.966 16.386 142.499 17.2375 142.101 17.8492C141.571 18.8503 141.024 20.0671 140.938 20.442C140.655 21.8949 141.79 23.9325 142.267 24.6211C142.958 25.4806 145.274 28.8921 143.668 34.3658C143.33 35.52 142.865 36.4194 142.457 37.1571L142.141 37.7252C141.447 38.9812 141.307 39.5129 142.516 41.8525C145.291 47.2213 143.35 51.505 142.101 53.4257C141.805 53.9844 141.503 54.6103 141.28 55.1194L136.744 50.9538C136.82 50.8063 136.89 50.6759 136.948 50.5669L137.078 50.636L136.955 50.5228L136.925 50.5564C137.148 50.3009 139.044 47.9584 137.279 44.5436C134.746 39.6476 135.718 37.1449 137.139 34.6017C137.499 33.9572 137.812 33.3988 138.012 32.7155C138.788 30.0687 137.883 28.5981 137.701 28.3391L137.556 28.1999L137.545 28.1435C137.213 27.6905 134.315 23.596 135.153 19.3113C135.423 17.927 136.499 15.8277 136.948 14.9911L137.078 15.0602L136.955 14.9471L136.925 14.9806C137.032 14.8583 137.521 14.2582 137.809 13.2915L143.33 15.3364Z" fill="#231F16"/>
<path d="M182.312 6.62015C184.233 5.9967 186.41 5.2905 189.631 6.76634C191.483 7.6156 194.438 7.01302 195.427 6.70787L195.436 6.71801L195.437 6.72145L195.438 6.72042L199.348 11.51L200 12.3123H199.998C199.995 12.3113 198.112 11.7969 196.438 11.973C194.867 12.3801 190.791 13.1787 187.392 11.622C186.076 11.0179 185.545 11.1905 183.971 11.7012C183.561 11.8351 183.094 11.9865 182.582 12.1274C181.731 12.3644 180.075 12.6628 179.638 12.7401L175.09 7.17826C175.493 7.27922 177.209 7.67309 178.705 7.47769C178.854 7.45145 179.024 7.42077 179.204 7.38723C179.229 7.38121 179.255 7.3751 179.279 7.36865C179.379 7.3429 179.473 7.32688 179.561 7.31981C180.171 7.20329 180.819 7.07036 181.145 6.97944C181.547 6.86848 181.935 6.74167 182.312 6.62015Z" fill="#231F16"/>
<path d="M58.6517 13.448C58.5049 14.578 58.1925 15.4511 57.8993 16.2679C57.5954 17.1151 57.3073 17.9164 57.1554 19.2109C57.0105 20.4313 57.2544 20.8946 57.9046 22.1326C58.6768 23.6014 59.7335 25.6128 60.048 29.1809C60.3325 32.3968 59.4666 34.1914 58.7704 35.6338C58.3569 36.4933 58.0565 37.1151 57.9435 38.1612C57.7632 39.8396 57.9365 40.3662 58.3146 41.5216C58.5691 42.3035 58.887 43.2739 59.1309 44.674C59.486 46.724 59.1892 48.5908 58.7528 50.0314L58.6327 50.1954L52.7836 48.3038C53.0063 47.5993 53.1725 46.68 53.0082 45.729C52.8421 44.7691 52.6299 44.1244 52.4073 43.4429C51.9337 41.9952 51.4425 40.4982 51.7659 37.5008C51.9938 35.3927 52.6476 34.0382 53.1724 32.9498C53.7025 31.8508 53.994 31.245 53.8598 29.7251H53.8616C53.6549 27.3898 53.0469 26.231 52.4019 25.0052C51.6068 23.4906 50.6173 21.6079 50.9848 18.4871C51.2199 16.4952 51.6792 15.213 52.0485 14.1845C52.3449 13.3564 52.5372 12.8127 52.5308 11.9926L58.6517 13.448Z" fill="#231F16"/>
<path d="M47.9046 11.4036C48.1732 13.1453 47.8004 14.6281 47.5 15.8204C47.0741 17.5147 46.7915 18.6332 47.9383 20.8487C51.2055 27.1625 48.8606 32.8723 48.7599 33.1118L48.7086 33.2244C47.8551 35.0543 47.2244 37.4619 47.4028 38.2034H47.4045C49.1062 42.1272 49.8677 45.3238 49.6681 47.7067C49.4507 50.3009 47.9912 54.8236 47.8251 55.3308L43.1937 53.7132L42.2059 53.3552C42.3938 52.7614 42.3242 51.7237 42.5559 50.9014C42.9729 49.4167 43.4005 48.101 43.4765 47.1905C43.5843 45.9049 42.9145 43.4534 41.6882 40.632C40.234 37.2858 42.3048 32.2771 43.0453 30.6814C43.169 30.3468 44.2434 27.2135 42.418 23.6859C40.2109 19.4211 40.9559 16.3754 41.4648 14.3534L43.9041 13.2019L47.8568 11.451C47.8568 11.451 47.8711 11.4193 47.8976 11.363C47.8993 11.3771 47.9029 11.3895 47.9046 11.4036Z" fill="#231F16"/>
<path d="M37.0936 12.7723C37.0443 13.7873 36.8282 14.6893 36.6418 15.4666C36.2336 17.1644 35.9651 18.2864 37.1348 20.4896C40.4689 26.7676 38.1884 32.4998 38.0891 32.742L38.0396 32.8548C37.2038 34.6952 36.5995 37.108 36.7868 37.8477V37.8513C38.5326 41.754 39.3277 44.9435 39.1528 47.3281C38.962 49.9241 37.5519 54.4627 37.3911 54.9717L35.4123 54.3042L31.8214 52.7313C31.9145 52.1269 31.8876 51.288 32.0741 50.5987C32.477 49.1088 32.8887 47.7879 32.9559 46.8773C33.0495 45.5917 32.355 43.147 31.0969 40.3379C29.6073 37.0076 31.6217 31.9761 32.3462 30.3733C32.4646 30.0387 33.5053 26.8931 31.6428 23.3849C29.5457 19.4374 30.0176 16.5178 30.4862 14.4977L37.0936 12.7723Z" fill="#231F16"/>
<path d="M27.0538 11.4036C27.3224 13.1453 26.9495 14.6281 26.6491 15.8204C26.2233 17.5147 25.9406 18.6332 27.0874 20.8487C30.3547 27.1625 28.0097 32.8723 27.909 33.1118L27.8578 33.2244C27.0043 35.0543 26.3735 37.4619 26.552 38.2034H26.5537C28.2554 42.1272 29.0171 45.3238 28.8174 47.7067C28.6 50.3009 27.1403 54.8236 26.9742 55.3308L26.9739 55.3306L21.6854 51.8313L21.5804 51.5369C21.6092 51.3186 21.6481 51.1035 21.705 50.9014C22.1221 49.4167 22.5497 48.101 22.6257 47.1905C22.7334 45.9049 22.0637 43.4534 20.8374 40.632C19.3831 37.2858 21.454 32.2771 22.1944 30.6814C22.3181 30.3468 23.3925 27.2135 21.5672 23.6859C19.346 19.3939 20.1147 16.3365 20.6236 14.3147C20.6271 14.2971 20.6323 14.283 20.6358 14.2655L20.6448 14.2689L27.0062 11.451C27.0066 11.4501 27.0206 11.4185 27.0467 11.363C27.0485 11.3771 27.052 11.3895 27.0538 11.4036Z" fill="#231F16"/>
<path d="M19.1836 48.7881L19.1982 48.7923C19.2094 49.3296 19.1467 51.7405 17.392 54.9547L12.7311 52.4787L11.914 52.032C12.6756 50.6495 12.8964 49.6121 12.9601 49.1419C12.9512 49.0909 12.946 49.038 12.9513 48.9816C13.0128 48.3629 12.8609 46.7583 12.8281 46.4243L19.1836 48.7881Z" fill="#231F16"/>
<path d="M17.0512 13.0027C16.8981 13.276 16.7455 13.6157 16.6125 14.0434C15.6707 17.0533 16.033 17.853 16.9059 19.785C17.5473 21.2027 18.3442 22.9656 18.7842 25.7253C19.4981 30.1917 18.263 32.9356 17.3618 34.9399C16.7363 36.3294 16.4129 37.1078 16.4695 38.2139C16.5207 39.1878 16.9925 40.9173 17.2788 41.7785L18.8415 46.7869L11.3763 43.7177C11.2661 43.388 10.3712 40.6426 10.2619 38.5274C10.1258 35.8803 10.9934 33.9518 11.6897 32.402C12.4601 30.6901 13.0678 29.3375 12.6455 26.694C12.3362 24.7514 11.8026 23.5732 11.2389 22.3263C10.1557 19.9311 9.42251 17.8564 10.1152 14.3711C10.1311 14.2918 10.1505 14.2091 10.1682 14.128L16.8334 13.0027H17.0512Z" fill="#231F16"/>
<path d="M6.67925 14.5819C6.50948 14.9069 6.37413 15.3048 6.29996 15.7924C5.93772 18.1805 6.77176 20.3221 7.65527 22.5905C8.13414 23.8198 8.62892 25.0897 8.94345 26.4317C9.73508 29.8061 8.66422 32.6152 7.80367 34.8712L7.8054 34.8695C7.49265 35.6902 7.1958 36.4668 7.0456 37.1343C6.64272 38.9148 7.36017 41.0371 8.26666 43.7229L8.53172 44.5101C10.0407 49.0238 7.63416 53.9567 7.35484 54.5047L6.706 54.1776L1.94878 51.4086C2.40004 50.3688 3.1621 48.0408 2.63679 46.4685L2.37708 45.6988C1.25678 42.3808 0.19838 39.2477 0.982943 35.7747C1.23033 34.6775 1.62072 33.6578 1.9971 32.6698C2.67211 30.9015 3.25525 29.3746 2.89477 27.8423C2.67919 26.9248 2.28335 25.9086 1.86457 24.8325C0.929822 22.4373 -0.208531 19.5107 0.0328104 16.0019L6.67925 14.5819Z" fill="#231F16"/>
<path d="M67.3556 12.1557C68.0672 13.8214 68.3921 15.8636 67.7986 18.1734C67.2084 20.47 68.599 21.9283 68.8517 22.1696C69.0779 22.3527 69.1981 22.5043 69.3677 22.7473C69.6454 23.1492 72.0446 26.7735 71.0516 30.824C70.3094 33.8514 69.4543 35.4119 68.8305 36.5514C68.4241 37.2946 68.219 37.668 68.09 38.3126C67.8815 39.3534 68.4805 40.8874 68.7473 41.3876C69.0549 41.8994 69.3242 42.4987 69.5246 43.1562L63.5823 44.7355L63.5037 44.7225C63.4645 44.6567 63.4288 44.5953 63.3986 44.54C63.3686 44.4925 63.3809 44.51 63.3439 44.4432C63.1318 44.0645 61.2887 40.6355 61.9991 37.099C62.3136 35.5281 62.879 34.496 63.3791 33.5837C63.9145 32.6063 64.4694 31.5954 65.0189 29.3552C65.2698 28.3319 64.6867 27.0287 64.3863 26.4845C62.7076 24.8061 60.6067 21.2115 61.7835 16.6377L61.7816 16.636C62.1311 15.2779 61.5463 14.2255 61.0519 13.6246V13.6243L67.3556 12.1557Z" fill="#231F16"/>
<path d="M165.747 28.8765C166.25 28.8049 166.8 28.7566 167.342 28.7757C167.832 28.7929 168.516 28.8703 169.19 29.1881L169.255 29.2196L169.345 29.2657C171.207 30.2478 171.288 32.1853 171.195 33.0801C171.092 34.0667 170.715 35.0446 170.393 35.7605C170.049 36.525 169.654 37.2336 169.356 37.7364C169.205 37.9918 169.073 38.2035 168.978 38.354C168.93 38.4293 168.891 38.4898 168.863 38.5332C168.848 38.5549 168.837 38.5725 168.828 38.5855C168.824 38.5919 168.82 38.5973 168.818 38.6015C168.816 38.6036 168.815 38.6054 168.814 38.607C168.813 38.6077 168.813 38.6084 168.813 38.609C168.812 38.6093 168.812 38.6097 168.812 38.6099C168.81 38.609 168.745 38.5662 166.606 37.1449L164.401 35.6799C164.401 35.6792 164.402 35.6783 164.402 35.6773C164.406 35.6724 164.412 35.6632 164.42 35.6501C164.437 35.624 164.464 35.5822 164.499 35.5268C164.57 35.4157 164.672 35.252 164.791 35.0518C164.91 34.8507 165.04 34.6214 165.17 34.3786C164.864 34.4554 164.546 34.543 164.222 34.6381C163.404 34.8788 162.625 35.1468 162.045 35.3569C161.757 35.4613 161.523 35.5499 161.362 35.6116C161.282 35.6424 161.221 35.6665 161.18 35.6823C161.16 35.6902 161.146 35.6959 161.137 35.6995C161.132 35.7013 161.129 35.7026 161.127 35.7033C161.127 35.7035 161.126 35.7037 161.126 35.7038C161.126 35.7037 161.127 35.7034 160.137 33.2527C159.177 30.8761 159.149 30.8042 159.148 30.8019C159.148 30.8018 159.148 30.8016 159.149 30.8016C159.149 30.8013 159.15 30.8011 159.151 30.8009C159.152 30.8003 159.154 30.7995 159.156 30.7986C159.16 30.7969 159.166 30.7945 159.173 30.7916C159.188 30.7857 159.209 30.7776 159.235 30.7673C159.287 30.7468 159.362 30.7178 159.455 30.6817C159.643 30.6096 159.91 30.5089 160.234 30.3915C160.878 30.1579 161.766 29.8518 162.721 29.5708C163.661 29.2941 164.74 29.0196 165.747 28.8765ZM164.4 35.6814L164.4 35.6811C164.4 35.6809 164.4 35.6807 164.4 35.6804L164.4 35.6814Z" fill="#231F16"/>
<path d="M190.936 13.2746C193.199 13.203 196.146 13.9795 197.969 17.2071L198.055 17.3626L198.055 17.363C199.17 19.4252 198.843 21.5724 198.18 23.2441C197.522 24.9051 196.411 26.4356 195.351 27.6674C194.271 28.9232 193.125 30.0041 192.263 30.7625C191.828 31.1448 191.457 31.4524 191.191 31.6672C191.058 31.7747 190.951 31.8596 190.874 31.9191C190.836 31.9489 190.806 31.9725 190.784 31.9895C190.773 31.998 190.764 32.0049 190.757 32.0101C190.753 32.0127 190.75 32.0149 190.748 32.0167C190.747 32.0175 190.746 32.0182 190.745 32.0189C190.745 32.0192 190.744 32.0198 190.744 32.0199C190.743 32.0199 190.72 31.9909 189.139 29.917L190.743 32.0206L190.654 32.088L188.273 33.5936L185.433 29.1322L187.613 27.7534C187.668 27.7108 187.749 27.6469 187.852 27.5633C188.07 27.3878 188.383 27.1278 188.755 26.8009C189.505 26.1409 190.459 25.2373 191.327 24.2283C192.216 23.1952 192.902 22.1804 193.25 21.302C193.594 20.4348 193.485 20.0482 193.388 19.8683C192.781 18.7445 191.993 18.5273 191.104 18.5554C190.61 18.571 190.129 18.6769 189.755 18.7908C189.574 18.846 189.433 18.8987 189.345 18.9336C189.301 18.9508 189.272 18.9632 189.259 18.9688C189.259 18.9691 189.258 18.9691 189.258 18.9693L189.109 19.0402L186.508 19.8608L184.908 14.8237L187.201 14.1001C187.252 14.0784 187.312 14.0534 187.38 14.0263C187.584 13.9451 187.865 13.8419 188.206 13.7381C188.876 13.5341 189.837 13.3094 190.936 13.2746ZM187.535 27.8144C187.534 27.8147 187.534 27.8149 187.534 27.8149C187.534 27.8149 187.535 27.8146 187.535 27.8141C187.535 27.8142 187.535 27.8143 187.535 27.8144ZM189.26 18.9683C189.262 18.9677 189.263 18.9671 189.265 18.9662C189.266 18.9657 189.267 18.9651 189.268 18.9645C189.269 18.9642 189.27 18.9638 189.27 18.9637L189.26 18.9683Z" fill="#231F16"/>
<path d="M161.313 12.8222C161.974 12.6874 162.93 12.562 163.995 12.662C165.071 12.763 166.345 13.1031 167.513 13.9767C168.668 14.8404 169.536 16.0908 170.048 17.7062L170.096 17.8637L170.096 17.8642C171.299 21.904 169.053 25.7207 167.308 27.9929C166.362 29.2245 165.371 30.2498 164.625 30.9628C164.25 31.3218 163.929 31.6081 163.698 31.8083C163.583 31.9085 163.489 31.9875 163.421 32.0437C163.387 32.0719 163.36 32.0944 163.339 32.111C163.339 32.1116 163.338 32.1121 163.337 32.1127L160.85 34.2158L157.421 30.1868L159.951 28.0474L159.974 28.0283C159.975 28.0278 159.977 28.0259 159.982 28.0226C159.99 28.016 160.004 28.004 160.025 27.9867C160.067 27.9518 160.134 27.8958 160.221 27.8204C160.395 27.6692 160.651 27.4412 160.956 27.1494C161.572 26.5607 162.364 25.7372 163.099 24.7806C164.715 22.6763 165.428 20.7585 165.014 19.3669C164.791 18.6182 164.499 18.3281 164.331 18.2023C164.138 18.0586 163.873 17.9575 163.498 17.9223C163.114 17.8863 162.711 17.9302 162.375 17.9985C162.216 18.0311 162.089 18.0655 162.012 18.0887C161.975 18.0998 161.95 18.1078 161.94 18.1112L161.873 18.1365L158.213 19.2197L156.704 14.1546L160.214 13.1157C160.221 13.1136 160.227 13.1113 160.234 13.109C160.299 13.0869 160.385 13.0591 160.488 13.0282C160.694 12.9667 160.975 12.8911 161.313 12.8222ZM161.944 18.1098C161.944 18.1096 161.945 18.1095 161.946 18.1093C161.948 18.1086 161.95 18.1076 161.952 18.1067C161.954 18.1063 161.955 18.1058 161.956 18.1053C161.957 18.1051 161.958 18.1046 161.958 18.1045L161.944 18.1098Z" fill="#231F16"/>
<path d="M55.5034 5.16583C56.1146 5.06394 56.6918 5.05889 57.0598 5.06814C57.2563 5.07308 57.4239 5.08304 57.5469 5.09221C57.6089 5.09684 57.6609 5.10135 57.701 5.10511C57.7211 5.107 57.7383 5.10883 57.7524 5.11027C57.7595 5.11099 57.7658 5.11158 57.7712 5.11217C57.774 5.11246 57.7765 5.11277 57.7788 5.11302C57.78 5.11315 57.7812 5.11325 57.7823 5.11337C57.7828 5.11343 57.7835 5.11351 57.7838 5.11354C57.7846 5.11362 57.7853 5.11371 57.4672 7.97769L57.7854 5.11371L57.9467 5.1316L58.1055 5.16617L57.4451 8.17702C58.091 5.23207 58.1059 5.16775 58.107 5.16651C58.1073 5.16658 58.1082 5.16673 58.1088 5.16686C58.1099 5.16711 58.1112 5.16728 58.1124 5.16755C58.1148 5.16808 58.1174 5.16866 58.1202 5.16927C58.1257 5.1705 58.132 5.17202 58.1388 5.17357C58.1524 5.17665 58.1686 5.18036 58.1871 5.18474C58.2243 5.19353 58.2714 5.20495 58.3276 5.21931C58.4399 5.24802 58.5891 5.28857 58.7699 5.34263C59.1305 5.45052 59.6212 5.61409 60.1964 5.84949C61.3023 6.30207 62.7693 7.03992 64.2305 8.19629L64.372 8.30946L64.3726 8.31014C65.7352 9.41503 66.5929 10.872 67.0796 11.8645C67.3372 12.3897 67.5259 12.8581 67.6522 13.2005C67.7158 13.373 67.7648 13.5169 67.7997 13.6241C67.8172 13.6777 67.8313 13.7224 67.842 13.7572C67.8474 13.7747 67.8519 13.7897 67.8557 13.8021C67.8575 13.8083 67.8592 13.8139 67.8607 13.8188C67.8614 13.8212 67.8621 13.8234 67.8627 13.8255C67.863 13.8266 67.8633 13.8276 67.8636 13.8286C67.8637 13.8291 67.8639 13.8299 67.8639 13.8302C67.8621 13.8314 67.7862 13.8541 64.895 14.6917C61.932 15.55 61.9257 15.5525 61.9259 15.5532L61.9269 15.5568C61.9273 15.5582 61.9278 15.5595 61.9281 15.5607C61.9288 15.5631 61.9293 15.565 61.9297 15.5662C61.9304 15.5687 61.9304 15.5689 61.9298 15.5669C61.9286 15.563 61.9248 15.5505 61.9183 15.5305C61.9051 15.49 61.8815 15.4198 61.8472 15.3268C61.7777 15.1384 61.6695 14.8699 61.5231 14.5714C61.2018 13.9163 60.8226 13.3781 60.4694 13.0916C59.9032 12.6329 59.322 12.2708 58.7868 11.9897C58.8033 12.5784 58.7656 13.1208 58.6977 13.6049C58.6 14.3021 58.4405 14.8755 58.295 15.2959C58.222 15.5067 58.1517 15.6815 58.0927 15.8168C58.0632 15.8846 58.0363 15.9427 58.0133 15.9909C58.0018 16.015 57.9913 16.0366 57.9818 16.0557C57.977 16.0653 57.9727 16.0743 57.9685 16.0825C57.9664 16.0867 57.9642 16.0907 57.9623 16.0946C57.9613 16.0965 57.9603 16.0983 57.9593 16.1001C57.9589 16.101 57.9582 16.1024 57.958 16.1028C57.9576 16.1035 57.9563 16.1036 57.6135 15.9281L52.8025 13.4587C52.4626 13.2847 52.4584 13.2833 52.458 13.2839C52.4578 13.2843 52.4571 13.2857 52.4566 13.2865C52.4558 13.2882 52.4549 13.2899 52.4541 13.2915C52.4524 13.2948 52.4508 13.2979 52.4492 13.3009C52.4461 13.307 52.4433 13.3127 52.4408 13.3178C52.4356 13.3281 52.4315 13.3366 52.4283 13.3433C52.4225 13.3555 52.4196 13.3617 52.4194 13.3623C52.42 13.3609 52.4317 13.3342 52.4487 13.285C52.4836 13.1841 52.5378 12.9999 52.5726 12.7518C52.6401 12.27 52.6389 11.5314 52.249 10.6282L52.2054 10.5233C51.9899 9.98853 51.8285 9.29682 51.9293 8.51447C52.0428 7.63299 52.455 6.9069 52.9821 6.3799C53.885 5.47726 55.024 5.24576 55.5034 5.16583Z" fill="#231F16"/>
<path d="M62.4782 38.6221C63.1137 37.7391 64.1832 37.2403 65.2997 37.352C66.1143 37.4334 66.6538 37.8126 66.8136 37.9288C67.189 38.2017 67.4108 38.4988 67.4397 38.5361C67.5678 38.7016 67.6507 38.8458 67.6623 38.8655C67.6914 38.9151 67.7134 38.9557 67.7248 38.9769C67.7483 39.0209 67.7669 39.058 67.776 39.0765C67.8623 39.2507 68.1306 39.84 68.8387 41.4197L68.9393 41.6502C70.9929 46.4851 69.3968 51.0849 65.9147 52.6181L65.9142 52.6183C64.5168 53.2333 63.3868 54.1057 62.5948 54.8485C62.204 55.215 61.9103 55.536 61.7225 55.7545C61.629 55.8633 61.5629 55.9453 61.5253 55.9931C61.5065 56.0169 61.4949 56.0322 61.4907 56.0378C61.4887 56.0405 61.4885 56.0408 61.4901 56.0387C61.4909 56.0376 61.4921 56.0358 61.4939 56.0335C61.4947 56.0323 61.4959 56.0309 61.497 56.0294L61.4995 56.0258C61.4998 56.0254 61.5001 56.0251 61.1872 55.7987L56.8058 52.6331C56.493 52.4068 56.4932 52.4064 56.4935 52.4061C56.4937 52.4058 56.4942 52.4052 56.4945 52.4047C56.4953 52.4037 56.4961 52.4025 56.4969 52.4014C56.4985 52.3992 56.5003 52.3969 56.5021 52.3944C56.5059 52.3893 56.5101 52.3834 56.5149 52.377C56.5245 52.364 56.5363 52.3482 56.5501 52.3299C56.5778 52.2932 56.614 52.2462 56.6585 52.1897C56.7474 52.0767 56.8701 51.9254 57.0257 51.7444C57.3361 51.3832 57.782 50.8982 58.3567 50.3592C59.4845 49.3015 61.167 47.9809 63.3518 47.0082C63.1534 47.0946 64.2899 46.4916 63.2469 44.0594L63.1919 43.9338C62.8294 43.1253 62.5915 42.5974 62.4386 42.2604C62.3342 42.0302 62.2771 41.9069 62.2502 41.8488L62.2398 41.8534L62.2397 41.8529C62.2395 41.8526 62.2393 41.8523 62.2392 41.8519C62.2388 41.851 62.2382 41.8499 62.2376 41.8485C62.2364 41.8457 62.2348 41.8418 62.2328 41.8371C62.2287 41.8276 62.223 41.8143 62.2164 41.7989C62.2037 41.7694 62.1855 41.7265 62.1679 41.6844C62.1635 41.674 62.1196 41.57 62.0835 41.4701C62.0763 41.4501 62.0638 41.4152 62.0497 41.3717C62.0407 41.3441 62.0073 41.2412 61.9765 41.1072C61.9636 41.051 61.9268 40.8871 61.909 40.6736C61.9004 40.5699 61.8876 40.3591 61.9156 40.0947C61.936 39.9026 62.0135 39.2677 62.4782 38.6221ZM65.0804 40.6356L62.2523 41.8479C62.2565 41.856 62.261 41.865 62.2661 41.8746C62.2755 41.8922 62.2959 41.93 62.3237 41.9775C62.334 41.9949 62.416 42.1374 62.5434 42.302C62.5719 42.3388 62.7934 42.6356 63.1686 42.9084C63.3283 43.0246 63.8677 43.4036 64.6821 43.4851C65.0615 43.4997 65.8652 43.3749 66.2732 43.2232C66.6546 43.0166 67.2698 42.5019 67.5035 42.2151C67.9682 41.5696 68.0456 40.9347 68.0659 40.7427C68.094 40.4784 68.0811 40.2678 68.0725 40.1643C68.0548 39.9513 68.0181 39.788 68.0053 39.7325C67.9749 39.5997 67.9419 39.4986 67.9337 39.4735C67.9271 39.4531 67.9205 39.4352 67.9153 39.4201C67.8752 39.4373 67.5598 39.5724 65.0804 40.6356Z" fill="#231F16"/>
<path d="M59.2972 47.4811C59.1221 49.046 58.6235 50.4249 58.2079 51.3653C57.9949 51.8473 57.7903 52.2439 57.6344 52.5277C57.5561 52.6701 57.4891 52.7858 57.4382 52.8715C57.4128 52.9143 57.3912 52.9498 57.3742 52.9774C57.3657 52.9912 57.3583 53.0033 57.3521 53.0132C57.3491 53.0181 57.3463 53.0225 57.3438 53.0264C57.3426 53.0284 57.3413 53.0304 57.3402 53.0321C57.3397 53.0329 57.3391 53.0337 57.3386 53.0345C57.3384 53.0349 57.3381 53.0355 57.338 53.0357C57.3378 53.036 57.3376 53.0363 57.0108 52.8305L52.4368 49.948C52.11 49.7423 52.1098 49.7425 52.1096 49.7428C52.1095 49.743 52.1092 49.7435 52.109 49.7438C52.1085 49.7445 52.1081 49.7453 52.1077 49.7459C52.107 49.7471 52.1063 49.7482 52.1057 49.7492C52.1044 49.7512 52.1033 49.753 52.1026 49.7542C52.1021 49.755 52.1016 49.7555 52.1014 49.7559C52.1027 49.7536 52.1082 49.7448 52.1172 49.7297C52.1354 49.6992 52.1676 49.6439 52.2099 49.5669C52.2952 49.4115 52.4177 49.1749 52.5478 48.8806C52.8182 48.2687 53.0696 47.5226 53.1507 46.798L59.2972 47.4811Z" fill="#231F16"/>
<path d="M39.7302 5.34978C41.3607 5.24455 42.9075 5.43971 44.2619 6.07695C45.6671 6.73811 46.6797 7.79068 47.2966 9.04911C48.4418 11.3854 48.077 14.0721 47.5109 16.0083L47.4455 16.2323L47.3641 16.4067C47.3608 16.4148 47.3556 16.4284 47.3487 16.4471C47.326 16.5089 47.2916 16.6125 47.2612 16.7407C47.1927 17.0294 47.1852 17.2688 47.2143 17.4144L41.1489 18.6191C40.8846 17.2977 41.0575 16.1018 41.2426 15.3219C41.3389 14.9159 41.4497 14.5767 41.5404 14.3295C41.5671 14.2569 41.5925 14.1912 41.6156 14.1331C41.775 13.5504 41.8549 13.0226 41.8615 12.5852C41.8689 12.1021 41.7862 11.8498 41.7397 11.755C41.7187 11.7122 41.7131 11.6942 41.6217 11.6511C41.4794 11.5842 41.051 11.4416 40.1299 11.501C38.3856 11.6135 37.6216 12.4438 37.1575 13.3067C36.8973 13.7904 36.7407 14.2926 36.6519 14.6873C36.6087 14.8791 36.5848 15.0308 36.5727 15.1222C36.5669 15.1657 36.5638 15.1943 36.5626 15.2057C36.5628 15.2034 36.5632 15.2003 36.5635 15.1965C36.5637 15.194 36.5638 15.1911 36.564 15.1879L36.5645 15.1802C36.5646 15.1795 36.5646 15.1788 36.1789 15.1539L30.7783 14.8106C30.4046 14.7864 30.393 14.785 30.3927 14.7843C30.3927 14.7837 30.3928 14.7821 30.3928 14.781C30.393 14.7789 30.3932 14.7766 30.3933 14.7743C30.3937 14.7696 30.394 14.7645 30.3944 14.759C30.3952 14.7481 30.396 14.7355 30.3971 14.7215C30.3994 14.6933 30.4024 14.6589 30.4063 14.6188C30.414 14.5387 30.4253 14.435 30.4418 14.311C30.4748 14.0637 30.5289 13.7305 30.6172 13.3382C30.7912 12.5646 31.1115 11.5007 31.7067 10.3941C32.9535 8.07631 35.4153 5.62823 39.7302 5.34978Z" fill="#231F16"/>
<path d="M45.7974 27.6104L44.7287 33.6818L35.5825 32.0826L36.6511 26.0114L45.7974 27.6104Z" fill="#231F16"/>
<path d="M5.01493 7.89011C7.8406 6.50791 10.5425 6.86863 12.373 7.47097C13.2906 7.7729 14.0405 8.14941 14.5654 8.45183C14.8304 8.6045 15.0453 8.74241 15.2032 8.8493C15.2824 8.90287 15.3478 8.94908 15.3987 8.98586C15.4242 9.00426 15.4461 9.02047 15.4643 9.03401C15.4734 9.04077 15.4816 9.04695 15.4888 9.05242C15.4924 9.05513 15.4959 9.0576 15.499 9.05999C15.5006 9.06119 15.5022 9.06248 15.5037 9.0636C15.5044 9.06414 15.5053 9.06485 15.5057 9.06514C15.5068 9.06594 15.5079 9.06682 13.6241 11.511C11.7404 13.9552 11.7413 13.956 11.7423 13.9567C11.7426 13.957 11.7436 13.9576 11.7442 13.9581C11.7454 13.959 11.7467 13.96 11.7478 13.9608C11.7501 13.9626 11.7523 13.9642 11.7542 13.9657C11.7581 13.9686 11.7612 13.971 11.7635 13.9727C11.7664 13.9749 11.7682 13.9762 11.7689 13.9767C11.7666 13.975 11.753 13.9652 11.729 13.949C11.6806 13.9162 11.5922 13.8588 11.4702 13.7885C11.2208 13.6449 10.8606 13.4646 10.4341 13.3243C9.57651 13.0421 8.65502 12.9759 7.73987 13.4235C7.03032 13.7706 6.64326 14.363 6.41787 15.0846C6.30523 15.4453 6.25287 15.7865 6.23029 16.0354C6.2193 16.1565 6.21608 16.2467 6.21528 16.2949C6.21508 16.3067 6.21511 16.3157 6.2151 16.3219L6.21666 16.3572V18.0167H0.0319949V16.4609C0.0317327 16.4486 0.0313367 16.4355 0.0311321 16.4215C0.0302453 16.3609 0.0299626 16.2841 0.0314772 16.1929C0.0344995 16.011 0.0446572 15.7686 0.0708216 15.4802C0.122564 14.9099 0.240632 14.1239 0.512756 13.2526C1.0569 11.5104 2.29658 9.21972 5.01493 7.89011ZM6.21459 16.3094C6.2145 16.3068 6.21436 16.3041 6.21424 16.3011C6.21419 16.2997 6.21413 16.2982 6.21407 16.2966C6.21404 16.2958 6.21391 16.2944 6.2139 16.2941L6.21459 16.3094Z" fill="#231F16"/>
<path d="M14.912 6.59499C17.1732 5.3034 19.5867 5.14327 21.5823 5.59607C23.39 6.00627 25.3778 7.06075 26.3761 8.85391L26.4228 8.9399L26.4689 9.0283C26.9329 9.94305 27.0681 10.8913 27.1053 11.6011C27.1455 12.368 27.082 13.1086 26.9992 13.71C26.9149 14.3219 26.8003 14.8622 26.7081 15.2471C26.6614 15.4418 26.6191 15.6024 26.587 15.7192C26.5709 15.7778 26.5574 15.8257 26.5469 15.8618C26.5417 15.8799 26.5372 15.895 26.5336 15.907C26.5318 15.9131 26.5301 15.9184 26.5288 15.9229C26.5281 15.925 26.5276 15.9271 26.5271 15.9289C26.5268 15.9298 26.5265 15.9307 26.5262 15.9315C26.5261 15.9318 26.5259 15.9324 26.5259 15.9327C26.5258 15.933 26.5257 15.9333 26.1557 15.8221L23.5655 15.0421L26.5255 15.9339L26.5219 15.9459L26.5183 15.9574C26.5169 15.962 26.5143 15.9705 26.5107 15.9825C26.5029 16.0086 26.4906 16.0507 26.4753 16.105C26.4441 16.2154 26.403 16.3679 26.3635 16.5355C26.2612 16.9695 26.2532 17.1583 26.2513 17.1027L20.0703 17.3105C20.0419 16.4712 20.2363 15.5778 20.3429 15.1255C20.4079 14.85 20.473 14.6082 20.5219 14.4352C20.5465 14.3479 20.5676 14.2759 20.5833 14.2234C20.5912 14.1971 20.5976 14.1754 20.6026 14.1591C20.6035 14.1564 20.6043 14.1538 20.6051 14.1514C20.6081 14.1409 20.6139 14.1204 20.622 14.091C20.6384 14.0313 20.6636 13.9363 20.6927 13.8148C20.7521 13.567 20.8224 13.2318 20.872 12.8718C20.923 12.5013 20.9423 12.1735 20.9291 11.9226C20.9284 11.9092 20.9272 11.8966 20.9264 11.8845C20.77 11.7884 20.5263 11.6783 20.2095 11.6064C19.5449 11.4556 18.7475 11.5087 17.9871 11.943C17.4127 12.2711 16.8916 13.0043 16.5122 14.0612C16.3386 14.5447 16.2305 14.9991 16.1669 15.3316C16.1356 15.4951 16.1165 15.6221 16.106 15.6994C16.1008 15.7379 16.0977 15.7635 16.0965 15.7746C16.0959 15.7801 16.0956 15.782 16.0958 15.7799C16.0959 15.7789 16.0962 15.7769 16.0965 15.7739C16.0966 15.7724 16.0968 15.7707 16.097 15.7688C16.0971 15.7678 16.0971 15.7666 16.0972 15.7655C16.0972 15.765 16.0973 15.7641 16.0974 15.7638C16.0974 15.7633 16.0975 15.7628 15.7125 15.7275L10.3234 15.2373C9.94483 15.2026 9.93864 15.2015 9.93858 15.201C9.93861 15.2007 9.93869 15.1997 9.93875 15.199C9.93888 15.1976 9.93895 15.196 9.9391 15.1945C9.93939 15.1914 9.93978 15.188 9.94013 15.1843C9.94084 15.177 9.94158 15.1686 9.94255 15.1591C9.94449 15.1399 9.94702 15.1163 9.95014 15.0885C9.95637 15.0331 9.96518 14.9606 9.97706 14.873C10.0008 14.6982 10.0373 14.4611 10.0916 14.177C10.1993 13.6141 10.3824 12.8387 10.6891 11.9846C11.27 10.3664 12.4648 7.99284 14.912 6.59499Z" fill="#231F16"/>
<path d="M124.33 23.8164C124.335 24.4487 125.247 24.4998 125.422 23.9785C125.576 23.5206 125.215 23.2194 124.833 23.2669C124.519 23.3057 124.323 23.48 124.328 23.8164H124.33Z" fill="#231F16"/>
<path d="M97.3081 30.0157C98.6157 31.8456 101.886 30.9562 101.95 28.5716C101.989 27.0816 100.775 26.0848 99.3967 26.0936C97.4265 26.1077 96.2196 28.0943 97.1667 29.8132L97.3081 30.0157Z" fill="#231F16"/>
<path d="M103.429 30.4825C103.45 30.0193 103.062 29.7216 102.597 29.7709C102.323 29.8009 102.121 29.9171 102.01 30.0774C101.204 31.2257 103.376 31.6272 103.429 30.4825Z" fill="#231F16"/>
<path d="M124.469 22.455C124.459 21.3543 123.524 20.7291 122.603 20.7889C121.571 20.8541 120.941 21.5216 120.921 22.5167C120.875 24.7798 124.489 24.6565 124.469 22.455Z" fill="#231F16"/>
<path d="M74.9691 39.8114C74.6616 42.9463 75.3101 44.549 76.4039 45.9597C77.4977 47.3721 82.0443 52.8001 82.3217 51.208C82.5992 49.6159 79.5086 48.8445 79.5015 47.4549C79.4962 46.0653 81.516 48.1999 81.516 48.1999C81.516 48.1999 83.9315 50.8011 84.6666 54.1034C85.4035 57.4056 89.3104 60.3996 94.1415 59.172C98.9726 57.9445 97.7657 63.3548 104.32 62.2506C104.32 62.2506 106.214 61.7046 107.753 60.2217C109.292 58.7388 111.45 58.0255 113.127 57.5183C114.804 57.0111 116.023 57.6979 114.735 58.4024C113.446 59.1069 112.522 58.4517 111.107 59.1192C109.69 59.7867 111.179 59.8871 111.966 59.7409C112.752 59.5929 115.237 60.308 117.095 59.2918C118.954 58.2756 119.403 57.5042 120.011 55.4401C120.621 53.376 121.221 52.8089 124.321 52.1608C127.42 51.5127 129.687 48.0889 129.147 42.7244C128.608 37.3598 131.048 36.9072 131.048 36.9072C131.048 36.9072 131.988 36.8385 130.882 38.2545C129.776 39.6705 130.537 39.9963 130.537 39.9963C130.537 39.9963 131.228 40.6902 133.465 36.5603C135.702 32.4321 132.529 27.529 132.529 27.529C132.529 27.529 131.325 26.0126 132.412 22.7738C133.499 19.535 130.302 14.2779 128.014 12.6911C125.726 11.1042 125.107 10.6815 124.162 9.69881C123.215 8.71608 122.561 9.35186 123.236 10.2994C123.911 11.2451 124.407 12.3194 126.468 13.4466C128.53 14.5737 128.074 15.4843 127.166 15.0528C126.256 14.6213 123.27 12.5061 122.368 10.1321C121.467 7.75623 120.967 3.72842 115.509 1.41072C110.05 -0.905232 105.194 2.77915 105.194 2.77915C105.194 2.77915 104.032 3.938 100.384 3.78126C100.384 3.78126 99.2765 3.78126 98.6917 3.00106C98.1068 2.22086 99.4639 2.61888 100.056 2.72807C100.648 2.83727 102.743 3.34096 103.275 2.93237C103.809 2.52378 103.68 2.19268 103.214 2.07468C103.214 2.07468 99.2465 1.07785 96.8363 0.264189C94.426 -0.549474 89.8653 0.554783 88.0629 3.04685C86.2605 5.54067 85.9707 6.15709 85.9707 6.15709C85.9707 6.15709 85.1437 7.29833 85.8346 7.15039C86.5255 7.00245 87.5381 5.8841 87.5381 5.8841L88.5665 4.70588C88.5665 4.70588 89.2539 3.69672 89.6532 3.94505C90.0526 4.19337 88.441 6.64845 86.621 7.48149C84.8009 8.31453 80.3179 8.66148 77.9094 11.4776C75.5027 14.2937 77.3334 18.3356 78.413 19.9489C79.4927 21.5603 80.4381 22.5078 79.4556 24.7586C78.4731 27.0094 77.404 26.8245 77.404 26.8245C77.404 26.8245 76.8669 26.8333 77.116 25.9826C77.3652 25.132 78.2752 25.2782 78.1603 24.6089C78.0455 23.9397 74.605 24.8009 73.5112 27.9816C72.4174 31.1623 74.3524 34.7973 74.3524 34.7973C74.3524 34.7973 75.2695 36.6783 74.9602 39.8132L74.9691 39.8114ZM130.912 27.698C130.742 27.4057 130.658 27.064 130.696 26.7276C130.721 26.5163 130.857 26.3349 131.089 26.3349C131.283 26.3349 131.506 26.5163 131.481 26.7276C131.456 26.9407 131.481 27.1168 131.591 27.3018C131.847 27.7403 131.168 28.1348 130.914 27.698H130.912ZM131.963 28.3197C133.101 30.7008 134.11 33.3232 133.214 35.958C133.052 36.4352 132.296 36.2292 132.458 35.7484C133.283 33.3179 132.336 30.9104 131.287 28.716C131.069 28.2616 131.746 27.8636 131.963 28.3197ZM131.712 20.8752C131.732 21.12 131.751 21.3648 131.771 21.6079C131.788 21.821 131.578 22.0006 131.378 22.0006C131.154 22.0006 131.004 21.8192 130.986 21.6079C130.967 21.3631 130.947 21.1183 130.928 20.8752C130.91 20.6621 131.12 20.4825 131.32 20.4825C131.545 20.4825 131.695 20.6639 131.712 20.8752ZM130.127 15.8576C130.808 17.0447 131.265 18.3145 131.488 19.6671C131.569 20.1637 130.813 20.3733 130.732 19.8767C130.52 18.5875 130.099 17.3881 129.451 16.2557C129.198 15.8154 129.876 15.4209 130.127 15.8594V15.8576ZM86.5238 48.2105C86.1527 48.0326 85.7957 47.8318 85.4512 47.6046C85.1366 47.3968 85.4317 46.8861 85.748 47.0956C86.0909 47.3228 86.4496 47.5236 86.8206 47.7015C87.1634 47.8653 86.8631 48.3725 86.5238 48.2105ZM87.9781 56.1111C87.8579 56.2309 87.6847 56.2115 87.5628 56.1111C87.2977 55.8945 87.0557 55.6549 86.8348 55.3925C86.7323 55.271 86.7146 55.0967 86.8348 54.9751C86.9408 54.8695 87.1475 54.8536 87.25 54.9751C87.4709 55.2376 87.713 55.4771 87.9781 55.6937C88.1017 55.7941 88.0823 56.0072 87.9781 56.1111ZM87.7395 48.3056C88.7856 48.7441 89.8494 49.1456 90.9361 49.4732C92.1553 49.8413 93.3781 49.9329 94.6434 49.9646C95.0215 49.9752 95.0215 50.5634 94.6434 50.5546C93.4188 50.5229 92.2225 50.4542 91.0386 50.1178C89.8617 49.785 88.7096 49.3464 87.5822 48.8744C87.2377 48.73 87.3896 48.1594 87.7377 48.3056H87.7395ZM96.6118 57.7983C95.716 57.786 94.9579 58.2897 94.1062 58.494C93.4683 58.649 92.8003 58.6947 92.1465 58.6278C91.4945 58.5609 90.8689 58.3971 90.2699 58.1312C89.6532 57.8547 89.1443 57.4073 88.5364 57.1203C88.0805 56.9036 88.4781 56.2273 88.9323 56.4404C89.503 56.7099 89.9784 57.1361 90.5526 57.402C91.2064 57.705 91.9256 57.8617 92.6448 57.8723C94.0585 57.8916 95.2265 56.9935 96.6118 57.0128C97.1172 57.0199 97.1172 57.8053 96.6118 57.7983ZM106.983 59.9874C105.806 61.5161 103.965 61.893 102.123 61.8349C101.745 61.8226 101.745 61.2326 102.123 61.2449C103.722 61.296 105.435 61.0406 106.475 59.6898C106.703 59.3939 107.214 59.688 106.983 59.9874ZM108.262 59.0329C108.039 59.1844 107.815 59.3358 107.592 59.4873C107.46 59.5771 107.265 59.5119 107.189 59.3816C107.106 59.2372 107.163 59.0681 107.295 58.9783C107.518 58.8268 107.742 58.6754 107.965 58.5239C108.098 58.4341 108.292 58.4993 108.368 58.6296C108.451 58.774 108.395 58.9431 108.262 59.0329ZM119.308 54.8043C118.82 55.8962 118.551 57.0797 117.684 57.9533C117.417 58.2227 117 57.8053 117.269 57.5359C118.089 56.7099 118.338 55.5422 118.801 54.5067C118.954 54.1597 119.462 54.4609 119.308 54.8043ZM120.179 53.5468C120.02 53.6683 119.887 53.8269 119.781 53.9977C119.582 54.32 119.073 54.0241 119.274 53.7001C119.437 53.4376 119.64 53.2245 119.882 53.0378C120.009 52.941 120.213 53.0185 120.285 53.1435C120.372 53.2932 120.306 53.45 120.179 53.5468ZM125.015 46.1922C124.976 46.9107 124.791 47.5465 124.287 47.7966C123.957 47.9604 123.446 47.7913 123.354 48.1611C123.171 48.9149 123.013 49.8607 122.22 50.072C121.283 50.3221 120.403 50.2411 119.808 50.743C119.492 51.0107 119.345 51.5602 119.016 51.8209C118.643 52.1185 118.05 51.8402 117.7 52.1062C117.364 52.358 117.205 52.7578 116.949 53.0185C115.927 54.0752 114.298 54.5296 112.572 54.644C112.146 54.6722 111.662 54.7761 111.215 54.7462C111.153 54.7427 110.996 54.6757 110.89 54.6863C110.561 54.7215 110.292 55.1477 110.04 55.3556C109.34 55.9297 108.239 56.1956 107.14 56.1675C107.037 56.1639 106.926 56.1939 106.836 56.2291C106.262 56.4563 105.898 56.8508 105.295 56.96C103.449 57.2981 102.171 56.606 100.694 55.9843C100.65 55.6585 100.651 55.227 100.876 55.0104C101.031 54.91 101.392 54.8783 101.323 54.7251C101.333 54.762 101.561 54.6652 101.526 54.6229C102.486 54.1685 103.625 53.8885 104.869 54.054C105.753 54.1703 105.988 55.315 106.755 55.5792C106.636 55.1037 106.546 54.512 106.472 54.0347C106.453 53.9096 106.357 53.7881 106.412 53.6683C106.474 53.531 106.889 53.4024 107.041 53.3232C107.285 53.1964 107.456 53.0784 107.668 52.978C107.935 52.8494 108.707 52.4021 109.006 52.4496C109.221 52.4848 109.524 52.9692 109.676 53.14C109.875 53.3654 110.229 53.9625 110.487 53.7687C110.22 52.7015 109.729 51.6183 109.723 50.4207C109.723 50.3027 109.736 50.0967 109.805 50.0333C110.177 49.6969 110.989 49.438 111.526 49.2196C112.376 48.8762 113.609 48.3866 114.689 48.7934C115.267 49.0083 115.719 49.667 116.168 50.153C116.364 50.3661 116.551 50.824 116.813 51.1182C117.041 51.3735 117.235 51.8191 117.518 51.5725C117.436 51.4123 117.378 51.2555 117.338 51.1005C117.002 50.1742 116.367 48.1418 116.945 47.4215C117.703 46.4775 119.504 45.4771 120.539 45.5775C121.844 45.4842 122.324 47.0569 123.114 47.6293C123.19 47.6029 123.239 47.5518 123.315 47.5289C123.234 47.1309 122.973 46.5655 123.174 46.1869C123.36 45.8346 124.125 46.0055 124.593 45.8822C124.321 45.2781 123.526 44.8255 123.54 43.9924C123.543 43.7036 124.114 43.3426 124.331 43.1594C124.593 42.934 125.037 42.388 125.507 42.4673C125.788 42.5183 126.035 43.1576 126.153 43.4429C126.63 44.6018 126.334 46.0618 125.019 46.1869L125.015 46.1922ZM126.86 24.2232C127.281 25.4684 127.189 27.1116 126.68 28.288C125.683 30.574 123.284 32.2929 120.313 32.455C116.588 32.6557 113.044 29.9611 113.017 25.9104C113.017 25.6762 113.158 25.2623 112.957 25.0985C113.031 25.0845 113.049 25.1866 113.098 25.139C113.395 23.3444 114.307 22.2155 115.45 21.2768C116.588 20.3434 118.373 19.4575 120.478 19.5913C123.674 19.7939 125.984 21.6149 126.862 24.2268L126.86 24.2232ZM112.968 29.977C112.754 29.6617 113.264 29.3676 113.475 29.6794C114.438 31.1024 115.954 32.6011 117.755 32.7332C118.131 32.7614 118.133 33.3514 117.755 33.3232C115.722 33.1718 114.06 31.592 112.966 29.977H112.968ZM115.639 33.8586C115.343 33.7054 115.069 33.5099 114.825 33.281C114.547 33.0221 114.964 32.6047 115.24 32.8636C115.449 33.0591 115.682 33.2176 115.936 33.3479C116.274 33.5205 115.975 34.0295 115.639 33.8569V33.8586ZM112.524 22.3564C112.77 21.9214 113.06 21.5163 113.385 21.1394C113.715 20.7555 114.268 21.3138 113.939 21.6959C113.657 22.0235 113.415 22.3775 113.203 22.7544C112.953 23.1947 112.277 22.7984 112.526 22.3581L112.524 22.3564ZM112.505 29.1175C111.999 29.1175 111.999 28.3321 112.505 28.3321C113.01 28.3321 113.01 29.1175 112.505 29.1175ZM123.639 19.0612C123.803 19.1176 123.89 19.2972 123.833 19.461C123.777 19.6248 123.598 19.7129 123.434 19.6547C122.545 19.3465 121.49 19.0172 120.402 18.9203C118.352 18.7372 116.198 19.4346 114.639 20.7837C114.579 20.8347 114.507 20.8594 114.434 20.8594C114.346 20.8594 114.259 20.8224 114.197 20.7502C114.084 20.6181 114.099 20.4209 114.229 20.3064C115.938 18.827 118.207 18.0908 120.456 18.2934C121.612 18.3973 122.713 18.7389 123.637 19.0595L123.639 19.0612ZM110.556 2.07292C114.765 1.11131 118.953 3.37091 120.481 7.40752C120.661 7.88128 119.903 8.08558 119.725 7.6171C118.352 3.9926 114.528 1.97077 110.764 2.83199C110.271 2.9447 110.064 2.18563 110.556 2.07292ZM113.766 42.3105C113.904 42.3299 114.358 42.5148 114.517 42.4532C114.634 42.4091 114.758 41.9389 114.841 41.8244C115.321 41.171 116.565 41.0636 117.435 41.4176C117.747 39.2126 119.257 37.2806 121.955 38.1453C122.365 36.5814 123.879 34.785 125.726 35.7255C125.682 36.7276 126.141 38.1718 125.743 39.2619C125.538 39.829 124.381 40.2447 123.778 40.463C122.792 40.8135 122.617 39.5367 122.116 38.9361C121.932 40.2006 122.264 41.9389 121.487 42.5729C121.107 42.8829 120.075 43.4588 119.522 43.4482C118.698 43.4324 118.184 42.6258 117.636 42.108C117.663 42.9128 117.747 43.4993 117.613 44.3006C116.972 44.3147 116.309 44.8308 115.73 44.6071C115.505 44.5208 115.164 43.76 114.979 43.9361C114.895 44.0171 114.947 44.7163 114.938 44.9118C114.913 45.4789 114.986 46.4281 114.655 46.7399C114.461 46.9266 113.814 47.071 113.5 47.1872C112.671 47.4972 112.006 47.712 111.149 48.0009C110.84 48.1066 110.289 48.4306 109.972 48.4077C109.481 48.3725 109.229 47.7209 108.817 47.432C108.801 48.1418 108.783 48.6719 108.737 49.3411C108.709 49.7356 108.642 50.7501 108.29 51.0283C108.061 51.208 107.539 51.2573 107.196 51.3542C106.325 51.5972 105.806 51.6377 104.988 51.7804C104.86 51.8033 104.691 51.9019 104.601 51.8825C104.258 51.8103 104.069 51.06 103.708 50.9685C103.489 51.4405 103.583 52.6345 103.141 52.9198C102.811 53.1329 101.879 53.2122 101.397 53.3055C100.743 53.4341 100.218 53.5574 99.6741 53.6331C99.5275 53.6525 99.137 53.686 98.9656 53.6331C98.6457 53.531 98.2358 52.6803 98.0325 52.3704C97.9778 52.2893 97.7516 52.0533 97.7481 51.9442C97.7374 51.5954 98.4884 51.1234 98.7005 50.9896C99.6883 50.3644 100.957 50.1372 102.531 50.2992C102.782 50.3256 103.284 50.5317 103.546 50.4419C103.692 50.3926 103.936 49.7761 104.072 49.549C104.705 48.4817 105.778 46.8579 107.113 46.5409C107.707 46.4 108.055 46.6571 108.432 46.9054C108.562 46.7011 108.504 46.6659 108.513 46.4387C108.564 45.2605 109.269 44.1351 109.891 43.4729C110.78 42.5219 112.066 42.064 113.763 42.314L113.766 42.3105ZM109.704 34.704C110.003 36.9389 109.792 38.9801 108.903 41.0566C108.725 41.4722 108.121 41.1129 108.297 40.7008C109.135 38.7459 109.282 36.7963 109.002 34.7022C108.942 34.2531 109.646 34.2602 109.704 34.7022V34.704ZM105.802 3.66326C106.594 3.15956 107.444 2.74569 108.331 2.43396C108.502 2.37408 108.674 2.31772 108.847 2.26136C109.094 2.18035 109.363 2.31596 109.442 2.56252C109.522 2.81085 109.391 3.07503 109.144 3.15604C108.972 3.2124 108.806 3.26523 108.642 3.32335C107.824 3.61042 107.039 3.9926 106.308 4.45755C106.23 4.50686 106.142 4.53152 106.055 4.53152C105.899 4.53152 105.747 4.45403 105.657 4.31313C105.518 4.09299 105.583 3.80239 105.802 3.6615V3.66326ZM104.003 23.628C104.567 24.0771 105.085 24.5755 105.553 25.125C105.88 25.5071 105.327 26.0654 104.998 25.6815C104.53 25.132 104.014 24.6336 103.449 24.1845C103.053 23.871 103.611 23.318 104.003 23.628ZM108.191 34.0788C108.184 34.1105 108.232 34.0735 108.232 34.0788C108.884 38.369 107.173 42.2594 105.191 44.5454C103.602 46.3753 101.586 48.059 98.9072 48.6701C98.0608 48.8639 97.2763 49.1844 96.1701 49.3218C91.8461 49.8589 88.206 48.2245 85.7304 46.2503C83.1523 44.1967 81.2368 41.3172 80.7438 37.3898C80.1889 32.978 81.8464 29.3976 83.9068 27.0464C86.0873 24.5561 89.116 22.8654 93.0088 22.3511C96.7885 21.8492 100.653 23.2511 103.102 25.2782C105.661 27.3951 107.559 30.0897 108.19 34.077L108.191 34.0788ZM90.9697 1.96548C92.6289 0.780213 94.8483 0.479053 96.7603 1.17648C97.0041 1.2663 97.1314 1.53576 97.0412 1.78056C96.9529 2.02537 96.6825 2.15217 96.4387 2.06235C94.8112 1.46883 92.924 1.72597 91.5157 2.73336C91.4326 2.79324 91.3372 2.82142 91.2436 2.82142C91.0969 2.82142 90.952 2.75273 90.8601 2.62417C90.7099 2.41106 90.7594 2.11695 90.9697 1.96548ZM95.5145 20.7167C97.1649 20.766 98.8154 21.0408 100.347 21.6748C101.24 22.0447 102.04 22.5554 102.876 23.0344C103.244 23.2458 102.911 23.8146 102.544 23.6051C101.779 23.1665 101.044 22.6875 100.231 22.337C98.8224 21.7312 97.2939 21.4529 95.7672 21.386C92.4222 21.2398 88.5276 22.0077 85.8311 24.1405C85.5024 24.4011 85.0324 23.9362 85.3664 23.6737C88.1406 21.4776 92.0546 20.6146 95.5145 20.7167ZM78.588 14.1053C78.535 14.2726 78.3812 14.3783 78.2151 14.3783C78.1762 14.3783 78.1356 14.373 78.095 14.3589C77.8882 14.292 77.7751 14.0718 77.8423 13.864C78.201 12.7456 78.7558 11.8668 79.4909 11.2522C80.3303 10.5512 81.3976 10.2272 82.1274 10.044C82.4543 9.96299 82.7847 9.89078 83.1063 9.82209C83.6859 9.69705 84.2319 9.58081 84.7691 9.40294C85.9566 9.01019 87.0468 8.32862 87.918 7.43218C88.0699 7.27719 88.3173 7.27367 88.4728 7.42513C88.6283 7.57659 88.6319 7.82492 88.4799 7.98166C87.5186 8.96968 86.3206 9.71995 85.013 10.1514C84.4369 10.3416 83.8432 10.4684 83.2689 10.5917C82.9543 10.6587 82.6292 10.7291 82.3164 10.8066C81.2615 11.0708 80.5441 11.3948 79.9928 11.8563C79.3814 12.367 78.8972 13.1437 78.5897 14.1053H78.588ZM80.4911 29.6811C80.7208 29.3236 81.2898 29.6565 81.0601 30.014C80.7084 30.5617 80.507 31.1587 80.4133 31.8016C80.3515 32.2207 79.7171 32.0411 79.7772 31.6255C79.8779 30.9333 80.1112 30.2694 80.4893 29.6811H80.4911ZM79.4945 33.1365C79.5634 32.6364 80.3197 32.8512 80.2508 33.3461C79.8991 35.8699 80.2243 38.4077 81.1537 40.7748C81.3393 41.2468 80.5794 41.4493 80.3974 40.9843C79.4114 38.4747 79.1216 35.8047 79.4945 33.1383V33.1365ZM76.2996 41.9495C76.4799 43.1242 76.9199 44.1827 77.6302 45.1354C77.8564 45.4401 77.3457 45.7342 77.1231 45.4331C76.3898 44.4451 75.9197 43.3232 75.7342 42.1062C75.6776 41.7346 76.2449 41.5761 76.3014 41.9495H76.2996ZM76.1441 40.4595V41.09C76.1441 41.4704 75.5557 41.4687 75.5557 41.09V40.4595C75.5557 40.0791 76.1441 40.0809 76.1441 40.4595ZM73.9389 28.4818C74.0325 28.3461 74.1916 28.2968 74.3418 28.3761C74.4743 28.4465 74.5361 28.6526 74.4478 28.7794C74.4336 28.8005 74.4195 28.8217 74.4071 28.8428C74.4001 28.8569 74.3895 28.8833 74.3895 28.8833C74.3842 28.9009 74.3789 28.9185 74.3736 28.9361C74.3736 28.9414 74.3718 28.9432 74.37 28.9449C74.37 28.9485 74.37 28.952 74.37 28.9573C74.3577 29.1228 74.2446 29.2443 74.0767 29.2514C73.9265 29.2584 73.771 29.1105 73.7834 28.9573C73.7957 28.7864 73.8417 28.6227 73.9406 28.48L73.9389 28.4818ZM73.5925 29.778C73.6349 29.4046 74.2234 29.4011 74.181 29.778C73.9636 31.6853 74.7358 33.3902 75.561 35.058C75.7289 35.3979 75.2217 35.6955 75.0539 35.3556C74.1863 33.6033 73.3663 31.7822 73.5943 29.778H73.5925Z" fill="#231F16"/>
</svg>
