<svg width="166" height="120" viewBox="0 0 166 120" fill="none" xmlns="http://www.w3.org/2000/svg">
<path d="M73.6966 0.0557762C76.7089 -0.0716726 79.6576 0.148122 82.6079 0.0659991C91.9215 -0.193262 101.154 0.331967 110.417 1.279C116.317 1.89646 122.205 2.62903 128.077 3.47637C140.689 5.26724 152.336 6.44704 156.829 20.426C159.698 29.3522 161.297 38.2524 162.343 47.565C162.816 51.7863 163.396 55.8869 162.883 60.1446C162.221 66.545 159.001 72.6991 153.899 76.6626C141.226 86.5086 123.183 89.3373 107.713 85.82C102.353 84.6015 96.4693 82.2666 91.115 81.7006L90.9746 81.6864C90.6938 81.7001 89.4231 81.4245 89.003 81.3883C87.9412 81.2967 86.8968 81.2462 85.835 81.1791C81.842 80.9536 77.8369 81.1519 73.886 81.7708C68.4134 82.6266 63.7285 84.3432 58.3712 85.6548C46.0942 88.6605 33.5307 87.4835 21.8675 82.7652C10.2258 78.0557 2.00139 69.9653 2.11129 56.7445C2.13948 53.3426 2.50467 49.9549 2.95214 46.5769C4.22247 36.9862 5.66431 27.129 9.1281 18.0498C13.7007 6.32183 26.5577 4.83638 37.379 3.43389C49.4873 1.78656 61.4698 0.307668 73.6966 0.0557762Z" fill="#FFFCF5"/>
<path d="M76.4168 102.283C77.9176 102.221 79.3628 102.316 80.9334 102.225C80.4936 103.97 80.0499 107.012 79.7282 108.871C79.1153 112.413 78.3987 116.082 77.8597 119.62C76.3711 119.638 74.8824 119.64 73.3938 119.626C73.4919 118.512 73.7602 116.947 74.0225 115.869C74.0773 115.412 75.0161 110.206 75.0043 110.163C74.2366 110.704 72.591 114.33 71.7299 115.135C70.8741 115.935 69.4498 115.743 68.3207 115.714C67.7189 114.171 67.1663 111.719 66.5921 109.992C65.9895 113.167 65.5826 116.379 64.913 119.58C63.9435 119.702 61.6605 119.638 60.5498 119.651C60.6051 118.899 60.7436 118.028 60.8723 117.284C61.6792 112.622 62.4858 107.956 63.3192 103.298C63.3852 102.929 63.5533 102.58 63.7377 102.258C65.262 102.331 66.5863 102.193 68.1669 102.399C69.193 105.156 69.9239 107.666 70.7656 110.477C71.763 108.786 75.1139 103.52 76.4168 102.283Z" fill="#FFFCF5"/>
<path d="M46.9191 102.185C52.7068 101.746 54.9095 104.248 53.604 109.699C53.192 111.42 53.1122 113.181 52.5263 114.944C52.2497 115.788 51.8528 116.588 51.348 117.318C50.1746 118.994 48.1362 119.586 46.247 119.927C44.6366 120.132 42.2409 119.929 40.8656 119.019C38.396 117.34 39.1153 113.874 39.5727 111.395C39.9775 109.203 40.233 106.693 41.514 104.834C42.7132 103.094 44.9584 102.51 46.9191 102.185ZM46.1276 116.147C48.6081 115.685 48.4489 112.878 48.9277 110.873C49.3229 109.217 50.1181 105.169 47.1056 105.784C44.7209 106.106 44.315 108.928 44.1049 110.925C43.8206 113.627 42.4527 116.203 46.1276 116.147Z" fill="#FFFCF5"/>
<path d="M17.7123 111.234C17.7251 109.876 18.652 103.539 19.3051 102.512C19.746 102.119 22.7751 102.263 23.6252 102.242C22.4892 107.672 21.6036 113.83 20.6049 119.355C20.3529 119.661 20.4646 119.566 19.9374 119.62L16.1189 119.661C15.4026 117.349 13.9669 112.364 13.0565 110.274C12.697 113.114 12.0264 116.753 11.4863 119.57C10.3645 119.709 8.30001 119.63 7.09791 119.612C7.11857 118.584 7.42794 117.168 7.61083 116.129C8.37439 111.789 9.11754 107.442 9.90373 103.105C9.95491 102.823 10.1256 102.519 10.2737 102.277C11.6536 102.254 13.3419 102.16 14.6665 102.493C15.8454 105.292 16.7906 108.33 17.7123 111.234Z" fill="#FFFCF5"/>
<path d="M99.7185 102.258C105.921 102.388 114.02 100.546 110.609 109.835C110.135 111.126 109.408 111.808 108.35 112.611C109.169 114.835 109.891 117.361 110.625 119.646C108.983 119.618 107.296 119.638 105.646 119.625C105.457 119.095 105.276 118.501 105.099 117.961C104.663 116.854 104.104 113.952 103.424 113.098C103.056 113.011 103.043 113.007 102.686 113.106C101.749 113.818 101.442 118.098 101.16 119.598C99.5874 119.627 98.0858 119.66 96.5122 119.602C96.5401 119.03 96.8986 116.542 97.053 116.022C97.7945 113.522 98.6625 103.849 99.7185 102.258ZM102.613 110.128C103.483 110.091 105.002 110.083 105.773 109.844C106.318 109.324 106.542 108.897 106.634 108.135C106.909 105.852 105.397 105.966 103.772 105.965L103.2 105.966C103.07 107.176 102.914 108.961 102.613 110.128Z" fill="#FFFCF5"/>
<path d="M93.8885 102.22L94.0474 102.291C94.3039 102.691 94.2401 117.87 94.2447 119.647C92.7141 119.623 91.1847 119.63 89.6552 119.667C89.5519 118.342 89.6076 117.083 89.7353 115.763C88.4924 115.825 86.9839 115.881 85.7631 115.709C85.3894 117.027 85.061 118.183 84.5945 119.467C84.171 119.805 80.9043 119.615 80.1116 119.59C80.8498 117.185 81.9615 114.47 82.7506 112.035C83.4689 109.816 85.1086 104.063 86.2423 102.257C88.721 102.303 91.4237 102.37 93.8885 102.22ZM88.6607 106.461C88.4704 107.077 86.7669 112.193 86.891 112.468L87.0268 112.5C87.9621 112.491 88.9891 112.451 89.9128 112.552C89.8443 110.936 89.9871 108.265 90.0486 106.552C90.0033 106.5 89.9581 106.446 89.9116 106.394L88.6607 106.461Z" fill="#FFFCF5"/>
<path d="M138.812 109.468C138.865 108.388 139.665 103.311 140.189 102.494C140.991 102.057 143.173 102.361 144.396 102.206L144.552 102.185C144.413 102.703 144.32 103.229 144.225 103.756C143.308 108.888 142.483 114.035 141.53 119.161L141.413 119.467C140.855 119.801 137.918 119.633 137.045 119.608C137.169 118.202 137.746 114.773 138.129 113.397C136.772 113.396 134.687 113.454 133.401 113.28C133.13 115.341 132.658 117.627 132.458 119.61C130.959 119.634 129.459 119.641 127.959 119.628C128.5 114.451 130.005 108.9 130.685 103.698C130.745 103.235 130.901 102.64 131.173 102.262C132.59 102.278 134.007 102.28 135.424 102.266C135.128 103.972 134.548 107.904 134.102 109.434L138.812 109.468Z" fill="#FFFCF5"/>
<path d="M27.0454 102.291C30.7266 102.068 35.589 102.559 39.2109 102.184C38.8993 103.474 38.8067 104.688 38.3978 105.966C37.049 106.06 31.9499 106.072 30.6729 105.929C30.4822 107.062 30.391 108.02 30.0647 109.131C31.949 109.143 34.8004 109.231 36.5823 109.019C36.3749 110.35 36.1414 111.676 35.8817 112.999C34.4722 113.134 30.9384 113.048 29.4205 113.009L29.2736 113.983C29.1989 114.665 29.0824 115.088 28.9089 115.754C31.5258 115.732 34.1476 115.803 36.7644 115.709C36.542 116.964 36.2778 118.322 36.129 119.579C32.2291 119.706 27.7991 119.667 23.8784 119.627C24.1141 117.896 26.5616 103.097 27.0454 102.291Z" fill="#FFFCF5"/>
<path d="M148.016 102.283C148.943 102.219 150.24 102.302 151.212 102.285C154.087 102.232 157.154 102.386 160.014 102.235C159.864 103.356 159.572 104.95 159.191 105.996C157.892 106.076 152.682 106.063 151.496 105.938C151.387 107.126 151.281 107.974 151.042 109.135C153.204 109.16 155.367 109.146 157.529 109.093C157.259 110.043 156.979 111.969 156.814 113.004C155.132 113.107 152.01 113.079 150.311 113.008C150.235 113.503 150.181 114.062 150.124 114.564C150.11 114.72 149.909 115.544 149.863 115.746C151.997 115.757 155.663 115.868 157.699 115.673C157.404 116.989 157.298 118.241 156.956 119.577C156.021 119.707 145.31 119.683 144.94 119.492C144.931 119.073 145.074 117.475 145.183 117.105C145.796 115.032 147.15 103.373 148.016 102.283Z" fill="#FFFCF5"/>
<path d="M120.533 102.186C126.2 101.63 129.393 104.936 126.434 110.26C125.34 110.403 123.463 110.329 122.297 110.312C122.628 109.062 123.342 107.171 122.27 106.105C121.574 105.411 119.549 105.791 119.032 106.561C118.19 107.817 118.007 109.8 117.733 111.282C117.5 112.536 117.221 113.843 117.357 115.096C117.479 116.199 119.095 116.24 119.928 116.079C121.109 115.84 121.469 114.52 122.071 113.618L122.132 113.526C123.525 113.416 124.818 113.623 126.357 113.433C125.088 119.152 121.744 120.761 115.765 119.63C111.81 118.881 112.697 114.316 113.24 111.357C114.263 105.774 114.335 103.245 120.533 102.186Z" fill="#FFFCF5"/>
<path d="M159.406 5.94957C160.834 5.84826 164.01 5.84617 165.42 5.95038C165.529 7.8653 165.435 10.5425 165.435 12.5308L165.41 25.6159L165.328 37.2298C165.319 38.9199 165.436 41.2294 165.324 42.8348C164.537 42.3094 164.369 38.3362 164.247 37.3322L163.343 30.2583C162.528 24.1554 161.783 18.1899 160.402 12.1698C160.036 10.5721 159.488 7.98575 159.245 6.31127C159.308 6.16923 159.361 6.04867 159.406 5.94957Z" fill="#FFFCF5"/>
<path fill-rule="evenodd" clip-rule="evenodd" d="M0.196119 5.94732C0.926091 5.67726 5.21848 5.75118 6.25269 5.75455C6.03267 7.82924 5.14064 10.9453 4.73959 13.2414C3.70738 18.9521 2.79661 24.6843 2.00821 30.4337C1.53418 33.7207 0.818782 38.4719 0.667097 41.7666C0.614646 42.1871 0.622731 42.5715 0.353742 42.9078L0.385115 42.9596L0.273229 42.8745C0.0187454 41.6492 0.12763 38.9862 0.147358 37.6272L0.0203523 14.9832C0.0184868 13.7163 -0.0857391 6.82503 0.196119 5.94732ZM0.233162 37.7849C0.270001 37.8739 0.298048 37.9778 0.319344 38.0933C0.326432 38.1318 0.332967 38.1715 0.338622 38.2124C0.315971 38.0483 0.282313 37.9036 0.233162 37.7849Z" fill="#FFFCF5"/>
</svg>
