<svg width="200" height="108" viewBox="0 0 200 108" fill="none" xmlns="http://www.w3.org/2000/svg">
<path d="M85.6956 0.25103C108.885 -0.624676 132.104 0.792073 155.015 4.48072C164.374 5.9686 175.998 7.26462 183.156 14.0123C185.2 15.9279 186.825 18.2468 187.928 20.8223C189.885 25.4502 191.199 32.5143 192.181 37.4982C193.535 44.369 195.972 52.9018 196.183 59.7864C196.391 60.3717 196.729 60.9784 196.823 61.5651C197.205 63.9404 197.21 66.5133 197.209 68.9171C197.222 71.4913 197.331 73.9961 196.223 76.3842C196.001 81.2046 192.766 87.2777 189.547 90.8507C184.241 96.7409 177.855 99.9246 170.595 102.722C157.223 107.929 142.553 108.81 128.653 105.24C125.473 104.411 122.267 103.145 119.076 102.404C110.502 100.414 100.982 99.0198 92.231 100.412C90.4527 100.696 88.4349 100.618 86.7655 100.942C77.3702 102.768 68.5516 106.777 58.8679 107.23C42.6049 108.359 24.3094 103.647 11.8297 92.9164C3.51485 85.7661 2.12718 73.6237 2.83538 63.3707C2.97134 61.4031 3.5589 59.4894 3.77087 57.5786C4.5791 50.1328 6.07069 42.7453 7.51538 35.3995C8.95012 28.1042 10.198 20.7473 15.4512 15.048C18.2245 12.0464 21.6464 9.71768 25.4562 8.23918C30.3314 6.39755 37.0718 5.56697 42.2868 4.74298C56.6498 2.35156 71.1471 0.851555 85.6956 0.25103Z" fill="#231F16"/>
<path d="M6.73939 9.18101C6.99098 10.4722 6.57724 11.5709 6.49553 12.8228C6.31368 15.6076 5.83784 18.2042 5.26417 20.926C5.00234 22.1683 5.13098 23.7948 4.90424 25.0745C4.30544 28.1169 3.81726 30.9902 3.57077 34.0854C3.43595 35.78 2.75859 37.6956 2.55315 39.4339C2.72192 43.389 2.07052 44.7544 1.3072 48.4225C1.01923 49.8076 1.02856 51.5267 0.628252 53.2684C-0.0355979 50.7323 -0.125672 41.8121 0.136723 39.067C0.0459414 29.3062 0.10544 19.2027 0.197926 9.44168C2.37625 9.30828 4.55737 9.22136 6.73939 9.18101Z" fill="#231F16"/>
<path d="M194.65 9.30628C196.899 9.20072 198.07 8.90519 199.883 10.2922C199.736 13.1527 199.883 17.2611 199.885 20.2236L199.905 39.4003C199.915 41.3923 200.343 50.9927 199.294 52.1477L199.093 52.0551L198.888 51.4202C198.632 49.1983 198.081 47.5204 197.715 45.3823C197.429 43.7244 197.532 41.5593 197.321 39.8401C197.256 38.32 196.594 36.5735 196.491 35.104C196.29 32.1975 195.692 29.5652 195.196 26.7264L193.417 16.3853C193.012 14.1508 192.582 12.2455 192.288 9.9738C193.235 9.48496 193.63 9.41907 194.65 9.30628Z" fill="#231F16"/>
</svg>
