<svg width="128" height="120" viewBox="0 0 128 120" fill="none" xmlns="http://www.w3.org/2000/svg">
<path d="M4.01983 0H74.379C74.9638 0.169394 77.1663 0.205778 77.9199 0.242439C79.0016 0.297316 80.0805 0.39043 81.1553 0.521606C89.0497 1.43885 96.4931 3.49031 103.364 7.54065C111.924 12.5859 118.486 20.5689 120.85 30.3111C123.392 40.7855 122.429 53.95 116.681 63.233C115.644 64.917 114.459 66.505 113.14 67.9781C112.782 68.3784 111.244 69.8551 111.059 70.164C111.119 70.4592 112.506 71.3866 112.865 71.6632C120.891 77.8516 126.028 86.8839 127.453 96.8552C128.343 103.36 127.583 109.985 125.242 116.119C124.853 117.149 124.06 119.115 123.425 119.963C122.889 119.984 122.294 119.989 121.759 119.974C118.744 119.895 115.575 120.119 112.581 119.903C112.058 119.537 111.594 119.115 111.096 118.714C109.71 117.6 108.377 116.358 106.949 115.305C106.26 114.798 104.693 115.037 104.096 114.332C103.626 113.776 103.56 112.784 103.167 112.162C101.882 109.978 100.127 108.193 98.5088 106.259C97.8987 105.586 97.362 104.83 96.688 104.218C96.0003 103.593 94.2851 105.112 93.7065 104.395C93.4121 104.029 93.016 102.967 92.7813 102.473L90.4958 97.7078C90.0421 96.7502 89.5418 95.6114 89.0133 94.7046C88.7367 94.2303 87.76 93.4299 87.3379 93.0269C86.703 92.4215 85.7065 93.3262 85.0489 93.5445C84.7023 93.6591 84.4395 93.6722 84.0682 93.7065C83.8849 93.607 83.4793 93.399 83.3386 93.1924C81.994 91.2195 81.4916 87.8834 80.1128 86.0286C79.8876 85.7258 77.4195 84.4937 77.0599 84.3447C76.0921 84.6227 75.0798 85.5199 74.2033 86.0897C73.4813 85.1382 72.377 83.0212 71.7414 82.3643C70.8416 82.7377 70.5108 83.512 69.4456 82.8888C68.0831 82.0925 67.531 80.8555 66.7294 79.5753C66.4402 79.114 65.5835 78.4817 65.1536 78.1399C63.868 77.2942 61.4296 75.5129 59.8753 75.7421C59.2161 75.8396 58.4309 76.6565 58.0266 77.1445C57.6696 77.5152 56.9827 78.4186 56.4982 78.6115C55.6 78.9691 54.9501 78.3431 54.4578 79.5636C54.1868 80.2356 53.8437 81.0374 53.382 81.6271C52.8897 82.2565 52.2107 82.8174 51.8176 83.5169C51.2142 84.6447 50.5787 85.7341 49.9733 86.864C49.2897 88.1394 48.7888 90.0896 47.8587 91.1522C46.7415 92.5087 44.4496 93.1223 43.4823 94.5797C42.4805 96.0885 41.8729 98.2014 40.9174 99.7747C40.6407 100.231 40.0551 101.082 39.5034 101.155C38.028 101.349 37.6978 98.051 36.0968 100.108C34.6056 102.019 33.3157 104.211 31.3565 105.71C30.7108 106.205 28.4904 106.192 27.6296 106.303C26.9059 106.39 26.1396 106.163 25.653 106.763C24.1059 108.673 22.5217 110.483 20.8468 112.282C19.8446 113.357 18.8936 114.482 17.8704 115.538C17.7207 115.692 17.3906 115.979 17.1629 116.02C16.92 116.026 16.4475 115.481 16.1977 115.295L16.1472 115.258C15.7318 115.758 12.7508 119.632 12.3394 119.686C10.4738 119.929 7.92844 119.721 5.98953 119.783C5.4382 119.801 4.7271 119.776 4.16761 119.747C-0.568609 119.128 0.0234749 114.934 0.0238894 111.532L0.0271331 105.609L0.0407763 83.6493L0.0572808 29.5059L0.0539843 13.2795C0.051694 10.4705 0.0278764 7.65405 0.0541909 4.846C0.0812315 1.96042 1.40507 0.752252 4.01983 0ZM60.6517 48.2785C62.1134 49.1772 64.1614 49.4383 65.9113 49.0194C72.0276 47.5555 73.517 39.2855 68.2119 35.8856C68.1563 35.8499 68.0775 35.8276 68.0124 35.8068C68.9809 37.8717 69.4531 39.7431 68.6295 41.9966C67.954 43.856 66.5592 45.3656 64.7591 46.1855C62.8448 47.0527 60.9077 46.9822 58.9768 46.2456C58.6867 46.1332 58.3978 46.0178 58.1101 45.8995C58.7239 46.8812 59.6412 47.7139 60.6517 48.2785ZM27.1623 28.3594C27.5485 28.1499 27.6916 27.6668 27.4819 27.2806C27.2722 26.8944 26.7891 26.7515 26.4031 26.9614C26.0173 27.1712 25.8745 27.654 26.084 28.0399C26.2937 28.4259 26.7763 28.5689 27.1623 28.3594ZM92.9117 40.4581C93.3118 40.3439 93.5507 39.9342 93.4526 39.5296C93.3551 39.1251 92.955 38.8698 92.5473 38.9513C92.2679 39.007 92.0421 39.2111 91.9577 39.4831C91.874 39.755 91.9453 40.0512 92.1444 40.2546C92.3434 40.458 92.6379 40.5361 92.9117 40.4581ZM40.1006 55.7636C40.3208 55.6595 40.4679 55.4452 40.486 55.2024C40.504 54.9596 40.3903 54.7259 40.188 54.5904C39.9858 54.4549 39.7264 54.4385 39.5087 54.5475C39.1776 54.7135 39.0415 55.1151 39.2037 55.4482C39.3658 55.7813 39.7658 55.9219 40.1006 55.7636ZM49.6797 34.5457C50.0327 34.4204 50.2159 34.0313 50.0878 33.6792C49.9596 33.3272 49.5693 33.1469 49.2183 33.2778C48.8712 33.4073 48.6934 33.7925 48.8201 34.1407C48.9468 34.4889 49.3305 34.6697 49.6797 34.5457Z" fill="#231F16"/>
</svg>
