<svg width="110" height="120" viewBox="0 0 110 120" fill="none" xmlns="http://www.w3.org/2000/svg">
<path fill-rule="evenodd" clip-rule="evenodd" d="M74.4116 108.661C76.3853 106.685 78.5192 106.655 80.8677 107.955C83.7606 110.438 84.3096 115.135 81.8771 118.101C79.8723 120.278 76.824 120.771 74.617 118.588C71.9263 116.393 72.0942 111.122 74.4116 108.661ZM80.3809 109.083C78.5565 107.282 76.9266 107.484 75.376 109.469C74.3308 112.332 74.2857 114.513 75.2765 117.407L75.3702 117.543C77.3456 120.339 79.7565 119.407 81.0778 116.524C81.6703 113.789 81.65 111.587 80.3809 109.083ZM75.2551 117.898C75.2559 117.818 75.2588 117.734 75.264 117.631C75.257 117.768 75.2543 117.873 75.2549 117.977L75.2551 117.898Z" fill="#FFFCF5"/>
<path fill-rule="evenodd" clip-rule="evenodd" d="M95.4115 107.367C98.3883 107.329 102.897 106.784 104.816 109.38C107.086 112.449 106.495 116.469 103.522 118.744C101.438 119.891 98.4553 119.757 96.071 119.729C95.6635 119.724 95.6183 119.566 95.4441 119.328C95.679 118.951 96.1005 118.92 96.6106 118.746C96.7957 118.541 97.0041 118.307 96.9543 118.006C96.6931 116.407 97.4816 109.161 96.5096 108.294C95.6962 108.067 95.5841 108.179 95.4115 107.367ZM104.028 111.813C103.333 108.817 101.429 108.043 98.6357 108.136C98.6202 111.083 98.4957 114.212 98.6559 117.135C98.8115 119.958 101.543 119.163 103.023 117.807C104.157 116.028 104.521 113.864 104.028 111.813Z" fill="#FFFCF5"/>
<path fill-rule="evenodd" clip-rule="evenodd" d="M62.5649 107.371C64.7517 107.347 69.8903 106.655 70.8313 109.008C71.6852 111.142 70.2559 112.349 68.5217 113.055C71.2933 113.906 72.7257 115.766 70.9028 118.466C68.8374 120.231 64.271 119.827 61.6659 119.536C62.5975 119.063 62.9894 119.164 63.8588 118.566C64.0766 118.155 64.1575 116.83 64.114 116.373C63.9585 114.722 64.5012 109.382 63.6955 108.343C62.8993 108.091 62.7204 108.185 62.5649 107.371ZM68.9681 118.404C70.8827 115.203 69.2418 113.366 65.7782 113.565C65.7564 115.905 64.9974 120.776 68.9681 118.404ZM68.5202 112.254C70.1626 109.341 68.786 107.983 65.7828 108.111C65.7657 109.441 65.4796 111.754 66.167 112.679C66.8934 113.088 67.8717 112.67 68.5202 112.254Z" fill="#FFFCF5"/>
<path d="M3.89595 118.586C4.37281 118.796 5.25747 119.059 5.50974 119.399L5.53105 119.539C5.17224 119.69 5.31159 119.672 4.92168 119.636C4.30251 119.536 2.91797 119.516 2.24685 119.486C2.74937 119.455 3.54694 119.474 3.94775 119.267C3.75022 118.869 3.7947 119.085 3.89595 118.586Z" fill="#FFFCF5"/>
<path fill-rule="evenodd" clip-rule="evenodd" d="M0.774923 107.537C1.85042 107.106 6.2641 107.354 7.50758 107.627C9.00626 107.956 9.95346 109.741 9.30241 111.228C8.60876 112.813 8.22441 112.992 6.74784 113.66C7.78056 115.06 8.54999 116.628 9.72253 117.936C10.6734 118.997 11.2885 119.018 12.5339 119.544C11.2175 119.726 9.89749 119.686 8.5685 119.683C7.99351 118.614 5.45661 113.832 4.18871 114.062C3.71886 114.572 3.96041 117.476 3.89618 118.586C4.37305 118.796 5.25771 119.059 5.50997 119.4L5.53123 119.539C5.17243 119.69 5.31176 119.672 4.92187 119.636C4.13597 119.712 1.51597 119.806 0.796642 119.549L0.765202 119.219L0.967058 118.992C1.41232 118.908 1.70477 118.908 2.02251 118.595C2.42639 117.615 2.33364 110.048 2.17516 108.76C1.60607 108.033 1.65052 108.428 0.776745 107.856L0.774923 107.537ZM6.42827 108.506C5.6189 107.993 4.85593 108.091 3.94251 108.1C3.9296 109.546 3.65871 112.135 4.29154 113.178C5.165 113.677 5.96142 113.208 6.71124 112.653C7.66557 111.267 8.01951 109.515 6.42827 108.506Z" fill="#FFFCF5"/>
<path d="M32.5067 113.46C33.6158 112.335 36.0951 110.038 36.4024 108.584L36.2704 108.293L36.0089 108.2C35.7136 108.091 35.5708 108.022 35.2882 107.871L35.3201 107.543C36.0331 107.15 39.5936 107.366 40.45 107.554L40.312 107.616C39.7778 107.848 39.7037 107.854 39.2015 107.999C37.2932 108.551 35.7662 111.225 34.2729 112.771C35.7214 114.685 37.3341 117.115 39.0048 118.771C39.6933 118.981 39.7055 118.861 40.0831 119.32C39.5964 119.962 37.8678 119.709 37.1257 119.627C36.9564 119.468 36.921 119.466 36.8056 119.273C35.3797 117.144 34.1548 115.409 32.4998 113.458C32.4921 114.572 32.2564 118.007 32.8207 118.639C33.2106 118.808 33.5461 118.956 33.9279 119.149L33.9858 119.379C33.3641 119.899 30.3448 119.717 29.4676 119.633L29.3282 119.619L29.3707 119.222C29.8043 118.871 29.9423 118.961 30.5951 118.86C30.9453 117.872 30.9786 110.164 30.6288 108.691C30.5336 108.29 28.9785 107.791 28.4325 107.504C29.5634 107.366 32.9807 107.111 33.9289 107.609L33.959 107.882C33.3198 108.256 32.6306 108.225 32.5591 108.797C32.388 110.164 32.4885 112.065 32.5067 113.46Z" fill="#FFFCF5"/>
<path d="M39.0048 118.771C39.6933 118.981 39.7054 118.861 40.0831 119.32C39.5964 119.962 37.8678 119.709 37.1256 119.626C36.9564 119.468 36.921 119.466 36.8056 119.273L36.9351 119.149C37.4048 119.169 37.907 119.396 38.4377 119.471C38.9609 119.227 38.7446 119.418 39.0048 118.771Z" fill="#FFFCF5"/>
<path d="M29.3282 119.619L29.3707 119.222C29.8043 118.871 29.9423 118.961 30.5951 118.86C30.6563 119.121 30.6921 119.253 30.8107 119.499C30.3847 119.658 29.9012 119.529 29.3282 119.619Z" fill="#FFFCF5"/>
<path d="M92.6446 116.751C92.6275 114.74 93.0598 109.724 91.9384 108.411C91.461 108.229 90.8466 108.072 90.6911 107.573C91.2572 107.209 94.654 107.168 95.245 107.707C94.8578 108.394 93.8484 108.072 93.5715 109.019C93.0443 110.831 93.8624 118.564 93.2371 119.729L92.7643 119.863C90.646 117.01 88.0128 112.799 85.9769 109.76C86.0034 112.18 85.7887 115.345 86.1651 117.709C86.3331 118.759 87.5494 118.872 88.6116 119.494L88.7703 119.588C87.7578 119.718 84.291 119.81 83.4216 119.546C83.476 119.007 84.924 118.443 84.9877 118.088C85.4637 115.396 85.1464 112.29 85.1184 109.529C85.106 108.259 83.4278 108.654 83.1183 107.366L86.4062 107.363C88.5028 110.481 90.5838 113.611 92.6446 116.751Z" fill="#FFFCF5"/>
<path d="M23.0721 113.195C21.4615 111.652 21.387 109.035 23.3016 107.674C25.1355 106.372 26.038 107.469 27.6969 107.792C27.9327 107.567 28.0467 107.479 28.31 107.287L28.5926 107.417C28.8259 107.854 28.774 110.785 28.6368 111.366L28.4631 111.455C27.7571 110.87 27.1859 108.383 26.131 108.032C23.7222 107.229 22.889 109.256 23.8086 111.203C25.282 112.441 27.3017 112.656 28.4782 113.942C30.5287 116.713 28.2013 120.53 24.8019 119.871C24.2147 119.757 23.2053 119.216 22.6803 119.239L22.1316 119.721L21.8609 119.703C21.4147 119.118 21.6202 116.698 21.6536 115.814L21.7959 115.581C22.9727 116.416 23.5029 119.76 26.0741 119.123C28.2427 118.584 27.8347 116.441 26.8455 114.931C26.1268 114.793 23.7267 113.623 23.0721 113.195Z" fill="#FFFCF5"/>
<path d="M10.1534 107.371C11.4195 107.355 13.5059 107.268 14.6993 107.424L14.9191 107.735L14.7705 107.963C14.2075 108.111 14.1302 108.119 13.6401 108.413C13.0345 109.585 13.4042 114.492 13.4001 116.105C13.3928 118.986 17.1559 120.196 18.5338 117.657C19.5992 115.695 19.1081 111.302 18.8703 109.068C18.796 108.366 17.7074 108.198 17.1449 107.895L17.1371 107.498C17.5956 107.27 18.3345 107.354 18.8761 107.364C19.5141 107.352 21.3002 107.186 21.6968 107.632L21.6414 107.904C21.3469 108.044 21.2028 108.08 20.9285 108.165C19.4259 108.613 19.8861 111.698 19.9017 112.974C19.9315 115.433 20.2964 119.328 16.912 119.835C9.3075 120.973 12.3657 112.763 11.5683 108.719C10.8588 107.809 10.3732 108.557 10.1534 107.371Z" fill="#FFFCF5"/>
<path d="M55.3109 116.342L55.4944 116.39C55.7712 115.842 55.7339 109.854 55.2766 108.983C54.7136 107.909 53.8613 108.462 53.6482 107.565L53.8255 107.388C54.9345 107.325 57.0528 107.283 58.1042 107.497L58.1182 107.773C57.4556 108.15 57.0575 108.313 56.6749 108.977C55.8381 110.428 56.8242 118.555 56.2238 119.589L55.7759 119.62C54.9594 119.085 51.1908 113.152 50.3978 111.976C49.9278 111.221 49.6581 110.798 49.0975 110.099L48.8832 110.153L48.6225 110.077C48.2499 109.4 48.2695 108.786 47.8411 108.1C48.3729 107.878 48.8462 107.747 49.3562 107.462C49.9744 108.164 51.2499 110.181 51.8052 111.03C52.6139 112.237 54.6312 115.074 55.2393 116.222L55.3109 116.342Z" fill="#FFFCF5"/>
<path d="M40.1814 107.778C40.5799 107.332 40.5206 107.391 41.2968 107.346C42.2512 107.291 44.3963 107.184 45.2225 107.647L45.1999 107.918C44.8769 108.168 44.6927 108.143 44.2796 108.199C43.7532 108.521 43.6874 108.669 43.6367 109.336C43.6787 110.895 43.4692 117.569 43.9253 118.477C44.5933 119.003 45.3573 119.105 46.272 119.549C45.1873 119.692 41.2309 119.916 40.3528 119.452L40.343 119.167C40.6433 118.919 40.9746 118.956 41.3822 118.928L41.7583 118.671C42.1758 117.813 41.9694 109.878 41.9541 108.465C41.2866 108.266 40.7629 108.161 40.1814 107.778Z" fill="#FFFCF5"/>
<path d="M41.3822 118.928C41.8387 119.34 43.0786 119.485 43.6147 119.191C43.2883 117.444 43.0954 111.226 43.3702 109.507L43.6367 109.336C43.6787 110.895 43.4692 117.569 43.9253 118.477C44.5933 119.003 45.3573 119.105 46.272 119.549C45.1873 119.692 41.2309 119.916 40.3528 119.452L40.343 119.167C40.6433 118.919 40.9746 118.956 41.3822 118.928Z" fill="#FFFCF5"/>
<path d="M48.8832 110.153C49.1243 112.472 48.6839 115.315 49.0545 117.647C49.2041 118.587 50.0755 118.679 50.8922 119.261L50.8736 119.483C50.2586 119.798 46.9949 119.81 46.3342 119.507C46.6459 118.724 48.0753 118.773 48.0804 117.493C48.091 114.912 48.501 111.424 47.8325 108.92C47.7048 108.441 46.612 108.368 46.1642 107.78L46.2275 107.483C46.9781 107.232 48.5557 107.358 49.3562 107.462C48.8462 107.747 48.3729 107.878 47.8411 108.1C48.2695 108.786 48.2499 109.4 48.6225 110.077L48.8832 110.153Z" fill="#FFFCF5"/>
<path d="M3.43009 0H63.4671C63.9661 0.144543 65.8454 0.175589 66.4885 0.206872C67.4115 0.253698 68.3321 0.333151 69.2493 0.445083C75.9854 1.22776 82.3368 2.97825 88.1998 6.43438C95.5041 10.7395 101.104 17.5513 103.121 25.8643C105.289 34.802 104.468 46.0351 99.5632 53.9562C98.6783 55.3932 97.6669 56.7482 96.5413 58.0052C96.2362 58.3468 94.9237 59.6069 94.7662 59.8705C94.8171 60.1223 96.0007 60.9137 96.307 61.1497C103.155 66.4302 107.539 74.1374 108.755 82.6459C109.514 88.1964 108.866 93.8494 106.868 99.0836C106.536 99.9622 105.86 101.64 105.317 102.363C104.86 102.381 104.353 102.385 103.896 102.373C101.324 102.305 98.6192 102.497 96.0646 102.313C95.6183 102 95.2224 101.64 94.7972 101.298C93.6148 100.348 92.4774 99.2874 91.2587 98.3889C90.6707 97.956 89.3336 98.1599 88.8247 97.5589C88.4235 97.0839 88.3667 96.238 88.0317 95.7074C86.9354 93.8435 85.4379 92.3206 84.0569 90.67C83.5363 90.0954 83.0783 89.4505 82.5032 88.9286C81.9163 88.3955 80.4528 89.6912 79.9591 89.0797C79.7078 88.7675 79.3699 87.8613 79.1696 87.4396L77.2194 83.3734C76.8323 82.5563 76.4054 81.5845 75.9544 80.8108C75.7184 80.406 74.885 79.723 74.5248 79.3792C73.9831 78.8626 73.1327 79.6346 72.5717 79.8208C72.2759 79.9187 72.0516 79.9298 71.7348 79.9591C71.5784 79.8742 71.2323 79.6967 71.1122 79.5204C69.9649 77.8369 69.5362 74.9902 68.3596 73.4076C68.1676 73.1493 66.0615 72.0978 65.7547 71.9707C64.9289 72.208 64.0651 72.9735 63.3172 73.4597C62.7011 72.6479 61.7587 70.8414 61.2164 70.2809C60.4486 70.5995 60.1664 71.2602 59.2574 70.7284C58.0948 70.0489 57.6237 68.9934 56.9398 67.901C56.6929 67.5074 55.9619 66.9679 55.5951 66.6762C54.4981 65.9546 52.4174 64.4346 51.0911 64.6302C50.5287 64.7134 49.8586 65.4104 49.5137 65.8269C49.209 66.1432 48.6229 66.914 48.2095 67.0786C47.443 67.3838 46.8886 66.8496 46.4685 67.891C46.2372 68.4645 45.9444 69.1486 45.5505 69.6518C45.1304 70.1889 44.551 70.6675 44.2156 71.2643C43.7007 72.2267 43.1584 73.1563 42.6419 74.1204C42.0586 75.2087 41.6311 76.8728 40.8375 77.7795C39.8842 78.937 37.9285 79.4606 37.1031 80.7042C36.2483 81.9916 35.7298 83.7945 34.9145 85.137C34.6784 85.526 34.1788 86.2529 33.708 86.315C32.449 86.4802 32.1673 83.6662 30.8011 85.4211C29.5287 87.0524 28.4281 88.9227 26.7563 90.202C26.2053 90.6237 24.3107 90.6132 23.5761 90.7075C22.9587 90.7819 22.3048 90.588 21.8895 91.1005C20.5694 92.73 19.2176 94.2746 17.7884 95.8093C16.9332 96.7271 16.1218 97.6866 15.2487 98.5875C15.1209 98.7192 14.8393 98.9641 14.645 98.9992C14.4378 99.0045 14.0345 98.5388 13.8213 98.3801L13.7783 98.3485C13.4238 98.7755 10.8802 102.081 10.5291 102.127C8.93724 102.334 6.76529 102.157 5.11082 102.21C4.64038 102.225 4.0336 102.204 3.55619 102.179C-0.48519 101.651 0.0200309 98.0726 0.0203847 95.1691L0.0460644 11.3313C0.0441101 8.93444 0.0237867 6.53114 0.0462407 4.13506C0.0693142 1.67282 1.19893 0.641892 3.43009 0ZM51.7537 41.1957C53.0009 41.9626 54.7484 42.1853 56.2417 41.8279C61.4607 40.5788 62.7315 33.522 58.2048 30.6209C58.1573 30.5904 58.09 30.5714 58.0345 30.5537C58.8609 32.3156 59.2639 33.9125 58.5611 35.8354C57.9847 37.422 56.7945 38.7102 55.2585 39.4098C53.625 40.1497 51.9721 40.0895 50.3245 39.461C50.077 39.3651 49.8304 39.2667 49.5849 39.1657C50.1087 40.0034 50.8914 40.7139 51.7537 41.1957ZM23.1774 24.1989C23.5069 24.0201 23.629 23.6079 23.4501 23.2783C23.2712 22.9488 22.859 22.8268 22.5296 23.006C22.2004 23.185 22.0785 23.5969 22.2573 23.9262C22.4362 24.2556 22.848 24.3776 23.1774 24.1989ZM79.2809 34.5226C79.6223 34.4251 79.8261 34.0756 79.7424 33.7303C79.6592 33.3851 79.3178 33.1674 78.9699 33.2369C78.7316 33.2844 78.5389 33.4585 78.4668 33.6906C78.3954 33.9227 78.4563 34.1754 78.6261 34.349C78.796 34.5225 79.0472 34.5892 79.2809 34.5226ZM34.2176 47.5827C34.4054 47.4939 34.531 47.311 34.5464 47.1038C34.5618 46.8966 34.4647 46.6972 34.2921 46.5816C34.1196 46.4659 33.8982 46.452 33.7125 46.545C33.43 46.6866 33.3139 47.0293 33.4523 47.3136C33.5906 47.5978 33.9319 47.7178 34.2176 47.5827ZM42.3913 29.4776C42.6925 29.3706 42.8489 29.0386 42.7396 28.7382C42.6302 28.4378 42.2971 28.284 41.9976 28.3957C41.7014 28.5062 41.5497 28.8349 41.6579 29.132C41.766 29.4291 42.0934 29.5834 42.3913 29.4776Z" fill="#FFFCF5"/>
</svg>
