<svg width="200" height="44" viewBox="0 0 200 44" fill="none" xmlns="http://www.w3.org/2000/svg">
<path fill-rule="evenodd" clip-rule="evenodd" d="M32.3077 10.0529C33.4927 8.55864 36.3721 8.71723 37.3581 10.3724C37.7161 10.9732 37.7495 12.0927 37.7462 12.7799L37.8243 12.8386C38.5738 11.7979 39.1136 10.9336 40.2188 10.2446C43.2284 8.36861 47.8351 8.80427 50.6509 10.8916C56.1619 14.9769 56.4813 25.048 52.6881 30.3916C51.0057 32.7616 48.1373 34.1877 45.2464 34.1107C44.8218 34.2422 43.249 34.0059 42.774 33.92C40.2863 33.3356 39.8818 32.5126 38.3466 30.8623C38.2879 33.4288 38.3514 36.0257 38.3375 38.5974C38.3303 39.9281 38.4432 41.2796 37.3658 42.2839C36.1915 43.3955 33.5782 43.2965 32.5057 42.0881C32.0581 41.5804 31.8217 40.9614 31.743 40.2897L31.7417 11.5321C31.8393 10.9518 31.933 10.5254 32.3077 10.0529ZM46.8071 15.9412C44.8992 13.5638 40.9451 13.8026 39.3002 16.3476C37.4842 19.1572 37.4833 24.8785 39.775 27.3972C40.2851 27.9378 40.4709 28.122 41.127 28.4541C42.5627 29.289 44.9977 29.0006 46.2427 27.9204C47.6668 26.6849 48.2972 24.7072 48.4493 22.8906C48.6491 20.5023 48.3827 17.842 46.8071 15.9412Z" fill="#231F16"/>
<path d="M8.06478 0.605444C12.7869 -0.542793 17.7563 -0.119635 22.0502 2.40764C24.1451 3.64067 26.8122 6.36307 25.3684 9.13536C25.0727 9.70312 24.1354 10.3808 23.4715 10.4273C22.7142 10.6716 22.1242 10.6699 21.3652 10.4348C21.3485 10.4312 21.3319 10.428 21.3153 10.4242C18.9826 9.8834 18.7532 5.71246 12.7199 5.73112C11.408 5.73514 10.1099 5.92653 8.97755 6.62279C8.11503 7.15308 7.59009 7.91539 7.36941 8.89988C7.21751 9.57748 7.26142 10.2548 7.64829 10.8549C8.00859 11.4138 8.57984 11.8072 9.16677 12.0983C11.1679 13.0907 14.8049 13.6785 17.059 14.1884C20.9239 15.0626 24.8276 16.2622 26.4573 20.3155L26.5454 20.5991C27.5645 23.3785 27.1713 27.0412 25.5103 29.4857C23.8116 31.9858 20.7557 33.522 17.7981 33.9974C13.1116 34.7505 7.52243 34.4387 3.4853 31.694C1.79082 30.5172 0.468167 28.9642 0.0797235 26.8905C-0.278136 24.9799 0.569545 23.2892 2.60695 22.9755C5.80143 22.4838 6.4789 25.9205 8.67919 27.4416C10.5777 28.754 12.6852 29.0587 14.9656 28.7592C16.3706 28.5607 17.9296 27.9084 18.8004 26.7514C19.9254 25.2565 19.9199 23.1414 18.3019 21.9941C17.9365 21.7384 17.5401 21.5303 17.1222 21.3746C16.2864 21.0657 14.8284 20.7365 13.9205 20.5059L8.20724 19.0474C7.58641 18.8854 6.22235 18.542 5.74107 18.2087C3.22693 17.501 0.962192 15.1381 0.370871 12.5894C-0.968688 6.81513 2.20085 2.00989 7.90445 0.659776L8.06478 0.605444Z" fill="#231F16"/>
<path d="M147.031 1.97586C148.14 0.862368 150.126 0.896222 151.187 2.02844C151.37 2.32557 151.407 2.42681 151.527 2.74555C151.892 3.8836 151.74 8.59238 151.74 10.0406L151.739 27.7016C151.738 29.2218 151.993 32.1597 150.812 33.2462C149.024 34.8909 145.17 34.3486 144.916 31.4608C144.742 29.497 144.84 27.5612 144.818 25.591C144.791 21.3617 144.861 17.125 144.808 12.8966C143.356 12.8165 141.866 12.9143 140.405 12.8832C139.451 12.8629 137.919 13.038 137.167 12.3214C136.546 11.7984 136.4 9.68423 136.943 9.10942C138.644 7.30691 141.902 8.07367 143.867 6.43245C145.396 5.32434 145.761 3.25074 147.031 1.97586Z" fill="#231F16"/>
<path fill-rule="evenodd" clip-rule="evenodd" d="M119.935 9.4141C124.154 8.66271 127.38 9.02366 130.987 11.3371L131.085 11.4677C133.852 13.0581 136.436 18.6724 135.018 21.9253C134.852 22.3063 134.233 22.6455 133.827 22.7289C132.395 22.8936 130.621 22.8223 129.162 22.8207L121.548 22.8195C120.237 22.8196 118.688 22.7812 117.393 22.8338C117.591 28.1833 122.265 30.1097 126.889 28.242C127.927 27.8227 129.609 25.7475 130.553 25.7202C131.18 25.5876 131.328 25.5749 131.979 25.6952C133.652 26.1752 134.4 27.737 133.861 29.3575C133.428 30.6564 132.245 31.7583 131.047 32.3503C130.978 32.3847 130.908 32.4182 130.837 32.4508L130.6 32.5975C128.691 33.4488 126.166 34.1955 124.064 34.1055C123.622 34.1602 123.53 34.1721 123.087 34.1146C120.754 34.222 117.873 33.4437 115.947 32.2189C107.525 26.8662 109.563 11.2612 119.935 9.4141ZM125.137 14.0042C124.337 13.7551 123.703 13.7444 122.881 13.7762C121.433 13.8429 120.07 14.4799 119.09 15.548C118.062 16.686 117.873 17.6364 117.379 18.9544C119.342 19.0398 121.66 18.9814 123.648 18.9798C124.378 18.9821 128.69 19.0767 129.012 18.8573C129.125 18.4929 128.566 17.0939 128.367 16.7165C127.695 15.4186 126.532 14.4425 125.137 14.0042Z" fill="#231F16"/>
<path fill-rule="evenodd" clip-rule="evenodd" d="M69.3106 9.11426C74.2108 8.74068 82.0859 9.77937 81.6114 16.3604C81.5733 16.8936 81.6114 17.6048 81.6114 18.1524L81.6049 24.4084C81.6035 25.6689 81.5992 26.8055 81.6552 28.0962C81.7169 29.5173 82.5252 30.9784 82.2245 32.2642C82.0945 32.8205 81.4814 33.4914 80.9624 33.7498C80.0478 34.2057 78.7693 34.229 77.8016 33.9286C76.7442 33.6005 75.933 32.7884 75.61 31.7298C75.4937 31.3484 75.5001 30.9632 75.3228 30.6141C75.1397 30.6735 74.5683 31.168 74.4053 31.3186C71.1519 34.3259 64.9688 35.2935 61.3306 32.4672C60.8016 32.0566 60.3981 31.6052 59.9695 31.0814C59.439 30.2998 59.0808 29.4144 58.9185 28.4838C58.6235 26.7343 58.9537 24.6762 60.0026 23.2194C62.6731 19.5108 68.5159 19.8935 72.5417 19.2337C73.3278 19.1049 74.1835 18.8435 74.6566 18.1493C74.9997 17.6458 75.0586 16.929 74.9495 16.3387C74.8296 15.6855 74.4355 15.1248 73.8849 14.7598C73.0923 14.234 71.9782 14.0286 71.0435 14.0054C66.3213 13.8876 66.1045 17.2318 63.5596 17.7049C62.8216 17.8421 61.9752 17.6406 61.3708 17.1968C60.7965 16.7747 60.4434 16.1428 60.3486 15.4394C60.2101 14.4114 60.6666 13.4474 61.2825 12.6503C63.1785 10.1967 66.4147 9.49732 69.3106 9.11426ZM74.9495 22.6572C74.877 22.6504 74.8296 22.6335 74.7758 22.6574C73.116 23.5545 70.2962 23.7106 68.3486 24.0982C65.8059 24.6042 64.2258 27.3088 66.6522 29.0916C69.2445 30.6899 73.658 29.3733 74.7557 26.3762C74.9466 25.8546 75.1849 23.134 74.9495 22.6572Z" fill="#231F16"/>
<path d="M166.879 1.20057C168.774 1.14292 170.014 1.59246 170.093 3.78829C170.154 5.50151 170.106 7.2479 170.103 8.96557V26.7603C170.105 28.1465 170.136 29.5403 170.07 30.9117C169.989 32.8193 168.852 34.1275 166.89 34.1404C163.348 34.1638 163.182 31.9302 163.195 29.1405L163.196 18.6712C163.196 16.8915 163.256 14.618 163.166 12.8728C161.672 12.8578 157.158 13.1114 156.018 12.6246C155.6 12.4463 155.304 12.0628 155.159 11.6406C154.933 10.9852 154.91 9.85797 155.24 9.24634C156.047 7.75345 159.592 7.74449 161.111 7.11535C161.615 6.90709 162.106 6.56552 162.508 6.20048C164.388 4.49322 164.215 2.0738 166.879 1.20057Z" fill="#231F16"/>
<path d="M88.3034 13.8406C91.8921 8.49775 100.248 7.70061 105.444 11.011C108.336 12.853 109.931 17.4966 105.406 18.2192L104.822 18.2209C104.54 18.1671 104.235 18.1231 103.974 18.001C101.947 17.0533 102.242 14.1737 98.2855 14.268C97.2819 14.2831 96.3042 14.5893 95.4707 15.149C94.0048 16.1539 93.1721 17.8702 92.9051 19.6284C92.5404 22.0236 92.5705 24.6921 93.9481 26.7945C95.3293 28.9014 98.8691 29.6644 100.921 28.1791C102.54 27.007 103.178 24.2172 105.797 24.6401C106.433 24.7319 107.41 25.1759 107.741 25.719C109.181 28.0796 106.938 31.0158 105.145 32.2235L104.886 32.3802C102.978 33.5934 101.161 33.9908 98.9603 34.127C98.6639 34.085 98.1369 34.1769 97.6035 34.1089C95.3458 34.2436 92.4606 33.3827 90.6042 32.1336C85.0392 28.3884 84.887 19.0536 88.3034 13.8406Z" fill="#231F16"/>
<path fill-rule="evenodd" clip-rule="evenodd" d="M183.239 1.8224C186.999 0.779621 191.33 0.928869 194.834 2.76448C198.769 4.82622 200.333 9.71436 198.134 13.6119C197.357 14.9898 196.335 15.8198 194.955 16.5783C196.853 17.2342 198.313 18.3733 199.186 20.2089C200.251 22.4467 200.204 25.1975 199.433 27.5114C197.939 31.9937 193.304 33.9329 188.905 34.1151C188.307 34.1026 187.933 34.1583 187.265 34.1121C184.19 34.1555 180.729 33.0713 178.464 30.9363C175.284 27.9392 174.627 21.6715 177.793 18.4134C178.307 17.8933 178.895 17.4536 179.54 17.109C179.846 16.9419 180.409 16.7627 180.585 16.5777C180.544 16.4708 180.566 16.4446 180.476 16.3952C176.793 14.3731 175.668 9.74257 177.573 6.08887C178.697 3.93179 180.944 2.49125 183.239 1.8224ZM191.39 20.0152C190.165 19.0462 188.65 18.807 187.13 18.9545C180.852 19.5163 180.315 29.477 188.67 28.892C191.603 28.6016 193.608 26.5127 193.29 23.5011C193.146 22.1326 192.462 20.8777 191.39 20.0152ZM191.061 7.03985C189.73 6.13885 188.603 6.12701 187.095 6.16283C184.411 6.66255 182.599 8.33406 183.137 11.2357C183.317 12.2255 183.888 13.1012 184.721 13.6649C185.931 14.4926 187.334 14.5423 188.737 14.4781C190.021 14.2811 191.212 13.8776 191.986 12.7892C193.251 11.0119 192.908 8.29017 191.061 7.03985Z" fill="#231F16"/>
</svg>
