<svg width="109" height="120" viewBox="0 0 109 120" fill="none" xmlns="http://www.w3.org/2000/svg">
<path d="M87.1521 19.4381C86.6942 19.4381 86.0199 19.4381 85.6638 18.713C85.3584 18.1151 85.4602 17.161 84.9005 16.7285C85.4602 16.8939 86.0581 16.8939 86.5288 16.8939C88.0172 16.8939 89.442 15.8635 90.536 15.8635C91.63 15.8635 91.4901 16.3214 91.4901 16.7921C91.4901 18.2551 88.5515 19.4381 87.1649 19.4509M87.8773 23.1782C91.312 23.1782 94.4669 20.4304 94.4542 18.0134C94.4542 16.8812 93.9199 15.9652 92.5587 15.7999C92.7877 16.0924 92.8894 16.3341 92.8894 16.8557C92.8894 18.6749 90.1162 20.6975 87.1013 20.6975C84.0863 20.6975 85.6765 21.4608 85.6765 21.8552C85.6765 22.7838 86.567 23.1782 87.8645 23.1782M87.6228 24.5648C88.0554 27.707 92.8258 31.9432 94.1107 31.8414C94.9757 31.7651 95.3065 27.7324 95.2938 24.5648C95.2938 22.7457 95.3955 21.3209 94.4287 20.9901C92.9022 24.0687 88.9077 24.7048 87.6101 24.5775" fill="#FFFCF5"/>
<path d="M13.1269 45.4532C14.2464 45.4532 14.0174 38.571 15.8366 38.5583C16.2691 38.5583 16.3963 38.9908 16.3963 39.5251C16.3963 41.0771 15.633 43.3669 15.633 44.6263C15.633 45.8857 15.7984 45.4532 16.1037 45.4532C16.9051 45.4532 18.279 37.8713 19.6402 37.8713C21.0014 37.8713 20.2636 38.3038 20.2636 38.7364C20.2636 40.3265 18.2536 44.8935 18.2536 46.191C18.2536 47.4886 18.3172 46.5599 18.4826 46.5599C19.3095 46.5599 20.9632 42.9853 21.4848 41.1916C21.7774 40.2629 22.1845 39.7668 22.5407 39.7668C22.8969 39.7668 23.164 40.1357 23.1767 40.899C23.1767 42.68 21.523 46.8907 20.0727 49.7021C18.9533 51.8902 17.1977 55.0323 17.1977 56.7879C17.1977 58.5434 17.3631 58.607 18.6607 59.7265C16.5362 59.5993 15.6839 59.3957 14.8825 57.742C11.3459 64.8023 21.4085 64.0899 17.9737 70.3488C17.3377 69.2293 12.3764 68.0717 12.3764 61.5202C12.3764 54.9687 17.3377 52.5517 17.325 50.1982C17.325 49.7403 17.1596 49.3332 16.727 48.977C15.633 48.0483 15.5949 47.2851 14.7425 47.2851C13.8902 47.2851 13.3559 48.748 14.1446 50.0329C14.4118 50.4654 14.6408 50.7325 14.6408 51.1269C14.6408 52.0555 13.1905 54.5362 12.1601 54.5362C11.1297 54.5362 10.341 51.9919 10.3282 47.883C10.3282 44.2447 11.1424 40.5682 12.1728 40.5682C13.2032 40.5682 12.5672 40.7718 12.5672 41.0262C12.5672 41.4587 12.44 42.311 12.44 43.774C12.44 45.2369 12.8089 45.4659 13.1015 45.4659" fill="#FFFCF5"/>
<path d="M21.5739 55.1468C22.9605 55.1468 24.1181 54.1164 24.1181 51.8393V48.4554C24.1181 47.1706 24.2072 45.7076 25.0722 44.6772C24.9704 45.1097 24.9704 45.5677 24.9704 46.0002C24.9704 48.8498 26.5606 50.7961 26.5606 53.5439C26.5606 56.2917 26.268 55.1341 25.4666 55.1341C24.6651 55.1341 24.7669 54.4344 24.6015 54.4344C24.4362 54.4344 24.2708 54.867 24.2708 55.3249C24.2708 56.0246 24.7669 57.1059 26.1535 57.1059C27.5401 57.1059 28.3034 56.0119 28.3034 54.7906C28.3034 51.8138 25.9754 48.5063 25.9754 45.326C25.9754 42.1457 26.3316 43.0107 26.6369 42.2856C26.6369 48.8752 32.2343 53.6712 32.247 56.419C32.247 57.0423 31.7891 57.5511 31.0894 57.5511C30.3897 57.5511 29.9572 56.9532 29.9572 56.4953C29.9572 56.0373 29.919 56.2027 29.83 56.2027C29.6392 56.2027 29.0413 56.8642 29.0413 57.7292C29.0413 58.5943 29.9318 60.1463 31.5982 60.1463C33.2647 60.1463 34.5114 58.5561 34.5114 57.1313C34.5114 53.6584 27.7182 48.4045 27.7182 42.769C27.7182 37.1335 27.8836 40.2502 28.5706 39.0671C24.2072 41.8785 22.846 45.6313 22.8587 48.9007C22.8587 51.7502 22.7569 53.175 21.3067 53.175C19.8565 53.175 20.3399 52.4753 20.0855 52.4753C19.831 52.4753 19.7929 53.0733 19.7929 53.2386C19.7929 54.4599 20.6834 55.1595 21.5866 55.1595" fill="#FFFCF5"/>
<path d="M71.6958 17.8353C72.1156 17.5554 73.9856 18.0006 76.3899 16.8048C76.6825 16.6395 76.9878 16.5759 77.255 16.5759C78.4126 16.5759 78.12 17.8989 79.1759 17.8989C80.2318 17.8989 81.0586 17.1992 81.6947 17.1992C82.687 17.1992 84.1118 20.3032 84.1118 21.7661C84.1118 23.2291 81.5675 24.4885 78.5525 24.4885C74.151 24.4885 71.505 20.6594 71.4922 18.166C71.4922 17.9625 71.594 17.8989 71.6958 17.8353ZM78.9087 22.0333C80.3717 22.0333 81.453 21.3718 81.453 20.9647C81.453 20.5576 81.2495 20.7357 80.8169 20.7357C80.3844 20.7357 79.5194 20.6976 77.9038 20.4431C76.5171 20.2141 75.4485 19.6798 75.0542 19.6798C74.6598 19.6798 74.8507 19.7435 74.8507 19.8452C74.8507 20.7103 76.4408 22.0333 78.896 22.0333" fill="#FFFCF5"/>
<path d="M22.2863 67.6264C21.1922 67.8936 19.4367 69.6109 19.4494 72.3333C19.4494 75.5772 22.935 80.5767 28.6596 80.564C33.4937 80.564 34.6768 77.2183 34.6768 74.9666C34.6768 69.9671 31.5982 66.4561 27.591 66.4688C25.403 66.4688 23.4566 68.0589 23.4566 70.4124C23.4566 72.7658 25.1104 75.8698 29.054 75.8698C32.9976 75.8698 31.9926 74.5468 31.9926 73.0202C31.9926 71.4937 30.6314 69.4837 28.6469 69.4837C26.6624 69.4837 27.6165 69.8781 27.6292 70.5141C27.6292 71.3029 28.7232 72.1043 30.0844 72.1043C31.4456 72.1043 30.6823 72.0407 30.8095 71.9771C30.8731 72.0789 30.9113 72.2442 30.9113 72.3715C30.9113 73.1347 30.1862 73.5927 29.054 73.6054C27.3621 73.6054 25.7464 72.346 25.7337 70.3615C25.7337 69.1784 26.7642 68.3134 28.2525 68.3134C31.2039 68.3134 32.9594 70.9212 32.9594 73.5418C32.9594 76.1624 31.6746 77.2437 29.0285 77.2564C23.7365 77.2564 21.1413 72.4987 22.299 67.6646" fill="#FFFCF5"/>
<path d="M60.0812 86.9882C61.6714 86.9882 61.5823 86.861 62.0785 86.861C62.5746 86.861 62.6128 87.1536 62.6128 87.3571C62.6128 88.0823 60.9844 88.9855 58.1094 88.9855C55.2344 88.9855 55.3871 88.095 55.0945 87.1027C53.4407 88.1586 50.9219 89.1254 48.4412 89.1254C41.6608 89.1254 39.9307 86.1868 37.819 85.2327C36.1906 84.5076 33.71 85.9324 30.2371 82.0651C30.695 82.1669 31.3311 82.1923 31.8272 82.1923C34.8676 82.1923 36.4959 80.7039 36.4832 78.3123C36.4832 78.0197 36.4451 77.689 36.4196 77.3837C37.3483 77.7526 39.4727 79.33 39.9689 82.1414C40.0325 82.4722 41.3936 82.7648 42.246 82.7648C43.0983 82.7648 44.9556 82.2686 45.1846 80.3095C49.1536 79.9788 51.8378 77.6254 52.3976 74.6358C53.8224 75.0938 55.438 76.3914 55.845 77.0529C56.4048 76.8494 57.0663 76.7603 57.8296 76.7476C58.8854 76.7476 60.0812 76.9384 61.506 77.3709C61.5696 76.9384 61.6332 76.4041 62.2947 76.4041C63.287 76.4041 63.0198 77.4981 63.3506 78.1215C63.516 78.4522 64.3429 78.6558 64.3429 79.3173C64.3429 79.9788 63.8086 80.1823 63.4778 80.1823C63.1471 80.1823 63.1852 80.1442 63.0835 80.1187C62.4219 80.3477 62.3965 85.1182 59.6105 85.1182C56.8246 85.1182 55.6669 83.439 54.8401 81.3145C54.6111 80.6912 54.1149 80.2841 53.6443 80.2841C53.1736 80.2841 52.8174 80.3859 52.194 81.0855C50.413 83.0319 47.4363 84.7238 43.7598 84.7366C42.6276 84.7366 41.7371 84.6348 41.5081 84.6348C41.2792 84.6348 41.3809 84.673 41.3809 84.6984C41.3809 84.9274 42.5131 85.8306 44.9556 85.8179C50.782 85.8179 52.2067 82.5358 53.1227 82.5358C54.0386 82.5358 53.657 82.5358 53.886 83.0701C55.2471 86.2377 58.2112 86.9755 60.0685 86.9628M57.5115 80.3732C57.5115 81.0983 58.1094 81.6962 58.8345 81.6962C59.5597 81.6962 60.1576 81.0983 60.1576 80.3732C60.1576 79.648 59.5597 79.0501 58.8345 79.0501C58.1094 79.0501 57.5115 79.648 57.5115 80.3732Z" fill="#FFFCF5"/>
<path d="M83.7174 63.8228C83.2594 63.8228 82.7633 64.1917 82.7633 65.0822C82.7633 65.9726 83.5266 66.6978 83.9591 66.9013C84.1881 67.0285 84.557 67.1684 84.9132 67.1684C85.88 67.1684 86.6306 66.9013 86.6306 66.0999C86.6306 65.2984 85.1422 63.8228 83.7174 63.8228ZM80.1427 65.8836C79.443 65.8836 75.6012 71.023 73.1333 71.023C70.6653 71.023 72.0392 69.9035 72.0392 69.0385C72.0392 68.1734 72.3318 68.237 73.4004 68.008C79.0868 66.7105 77.8274 62.4361 82.687 62.4361C87.5465 62.4361 88.348 64.2553 88.3607 68.3515C88.3607 72.7277 82.1527 78.1597 81.224 78.1597C80.2954 78.1597 79.6339 77.0656 79.6339 76.3405C79.6339 75.6154 79.7356 75.8062 80.3971 75.5518C83.5647 74.2924 85.3839 71.3792 85.3839 69.8908C85.3839 68.4024 85.2185 69.2293 84.786 69.2293C84.3535 69.2293 81.8219 74.7249 79.1377 74.7249C76.4535 74.7249 75.3977 73.0457 75.3977 72.2442C75.3977 70.9212 80.7661 68.466 80.7533 66.6087C80.7533 65.909 80.4226 65.8836 80.1554 65.8836" fill="#FFFCF5"/>
<path d="M14.6026 22.5549C14.6026 22.5549 13.6485 23.28 12.4527 23.28C11.2569 23.28 9.90843 22.2241 9.90843 20.7357C9.90843 19.2473 10.43 18.6494 11.664 18.1151C11.6258 18.3187 11.6258 18.484 11.6258 18.6749C11.6258 20.5576 12.6817 21.9824 14.6026 22.5421M21.6884 28.9028C20.9632 29.7678 20.2 31.2181 20.2 32.7065C20.2 34.1948 21.294 35.9758 22.9859 35.9758C24.6779 35.9758 25.3648 34.5892 25.3648 33.1644C25.3648 30.9509 23.3421 29.3862 21.6884 28.9028ZM10.6972 30.2258C10.6335 30.3276 10.5954 30.4548 10.5954 30.5947C10.5954 30.8873 10.9261 31.2181 11.2187 31.2181C11.5113 31.2181 11.6513 31.1545 11.7785 31.1545C12.5672 31.1545 13.4704 31.7142 14.7552 31.7142C16.0401 31.7142 16.409 31.4852 17.5285 30.9128C19.9074 29.717 20.836 26.7783 20.836 26.2695C20.836 25.7606 20.3272 25.7225 19.9074 25.1373C19.4876 24.5648 19.6402 24.056 19.3731 23.7761C19.2204 23.6234 18.7497 23.6107 18.1518 23.5471C17.9483 23.5217 17.6939 23.509 17.4267 23.509C16.3327 23.509 15.0351 23.6489 13.5849 24.5775C10.7099 26.4094 11.1424 29.4498 10.6844 30.2131M18.4699 26.1168C18.6988 26.4221 19.3349 26.8165 19.3349 27.0455C19.3349 27.5034 19.0678 28.1013 18.5462 28.1013C17.3886 28.1013 16.4599 26.3458 16.4599 25.3535C16.4599 24.3613 16.8288 24.6539 17.325 24.6539C17.8211 24.6539 17.6557 24.692 17.8211 24.7811C18.1137 24.9465 18.1137 25.608 18.4826 26.1041M15.4295 30.1622C14.3354 30.1622 13.1396 28.8137 13.1396 27.5798C13.1396 26.3458 13.6358 26.0914 13.992 26.0914C14.3482 26.0914 14.1955 26.1932 14.221 26.4221C14.4245 28.0377 15.4804 28.9664 16.4726 29.4371C16.5744 29.5007 16.638 29.5389 16.638 29.6025C16.638 29.8314 16.0147 30.1622 15.4168 30.1622M18.2409 21.817C18.4063 21.2827 18.5335 20.6212 18.5335 19.8961C18.5335 18.3059 17.7956 15.8889 15.544 15.8889C13.2923 15.8889 13.3305 16.9193 13.3305 18.1406C13.3305 20.7612 15.951 21.817 18.2282 21.8043M9.67945 35.0599C9.67945 37.5787 10.4427 38.7618 11.8039 38.7618C13.1651 38.7618 14.2846 37.9985 15.9765 36.5356C14.6916 36.8409 13.6867 37.0317 12.7962 37.0317C11.9057 37.0317 10.6844 36.5737 9.67945 35.0472M10.8371 32.1213C10.7989 32.2867 10.7989 32.452 10.7989 32.6174C10.7989 34.1694 11.6258 35.0345 12.7198 35.0345C13.8139 35.0345 14.5008 34.5383 15.3659 33.4443C14.997 33.5079 14.5771 33.5461 14.1701 33.5461C12.9488 33.5461 11.6258 33.2153 10.8244 32.1213M18.9406 31.6506C18.1773 31.8541 16.5871 32.7828 16.5871 34.4366C16.5871 36.0903 17.5158 36.3829 18.6734 36.3829C19.831 36.3829 19.7038 36.243 19.9583 36.0522C19.0296 35.1617 18.6988 34.1694 18.6988 33.1771C18.6988 32.1849 18.8006 32.0577 18.9278 31.6506M20.1236 22.5803C20.1236 23.3054 20.7215 23.9033 21.4466 23.9033C22.1718 23.9033 22.7697 23.3054 22.7697 22.5803C22.7697 21.8552 22.1718 21.2573 21.4466 21.2573C20.7215 21.2573 20.1236 21.8552 20.1236 22.5803ZM21.8537 25.5571C21.8537 26.2822 22.4516 26.8801 23.1767 26.8801C23.9019 26.8801 24.4998 26.2822 24.4998 25.5571C24.4998 24.832 23.9019 24.2341 23.1767 24.2341C22.4516 24.2341 21.8537 24.832 21.8537 25.5571Z" fill="#FFFCF5"/>
<path d="M73.5022 41.764C73.5022 41.1025 74.1001 40.5428 74.7489 40.5428C75.3977 40.5428 76.0465 41.1025 76.0465 41.764C76.0465 42.4255 75.4867 43.0616 74.7489 43.0616C74.011 43.0616 73.5022 42.5273 73.5022 41.7767M61.8749 31.5743C61.8749 32.2994 62.4728 32.8973 63.1979 32.8973C63.9231 32.8973 64.521 32.2994 64.521 31.5743C64.521 30.8491 63.9231 30.2512 63.1979 30.2512C62.4728 30.2512 61.8749 30.8491 61.8749 31.5743ZM60.7555 36.243C60.7555 37.2734 61.6205 38.1257 62.6382 38.1257C63.6559 38.1257 64.521 37.2607 64.521 36.243C64.521 35.2253 63.6559 34.3602 62.6382 34.3602C61.6205 34.3602 60.7555 35.2253 60.7555 36.243ZM64.928 34.1185C64.928 35.2507 65.8185 36.1412 66.938 36.1412C68.0575 36.1412 68.9607 35.2507 68.9607 34.1185C68.9607 32.9863 68.0575 32.0958 66.938 32.1086C65.8185 32.1086 64.928 32.999 64.928 34.1312M65.0807 29.8187C65.0807 30.5184 65.6404 31.0781 66.3274 31.0781C67.0143 31.0781 67.5868 30.5184 67.5868 29.8187C67.5868 29.119 67.0271 28.5593 66.3274 28.5593C65.6277 28.5593 65.0807 29.119 65.0807 29.8187ZM71.0724 26.6384C71.0724 27.3381 71.6322 27.8978 72.3318 27.8978C73.0315 27.8978 73.5912 27.3381 73.5912 26.6384C73.5912 25.9387 73.0315 25.379 72.3318 25.379C71.6322 25.379 71.0724 25.9387 71.0724 26.6384ZM68.5918 30.7092C68.5918 31.8668 69.5586 32.8209 70.7162 32.8209C71.8739 32.8209 72.8407 31.8541 72.828 30.6965C72.828 29.5389 71.8611 28.5848 70.7035 28.5848C69.5459 28.5848 68.579 29.5516 68.5918 30.7092ZM65.1952 38.4565C65.1952 39.1816 65.7931 39.7795 66.5182 39.7795C67.2433 39.7795 67.8412 39.1816 67.8412 38.4565C67.8412 37.7314 67.2433 37.1335 66.5182 37.1335C65.7931 37.1335 65.1952 37.7314 65.2079 38.4565M69.5204 35.8105C69.5204 36.5356 70.1183 37.1335 70.8434 37.1335C71.5686 37.1335 72.1665 36.5356 72.1665 35.8105C72.1665 35.0853 71.5686 34.4874 70.8434 34.4874C70.1183 34.4874 69.5204 35.0853 69.5204 35.8105ZM68.2992 40.4664C68.2992 41.7259 69.3296 42.7436 70.589 42.7436C71.8484 42.7436 72.8788 41.7131 72.8661 40.4537C72.8661 39.1943 71.8357 38.1766 70.5763 38.1766C69.3169 38.1766 68.2865 39.207 68.2865 40.4664M73.0697 37.655C73.0697 38.5201 73.7693 39.207 74.6217 39.207C75.474 39.207 76.1737 38.5074 76.1737 37.6423C76.1737 36.7773 75.474 36.0903 74.6089 36.0903C73.7439 36.0903 73.0569 36.79 73.0569 37.6423M72.9679 33.4825C72.9679 34.2457 73.604 34.8691 74.3545 34.8691C75.1051 34.8691 75.7411 34.233 75.7411 33.4697C75.7411 32.7065 75.1051 32.0831 74.3418 32.0831C73.5785 32.0831 72.9552 32.7065 72.9552 33.4697" fill="#FFFCF5"/>
<path d="M76.3772 76.913C75.5122 77.5745 73.5022 79.0629 70.1565 79.0629C66.8108 79.0629 67.5741 78.5031 67.3069 78.5031C67.0398 78.5031 66.6072 78.8339 66.251 79.2664C65.4623 80.1951 64.4446 81.9124 64.4446 83.8079C64.4446 85.7034 65.4751 86.4539 67.3833 86.4539C73.5785 86.4539 78.2091 82.5739 78.2091 79.4318C78.2091 76.2896 77.1532 76.913 76.3899 76.913M74.6598 76.544C74.927 76.3151 74.9906 75.9461 74.9906 75.5772V74.8139C74.9906 73.8598 73.5404 73.3001 71.5558 73.3001C69.5713 73.3001 67.8412 74.3941 67.8412 74.8521V76.3787C67.8412 77.0147 69.3042 77.6381 71.0851 77.6381C72.8661 77.6381 73.8075 77.2692 74.6598 76.544ZM69.6349 84.0242C69.9021 83.2354 70.0929 82.4086 70.0929 81.6071C70.0929 80.8057 70.0547 81.1492 70.0293 80.8438H70.4618C73.0824 80.8438 74.2019 79.8134 74.3927 79.8134C74.5835 79.8134 74.7616 79.9152 74.7616 80.5131C74.7616 81.111 74.4308 82.205 73.2478 82.9683" fill="#FFFCF5"/>
<path d="M61.7096 39.3851C62.0785 42.1965 65.8567 40.7718 65.8567 44.1811C65.8567 47.5904 65.7295 45.4023 65.7295 46.0384C65.7295 46.6744 65.7931 47.3996 66.3528 47.3996C66.9126 47.3996 67.0525 47.0052 67.0525 46.4709C67.0525 45.9366 66.9126 45.2751 66.9126 44.9189C66.9126 43.7613 67.7394 43.4941 68.2356 43.4941C69.495 43.4941 70.4618 44.779 72.3446 44.779C71.912 46.9034 67.5359 46.3437 67.5486 48.659C67.5486 49.8166 68.7063 50.0837 69.4695 50.0837C70.2328 50.0837 70.3982 49.982 70.3982 49.3841C70.3982 48.7862 70.3346 48.6844 70.3346 48.4554C70.3346 48.2264 70.4364 48.1883 70.6017 48.1883C71.3268 48.1883 74.9015 50.8979 74.9015 51.7248C74.9015 52.5517 71.136 53.2514 70.042 53.2514C68.948 53.2514 69.6476 53.0224 69.6476 52.8824C69.6476 52.6535 70.2074 51.9538 70.2074 51.5594C70.2074 51.1651 69.7112 51.0633 68.3882 51.0633C67.0652 51.0633 67.2942 51.1269 67.2942 51.623C67.2942 52.5135 68.7571 53.6075 68.7571 54.4344C68.7571 55.2613 68.3628 55.4903 67.2942 55.4903C66.2256 55.4903 65.0425 54.7906 65.0425 53.633C65.0425 52.4753 65.9966 51.7757 65.9966 51.2159C65.9966 50.6562 65.8694 50.7834 65.4751 50.7834C64.2538 50.7834 63.9231 54.0273 59.5851 54.3963C60.2848 53.7729 60.8699 53.0733 60.8699 51.6485C60.8699 50.2237 60.7046 50.3891 60.7046 49.6258C60.7046 48.8625 61.1625 48.1374 61.824 48.1374C63.0453 48.1374 63.6432 49.8548 64.4446 49.8548C65.2461 49.8548 65.3351 49.4604 65.3351 48.8625C65.3351 46.3437 60.501 46.7126 60.501 43.1761C60.501 39.6396 60.8318 41.0262 61.7223 39.3724M77.5094 49.066C77.5094 49.8929 77.7766 50.847 78.6034 50.847C79.4303 50.847 79.8883 49.7912 79.8883 48.6335C79.8883 47.4759 79.6593 46.2801 79.6593 45.7585C79.6593 45.2369 79.7611 45.4278 79.8883 45.4278C80.3844 45.4659 80.8551 46.8144 81.3767 46.8144C81.8982 46.8144 82.8651 45.7203 83.2213 45.7203C83.5775 45.7203 83.3485 45.8476 83.3485 45.8857C83.3485 46.3818 82.5852 47.4759 82.5852 47.9084C82.5852 48.3409 84.5061 48.3409 84.5061 48.6717C84.5061 49.1678 82.4961 49.1678 81.5293 49.6003C80.6007 49.9947 80.0409 50.4908 80.0409 51.1523C80.0409 51.8138 80.7024 51.9411 81.6311 51.9411C83.8446 51.9411 85.3966 50.7453 85.8927 50.7453C86.3889 50.7453 86.0581 50.8089 86.0581 50.9106C86.0581 51.2414 84.9386 52.3354 84.9386 52.8315C84.9386 53.3277 86.9995 54.0528 86.9613 54.3835C86.9232 54.4853 86.7959 54.5108 86.567 54.5108C86.198 54.5108 85.6383 54.409 85.2058 54.409C84.7733 54.409 84.7097 54.4472 84.6079 54.5744C84.3789 54.8415 84.6715 56.597 84.2135 56.597C83.7556 56.597 82.6488 52.6916 80.1045 52.6916C77.5603 52.6916 79.4812 52.9842 79.4812 53.4803C79.4812 54.8033 80.7788 56.3299 82 57.055C82.5598 57.4239 83.4884 57.7801 83.4884 57.9837C83.4884 58.378 81.3767 58.0218 81.3767 58.6833C81.3767 59.3448 81.6438 60.1717 81.6438 60.706C81.6438 61.2403 81.6057 61.0749 81.4148 61.0749C81.0205 61.0749 80.0537 59.2558 79.5957 59.2558C79.1377 59.2558 78.3363 60.3498 77.9674 60.3498C77.5985 60.3498 77.802 60.2481 77.802 60.159C77.802 59.3957 79.0232 57.6784 79.0232 55.9864C79.0232 54.2945 78.9215 53.4676 77.9546 53.4676C76.9878 53.4676 76.2627 54.727 75.8684 55.9864C75.6394 56.7115 75.8047 59.5229 75.2704 59.5229C74.7362 59.5229 74.9015 57.6402 74.24 57.6402C73.5785 57.6402 72.688 58.5307 72.3318 58.5307C71.9756 58.5307 72.2046 58.4925 72.2046 58.4289C72.2046 58.0346 73.1587 56.737 73.1587 56.4698C73.1587 55.9737 70.9707 55.9101 70.9707 55.5157C70.9707 55.1214 71.8357 55.1214 72.6244 54.9814C74.3036 54.6761 76.7843 53.4549 76.7843 51.7375C76.7843 50.0201 74.927 48.9897 73.7057 48.201C73.0697 47.8066 72.3827 47.4759 72.3827 47.2087C72.3827 46.9416 73.1842 46.9416 73.5149 46.9416C74.011 46.9416 74.5072 46.9034 74.5072 46.5091C74.5072 46.1147 74.4436 45.6186 74.4436 45.1479C74.4436 44.6772 74.4817 44.55 74.6089 44.55C75.1051 44.55 75.8047 46.1656 76.1355 46.1656C76.6698 46.1656 77.3949 44.8426 77.891 44.8426C78.3872 44.8426 78.12 44.9443 78.12 45.2369C78.12 46.4582 77.4967 47.8448 77.4967 49.0406" fill="#FFFCF5"/>
<path d="M62.6891 58.2508C64.2157 58.4544 64.5846 58.9759 64.5846 59.4085C64.5846 60.1336 63.9231 60.3626 63.287 60.3626C62.6509 60.3626 62.2947 60.2608 61.735 60.2608C61.1753 60.2608 60.2848 60.4262 59.6869 61.1258C60.1194 61.1894 60.7427 61.4948 60.7427 62.1563C60.7427 64.0772 55.4125 62.487 55.4125 67.4229C55.4125 72.3587 58.1349 72.8803 62.2311 72.8803C66.3274 72.8803 65.704 72.1806 65.704 71.3919C65.704 70.6032 64.5718 71.1884 64.5718 70.6668C64.5718 70.1452 64.9662 70.0053 64.9662 69.6364C64.9662 69.2675 64.839 69.1784 64.5718 69.1784C63.9739 69.1784 62.8545 70.1325 60.5646 70.1452C58.7709 70.1452 57.0154 69.1275 57.0154 67.7282C57.0154 66.3288 57.1426 67.2702 57.3461 67.2575C57.5497 67.2575 57.8041 67.3847 58.0458 67.3847C58.2875 67.3847 58.2748 67.2448 58.2748 66.8886C58.2748 66.5324 58.2748 65.502 58.8981 65.502C59.5215 65.502 60.7173 67.8172 65.297 67.8172C69.8766 67.8172 69.7621 67.5119 70.8562 66.5197C70.8307 70.158 67.9812 74.9666 62.0276 74.9666C56.074 74.9666 52.5248 70.0053 52.5248 65.4384C52.5248 60.8714 56.6465 55.7702 62.3202 55.7702C67.9939 55.7702 65.0044 56.2663 65.0044 56.8896C65.0044 57.513 62.8545 57.2204 62.6891 58.2508ZM72.8534 59.9936C73.0824 60.3498 73.1842 60.7187 73.1842 61.0495C73.1842 61.9782 72.5608 62.8432 72.5608 63.7973C72.5608 64.7514 73.3877 65.7818 74.6471 65.7818C75.9065 65.7818 76.9369 64.6878 76.9369 63.4029C76.9369 62.1181 75.3468 60.159 72.8661 59.9936M61.9004 62.1308C62.2311 62.4616 62.3329 62.7923 62.3329 63.1231C62.3329 63.6192 62.1039 64.1535 62.1039 64.7132C62.1039 65.273 62.7018 66.2016 63.5541 66.2016C64.4065 66.2016 65.1189 65.4765 65.1061 64.6115C65.1061 63.3521 63.8086 62.1308 61.8876 62.1308M66.3019 56.4953C69.7749 57.1568 71.6703 59.7647 71.6703 62.2199C71.6703 64.6751 70.6145 65.4638 68.7571 65.4638C66.8998 65.4638 65.844 64.3062 65.844 62.4488C65.844 60.5915 66.9253 59.5993 66.9253 58.1745C66.9253 56.7497 66.7599 57.055 66.3019 56.4826M68.0193 60.8969C68.0193 61.3548 68.3501 61.7237 68.8208 61.7237C69.2914 61.7237 69.6858 61.2658 69.6858 60.7315C69.6858 60.1972 69.0497 59.0777 68.4518 59.0777C67.8539 59.0777 68.2865 59.4721 68.2229 59.9046C68.1847 60.2353 68.0193 60.6297 68.0193 60.8969Z" fill="#FFFCF5"/>
<path d="M31.4583 26.8674C32.5778 26.8674 33.8626 20.7739 33.8626 19.7435C33.8626 18.713 33.7609 19.2855 33.5319 19.2855C32.5015 19.2855 31.0894 25.0864 31.0894 26.3713C31.0894 27.6561 31.153 26.8674 31.4583 26.8674ZM39.5618 28.6865C40.3887 28.6865 41.3173 25.5062 41.3046 23.5217C41.3046 23.0892 41.241 22.6312 41.0374 22.6312C40.3378 22.6312 39.1929 25.9133 39.1929 27.6943C39.1929 29.4752 39.3582 28.6865 39.5618 28.6865ZM34.1679 25.7352C34.5369 25.7352 34.9948 25.3408 35.8599 24.374C35.9235 23.9415 35.9235 23.5471 35.9235 23.051C35.9235 22.5549 35.6563 21.6644 35.262 21.6644C34.2697 21.6644 33.7736 24.3104 33.7736 25.0101C33.7736 25.7097 33.9771 25.7352 34.1679 25.7352ZM38.6967 24.3867C38.6967 23.827 38.5568 23.6871 38.4296 23.6871C38.0988 23.6871 37.7299 24.0814 37.2083 24.9846C37.2719 26.1804 37.4755 26.702 37.8062 26.702C38.137 26.702 38.6967 25.5444 38.6967 24.3867ZM41.241 20.4686C43.4291 20.4686 44.4213 22.3513 44.4213 24.4758C44.4213 26.6002 44.1542 26.7656 43.7344 26.7656C43.3146 26.7656 43.3654 26.0023 43.3018 25.3027C43.2382 24.4122 43.0729 24.2086 42.7675 24.2086C42.2078 24.2086 41.8389 25.5316 41.8389 26.7529C41.8389 27.9741 41.9661 28.3685 42.564 28.3685C43.1619 28.3685 43.1873 28.2031 43.3909 27.9996C43.2637 29.5261 42.1315 30.8491 40.5413 30.8491C37.6281 30.8491 36.5341 27.4398 36.2034 25.4553C34.4478 27.3126 32.8322 28.6738 29.919 28.6738C27.0059 28.6738 25.9754 26.6893 25.9754 24.8065C25.9754 22.9238 26.1663 22.7838 26.8659 22.7838C27.5656 22.7838 26.9677 25.4935 28.5833 25.4935C30.1989 25.4935 29.7028 25.1627 30.1099 24.0687C30.3388 23.4072 30.4788 22.7075 30.4788 22.1096C30.4788 21.2191 30.2752 20.6594 29.6137 20.6594C28.9522 20.6594 28.3543 21.0919 28.1253 21.3209C28.9141 18.942 30.835 17.708 32.9594 17.708C35.0839 17.708 36.9666 20.0233 36.9666 22.6057C36.9666 25.1882 36.9285 23.369 36.8649 23.7252C37.9843 21.8679 39.5491 20.4431 41.2283 20.4431" fill="#FFFCF5"/>
<path d="M35.0584 29.3862C33.6337 29.3862 33.57 31.1163 33.57 34.5892C32.5142 32.3121 30.7586 29.8569 28.6978 29.8569C26.6369 29.8569 26.7769 30.7855 26.7769 32.4011C26.7769 34.0167 26.815 33.228 26.8786 33.5206C27.044 32.9609 27.5783 32.7319 28.2398 32.7319C29.6646 32.7319 31.382 33.8259 32.5142 35.3143C31.2293 35.0853 29.9699 34.8564 28.9013 34.8564C27.8327 34.8564 27.6419 34.92 27.1458 35.1617C26.1917 35.5942 24.8941 37.019 24.8941 39.1689C24.8941 41.3188 24.9323 39.8685 24.9959 40.2629C26.1535 37.6805 29.2321 36.5228 31.2166 36.5228C33.2011 36.5228 31.9163 36.561 32.1453 36.5865C31.1148 37.5151 30.8858 39.1307 30.8222 40.2247C30.7841 40.759 30.5933 40.7845 30.2243 40.7845C30.2243 41.8785 31.0894 43.4941 31.0894 44.321C31.0894 45.1479 30.924 44.8807 30.7586 44.9571C30.7586 46.4073 32.2216 47.4759 32.2216 48.3918C32.2216 49.3077 32.158 48.8243 32.0562 48.9261C32.158 49.524 33.7609 50.529 33.9644 51.0251C34.2188 51.6357 34.5114 51.7375 34.6768 51.7375C35.2365 51.7375 36.127 51.076 36.127 50.4781C36.127 49.8802 35.9616 50.0456 35.8344 49.9438C35.1984 49.4858 34.8676 48.4936 34.6005 47.8321C34.3715 47.8321 34.0662 47.7303 33.9644 47.3487C33.7863 46.6617 33.7736 45.3896 33.5064 44.6263C33.0739 44.5245 32.8704 44.3592 32.8704 43.4687C32.8704 42.5782 33.1375 41.3442 33.1375 40.759C32.934 40.759 32.6796 40.6318 32.6796 40.2247C32.6796 39.1689 33.7354 38.342 34.028 36.9808C35.9235 38.3674 36.3815 39.7922 36.3815 41.0516C36.3815 42.311 36.2797 42.3365 36.1525 42.9344C37.5391 42.2347 39.6254 41.2043 39.6254 39.118C39.6254 37.0317 39.0656 36.5356 35.3129 36.014C36.4705 35.5815 37.9335 35.3525 39.1547 35.3525C41.2664 35.3525 42.5004 36.014 42.7675 37.5024C43.2001 36.8409 43.5308 36.0776 43.5308 35.3907C43.5308 33.7623 42.1696 32.7065 40.4523 32.7065C38.7349 32.7065 36.6486 33.7623 34.7277 35.0599C35.5927 33.2662 36.1779 32.2103 37.2465 32.2103C38.3151 32.2103 37.5773 32.2485 37.7426 32.2739C37.3483 30.8237 35.8599 29.3989 35.0584 29.3989" fill="#FFFCF5"/>
<path d="M90.854 53.2005C92.5078 53.2005 93.8308 55.3504 93.8435 57.8692C93.8435 60.5534 92.5841 63.4666 90.3452 65.4511C90.307 60.9859 84.8369 62.4107 84.8369 59.1668C84.8369 55.9228 85.8291 56.8515 87.0249 56.8515C88.2207 56.8515 88.9077 57.1441 89.5056 57.742C88.9077 57.1822 88.6151 56.3808 88.6024 55.6302C88.6024 54.3708 89.3911 53.2132 90.8413 53.2132" fill="#FFFCF5"/>
<path d="M61.2643 21.7789C62.1294 22.6057 62.8926 22.9747 63.8213 22.9619C64.1902 22.9619 64.6227 22.8602 64.8517 22.8602C65.0807 22.8602 65.3478 22.9874 65.3478 23.2164C65.3478 23.5853 65.0171 24.1832 64.6227 24.5139C65.0171 24.6793 65.4496 24.7429 65.9203 24.7429C67.8031 24.7429 69.953 23.5471 69.953 20.5703C70.3473 21.0919 70.589 22.1859 70.589 22.6821C70.589 26.2949 67.943 27.6815 65.5005 27.6815C63.058 27.6815 63.1089 27.16 62.9181 27.16C62.2947 27.16 62.3202 28.4194 61.9004 28.3812C61.1371 28.254 60.4374 26.5621 60.4374 24.7811C60.4374 23.0001 60.7046 22.593 61.2898 21.7661M66.2638 19.3618C65.9966 18.9293 65.0044 18.7003 64.5464 18.7003C63.0835 18.7003 62.0912 19.7307 61.9004 20.6594C61.7732 20.3286 61.6714 19.9343 61.6714 19.5272C61.6714 18.077 62.6637 16.2833 65.0807 16.2833C67.4977 16.2833 68.0193 17.4027 68.3246 17.4027C68.6299 17.4027 68.9861 17.072 69.2533 17.072C69.5204 17.072 69.6222 17.6317 69.6222 18.0388C69.6222 19.3618 69.0243 21.6516 67.5359 22.4785C67.2688 21.9188 66.7345 21.2827 65.8821 20.8884C65.6532 20.7866 65.5514 20.5958 65.5514 20.3922C65.5514 20.0233 65.8821 19.5654 66.2765 19.3618" fill="#FFFCF5"/>
<path d="M38.2515 12.1616C38.2515 13.3192 42.3986 18.9802 43.1873 18.9802C43.9761 18.9802 44.345 17.8225 44.345 16.8303C44.345 15.838 44.2814 16.3087 44.1414 16.1052C43.5435 15.2783 39.3328 11.9707 38.4041 11.9707C37.4755 11.9707 38.2388 12.0725 38.2388 12.1743M13.9284 8.77769C13.9284 9.4392 11.4223 11.6654 10.5191 11.6654C9.61584 11.6654 10.0865 11.2711 10.0865 10.9022C10.0865 10.2406 10.3791 9.31199 10.748 9.0194C11.1806 8.62504 12.1728 8.4215 12.9361 8.4215C13.6994 8.4215 13.9284 8.52327 13.9284 8.77769ZM44.1542 10.6732C44.1542 8.68865 38.7731 5.08852 38.7222 3.5238C38.7222 3.38387 38.7985 3.24393 38.913 3.11672C39.8289 2.1499 43.658 1.43751 43.6453 0.610622C43.6453 0.178098 42.8439 0.178098 42.4495 0.178098C39.371 0.178098 34.8676 1.31029 34.8676 2.40433C34.8676 3.49836 38.913 6.2716 38.913 7.63278C38.913 8.99396 38.684 8.12891 38.3151 8.12891C37.1956 8.12891 34.7404 6.78045 33.5828 6.78045C32.4251 6.78045 32.8577 7.14937 32.8577 7.67094C32.8577 9.2611 34.7531 12.2633 34.7531 13.1665C34.7531 14.0698 34.715 13.3955 34.5878 13.3955C33.9899 13.3955 31.1784 10.088 30.1862 10.088C29.1939 10.088 29.7918 10.5841 29.7918 11.3092V12.4287C29.7918 13.192 29.7664 13.65 29.3975 13.65C28.5324 13.65 28.1381 11.2329 27.3112 11.2329C26.4843 11.2329 26.2935 15.5327 25.4666 15.5327C24.6397 15.5327 25.3266 10.8004 24.398 10.8004C23.4693 10.8004 22.2099 13.9425 21.4848 13.9425C20.7597 13.9425 21.1541 13.6754 21.1541 13.4464C21.1541 12.4923 21.7138 10.9276 21.7138 10.0117C21.7138 9.09573 21.5866 9.28655 21.1795 9.28655C20.1491 9.28655 17.8974 10.9403 17.0451 10.9403C16.1928 10.9403 16.7525 10.8767 16.7525 10.7368C16.7525 9.94806 20.3526 7.42924 20.3526 6.29704C20.3526 5.16485 15.3913 5.94085 15.3786 4.68144C15.3786 3.62557 18.9151 2.53154 18.9151 1.43751C18.9151 0.343475 14.7044 0.0508852 13.0888 0.0508852C11.4732 0.0508852 10.0738 0.279868 10.0738 0.852327C10.0738 1.71738 14.5135 1.9718 14.5135 2.73508C14.5135 3.49836 9.92115 5.41927 9.92115 6.55147C9.92115 7.68366 16.409 6.61507 16.409 7.63278C16.409 8.65048 10.7608 13.6245 10.7608 15.2528C10.7608 16.8812 11.0279 15.7871 11.3841 15.7871C13.1015 15.7871 17.5667 12.505 18.8006 12.505C20.0346 12.505 19.2713 13.0266 19.2713 13.4973C19.2713 14.3623 18.9787 15.6854 18.9787 16.6395C18.9787 17.5936 19.1823 17.9243 19.8438 17.9243C21.065 17.9243 22.1972 15.838 23.0241 15.838C23.851 15.838 23.4566 21.957 25.0468 21.957C26.6369 21.957 26.955 15.3292 27.82 15.3292C28.6851 15.3292 29.3847 17.2501 30.1735 17.2501C30.9622 17.2501 30.695 13.9044 31.7636 13.9044C32.8322 13.9044 36.2288 17.8734 37.7299 17.8734C39.231 17.8734 38.3533 17.5045 38.3533 17.0465C38.3533 15.291 35.898 11.322 35.898 10.0625C35.898 8.80314 35.9998 9.63002 36.356 9.63002C37.6536 9.63002 41.4191 11.411 43.2128 11.411C45.0065 11.411 44.1796 11.0802 44.1796 10.6477M40.694 4.1217C40.694 4.7196 42.7803 6.00445 43.7471 6.00445C44.7139 6.00445 44.4722 5.24117 44.4722 4.45245C44.4722 3.66373 44.0397 3.42203 43.1746 3.42203C42.3096 3.42203 40.694 3.72734 40.694 4.1217ZM32.9213 0.750557C32.9213 0.547016 31.929 0.356196 30.5678 0.356196C28.4179 0.356196 28.7105 2.1499 27.0567 2.1499C25.403 2.1499 25.7592 0.29259 23.5838 0.29259C21.4085 0.29259 21.0396 0.521573 21.0396 0.826884C21.0396 1.1322 22.5916 1.05587 22.5916 2.1499C22.5916 3.24393 19.2459 3.63829 19.2459 4.33796C19.2459 5.03763 19.513 4.66872 19.8438 4.66872C20.5689 4.66872 21.7265 4.33796 22.5534 4.33796C23.3803 4.33796 23.4439 4.43973 23.4439 4.87226C23.4439 5.69914 21.6629 7.18753 21.6629 7.84904C21.6629 8.51055 21.8283 8.11619 21.9937 8.11619C22.6552 8.11619 23.7746 6.42425 24.8432 6.42425C26.5988 6.42425 25.4411 10.1643 26.408 10.1643C27.3748 10.1643 26.9677 6.48786 28.3925 6.48786C29.8173 6.48786 30.4152 9.03212 31.2039 9.03212C31.9926 9.03212 31.5728 8.86674 31.5728 8.63776C31.5728 7.93809 30.5805 6.52603 30.5805 5.59737C30.5805 4.66872 30.9749 4.77049 31.5092 4.77049C32.2725 4.77049 33.2902 5.22845 33.8626 5.22845C34.4351 5.22845 34.257 5.16485 34.257 4.93586C34.257 4.14714 31.3057 3.28209 31.3057 2.26439C31.3057 1.24669 32.9213 1.23397 32.9213 0.775999" fill="#FFFCF5"/>
<path d="M91.6046 6.06806C91.6046 9.00668 89.4674 11.2711 85.5874 11.8944C86.0199 11.9326 86.4143 11.9326 86.8087 11.9199C91.3375 11.9199 92.9912 9.85901 92.9912 8.14163C92.9912 6.42426 92.4569 6.32248 91.5919 6.05534M86.0199 9.41376C86.0199 7.06032 80.3971 6.47514 80.3971 5.94085C80.3971 5.40655 83.5393 4.78321 85.1549 4.74504C82.6742 1.56472 79.1377 1.90819 79.1377 1.33574C79.1377 0.763278 81.7838 0.343475 84.2262 0.330754C86.2744 0.330754 88.1953 0.78872 88.1953 2.34072C88.1953 3.89272 87.5083 4.09626 87.5083 5.41927C87.5083 6.74229 87.8773 6.78045 88.8314 6.78045C89.7855 6.78045 90.0908 5.68642 90.0908 4.52878C90.0908 3.37114 89.9254 2.83685 89.9254 2.37888C89.9254 0.992261 90.8795 0.0636065 92.2407 0.0636065C93.6018 0.0636065 93.6273 0.559737 95.2938 0.559737C94.4033 1.09403 94.0725 2.04813 94.0725 2.51882C94.0725 3.90544 94.9757 4.87226 94.9757 7.72183C94.9757 12.9503 90.0908 14.8076 84.0863 14.8076C78.0819 14.8076 80.677 14.6804 78.9596 14.4132C78.6925 14.3751 78.6289 14.3115 78.6289 14.1461C78.6289 13.7136 80.9823 13.4846 80.9823 11.3601C80.9823 9.23566 80.7152 9.74451 80.7152 9.4392C80.7152 9.13389 80.8424 9.17206 80.9823 9.17206C81.4784 9.17206 82.4707 11.093 84.328 11.093C86.1853 11.093 86.0454 10.9276 86.0454 9.40104M91.4011 2.08629C91.4011 2.54426 91.77 2.91318 92.2279 2.91318C92.6859 2.91318 93.0548 2.54426 93.0548 2.08629C93.0548 1.62833 92.6859 1.25941 92.2279 1.25941C91.77 1.25941 91.4011 1.62833 91.4011 2.08629Z" fill="#FFFCF5"/>
<path d="M88.4879 32.681C88.4879 31.9813 86.7323 31.9177 86.567 29.9714C86.5288 29.6788 86.4398 29.1445 86.0708 29.1445C85.4729 29.1445 85.9436 30.9636 85.2821 30.9636C83.7556 30.9636 83.2594 27.9869 82.6997 27.9869C82.14 27.9869 82.4071 28.0886 82.4071 28.483C82.4071 28.8773 82.4707 29.0809 82.4707 29.5134C82.4707 29.9459 82.3689 30.2385 81.9746 30.2385C81.0841 30.2385 80.2826 28.1522 79.5194 28.1522C78.7561 28.1522 79.1886 28.254 79.1886 28.4194C79.1886 28.8137 79.8501 29.5389 79.8501 29.9078C79.8501 30.6965 77.7002 30.2767 77.7002 30.9382C77.7002 31.5997 77.9928 31.3326 78.3999 31.3326C79.0996 31.3326 80.1936 31.04 80.7533 31.04C81.3131 31.04 81.5802 31.1036 81.5802 31.5361C81.5802 31.9686 80.3844 32.592 80.3844 33.0245C80.3844 33.457 80.588 33.3171 80.7533 33.3171C81.6438 33.3171 83.234 31.7651 84.3535 31.7651C85.4729 31.7651 85.0531 31.8668 85.0531 32.1594C85.0531 32.592 83.9336 33.3552 83.9336 33.9786C83.9336 34.6019 84.0354 34.3475 84.2262 34.3475C84.8241 34.3475 85.6129 32.7955 86.7451 32.7955C87.8773 32.7955 87.8009 32.9609 88.1317 32.9609C88.4624 32.9609 88.5006 32.7955 88.5006 32.6937M89.3656 48.7353C89.8999 47.0815 90.5615 45.9239 91.6428 44.1302C90.5615 43.5704 87.6737 42.3746 87.6737 40.4283C87.6737 38.4819 90.5233 36.3575 91.1085 36.3575C91.6936 36.3575 91.4392 36.5865 91.4392 37.019C91.4392 38.2148 90.8795 40.1357 90.8795 41.1534C90.8795 42.1711 91.4774 42.9725 92.0117 42.9725C92.546 42.9725 94.1361 40.988 94.1234 39.0289C94.1234 35.5179 91.0449 34.462 90.0908 34.462C89.1367 34.462 87.5719 35.9249 83.7683 35.9249C76.6571 35.9249 75.0287 28.8901 75.016 25.7988C75.016 25.6716 75.0542 25.6334 75.0796 25.6334C75.245 25.6334 75.9447 26.4985 78.1964 26.4985C80.448 26.4985 80.4099 26.1931 82.1018 26.1931C86.0708 26.1931 87.8264 28.941 90.2816 32.4393C91.77 33.368 95.3065 34.8564 95.3192 39.0544C95.3192 42.7563 91.3756 44.8171 90.4342 48.7862C91.9481 48.6208 92.8386 45.8984 94.4033 45.8984C95.968 45.8984 95.5609 46.5218 95.5609 47.5268C95.5609 48.977 94.734 51.1651 93.1439 52.5262C93.182 52.399 93.182 52.2336 93.182 52.0301C93.182 51.1015 92.8131 49.7784 91.7573 49.7784C90.1035 49.7784 89.5819 51.5721 88.6533 53.0605C87.6864 49.6894 86.3889 46.6363 84.0736 44.7917C81.7329 42.9089 77.6875 43.9394 77.6875 40.4919C77.6875 37.0444 78.2854 38.2402 78.2854 37.1843C78.2854 36.1285 78.2218 36.4847 78.0183 36.2303C81.1986 37.4261 80.0791 39.5378 82.0382 41.7259C83.2594 43.1125 86.6306 44.4355 88.5896 50.1601C88.6278 49.9947 88.6533 49.5622 88.6533 49.2696C88.6533 44.3719 82.1654 39.576 81.5929 37.5914C85.3584 38.024 86.0199 38.9399 87.8136 43.9139C88.1826 44.9443 89.3784 47.4886 89.3784 48.748" fill="#FFFCF5"/>
<path d="M71.2251 13.7263C68.9098 13.7263 67.3833 12.5686 67.3833 11.9707C67.3833 11.3728 67.5868 11.4746 67.8412 11.4746C68.5663 11.4746 70.1565 12.5941 70.6908 12.5941C71.2251 12.5941 70.9198 12.5305 70.9198 12.3269C70.9198 11.729 70.36 10.7368 70.36 10.2406C70.36 9.74451 70.4618 10.0117 70.6526 10.0117C71.5431 10.0117 72.8661 10.3806 73.5658 10.3679C73.7948 10.3679 73.8584 10.2406 73.8584 10.1007C73.8584 9.3756 71.7085 7.95081 71.7085 7.51829C71.7085 7.08576 74.38 6.52603 74.38 5.88996C74.38 5.2539 70.7417 5.69914 70.7417 5.06308C70.7417 4.42701 71.4413 3.80367 71.4413 3.43475C71.4413 3.06583 71.3141 3.20577 71.0724 3.20577C70.8307 3.20577 69.1897 3.84183 68.5154 3.84183C67.8412 3.84183 67.7903 3.77823 67.7903 3.30754C67.7903 2.54426 69.0752 1.71738 71.0979 1.71738C74.3672 1.71738 76.3263 3.96904 76.3263 7.73455C76.3263 11.5001 72.9933 13.7008 71.1996 13.7008M64.7627 7.44196C64.7627 7.07304 63.4651 6.38609 63.4651 5.99173C63.4651 5.59737 63.5287 5.88996 63.6305 5.88996C63.9994 5.88996 64.6227 6.01717 65.1189 6.01717C65.615 6.01717 65.615 4.15986 65.933 4.15986C66.2511 4.15986 66.5564 5.9154 66.9253 5.9154C67.2942 5.9154 68.1465 5.41927 68.4773 5.41927C68.808 5.41927 68.6045 5.45744 68.6045 5.52104C68.6045 5.75003 67.7776 6.64052 67.7776 6.90766C67.7776 7.17481 69.6349 7.56917 69.6349 7.83632C69.6349 8.10347 67.7522 8.14163 67.7522 8.43422C67.7522 8.72681 68.4518 9.59186 68.4518 9.88445C68.4518 10.177 68.4137 9.98622 68.3501 9.98622C68.0829 9.98622 67.0525 9.52825 66.7599 9.52825C66.4673 9.52825 65.8058 10.8894 65.5132 10.8894C65.2206 10.8894 65.3478 10.7622 65.3478 10.5968L65.2842 9.27383C65.2842 9.14661 65.2206 9.00668 65.0553 9.00668C64.6609 9.00668 63.8976 8.96851 63.6559 8.96851C63.4142 8.96851 63.4269 8.93035 63.4269 8.86674C63.4269 8.5996 64.7499 7.67094 64.7499 7.44196M63.8086 12.874C64.3429 12.874 64.4446 14.1715 64.5464 14.9221C64.61 15.3164 64.6736 15.3546 64.839 15.3546C65.2334 15.3546 65.8567 13.828 66.2892 13.828C66.9126 13.828 68.6045 15.5836 71.4286 15.5836C75.4358 15.5836 79.2013 12.7595 79.2013 7.79815C79.2013 2.83685 75.8175 0.190819 71.1487 0.190819C66.48 0.190819 67.3069 1.28485 66.4419 1.28485C65.9203 1.32301 65.1189 0 64.7245 0C64.3301 0 64.3937 0.330754 64.3937 0.890491C64.3937 1.45023 64.3937 2.41705 63.9994 2.41705C63.1979 2.41705 60.1194 0.139934 60.1194 0.966819C60.1194 1.7937 62.1802 4.04537 62.1802 4.64327C62.1802 5.24117 60.1576 5.80091 60.1576 6.19527C60.1576 6.92039 62.3075 7.0476 62.3075 7.97625C62.3075 8.90491 60.0558 9.63002 60.0558 10.3297C60.0558 11.0294 62.3075 10.4951 62.3075 11.182C62.3075 11.869 60.6537 14.197 60.6537 14.8585C60.6537 15.52 60.6918 15.0239 60.8191 15.0239C61.4424 15.0239 63.3379 12.874 63.7958 12.874" fill="#FFFCF5"/>
<path d="M48.8738 71.0103C48.8738 71.3029 48.772 71.6463 48.5048 71.9771C48.1359 71.3156 47.1182 70.9848 46.6475 70.9848C43.2382 70.9848 44.5358 75.9207 40.8975 75.9207C37.2592 75.9207 39.2437 75.7172 38.684 75.7299C38.455 75.7299 38.3151 75.8316 38.3151 76.0225C38.3151 76.8875 39.5491 78.9993 42.9456 78.9993C46.3422 78.9993 49.637 76.913 49.6243 74.3305C49.6243 73.898 49.5226 73.4401 49.319 72.9821C49.4462 72.7785 49.777 72.6513 50.0823 72.6513C50.6166 72.6513 50.9092 73.2492 51.4053 73.2492C51.9014 73.2492 52.334 72.8549 52.334 72.3206C52.334 71.7863 52.105 71.5955 51.6979 71.3919C51.965 71.1884 52.1559 70.8576 52.1559 70.5014C52.1559 69.9417 51.7615 69.4074 51.1 69.4074C50.4385 69.4074 50.6039 69.5092 50.3749 69.7382C50.3113 69.1403 49.9805 68.5805 49.3445 68.5805C48.7084 68.5805 48.4794 68.9494 48.4794 69.5092C48.4794 70.0689 48.8483 70.4633 48.8483 71.023" fill="#FFFCF5"/>
<path d="M30.7205 64.8659C33.3665 65.5274 34.6895 66.9395 34.9567 68.6314C35.2238 70.247 35.5546 71.57 36.1779 72.2315C37.0048 73.1602 38.6331 73.9871 40.0579 73.9743C41.2537 73.9743 42.2078 73.58 42.2078 72.4859C42.2078 71.3919 40.5795 68.6187 38.2006 68.6187C35.8217 68.6187 37.6663 68.6568 37.3355 68.6568C37.0048 68.6568 36.6104 68.5932 36.3433 68.3643C35.809 67.9063 35.6436 65.4129 34.6514 63.9245C33.5573 62.2707 32.3615 61.8128 30.7459 61.8128C29.1303 61.8128 28.2907 62.4488 28.3034 63.3648C28.3034 63.9245 28.596 64.3189 30.7205 64.8532M39.9689 72.2697C38.9766 72.2697 37.4882 71.2138 37.4882 70.6159C37.4882 70.018 37.9462 69.8526 38.3151 69.8526C39.142 69.8526 40.6304 70.8831 40.6304 71.7354C40.6304 72.5877 40.465 72.2697 39.9689 72.2697Z" fill="#FFFCF5"/>
<path d="M36.8903 46.4963C36.8903 44.3719 41.9152 43.2524 41.9152 40.6318C41.9152 38.0112 41.7498 39.436 41.4445 38.8763C43.2001 39.8304 44.4976 41.4587 44.4976 42.7817C44.4976 45.0716 42.1188 46.1274 42.1188 47.5522C42.1188 48.977 44.663 49.4731 44.6757 51.5213C44.6757 53.2132 42.2587 55.1595 42.2587 57.3476C42.2587 59.5357 43.4545 60.4262 45.2736 60.6551C44.6757 60.7824 44.1542 60.8841 43.5817 60.8841C40.236 60.8841 36.7885 58.149 36.7885 54.867C36.7885 51.5849 37.4755 51.8266 38.5441 50.7961C39.4727 51.5849 40.4014 52.1192 40.9993 52.1192C41.5972 52.1192 41.7626 51.852 41.7626 51.4576C41.7626 50.2364 36.8903 49.1169 36.8903 46.4963ZM47.4744 63.1994C46.3422 63.721 45.8843 63.6319 45.8843 64.7896C45.8843 65.9472 45.7825 65.7818 45.7825 66.0744C45.7825 66.367 45.8461 66.7105 46.3168 66.6978C47.5126 66.6978 49.3953 64.6751 49.3953 62.9577C49.3953 61.2403 49.1282 62.2962 48.8356 62.2962C48.543 62.2962 48.2759 62.8305 47.4744 63.1867M47.3345 60.8205C47.3345 59.3321 44.2559 59.3067 44.2559 57.055C44.2559 54.8033 44.6249 55.5285 45.35 54.5108C45.6553 56.2281 46.3422 57.1186 47.8306 57.6911C50.782 58.7851 51.1763 60.4389 51.1763 62.1944C51.1763 65.1712 49.1028 68.8858 43.7344 68.8858C38.366 68.8858 36.3433 65.0567 36.3433 61.8128C36.3433 58.5689 36.5723 59.93 37.132 59.93C37.6918 59.93 37.7935 60.3244 38.1879 60.7188C39.6763 62.2071 41.3046 62.6015 43.658 62.6015C46.0115 62.6015 47.3345 61.7365 47.3345 60.846" fill="#FFFCF5"/>
<path d="M23.9019 61.5584C23.9782 62.2453 23.4948 62.8687 22.7951 62.9577C22.1082 63.034 21.4721 62.5506 21.3958 61.8509C21.3194 61.164 21.8028 60.5279 22.5025 60.4516C23.1895 60.3753 23.8128 60.8714 23.9019 61.5584ZM17.7193 62.8559C17.8592 63.9881 18.9151 64.8405 20.1109 64.7132C20.5434 64.6624 20.9378 64.5479 21.2049 64.3825C21.4721 65.4384 22.3626 66.1253 23.5584 65.9599C24.7796 65.7945 25.6065 64.8405 25.4666 63.6192C25.4284 63.2885 25.3648 63.0849 25.263 62.8559C25.263 62.8559 25.4284 62.8559 25.5429 62.8178C26.7387 62.5888 27.5402 61.6347 27.4384 60.477C27.3112 59.2812 26.2299 58.4035 25.1231 58.5434C24.6906 58.5943 24.2962 58.7597 24.0291 58.9887C23.7238 57.9964 22.7951 57.1313 21.523 57.3476C20.3781 57.5384 19.6148 58.518 19.7293 59.7519C19.742 59.9555 19.7929 60.1845 19.8947 60.4134C19.8947 60.4134 19.7038 60.4389 19.5639 60.4643C18.5971 60.6043 17.5539 61.5838 17.7066 62.8687" fill="#FFFCF5"/>
<path d="M43.6072 116.921C44.5358 116.921 46.1514 116.629 47.4235 114.619C46.7111 113.003 46.215 109.759 46.1514 108.576C45.8207 102.534 48.1868 96.86 50.7311 96.72C52.6011 96.6183 54.0895 98.3992 54.2422 101.262C54.6492 108.793 52.1304 111.922 50.8583 114.619C51.0618 115.675 52.8301 117.468 54.522 117.481C55.1454 117.481 55.8959 117.176 56.0867 116.921C55.9595 116.489 55.845 115.929 55.845 115.115C55.8705 110.752 58.7073 107.088 61.1371 107.101C63.0707 107.101 64.1775 109.67 64.1648 111.362C64.1648 113.359 62.4601 114.962 59.954 116.514C60.3865 116.947 61.188 117.265 61.8876 117.278C65.4369 117.303 67.3324 113.016 68.7317 109.085C68.9861 108.335 69.4314 107.279 70.2964 107.291C71.7975 107.291 72.3573 117.15 74.8379 117.163C75.9065 117.163 76.7843 114.988 76.797 113.309C76.797 112.062 76.3645 111.935 76.3772 110.128C76.3772 108.131 77.4585 106.465 78.896 106.465C80.3335 106.465 80.0791 107.342 80.0664 108.398C80.0409 112.393 77.1278 119.784 72.8916 119.758C69.7112 119.733 69.9911 114.25 68.8716 114.25C67.7522 114.25 65.844 119.784 59.6741 119.746C58.6692 119.746 57.6133 119.237 56.7482 118.232C55.2471 119.224 54.0004 119.657 52.5629 119.644C50.2604 119.644 49.2808 117.252 48.3395 117.252C47.3981 117.252 45.9606 119.669 42.2078 119.644C39.2183 119.644 38.7476 115.637 37.679 115.624C36.7376 115.624 35.2874 119.593 33.7227 119.58C31.1021 119.58 30.5933 112.647 28.278 112.634C26.4716 112.634 20.7088 119.618 19.1695 119.44C18.5462 119.377 18.2918 118.906 18.3554 118.283C18.4444 117.418 19.2077 115.115 19.513 114.021C20.0346 112.126 20.5053 110.052 20.7724 109.39C21.0268 108.729 21.7265 108.246 22.2863 108.309C22.5661 108.335 22.6425 108.856 22.7315 109.289C23.0368 110.828 23.4693 112.405 23.9655 112.405C24.8432 112.405 27.7691 106.884 29.4483 106.897C31.5092 106.897 31.7 115.637 34.4987 115.662C35.4401 115.662 36.127 114.555 36.7631 113.181C36.8394 110.866 37.4882 107.584 39.3582 107.597C40.6685 107.597 41.2792 110.535 40.3251 113.092C40.3123 116.145 42.2969 116.909 43.6072 116.909M93.5128 109.759C92.7241 112.965 90.3452 117.659 86.8596 117.634C86.0454 117.634 84.6206 117.303 84.6206 116.502C84.6206 115.7 90.1162 115.548 90.1416 111.362C90.1416 109.81 88.7296 107.609 86.6179 107.597C83.8192 107.597 81.0586 110.624 81.0332 114.861C81.0078 118.664 83.3612 119.924 85.7274 119.936C89.8491 119.962 92.3552 116.616 93.6782 113.817C94.2888 115.687 94.6323 120 96.197 120C97.7617 120 97.2656 119.695 98.0161 118.015C99.9116 113.843 101.743 109.06 104.237 109.072C105.166 109.072 104.606 110.764 106.845 110.777C107.901 110.777 108.651 109.912 108.664 108.907C108.664 107.47 107.379 106.35 105.382 106.337C99.5172 106.299 98.2197 115.077 97.291 115.077C95.7263 115.077 96.2733 108.029 95.1538 108.017C94.1616 108.017 93.6527 109.2 93.5255 109.747M52.2067 102.941C52.105 101.198 51.6979 100.409 50.7565 100.46C49.5098 100.524 48.9119 104.429 49.1409 108.538C49.2809 111.222 49.6752 111.629 50.0568 111.604C50.7438 111.566 52.423 106.795 52.2067 102.928M42.0933 99.2134C42.017 98.2084 41.2283 97.5215 40.1724 97.5215C39.1165 97.5215 37.8698 98.7427 37.9716 100.307C38.0352 101.338 38.6458 102.19 39.8289 102.19C41.012 102.19 42.2078 100.651 42.0806 99.2134M61.4042 112.049C61.4042 110.993 60.8572 110.116 60.1703 110.116C59.4833 110.116 58.3002 110.726 58.2875 112.723C58.2875 114.288 58.8345 115.026 59.0762 115.357C60.8827 114.81 61.3915 113.309 61.4042 112.062M85.791 110.09C87.1013 110.09 87.4702 111.655 87.1521 112.583C86.8341 113.512 85.7019 114.568 83.9591 114.873C83.5902 113.932 83.4248 110.077 85.791 110.09ZM14.0429 105.205C13.8648 104.633 13.3559 103.361 13.216 102.419C12.9234 100.333 14.0174 98.9717 15.0097 98.6664C16.1291 98.3611 16.5744 98.9208 16.9942 100.244C17.5412 102.241 17.5921 104.862 17.3758 108.602C17.096 113.716 14.5008 119.873 8.14017 119.695C2.6573 119.542 0.252969 115.967 0.0239861 110.548C-0.0777842 107.991 0.113035 105.434 1.20707 101.834C1.77953 99.9003 2.28838 99.2134 4.03119 98.8572C5.40509 98.6155 5.26516 100.04 4.94713 101.732C4.24746 105.46 3.9167 107.266 4.13296 111.515C4.34923 116.006 6.39735 117.761 8.64902 117.774C12.0202 117.863 13.5213 115.064 14.1828 111.019C14.7044 107.788 14.3354 106.223 14.0301 105.231" fill="#FFFCF5"/>
</svg>
