<svg preserveAspectRatio="none" width="100%" height="100%" overflow="visible" style="display: block;" viewBox="0 0 32 30.6222" fill="none" xmlns="http://www.w3.org/2000/svg">
<g id="Group 234">
<path id="Vector" d="M15.9598 0C17.1924 0.8526 18.4805 1.85886 19.719 2.7412C23.8431 5.6678 27.9364 8.63605 32 11.6459L25.7043 30.6183C22.5262 30.5449 19.3184 30.5895 16.1344 30.5776C12.9245 30.5875 9.55211 30.534 6.35716 30.6222C4.50287 24.3933 1.76307 17.7351 0 11.5309L15.9598 0Z" fill="var(--fill-0, #E00000)"/>
<path id="Vector_2" d="M15.2325 20.1637C15.5042 20.1468 15.7759 20.1359 16.0486 20.13C17.6659 20.1211 19.2207 20.7575 20.366 21.9006C21.3375 22.868 21.8762 23.9422 22.1326 25.1419C22.3604 26.208 21.4513 27.1118 20.3611 27.1139C19.2217 27.1161 18.0657 27.1059 16.9628 27.1084L11.8167 27.1013C10.7128 27.0997 9.78617 26.1921 10.0251 25.1144C10.5916 22.5591 12.3233 20.7429 15.2325 20.1637Z" fill="var(--fill-0, #111111)"/>
<path id="Vector_3" d="M7.6265 10.2638C7.72144 9.86454 8.27991 9.51437 8.59679 9.77511C9.3607 10.408 10.5384 11.2188 11.6383 11.9895C12.9816 12.9309 13.7835 14.6869 13.408 16.2836C13.316 16.6747 13.1529 17.075 12.8377 17.5122C12.5585 17.8995 12.1604 18.2057 11.6938 18.3068C10.6133 18.5409 9.87634 17.9073 9.50609 16.6643C9.44178 16.4483 9.39238 16.2423 9.35706 16.0438C9.02188 14.1603 8.30708 12.4084 7.66165 10.6074C7.63997 10.5469 7.62484 10.4875 7.61709 10.4294C7.60946 10.3731 7.61365 10.3178 7.6265 10.2638Z" fill="var(--fill-0, #111111)"/>
<path id="Vector_4" d="M22.8234 10.3797C23.5029 9.85463 24.8728 9.78719 24.6023 10.6022C24.5278 10.8264 24.3621 11.062 24.1484 11.295C23.1541 12.3794 22.7408 13.8678 22.8375 15.3359C22.9451 16.9681 22.3639 18.5032 20.5299 18.2843C20.2356 18.2492 19.9482 18.1354 19.7397 17.9248C18.8172 16.9926 18.2385 14.7968 18.5111 13.7078C18.6122 13.3013 20.8651 11.8826 21.4006 11.492C21.7515 11.2365 22.2965 10.7869 22.8234 10.3797Z" fill="var(--fill-0, #111111)"/>
</g>
</svg>
