<svg preserveAspectRatio="none" width="100%" height="100%" overflow="visible" style="display: block;" viewBox="0 0 32 30.0206" fill="none" xmlns="http://www.w3.org/2000/svg">
<g id="Group 232">
<path id="Vector" d="M15.8792 0C16.3909 0.0984713 30.5497 10.1879 32 11.1877C29.9987 17.4942 27.9039 23.7708 25.7166 30.0154L16.016 30.0148L6.37403 30.0206L0 11.1304L15.8792 0Z" fill="var(--fill-0, #E00000)"/>
<path id="Vector_2" d="M19.0279 13.2307C19.5208 11.546 21.8956 10.9534 22.6474 12.5395C23.1214 13.5394 23.1971 14.9109 22.858 16.085C22.3564 17.8225 19.8982 18.3521 19.1837 16.6908C18.7535 15.6907 18.6961 14.3651 19.0279 13.2307Z" fill="var(--fill-0, #111111)"/>
<path id="Vector_3" d="M14.0712 22.2944C14.875 22.2808 18.0258 22.2251 20.2252 22.296C21.6893 22.3433 23.0002 23.7931 21.565 24.0863C20.4381 24.3165 18.7466 24.1107 18.1742 24.1033C17.3087 24.1076 13.3616 24.1843 11.1803 24.1126C10.2453 24.0819 8.85111 23.1486 9.6304 22.6311C10.4803 22.0668 13.0598 22.292 14.0712 22.2944Z" fill="var(--fill-0, #111111)"/>
<path id="Vector_4" d="M10.0736 13.2234C10.4597 12.9018 10.9839 12.757 11.4749 12.864C12.0705 12.9884 12.5853 13.3596 12.8914 13.8855C13.2363 14.4874 13.3145 15.1849 13.1879 15.8558C12.832 17.7425 10.0695 18.4394 9.33695 16.6647C8.87605 15.5482 9.0345 14.0891 10.0736 13.2234Z" fill="var(--fill-0, #111111)"/>
<path id="Vector_5" d="M20.4719 7.99871C21.5122 7.81784 23.233 8.03741 24.177 8.84558C24.6847 9.28022 24.7179 10.2784 24.0505 10.2439C23.3753 10.209 22.4137 9.59391 21.997 9.47627C21.7077 9.39482 21.3948 9.39905 21.0947 9.40367L20.9757 9.40653C20.0787 9.54368 19.0781 10.3119 18.2686 10.6456C17.7116 10.8753 16.9493 10.4849 17.1776 9.92734C17.5704 8.9684 19.8285 8.11057 20.4719 7.99871Z" fill="var(--fill-0, #111111)"/>
<path id="Vector_6" d="M9.9974 10.779C10.5029 10.7481 11.6678 10.7211 12.5904 10.9268C13.6065 11.1534 13.4056 12.2423 12.3646 12.2344C12.0384 12.232 11.7317 12.2068 11.5237 12.1965C11.2194 12.196 10.1321 12.2244 9.21456 12.2333C8.29848 12.2423 6.86271 11.5334 7.66841 11.0974C8.28126 10.7657 9.66773 10.7901 9.9974 10.779Z" fill="var(--fill-0, #111111)"/>
</g>
</svg>
