<svg preserveAspectRatio="none" width="100%" height="100%" overflow="visible" style="display: block;" viewBox="0 0 32 30.5272" fill="none" xmlns="http://www.w3.org/2000/svg">
<g id="Group 221">
<path id="Vector" d="M15.8991 0C16.7684 0.236138 30.2387 10.2591 32 11.4993C30.0418 17.8974 27.799 24.1714 25.699 30.5213L16.1354 30.5262L6.39351 30.5272C4.22952 24.1813 2.09802 17.8236 0 11.455C4.98465 7.64147 10.7559 3.65665 15.8991 0Z" fill="var(--fill-0, #E00000)"/>
<path id="Vector_2" d="M13.8948 21.7506C14.4399 20.3687 16.3879 19.7326 17.4107 20.8099C18.1765 21.6165 18.3813 22.9657 17.9594 24.1217C17.4202 25.5993 15.3033 26.2529 14.3023 25.0396C13.6051 24.1947 13.4547 22.8661 13.8948 21.7506Z" fill="var(--fill-0, #111111)"/>
<path id="Vector_3" d="M6.57225 13.3045C6.06269 11.8477 7.7825 11.453 8.23794 12.9275C8.26456 13.0137 8.29444 13.1008 8.329 13.1882C9.06345 15.0496 11.3653 15.1785 12.3527 13.4382C12.6481 12.917 12.8155 11.9183 13.2159 11.411C13.3987 11.1795 13.7365 11.1068 13.9611 11.2979C14.1197 11.4328 14.2507 11.6268 14.2898 11.8313C14.3747 12.2764 14.2555 12.763 14.1643 13.2118C13.356 16.5251 9.35586 17.5153 7.27359 14.6352C7.02089 14.285 6.74803 13.8069 6.57225 13.3045Z" fill="var(--fill-0, #111111)"/>
<path id="Vector_4" d="M23.5058 13.201C23.9654 11.7718 25.6669 11.5 25.2863 12.9522C25.2312 13.1625 25.1558 13.3682 25.0721 13.5553C23.3748 17.3489 19.2447 17.3292 17.7099 13.4529C17.6025 13.0605 17.4304 12.4976 17.4441 12.0368C17.4714 11.1209 18.7265 11.5488 19.063 12.4011C19.5357 13.5983 20.0667 15.1479 22.0841 14.5435C22.9882 14.2723 23.3259 13.7604 23.5058 13.201Z" fill="var(--fill-0, #111111)"/>
</g>
</svg>
