<svg preserveAspectRatio="none" width="100%" height="100%" overflow="visible" style="display: block;" viewBox="0 0 32 30.3206" fill="none" xmlns="http://www.w3.org/2000/svg">
<g id="Group 238">
<path id="Vector" d="M15.9559 0C21.1241 3.84917 26.7732 7.49812 32 11.3762C29.9656 17.7117 27.8688 24.0267 25.7095 30.3206C22.6767 30.2534 19.4496 30.3084 16.4 30.3114C13.054 30.3463 9.71491 30.2598 6.35401 30.3097C5.98322 28.9329 5.27732 27.0354 4.81135 25.6525L1.92931 17.0783C1.2948 15.2127 0.530409 13.1391 0 11.2623C5.36655 7.57632 10.6855 3.82191 15.9559 0Z" fill="var(--fill-0, #E00000)"/>
<path id="Vector_2" d="M15.6013 20.0878C17.8359 19.914 19.9705 21.0518 21.408 22.7153C21.8789 23.2601 22.6909 24.2647 21.9146 24.9158C21.3307 25.4295 20.7497 24.7592 20.4245 24.277C19.3588 22.6997 18.3584 22.1387 16.4579 21.8484C12.1254 21.6866 11.9667 24.6948 10.7225 25.0617C10.5133 25.1234 10.2784 25.1206 10.0959 24.99C9.88378 24.838 9.79752 24.6634 9.77769 24.4046C9.73605 23.8454 10.2694 23.1651 10.6075 22.7529C11.9261 21.1496 13.5362 20.2797 15.6013 20.0878Z" fill="var(--fill-0, #111111)"/>
<path id="Vector_3" d="M9.90898 13.0917C10.5213 12.4455 11.6218 12.3066 12.2838 12.9019C13.009 13.5541 13.2588 14.793 13.022 15.9202C12.6277 17.7978 9.82736 18.1347 9.27702 16.2967C8.94996 15.2044 9.15612 13.8863 9.90898 13.0917Z" fill="var(--fill-0, #111111)"/>
<path id="Vector_4" d="M18.975 14.5804C19.2998 12.9366 21.6614 12.0756 22.4968 13.528C22.8172 14.0849 22.9383 14.8036 22.8649 15.5194C22.6633 17.4878 19.7955 18.3601 19.111 16.5036C18.8942 15.9158 18.8463 15.2318 18.975 14.5804Z" fill="var(--fill-0, #111111)"/>
<path id="Vector_5" d="M11.6507 7.64258C12.1821 7.66369 12.3437 7.69085 12.6342 8.15385C12.7511 9.32665 11.2303 10.7637 10.4392 11.5004C9.49433 12.3812 8.3423 12.8707 7.1417 13.2996C6.60336 13.3684 6.36145 13.1957 6.16019 12.729C6.15622 12.1676 6.49926 11.8853 6.98605 11.7092C9.70154 10.7259 10.0158 9.69478 11.6507 7.64258Z" fill="var(--fill-0, #111111)"/>
<path id="Vector_6" d="M19.9166 7.62109C20.0862 7.65083 20.3836 7.70207 20.4926 7.83262C21.3869 8.90402 21.8539 9.73713 22.9563 10.6483C23.8932 11.422 24.8033 11.427 25.5836 12.0548C25.9593 12.6792 25.7363 12.9651 25.2247 13.3532C23.343 13.0023 19.7659 10.6356 19.3753 8.43002C19.3178 8.10401 19.6747 7.81894 19.9166 7.62109Z" fill="var(--fill-0, #111111)"/>
</g>
</svg>
