<svg preserveAspectRatio="none" width="100%" height="100%" overflow="visible" style="display: block;" viewBox="0 0 32 30.264" fill="none" xmlns="http://www.w3.org/2000/svg">
<g id="Group 233">
<path id="Vector" d="M15.8687 0C16.1974 0.0239172 30.6721 10.2889 32 11.2865C29.974 17.6204 27.8858 23.9343 25.7355 30.227L16.2598 30.2381C13.0011 30.2988 9.56439 30.2315 6.28548 30.2476C4.89048 25.9202 3.45821 21.6048 1.98892 17.3021C1.33991 15.3657 0.531269 13.1601 0 11.2104C1.35841 10.1269 3.46563 8.7261 4.93022 7.69747C8.60058 5.1662 12.2469 2.60025 15.8687 0Z" fill="var(--fill-0, #E00000)"/>
<path id="Vector_2" d="M9.17087 12.561C9.68001 10.9614 11.9389 10.4194 12.6934 11.919C13.1951 12.9159 13.2866 14.3148 12.9723 15.524C12.516 17.2798 10.0798 17.9578 9.32494 16.3082C8.83692 15.2416 8.7859 13.7704 9.17087 12.561Z" fill="var(--fill-0, #111111)"/>
<path id="Vector_3" d="M19.1419 12.5974C19.6488 10.9785 21.9268 10.4289 22.6736 11.9521C23.1727 12.9701 23.2584 14.395 22.9116 15.6125C22.4148 17.3573 19.9597 17.9134 19.257 16.2409C18.8145 15.1875 18.7735 13.7739 19.1419 12.5974Z" fill="var(--fill-0, #111111)"/>
<path id="Vector_4" d="M10.0089 23.8027C8.71149 23.7525 10.3548 22.0258 11.6533 22.0229C13.5976 22.0186 15.6177 22.077 17.5011 22.0365C18.2261 22.0208 20.5059 22.0011 21.7072 22.062C22.1259 22.0832 22.5666 22.2727 22.6397 22.6854C22.7611 23.3708 22.0136 23.8168 21.318 23.8429C19.439 23.9136 16.9073 23.7627 15.2631 23.833C13.5134 23.8191 11.757 23.8703 10.0089 23.8027Z" fill="var(--fill-0, #111111)"/>
</g>
</svg>
