<svg preserveAspectRatio="none" width="100%" height="100%" overflow="visible" style="display: block;" viewBox="0 0 32 30.3543" fill="none" xmlns="http://www.w3.org/2000/svg">
<g id="Group 236">
<path id="Vector" d="M15.9718 0C21.3841 3.83176 26.6263 7.43906 32 11.3803L25.7081 30.3543C22.621 30.2718 19.3567 30.3257 16.2558 30.3293L6.3721 30.3267C5.95158 28.7485 4.89979 25.9537 4.34669 24.2964L0 11.3476C0.683714 10.7281 4.18441 8.31801 5.04722 7.72406C8.71315 5.20049 12.3237 2.52259 15.9718 0Z" fill="var(--fill-0, #E00000)"/>
<path id="Vector_2" d="M10.3789 22.4685C10.0146 21.3961 10.9808 20.4554 12.1133 20.4682C14.7257 20.4975 17.4166 20.4719 20.0386 20.4585C21.2184 20.4525 22.231 21.5014 21.8053 22.6018C21.5599 23.2363 21.1832 23.8154 20.5728 24.5473C19.4171 25.7218 17.8389 26.3846 16.1915 26.388C13.4079 26.4167 11.1942 24.8692 10.3789 22.4685Z" fill="var(--fill-0, #111111)"/>
<path id="Vector_3" d="M7.797 10.1236C9.15256 10.0337 9.72446 10.4305 10.3498 11.5703C10.4695 11.3817 10.5893 11.2091 10.7179 11.0275C11.7825 9.51817 14.4986 10.02 14.6094 11.9829C14.6925 13.4597 13.3399 14.752 12.4247 15.7868C11.7509 16.5344 11.1987 17.1245 10.4735 17.8288C9.36331 17.1472 7.06183 14.6011 6.44144 13.4047C5.71617 12.0029 6.32074 10.7292 7.797 10.1236Z" fill="var(--fill-0, #111111)"/>
<path id="Vector_4" d="M19.3624 10.1323C20.7407 10.021 21.2909 10.4262 21.9459 11.5659C22.402 10.7301 22.9858 10.1732 23.9861 10.1144C25.2081 10.0508 26.1234 10.9958 26.1273 12.1987C26.1323 13.5961 25.0063 14.6644 24.1266 15.6264C23.5122 16.3169 22.6009 17.2756 21.9172 17.8619C20.714 16.8969 18.84 14.7729 18.0603 13.4441C17.239 12.0454 17.9653 10.7725 19.3624 10.1323Z" fill="var(--fill-0, #111111)"/>
</g>
</svg>
