<svg preserveAspectRatio="none" width="100%" height="100%" overflow="visible" style="display: block;" viewBox="0 0 32 30.1843" fill="none" xmlns="http://www.w3.org/2000/svg">
<g id="Group 224">
<path id="Vector" d="M15.9104 0C16.241 0.0944339 18.5345 1.75411 19.0353 2.10125C23.3604 5.1016 27.8047 8.13096 32 11.3091C30.4041 17.1627 27.7594 24.3317 25.7739 30.1475L16.1013 30.1562C12.9605 30.2184 9.49357 30.1608 6.33469 30.1416C4.1169 24.1601 2.03656 17.3542 0 11.2559C4.80238 7.56003 10.8908 3.5456 15.9104 0Z" fill="var(--fill-0, #E00000)"/>
<path id="Vector_2" d="M9.14336 22.165C8.7639 21.0714 9.72982 20.0784 10.8873 20.0859C14.2928 20.1082 17.6985 20.1106 21.1042 20.0931C22.3031 20.087 23.3002 21.1524 22.8818 22.276C22.5689 23.1161 22.0904 23.8509 21.3333 24.6988C20.0011 25.9628 18.4121 26.6442 16.5742 26.7511C14.513 26.8878 12.4835 26.1924 10.9395 24.8208C10.0667 24.0427 9.48852 23.1596 9.14336 22.165Z" fill="var(--fill-0, #111111)"/>
<path id="Vector_3" d="M7.83262 10.5223C7.88221 10.4559 7.96119 10.4131 8.04388 10.4185C8.56298 10.4523 13.5446 13.2994 13.9519 13.7656C14.0985 13.933 14.1408 14.1351 14.0975 14.3553C13.9637 15.0342 9.90777 17.0102 9.11209 17.4551C8.86053 17.5917 8.649 17.7363 8.41386 17.8069C8.18011 17.8771 7.91056 17.8338 7.73707 17.6621C7.5716 17.4984 7.49351 17.2395 7.57365 17.021C7.97447 15.9279 10.8787 14.6843 11.773 14.177C10.5263 13.4682 9.26735 12.7716 8.04703 12.0196C7.25347 11.5305 7.38693 11.119 7.83262 10.5223Z" fill="var(--fill-0, #111111)"/>
<path id="Vector_4" d="M23.1443 10.7578C23.5268 10.5357 24.0329 10.3191 24.3563 10.6209C24.6312 10.8776 24.5513 11.3272 24.2994 11.6065C23.4618 12.5354 21.1927 13.6913 20.3483 14.1857C21.2134 14.7287 23.994 15.9033 24.5145 16.9415C24.6183 17.1486 24.5874 17.4086 24.4333 17.5816C24.2805 17.7531 24.039 17.8568 23.8106 17.8331C23.7374 17.8255 23.6698 17.8042 23.5819 17.7705C23.4389 17.7159 23.3014 17.6475 23.1688 17.5709C21.8269 16.7961 20.4812 16.0551 19.1105 15.3303C18.0986 14.7948 18.3367 13.5188 19.3284 12.9467C19.9111 12.6105 20.5484 12.3159 20.9435 12.0743C21.656 11.6388 22.4072 11.1858 23.1443 10.7578Z" fill="var(--fill-0, #111111)"/>
</g>
</svg>
