<svg preserveAspectRatio="none" width="100%" height="100%" overflow="visible" style="display: block;" viewBox="0 0 32 30.7226" fill="none" xmlns="http://www.w3.org/2000/svg">
<g id="Group 225">
<path id="Vector" d="M15.9412 0C16.661 0.415228 18.969 2.16798 19.8135 2.75148C23.8935 5.57108 27.9309 8.75647 32 11.5696L25.703 30.7126C22.7988 30.595 19.2894 30.6494 16.3614 30.6662C13.5333 30.7987 9.28426 30.6573 6.38397 30.6494L0 11.5153C1.28846 10.4535 3.62708 8.8756 5.06189 7.83565L15.9412 0Z" fill="var(--fill-0, #E00000)"/>
<path id="Vector_2" d="M10.3748 12.991C11.1619 12.3158 12.13 11.0573 12.9487 10.6519C14.1156 10.6509 13.7625 11.7533 13.1791 12.297C12.568 12.8655 11.952 13.4775 11.3547 14.0588C12.04 14.82 13.7962 15.8739 13.7388 16.8853C13.5167 17.4188 12.8125 17.412 12.3753 17.0342C11.6694 16.4242 10.7564 15.4822 10.3303 15.085C9.61335 15.8354 8.25566 17.7079 7.22231 17.264C7.00081 16.999 6.95829 16.997 6.93555 16.65C7.15013 15.9916 8.73525 14.6559 9.35526 14.0548C8.60769 13.2985 7.04631 12.209 6.95929 11.3044C7.0562 10.9317 7.19859 10.8694 7.51304 10.6055C7.6317 10.6104 7.87693 10.6074 7.96593 10.6885C8.78271 11.4359 9.55895 12.2367 10.3748 12.991Z" fill="var(--fill-0, #111111)"/>
<path id="Vector_3" d="M21.497 13.0022C22.2416 12.3151 23.533 10.4159 24.5673 10.84C24.7898 11.0862 24.8116 11.0753 24.8511 11.4154C24.6573 12.1341 23.1642 13.4045 22.5185 14.0561C23.1958 14.7985 24.8788 15.9256 24.778 16.9093C24.5192 17.4239 23.8019 17.3531 23.3792 16.9617C22.7266 16.3573 21.9428 15.533 21.4901 15.0941C20.8186 15.8326 19.5045 17.6329 18.4632 17.3067C18.216 17.0754 18.2091 17.0931 18.123 16.7481C18.2694 16.062 19.9257 14.6433 20.5338 14.0561C19.8772 13.3897 18.1057 12.1727 18.1359 11.3106C18.1496 10.9197 18.3068 10.6793 18.7144 10.6047C19.3551 10.4874 20.8918 12.4218 21.497 13.0022Z" fill="var(--fill-0, #111111)"/>
<path id="Vector_4" d="M9.8247 23.2115C9.8412 22.5901 10.55 22.3567 11.1716 22.3517C13.2471 22.3353 15.3233 22.3321 17.3995 22.3416C18.138 22.3383 20.5187 22.2195 21.6038 22.4265C21.9465 22.4919 22.2098 22.7681 22.231 23.1164C22.2737 23.8206 21.462 24.1222 20.7567 24.1402C17.3886 24.2261 13.8866 24.0527 10.5349 24.1053C10.532 24.1053 10.5292 24.1054 10.5263 24.1054C10.0989 24.11 9.81336 23.6388 9.8247 23.2115Z" fill="var(--fill-0, #111111)"/>
</g>
</svg>
