<svg preserveAspectRatio="none" width="100%" height="100%" overflow="visible" style="display: block;" viewBox="0 0 32 30.4256" fill="none" xmlns="http://www.w3.org/2000/svg">
<g id="Group 230">
<path id="Vector" d="M15.9719 0L32 11.5168C31.2269 13.4645 25.9173 30.1835 25.5982 30.3105C25.4229 30.3804 25.2614 30.3391 25.0792 30.3164C24.6892 30.2997 24.1701 30.3184 23.7693 30.3204L22.0585 30.3312L20.7654 30.3361C18.2007 30.4749 15.0895 30.2051 12.6253 30.3843C11.7369 30.4828 10.5787 30.3784 9.65879 30.342L7.89289 30.3125C7.41719 30.3007 7.02816 30.3361 6.55837 30.3735C6.11221 30.0308 4.8683 25.8322 4.57874 24.9962L0 11.4381L12.2599 2.64584C13.4506 1.80492 14.7753 0.786761 15.9719 0Z" fill="var(--fill-0, #E00000)"/>
<path id="Vector_2" d="M23.8098 18.4938C23.818 18.2619 23.9805 18.0483 24.1921 17.9531C24.6124 17.764 25.095 18.0594 25.1007 18.5202C25.1457 22.1885 25.1073 25.9833 25.0831 29.6536C25.0807 30.0159 24.7817 30.3072 24.4194 30.3118C24.0634 30.3163 23.7711 30.03 23.7721 29.674C23.7829 26.008 23.6814 22.1114 23.8098 18.4938Z" fill="var(--fill-0, #111111)"/>
<path id="Vector_3" d="M6.61337 18.4403C6.62843 17.9868 7.10393 17.7052 7.51387 17.8997C7.73711 18.0057 7.87951 18.2306 7.87979 18.4777L7.89244 29.711C7.89282 30.0408 7.61744 30.3049 7.28808 30.3214C6.91218 30.3402 6.60623 30.0183 6.62565 29.6424C6.677 28.6486 6.61848 27.4369 6.6364 26.5542C6.69 23.955 6.5257 21.0807 6.61337 18.4403Z" fill="var(--fill-0, #111111)"/>
<path id="Vector_4" d="M9.66009 19.2936C9.66427 18.9498 9.94314 18.6744 10.287 18.6715C10.6487 18.6684 10.95 18.9583 10.9501 19.32L10.9547 30.1557C10.9547 30.2549 11.0082 30.3354 11.1073 30.3361C11.3216 30.3376 11.3478 30.4203 11.1337 30.4125C10.7377 30.3981 10.3398 30.374 9.96892 30.3555C9.79562 30.3469 9.65878 30.2043 9.65879 30.0308C9.65893 26.4867 9.61699 22.8357 9.66009 19.2936Z" fill="var(--fill-0, #111111)"/>
<path id="Vector_5" d="M20.7492 19.2766C20.7486 18.8958 21.0833 18.6076 21.4614 18.652C21.797 18.6915 22.0647 18.9689 22.0646 19.3068L22.0602 29.686C22.06 30.0424 21.7718 30.3316 21.4154 30.3329C21.0574 30.3343 20.7663 30.0448 20.7657 29.6868L20.7492 19.2766Z" fill="var(--fill-0, #111111)"/>
<path id="Vector_6" d="M15.5955 20.966C17.6894 20.839 19.3401 22.2382 19.7242 24.3415C19.7842 24.6684 19.6848 24.9136 19.4819 25.1647C18.431 25.7712 17.9455 24.5266 16.3273 24.2588L16.2032 24.2401C14.454 24.308 14.5269 24.824 13.1333 25.2494C11.4107 25.7762 11.9623 23.6965 12.6074 22.8999C13.5666 21.7153 14.0886 21.2516 15.5955 20.966Z" fill="var(--fill-0, #111111)"/>
<path id="Vector_7" d="M6.87998 14.5404C7.05769 14.398 7.31167 14.3837 7.53943 14.3829C8.9438 14.3782 10.3489 14.3574 11.7531 14.3492C11.838 14.3488 11.9212 14.3473 12.0028 14.3464C12.8514 14.3371 13.41 15.193 12.9449 15.9029C12.6726 16.3186 12.2783 16.6901 11.9698 16.9271C10.1477 18.0133 8.25873 17.3141 6.95277 15.7593C6.76775 15.539 6.67975 15.347 6.66751 15.1146C6.65636 14.9029 6.7146 14.673 6.87998 14.5404Z" fill="var(--fill-0, #111111)"/>
<path id="Vector_8" d="M19.363 16.6609C18.0634 15.6484 19.6582 14.3467 21.3054 14.3173C22.7839 14.2909 24.3507 14.321 24.6668 14.5923C24.8303 14.7321 24.9426 14.9192 24.9239 15.1427C24.8874 15.5866 24.5236 15.9848 24.1864 16.3181C24.0131 16.4894 23.8294 16.6512 23.6225 16.7801C23.3066 16.9769 22.9468 17.1501 22.6133 17.248C21.6747 17.5335 20.6603 17.4272 19.8015 16.9516C19.6543 16.8698 19.5055 16.772 19.363 16.6609Z" fill="var(--fill-0, #111111)"/>
<path id="Vector_9" d="M11.1583 9.8457C11.5946 9.4459 12.3188 9.18961 12.6131 9.70303C12.7069 9.8667 12.7348 10.0864 12.6822 10.2676C12.633 10.4367 12.5476 10.5873 12.4225 10.7344C11.0269 12.3798 8.74293 13.591 6.63231 13.8371C6.45278 13.8496 6.30969 13.8272 6.1944 13.7745C5.71437 13.5547 5.65728 12.6132 6.17041 12.4891C8.62937 11.8934 9.54305 11.3259 11.1583 9.8457Z" fill="var(--fill-0, #111111)"/>
<path id="Vector_10" d="M19.763 11.2358C18.6523 10.1668 20.3062 9.58984 21.4782 10.5912C22.0956 11.1188 22.7309 11.6342 23.2249 11.8207C23.3897 11.8829 23.5874 11.9386 23.799 11.9938C25.8342 12.5248 24.0524 13.8988 22.1751 12.9503C21.2866 12.5014 20.467 11.9136 19.763 11.2358Z" fill="var(--fill-0, #111111)"/>
</g>
</svg>
