<svg preserveAspectRatio="none" width="100%" height="100%" overflow="visible" style="display: block;" viewBox="0 0 32 30.4464" fill="none" xmlns="http://www.w3.org/2000/svg">
<g id="Group 229">
<path id="Vector" d="M15.9092 0C16.2462 0.113488 19.0654 2.24706 19.571 2.6122L32 11.5867C31.398 13.2278 30.8432 15.1907 30.2836 16.8831C28.7812 21.4118 27.2559 25.9326 25.708 30.4464L16.2292 30.4405H6.33604L0 11.5117C1.05438 10.6176 2.83513 9.46788 3.98239 8.59649C7.84693 5.66257 12.086 2.96352 15.9092 0Z" fill="var(--fill-0, #E00000)"/>
<path id="Vector_2" d="M4.86789 12.3042C4.47971 11.5305 5.51043 10.7589 6.37599 10.7498C9.21825 10.7198 12.1139 10.7692 14.9373 10.7759C18.5012 10.7535 22.0652 10.753 25.629 10.7748C26.5052 10.7802 27.5773 11.6081 27.1484 12.372C26.7091 13.1543 25.7068 13.4597 25.5536 14.3437C25.2203 16.2674 24.2486 17.7479 21.9264 18.0347C21.8167 18.0483 21.7027 18.0496 21.5926 18.0394C18.9838 17.7979 17.9703 16.2642 17.5742 14.1425C17.4314 13.3772 16.7964 12.7768 16.0179 12.7839C15.2108 12.7912 14.5772 13.4486 14.4283 14.2419C14.2659 15.107 13.9457 15.9413 13.3973 16.6319C12.7514 17.4609 11.7905 17.9849 10.7436 18.0796C9.75028 18.1675 8.60361 17.8418 7.86746 17.1658C6.94394 16.3184 6.59343 15.3823 6.42775 14.3456C6.28572 13.4569 5.27148 13.1086 4.86789 12.3042Z" fill="var(--fill-0, #111111)"/>
<path id="Vector_3" d="M9.40081 19.9287C10.2627 19.9721 10.3706 20.2396 10.8809 20.9531C13.3681 24.4337 17.9669 24.6459 20.7982 21.4514C21.1761 21.0251 21.679 20.2366 22.1367 19.9692C23.3054 19.834 22.9646 21.0932 22.6165 21.7396C22.4215 22.009 22.2125 22.2962 22.0014 22.5518C20.6443 24.2067 18.6784 25.2459 16.5464 25.4354C13.8354 25.6564 9.7903 23.7192 8.99513 20.6501C8.93146 20.4044 9.22827 20.1142 9.40081 19.9287Z" fill="var(--fill-0, #111111)"/>
</g>
</svg>
