<svg preserveAspectRatio="none" width="100%" height="100%" overflow="visible" style="display: block;" viewBox="0 0 32 30.2096" fill="none" xmlns="http://www.w3.org/2000/svg">
<g id="Group 228">
<path id="Vector" d="M15.9635 0C16.3716 0.135555 18.8467 1.96865 19.3593 2.32671C22.2597 4.3197 25.1342 6.35016 27.982 8.41759C29.2668 9.34459 30.7947 10.3681 32 11.3619C31.4961 13.3872 30.4302 16.4901 29.7591 18.5192C28.4577 22.4268 27.1186 26.3217 25.742 30.2034L16.1113 30.2022L6.36155 30.2096C5.68107 28.4547 4.89922 25.9172 4.29773 24.0956C2.91606 19.7999 1.48342 15.5208 0 11.2593C0.675547 10.7435 1.4145 10.2426 2.11647 9.75953C6.74029 6.57799 11.2851 3.08266 15.9635 0Z" fill="var(--fill-0, #E00000)"/>
<path id="Vector_2" d="M9.6338 19.3828L20.394 19.4144C22.126 19.4194 23.5588 20.9542 22.7374 22.4789C22.3125 23.2676 21.7389 23.9855 21.03 24.6835C20.8004 24.8638 20.5746 25.0351 20.3302 25.1949C18.6746 26.274 16.657 26.6487 14.7241 26.2363C12.3923 25.7428 10.3836 24.0787 9.47771 21.8751C9.25157 21.325 9.02501 20.7951 8.98775 20.2269C8.95942 19.7949 9.20197 19.4141 9.6338 19.3828Z" fill="var(--fill-0, #111111)"/>
<path id="Vector_3" d="M20.563 10.7834C21.1301 10.5179 21.7754 10.4082 22.3879 10.5379C23.7691 10.8305 24.7618 12.0045 25.211 13.1741C25.859 14.861 24.2962 15.6633 23.759 13.938C23.3732 12.6989 21.2599 11.8689 20.4679 12.897C19.8715 13.6713 19.8878 14.9196 19.1049 15.68C19.0354 15.7642 18.7794 15.7174 18.7039 15.6776C17.4905 15.0387 18.3843 13.2115 18.883 12.3849C19.3496 11.6116 19.8659 11.11 20.563 10.7834Z" fill="var(--fill-0, #111111)"/>
<path id="Vector_4" d="M9.19509 10.8413C9.9439 10.4765 10.8388 10.4333 11.6162 10.7323C11.9891 10.8758 12.3333 11.0934 12.6869 11.4214C13.0227 11.7329 13.3768 12.2289 13.6466 12.7872C14.527 14.6091 13.0212 15.311 12.1584 13.4806C11.9039 12.9408 11.487 12.4425 10.7035 12.1679C10.6258 12.1414 10.5406 12.1354 10.4606 12.1534C8.45644 12.6047 8.65946 14.2629 8.05137 15.3295C7.86984 15.6479 7.47266 15.9194 7.18478 15.6926C6.12624 14.8582 7.14316 12.9296 7.75087 12.0994C8.16943 11.5277 8.63632 11.1135 9.19509 10.8413Z" fill="var(--fill-0, #111111)"/>
</g>
</svg>
