<svg preserveAspectRatio="none" width="100%" height="100%" overflow="visible" style="display: block;" viewBox="0 0 32 30.512" fill="none" xmlns="http://www.w3.org/2000/svg">
<g id="Group 222">
<path id="Vector" d="M15.8852 0C16.4105 0.0916613 30.1636 10.3406 32 11.4883C31.3878 12.9036 30.4141 16.4294 29.8672 18.0935L25.6712 30.512C22.5746 30.45 19.284 30.5091 16.1721 30.511L6.35664 30.51C4.16477 24.2167 2.18705 17.7787 0 11.4687C1.17738 10.4793 3.18383 9.12168 4.47394 8.17949L15.8852 0Z" fill="var(--fill-0, #E00000)"/>
<path id="Vector_2" d="M15.0917 19.4183C16.7098 19.2619 17.9581 19.4822 19.3438 20.3929C20.6216 21.2328 22.4116 23.546 21.259 25.0428C20.5233 25.9988 18.2519 26.222 17.1062 26.3627C15.3953 26.3912 13.0257 26.4178 11.4946 25.5474C9.45323 24.3878 11.0413 21.5692 12.4539 20.5601C13.3566 19.9149 13.9978 19.6425 15.0917 19.4183Z" fill="var(--fill-0, #111111)"/>
<path id="Vector_3" d="M9.23904 12.4289C9.78424 10.714 12.2283 10.3052 12.8946 11.9768C13.3326 13.0757 13.3576 14.536 12.9506 15.7069C12.4099 17.2629 10.1835 17.6447 9.45014 16.1697C8.92887 15.1214 8.84897 13.6558 9.23904 12.4289Z" fill="var(--fill-0, #111111)"/>
<path id="Vector_4" d="M19.1665 12.3116C19.7313 10.6552 22.1139 10.344 22.7724 11.9654C23.217 13.0604 23.2354 14.5166 22.8241 15.6876C22.2708 17.2629 20.0078 17.6232 19.303 16.1095C18.7991 15.0273 18.7515 13.5287 19.1665 12.3116Z" fill="var(--fill-0, #111111)"/>
</g>
</svg>
