<svg preserveAspectRatio="none" width="100%" height="100%" overflow="visible" style="display: block;" viewBox="0 0 32 30.3058" fill="none" xmlns="http://www.w3.org/2000/svg">
<g id="Group 231">
<path id="Vector" d="M15.9506 0L32 11.4166C30.0022 17.7414 27.9106 24.0362 25.7263 30.299L16.3253 30.3053L6.33863 30.3058C4.19418 24.0528 2.23366 17.5947 0 11.3976C1.41576 10.2829 3.09736 9.17735 4.5653 8.11317C8.33557 5.37998 12.2262 2.79615 15.9506 0Z" fill="var(--fill-0, #E00000)"/>
<path id="Vector_2" d="M9.16379 20.5316C9.35328 20.2713 9.78783 19.9944 10.0155 20.222C11.4996 21.7345 12.0864 23.2663 14.4071 23.8923C16.5158 24.4197 19.0306 23.8894 20.5083 22.2256C20.7125 21.9957 20.9401 21.6217 21.1953 21.2567C21.9444 20.1848 23.2286 20.9414 22.6287 22.1034C20.0615 26.3577 14.4211 27.1917 10.7984 23.7379C10.0494 23.0237 9.12206 22.0438 9.02578 20.9716C9.01055 20.8022 9.07115 20.6588 9.16379 20.5316Z" fill="var(--fill-0, #111111)"/>
<path id="Vector_3" d="M9.17607 12.8565C9.65268 11.1928 12.0303 10.6463 12.7688 12.2114C13.2408 13.2119 13.3323 14.5959 13.0237 15.7996C12.5477 17.6569 9.92244 18.2104 9.27643 16.4051C8.86816 15.2642 8.9044 13.8049 9.17607 12.8565Z" fill="var(--fill-0, #111111)"/>
<path id="Vector_4" d="M19.167 12.8173C19.681 11.2127 21.9222 10.6689 22.6649 12.1813C23.2084 13.2881 23.2879 14.8767 22.8535 16.164C22.3235 17.7345 20.0959 18.2629 19.3617 16.7769C18.8227 15.6859 18.7537 14.1073 19.167 12.8173Z" fill="var(--fill-0, #111111)"/>
</g>
</svg>
