<svg preserveAspectRatio="none" width="100%" height="100%" overflow="visible" style="display: block;" viewBox="0 0 32 30.2122" fill="none" xmlns="http://www.w3.org/2000/svg">
<g id="Group 227">
<path id="Vector" d="M15.9616 0C19.7378 2.66988 23.6145 5.20116 27.3454 7.94803C28.8796 9.0779 30.525 10.149 32 11.3499C29.9972 17.668 27.8969 23.955 25.701 30.2087L16.0739 30.2122L6.361 30.2087C5.63038 28.2531 4.9677 26.1419 4.29123 24.1519C2.82603 19.8848 1.39529 15.6057 0 11.3151C1.33817 10.2341 3.50939 8.80412 4.96376 7.76423L15.9616 0Z" fill="var(--fill-0, #E00000)"/>
<path id="Vector_2" d="M9.71082 20.602C9.73096 20.0589 10.634 20.1452 11.0053 20.5421C11.6791 21.2622 12.292 22.5488 13.1621 23.0726C16.1211 24.8544 19.0416 23.7304 20.6053 20.7575C21.0016 20.0022 22.2045 20.3168 22.0392 21.1536C21.9672 21.5182 21.8013 21.886 21.6608 22.1529C21.07 23.1277 20.2882 24.0116 19.336 24.6468C17.9624 25.5571 16.2786 25.8735 14.6677 25.5242C12.8982 25.1582 9.62023 22.9927 9.71082 20.602Z" fill="var(--fill-0, #111111)"/>
<path id="Vector_3" d="M9.50752 11.9224C10.004 10.8377 11.4559 10.258 12.2837 11.117C13.3239 12.1965 13.501 14.5168 12.7525 16.1621C12.2425 17.2831 10.7221 17.8739 9.8914 16.9647C8.87835 15.8558 8.76833 13.5372 9.50752 11.9224Z" fill="var(--fill-0, #111111)"/>
<path id="Vector_4" d="M20.8101 15.139C18.2976 15.2228 20.0043 13.1087 22.5106 13.3049C22.6695 13.3173 22.8238 13.3333 22.9716 13.3533C24.7736 13.5979 23.0551 15.0931 21.2369 15.126C21.1138 15.1282 20.9688 15.1337 20.8101 15.139Z" fill="var(--fill-0, #111111)"/>
</g>
</svg>
